<?xml version="1.0" encoding="utf-8"?>
<!-- Generator: Adobe Illustrator 21.0.2, SVG Export Plug-In . SVG Version: 6.00 Build 0)  -->
<svg version="1.1" id="Layer_1" xmlns="http://www.w3.org/2000/svg" xmlns:xlink="http://www.w3.org/1999/xlink" x="0px" y="0px"
	 viewBox="0 0 227 231" style="enable-background:new 0 0 227 231;" xml:space="preserve">
<style type="text/css">
	.st0{fill:url(#SVGID_1_);}
	.st1{fill:url(#SVGID_2_);}
	.st2{fill:url(#SVGID_3_);}
	.st3{fill:url(#SVGID_4_);}
	.st4{fill:url(#SVGID_5_);}
	.st5{fill:url(#SVGID_6_);}
	.st6{fill:url(#SVGID_7_);}
	.st7{fill:url(#SVGID_8_);}
	.st8{fill:url(#SVGID_9_);}
	.st9{fill:none;}
	.st10{fill:url(#SVGID_10_);}
	.st11{fill:url(#SVGID_11_);}
	.st12{fill:url(#SVGID_12_);}
</style>
<defs>

  <filter id="sofGlow" height="300%" width="300%" x="-75%" y="-75%">
    <!-- Thicken out the original shape -->
    <feMorphology operator="dilate" radius="4" in="SourceAlpha" result="thicken" />

    <!-- Use a gaussian blur to create the soft blurriness of the glow -->
    <feGaussianBlur in="thicken" stdDeviation="10" result="blurred" />

    <!-- Change the colour -->
    <!-- <feFlood flood-color="rgb(0,186,255)" result="glowColor" /> -->
    <feFlood flood-color="rgb(255,255,255)" result="glowColor" />

    <!-- Color in the glows -->
    <feComposite in="glowColor" in2="blurred" operator="in" result="softGlow_colored" />

    <!--  Layer the effects together -->
    <feMerge>
      <feMergeNode in="softGlow_colored"/>
      <feMergeNode in="SourceGraphic"/>
    </feMerge>

  </filter>
</defs>
<g id="circle" filter="url(#sofGlow)">
	
		<linearGradient id="SVGID_1_" gradientUnits="userSpaceOnUse" x1="50.4515" y1="330.5166" x2="163.3335" y2="150.7425" gradientTransform="matrix(0.9202 0.3915 -0.3915 0.9202 110.6509 -146.717)">
		<stop  offset="0" style="stop-color:#FFFFFF;stop-opacity:0"/>
		<stop  offset="4.647061e-02" style="stop-color:#DDDDDD;stop-opacity:5.866915e-02"/>
		<stop  offset="0.1251" style="stop-color:#AAAAAA;stop-opacity:0.1579"/>
		<stop  offset="0.2073" style="stop-color:#7C7C7C;stop-opacity:0.2617"/>
		<stop  offset="0.2916" style="stop-color:#565656;stop-opacity:0.3682"/>
		<stop  offset="0.3784" style="stop-color:#373737;stop-opacity:0.4778"/>
		<stop  offset="0.4686" style="stop-color:#1F1F1F;stop-opacity:0.5917"/>
		<stop  offset="0.5636" style="stop-color:#0D0D0D;stop-opacity:0.7116"/>
		<stop  offset="0.6665" style="stop-color:#030303;stop-opacity:0.8415"/>
		<stop  offset="0.7921" style="stop-color:#000000"/>
	</linearGradient>
	<path class="st0" d="M211.2,154.8c0.6-1.6,1.1-3.2,1.7-4.8c0.6-1.6,1-3.3,1.5-4.9c0.5-1.6,0.8-3.3,1.3-5c3-13.3,3.6-27.1,1.5-40.6
		c-1-6.7-2.7-13.4-4.9-19.8c-2.2-6.5-5.1-12.7-8.6-18.6c-3.5-5.9-7.5-11.5-12.1-16.7c-4.6-5.1-9.7-9.8-15.2-14
		c-11.1-8.2-23.9-14.3-37.4-17.3c-1.7-0.4-3.4-0.7-5.1-1c-1.7-0.3-3.4-0.5-5.1-0.8c-1.7-0.2-3.4-0.3-5.2-0.5
		c-1.7-0.1-3.5-0.2-5.2-0.2c-6.9-0.2-13.8,0.5-20.6,1.7C84.2,14.7,71.3,20,59.9,27.3c-5.7,3.7-11.1,7.9-16,12.6
		c-4.9,4.7-9.4,9.8-13.4,15.3c-4,5.5-7.5,11.3-10.4,17.5c-2.9,6.1-5.2,12.5-7,19.1c-1.7,6.6-2.8,13.4-3.3,20.2
		c-0.4,6.8-0.2,13.7,0.7,20.5c0.9,6.8,2.4,13.6,4.7,20.1c0.6,1.6,1.2,3.3,1.8,4.9c0.7,1.6,1.3,3.2,2.1,4.8c0.8,1.5,1.5,3.1,2.3,4.6
		c0.9,1.5,1.7,3.1,2.6,4.5c7.1,11.9,16.8,22.3,28,30.6c5.6,4.1,11.7,7.6,18,10.5c6.3,2.9,12.9,5.2,19.7,6.7
		c13.6,3.1,27.7,3.6,41.4,1.3c13.7-2.3,26.9-7.3,38.6-14.7c11.7-7.4,21.7-17.2,29.6-28.4c3.9-5.6,7.3-11.6,10.1-17.9
		C210,158,210.5,156.4,211.2,154.8z M207,158.5c-2.9,6-6.4,11.7-10.4,17.1c-4,5.3-8.5,10.2-13.5,14.6c-4.9,4.4-10.3,8.3-16,11.7
		c-11.4,6.7-24,11.3-37,13.3c-13,2-26.4,1.4-39.1-1.8c-6.4-1.6-12.6-3.7-18.5-6.5c-6-2.7-11.6-6.1-17-9.9c-3.7-2.6-7.2-5.5-10.4-8.6
		c-0.8,0.8-1.5,1.7-2.3,2.7c0.2-1.3,0.5-2.7,0.8-4c-1-1-2-2-2.9-3c-4.5-4.8-8.5-10-12-15.6c0-0.1-0.1-0.1-0.1-0.2
		c-0.3,1-0.6,2-0.8,3c-0.7-1.9-1.1-4-1.1-6.1c-0.2-0.3-0.4-0.6-0.5-0.9c-0.8-1.4-1.5-2.9-2.3-4.4c-0.8-1.5-1.4-3-2.1-4.4
		c-0.7-1.5-1.3-3-1.9-4.6c-0.4-1-0.8-2-1.1-3c-0.4,0.8-0.7,1.6-1.1,2.4c-0.2-2-0.3-4-0.2-6c-1.3-4.1-2.4-8.2-3.2-12.4
		c-2.5-13-2.4-26.7,0.4-39.8c1.4-6.6,3.5-13,6.2-19.1C23.6,66.9,27,61,31,55.5c4-5.4,8.5-10.5,13.5-15c5-4.5,10.4-8.5,16.2-11.9
		c11.6-6.8,24.5-11.1,37.7-12.8c6.6-0.9,13.2-1.1,19.8-0.7c1.6,0.1,3.3,0.2,4.9,0.4c1.6,0.2,3.3,0.4,4.9,0.6
		c1.6,0.3,3.3,0.5,4.9,0.8c1.6,0.4,3.2,0.7,4.8,1.1c6.4,1.6,12.6,3.7,18.6,6.5c6,2.8,11.7,6,17.1,9.8c2.7,1.9,5.3,3.9,7.8,6
		c-0.1-1.3-0.3-2.6-0.6-3.9c2,2.1,3.5,4.7,4.7,7.5c4,3.8,7.8,7.9,11.1,12.4c-0.1-0.9-0.2-1.8-0.4-2.7c1.7,1.8,3,4.1,4,6.6
		c0.2,0.7,0.5,1.4,0.7,2.1c0.1,0.1,0.2,0.3,0.3,0.4c2.9,4.5,5.5,9.3,7.7,14.3c0.1-0.4,0.1-0.8,0.2-1.1c1.1,2.3,1.8,4.7,2.3,7.2
		c1.9,5.4,3.4,11,4.4,16.7c2.2,13.2,1.7,26.9-1.5,39.9c-0.4,1.6-0.8,3.2-1.3,4.8c-0.5,1.6-1,3.2-1.6,4.8c-0.6,1.6-1.2,3.1-1.8,4.7
		C208.4,155.4,207.7,157,207,158.5z"/>
	
		<linearGradient id="SVGID_2_" gradientUnits="userSpaceOnUse" x1="35.1726" y1="324.3851" x2="199.1034" y2="296.9497" gradientTransform="matrix(0.9202 0.3915 -0.3915 0.9202 110.6509 -146.717)">
		<stop  offset="0" style="stop-color:#FFFFFF;stop-opacity:0"/>
		<stop  offset="0.104" style="stop-color:#D5D5D5;stop-opacity:0.1281"/>
		<stop  offset="0.301" style="stop-color:#8A8A8A;stop-opacity:0.3707"/>
		<stop  offset="0.4774" style="stop-color:#4F4F4F;stop-opacity:0.588"/>
		<stop  offset="0.6266" style="stop-color:#242424;stop-opacity:0.7718"/>
		<stop  offset="0.7429" style="stop-color:#0A0A0A;stop-opacity:0.915"/>
		<stop  offset="0.8119" style="stop-color:#000000"/>
	</linearGradient>
	<path class="st1" d="M27.8,171.3c0.2-1,0.5-2,0.8-3c-0.6-1-1.3-2.1-1.9-3.1C26.8,167.3,27.1,169.4,27.8,171.3z"/>
	
		<linearGradient id="SVGID_3_" gradientUnits="userSpaceOnUse" x1="10.8515" y1="179.0626" x2="174.7823" y2="151.6273" gradientTransform="matrix(0.9202 0.3915 -0.3915 0.9202 110.6509 -146.717)">
		<stop  offset="0" style="stop-color:#FFFFFF;stop-opacity:0"/>
		<stop  offset="0.104" style="stop-color:#D5D5D5;stop-opacity:0.1281"/>
		<stop  offset="0.301" style="stop-color:#8A8A8A;stop-opacity:0.3707"/>
		<stop  offset="0.4774" style="stop-color:#4F4F4F;stop-opacity:0.588"/>
		<stop  offset="0.6266" style="stop-color:#242424;stop-opacity:0.7718"/>
		<stop  offset="0.7429" style="stop-color:#0A0A0A;stop-opacity:0.915"/>
		<stop  offset="0.8119" style="stop-color:#000000"/>
	</linearGradient>
	<path class="st2" d="M200,60.1c-0.9-2.5-2.3-4.8-4-6.6c0.2,0.9,0.3,1.8,0.4,2.7c1.5,1.9,2.9,3.9,4.2,6
		C200.4,61.5,200.2,60.8,200,60.1z"/>
	
		<linearGradient id="SVGID_4_" gradientUnits="userSpaceOnUse" x1="18.4047" y1="307.9247" x2="168.4842" y2="295.8079" gradientTransform="matrix(0.9202 0.3915 -0.3915 0.9202 110.6509 -146.717)">
		<stop  offset="0" style="stop-color:#FFFFFF;stop-opacity:0"/>
		<stop  offset="0.104" style="stop-color:#D5D5D5;stop-opacity:0.1281"/>
		<stop  offset="0.301" style="stop-color:#8A8A8A;stop-opacity:0.3707"/>
		<stop  offset="0.4774" style="stop-color:#4F4F4F;stop-opacity:0.588"/>
		<stop  offset="0.6266" style="stop-color:#242424;stop-opacity:0.7718"/>
		<stop  offset="0.7429" style="stop-color:#0A0A0A;stop-opacity:0.915"/>
		<stop  offset="0.8119" style="stop-color:#000000"/>
	</linearGradient>
	<path class="st3" d="M17.6,150.3c0.3-0.8,0.7-1.6,1.1-2.4c-0.4-1.2-0.8-2.4-1.2-3.6C17.3,146.3,17.4,148.4,17.6,150.3z"/>
	
		<linearGradient id="SVGID_5_" gradientUnits="userSpaceOnUse" x1="6.0148" y1="154.4621" x2="156.0943" y2="142.3454" gradientTransform="matrix(0.9202 0.3915 -0.3915 0.9202 110.6509 -146.717)">
		<stop  offset="0" style="stop-color:#FFFFFF;stop-opacity:0"/>
		<stop  offset="0.104" style="stop-color:#D5D5D5;stop-opacity:0.1281"/>
		<stop  offset="0.301" style="stop-color:#8A8A8A;stop-opacity:0.3707"/>
		<stop  offset="0.4774" style="stop-color:#4F4F4F;stop-opacity:0.588"/>
		<stop  offset="0.6266" style="stop-color:#242424;stop-opacity:0.7718"/>
		<stop  offset="0.7429" style="stop-color:#0A0A0A;stop-opacity:0.915"/>
		<stop  offset="0.8119" style="stop-color:#000000"/>
	</linearGradient>
	<path class="st4" d="M180.6,36.4c0.3,1.3,0.5,2.6,0.6,3.9c1.4,1.2,2.7,2.4,4.1,3.6C184.1,41.1,182.6,38.5,180.6,36.4z"/>
	
		<linearGradient id="SVGID_6_" gradientUnits="userSpaceOnUse" x1="58.0773" y1="337.2611" x2="216.7276" y2="310.7094" gradientTransform="matrix(0.9202 0.3915 -0.3915 0.9202 110.6509 -146.717)">
		<stop  offset="0" style="stop-color:#FFFFFF;stop-opacity:0"/>
		<stop  offset="0.104" style="stop-color:#D5D5D5;stop-opacity:0.1281"/>
		<stop  offset="0.301" style="stop-color:#8A8A8A;stop-opacity:0.3707"/>
		<stop  offset="0.4774" style="stop-color:#4F4F4F;stop-opacity:0.588"/>
		<stop  offset="0.6266" style="stop-color:#242424;stop-opacity:0.7718"/>
		<stop  offset="0.7429" style="stop-color:#0A0A0A;stop-opacity:0.915"/>
		<stop  offset="0.8119" style="stop-color:#000000"/>
	</linearGradient>
	<path class="st5" d="M42.9,191.1l0.8-4C43.3,188.4,43,189.7,42.9,191.1z"/>
	
		<linearGradient id="SVGID_7_" gradientUnits="userSpaceOnUse" x1="58.0773" y1="337.2611" x2="216.7276" y2="310.7094" gradientTransform="matrix(0.9202 0.3915 -0.3915 0.9202 110.6509 -146.717)">
		<stop  offset="0" style="stop-color:#FFFFFF;stop-opacity:0"/>
		<stop  offset="0.104" style="stop-color:#D5D5D5;stop-opacity:0.1281"/>
		<stop  offset="0.301" style="stop-color:#8A8A8A;stop-opacity:0.3707"/>
		<stop  offset="0.4774" style="stop-color:#4F4F4F;stop-opacity:0.588"/>
		<stop  offset="0.6266" style="stop-color:#242424;stop-opacity:0.7718"/>
		<stop  offset="0.7429" style="stop-color:#0A0A0A;stop-opacity:0.915"/>
		<stop  offset="0.8119" style="stop-color:#000000"/>
	</linearGradient>
	<path class="st6" d="M42.9,191.1c0.7-0.9,1.5-1.8,2.3-2.7c-0.5-0.4-0.9-0.9-1.4-1.4L42.9,191.1z"/>
	
		<linearGradient id="SVGID_8_" gradientUnits="userSpaceOnUse" x1="66.271" y1="340.4498" x2="179.153" y2="160.6757" gradientTransform="matrix(0.9202 0.3915 -0.3915 0.9202 110.6509 -146.717)">
		<stop  offset="0" style="stop-color:#FFFFFF;stop-opacity:0"/>
		<stop  offset="4.647061e-02" style="stop-color:#DDDDDD;stop-opacity:5.866915e-02"/>
		<stop  offset="0.1251" style="stop-color:#AAAAAA;stop-opacity:0.1579"/>
		<stop  offset="0.2073" style="stop-color:#7C7C7C;stop-opacity:0.2617"/>
		<stop  offset="0.2916" style="stop-color:#565656;stop-opacity:0.3682"/>
		<stop  offset="0.3784" style="stop-color:#373737;stop-opacity:0.4778"/>
		<stop  offset="0.4686" style="stop-color:#1F1F1F;stop-opacity:0.5917"/>
		<stop  offset="0.5636" style="stop-color:#0D0D0D;stop-opacity:0.7116"/>
		<stop  offset="0.6665" style="stop-color:#030303;stop-opacity:0.8415"/>
		<stop  offset="0.7921" style="stop-color:#000000"/>
	</linearGradient>
	<path class="st7" d="M42.9,191.1c0.7-0.9,1.5-1.8,2.3-2.7c-0.5-0.4-0.9-0.9-1.4-1.4L42.9,191.1z"/>
	
		<linearGradient id="SVGID_9_" gradientUnits="userSpaceOnUse" x1="34.0524" y1="193.7082" x2="192.7027" y2="167.1566" gradientTransform="matrix(0.9202 0.3915 -0.3915 0.9202 110.6509 -146.717)">
		<stop  offset="0" style="stop-color:#FFFFFF;stop-opacity:0"/>
		<stop  offset="0.104" style="stop-color:#D5D5D5;stop-opacity:0.1281"/>
		<stop  offset="0.301" style="stop-color:#8A8A8A;stop-opacity:0.3707"/>
		<stop  offset="0.4774" style="stop-color:#4F4F4F;stop-opacity:0.588"/>
		<stop  offset="0.6266" style="stop-color:#242424;stop-opacity:0.7718"/>
		<stop  offset="0.7429" style="stop-color:#0A0A0A;stop-opacity:0.915"/>
		<stop  offset="0.8119" style="stop-color:#000000"/>
	</linearGradient>
	<path class="st8" d="M211,83.1c-0.5-2.5-1.2-4.9-2.3-7.2c0,0.4-0.1,0.8-0.2,1.1c0.5,1.1,1,2.3,1.4,3.4
		C210.3,81.3,210.7,82.2,211,83.1z"/>
</g>
<g id="white_space">
	<path class="st9" d="M48.6,177.4c1.5-2.1,3.4-4,5.4-5.7c2-1.7,4.2-3.1,6.4-4.5c4.5-2.6,9.2-4.5,13.8-6.2c4.6-1.6,9.2-3.2,13.8-4.5
		c9.1-2.6,18.2-4.7,27.3-6.5l6.5-1.3c2.1-0.4,4.2-0.9,6.3-1.4c4.2-1,8.5-2.2,12.7-3.4c4.2-1.3,8.3-2.6,12.3-4.1
		c4-1.5,7.9-3.1,11.4-4.8c1.7-0.8,3.5-1.8,5.2-2.9c1.7-1,3.4-2.1,5.1-3.3c3.3-2.3,6.5-4.9,9.4-7.8c6-5.7,11.2-12.3,15.4-19.9
		c1.1-1.9,2-3.9,3-5.9c1-2.1,1.8-4.1,2.6-6.2c1.5-3.9,2.7-7.9,3.4-12.2c-2.2-5-4.7-9.8-7.7-14.3c-0.1-0.1-0.2-0.3-0.3-0.4
		c0.5,1.8,0.8,3.8,0.9,5.7c0.2,2.7,0,5.4-0.4,8c-0.4,2.6-1,5.2-1.8,7.8c-1.6,5.1-3.7,9.9-6.5,14.5c-2.8,4.7-6.2,8.9-9.9,12.8
		c-3.8,3.9-7.9,7.3-12.3,10.4c-4.4,3-9,5.7-13.8,8c-4.8,2.3-9.8,4.2-14.8,5.7c-2.5,0.8-5,1.4-7.5,2c-2.5,0.6-5,1.1-7.5,1.6
		c-10,1.9-19.8,2.8-29.3,3.6l-14.1,1.2c-4.7,0.4-9.2,0.8-13.6,1.4c-2.2,0.3-4.4,0.6-6.5,1c-2.2,0.4-4.2,0.8-6.2,1.4
		c-4.1,1.2-8.3,2.7-12.2,4.7c-2,1-3.8,2.1-5.6,3.3c-1.8,1.2-3.5,2.6-5.1,4.1c-1.5,1.5-2.9,3.2-4,5.2c-0.6,1.1-1.2,2.4-1.6,3.7
		c0,0.1,0.1,0.1,0.1,0.2c3.5,5.5,7.5,10.8,12,15.6c1,1,1.9,2,2.9,3C44.7,183.7,46.3,180.3,48.6,177.4z"/>
	<path class="st9" d="M28.7,155.9c2.1-5,5.6-9.4,9.4-13.1c3.9-3.7,8.2-6.9,12.8-9.6c2.3-1.3,4.9-2.5,7.3-3.6c2.5-1,4.9-1.9,7.4-2.7
		c5-1.6,9.9-2.8,14.7-3.9c2.4-0.5,4.7-1,7.2-1.5c2.4-0.5,4.8-0.9,7.2-1.3c9.6-1.7,18.9-2.9,27.8-4.6c2.2-0.4,4.4-0.8,6.6-1.3
		c2.2-0.5,4.3-1,6.4-1.5c4.2-1.1,8.3-2.4,12.4-3.9c4-1.5,8-3.2,11.8-5.2c3.8-2,7.5-4.1,11-6.6c3.4-2.5,6.8-5.2,9.8-8.2
		c1.5-1.5,3-3.1,4.4-4.8c1.4-1.7,2.8-3.4,4-5.2c2.5-3.6,4.7-7.5,6.1-11.7c1.2-3.4,1.8-7,1.4-10.9c-3.4-4.4-7.1-8.6-11.1-12.4
		c0.8,1.9,1.3,4,1.7,6.1c0.4,2.6,0.4,5.3,0.1,8c-0.3,2.7-1,5.4-1.9,7.9c-1.9,5.1-4.8,9.8-8.3,13.9c-0.9,1-1.8,2-2.7,3
		c-1,1-1.9,1.9-2.9,2.8c-2,1.8-4.2,3.4-6.4,4.9c-4.4,3-9.1,5.4-13.8,7.4c-2.4,1-4.7,1.9-7.1,2.7c-2.4,0.9-4.7,1.6-7.1,2.3
		c-9.5,2.8-19.2,4.5-28.6,5.8c-9.4,1.3-18.7,2.2-27.9,3.1l-3.1,0.3c-1,0.1-2,0.3-3.1,0.4c-2,0.3-4.1,0.7-6.2,1.2
		c-4.1,0.9-8.3,2.1-12.4,3.5c-4.1,1.4-8.2,2.9-12.2,4.8c-1,0.5-2,0.9-3,1.4l-1.4,0.7c-0.4,0.2-0.8,0.4-1.3,0.7
		c-1.7,0.9-3.3,2.1-4.9,3.5c-3.2,2.7-6.1,6-8.7,9.7c-2.1,3-4,6.3-5.6,9.8c0.4,1,0.7,2,1.1,3c0.6,1.5,1.2,3.1,1.9,4.6
		c0.7,1.5,1.4,3,2.1,4.4c0.8,1.4,1.5,2.9,2.3,4.4c0.2,0.3,0.4,0.6,0.5,0.9c0-0.5,0-1,0-1.5C27,161.1,27.7,158.4,28.7,155.9z"/>
	<path class="st9" d="M19.8,132.1c0.4-1.2,0.9-2.4,1.3-3.6c1-2.4,2.2-4.7,3.6-6.9c1.4-2.3,3.1-4.4,5.1-6.4c0.5-0.5,1-1,1.5-1.5
		c0.5-0.5,1-0.9,1.5-1.3c1-0.8,1.9-1.6,2.9-2.4c4-3.2,8.2-5.9,12.6-8.4c4.4-2.5,9-4.6,13.8-6.4c1.2-0.5,2.4-0.9,3.7-1.3
		c1.2-0.4,2.5-0.8,3.7-1.1c1.3-0.4,2.5-0.7,3.8-1l1.9-0.4l1-0.2l0.9-0.2c9.4-1.8,18.7-3.1,27.8-4.4c9.1-1.3,18-2.6,26.6-4.4
		c4.3-0.9,8.6-1.9,12.7-3c4.1-1.1,8-2.5,11.7-4.1c1.9-0.8,3.7-1.7,5.4-2.7l1.3-0.8l1.3-0.8c0.8-0.6,1.7-1.1,2.5-1.7
		c3.3-2.4,6.3-5.1,8.7-8.3c2.5-3.1,4.3-6.8,5.3-10.9c0.7-3,0.9-6.3,0.6-9.6c-2.5-2.1-5.1-4.1-7.8-6c-5.4-3.8-11.2-7.1-17.1-9.8
		c-6-2.7-12.2-4.9-18.6-6.5c-1.6-0.4-3.2-0.7-4.8-1.1c-1.6-0.3-3.3-0.5-4.9-0.8c-1.6-0.3-3.3-0.4-4.9-0.6c-1.6-0.2-3.3-0.3-4.9-0.4
		c-6.6-0.3-13.2-0.1-19.8,0.7c-13.2,1.7-26.1,6-37.7,12.8C54.8,32,49.4,36,44.4,40.5c-5,4.5-9.5,9.6-13.5,15
		C27,61,23.6,66.9,20.9,73c-2.7,6.2-4.9,12.6-6.2,19.1c-2.8,13.1-2.9,26.7-0.4,39.8c0.8,4.2,1.9,8.3,3.2,12.4
		c0.2-2.9,0.6-5.8,1.3-8.6C19.1,134.5,19.4,133.3,19.8,132.1z"/>
	<path class="st9" d="M212.4,144.5c0.5-1.6,0.9-3.2,1.3-4.8c3.2-13,3.7-26.7,1.5-39.9c-1-5.7-2.4-11.3-4.4-16.7
		c0.4,2.4,0.7,4.8,0.7,7.2c0.1,2.5,0,4.9-0.2,7.4c-0.2,2.5-0.5,5-1,7.5c-1.9,9.9-6.1,19.7-12.2,28.1c-3,4.2-6.5,8.2-10.3,11.8
		c-1.9,1.8-3.9,3.5-6,5.1c-2.1,1.6-4.2,3.1-6.6,4.5c-4.6,2.8-9.2,5-13.9,6.9l-3.5,1.4l-3.5,1.3l-3.5,1.2c-1.2,0.4-2.3,0.7-3.5,1.1
		c-4.7,1.5-9.4,2.7-14.3,3.7c-2.4,0.5-4.8,1-7.3,1.4c-1.2,0.2-2.5,0.4-3.7,0.6c-1.2,0.1-2.3,0.3-3.5,0.4c-9.2,1.1-18.5,1.8-27.7,2.3
		c-4.6,0.3-9.1,0.4-13.6,0.9c-4.4,0.4-8.8,0.9-12.9,1.8c-2.1,0.4-4.1,1-6,1.7c-2,0.7-3.9,1.6-5.7,2.7c-2.8,1.6-5.4,3.8-7.8,6.4
		c3.3,3.1,6.8,6,10.4,8.6c5.3,3.8,11,7.2,17,9.9c6,2.7,12.2,4.9,18.5,6.5c12.7,3.1,26.1,3.7,39.1,1.8c13-2,25.6-6.5,37-13.3
		c5.7-3.4,11-7.3,16-11.7c4.9-4.4,9.5-9.3,13.5-14.6c4-5.3,7.5-11,10.4-17.1c0.7-1.5,1.4-3,2.1-4.6c0.7-1.5,1.2-3.1,1.8-4.7
		C211.5,147.7,211.9,146.1,212.4,144.5z"/>
</g>
<g id="swirls" filter="url(#sofGlow)">
	
		<linearGradient id="SVGID_10_" gradientUnits="userSpaceOnUse" x1="22.8978" y1="251.0412" x2="186.8286" y2="223.6058" gradientTransform="matrix(0.9202 0.3915 -0.3915 0.9202 110.6509 -146.717)">
		<stop  offset="0" style="stop-color:#FFFFFF;stop-opacity:0"/>
		<stop  offset="0.104" style="stop-color:#D5D5D5;stop-opacity:0.1281"/>
		<stop  offset="0.301" style="stop-color:#8A8A8A;stop-opacity:0.3707"/>
		<stop  offset="0.4774" style="stop-color:#4F4F4F;stop-opacity:0.588"/>
		<stop  offset="0.6266" style="stop-color:#242424;stop-opacity:0.7718"/>
		<stop  offset="0.7429" style="stop-color:#0A0A0A;stop-opacity:0.915"/>
		<stop  offset="0.8119" style="stop-color:#000000"/>
	</linearGradient>
	<path class="st10" d="M30.2,164.7c1.1-2,2.5-3.7,4-5.2c1.6-1.5,3.3-2.9,5.1-4.1c1.8-1.2,3.7-2.3,5.6-3.3c3.9-2,8-3.5,12.2-4.7
		c2.1-0.6,4.1-1,6.2-1.4c2.1-0.4,4.3-0.7,6.5-1c4.4-0.6,8.9-1,13.6-1.4l14.1-1.2c9.5-0.8,19.3-1.7,29.3-3.6c2.5-0.5,5-1,7.5-1.6
		c2.5-0.6,5-1.3,7.5-2c5-1.5,10-3.4,14.8-5.7c4.8-2.3,9.4-4.9,13.8-8c4.4-3.1,8.5-6.5,12.3-10.4c3.8-3.9,7.1-8.1,9.9-12.8
		c2.8-4.6,4.9-9.5,6.5-14.5c0.8-2.6,1.4-5.1,1.8-7.8c0.4-2.7,0.6-5.3,0.4-8c-0.1-1.9-0.4-3.8-0.9-5.7c-1.3-2-2.7-4-4.2-6
		c0.4,3.9-0.3,7.5-1.4,10.9c-1.5,4.2-3.6,8.1-6.1,11.7c-1.2,1.8-2.6,3.6-4,5.2c-1.4,1.7-2.9,3.3-4.4,4.8c-3,3-6.3,5.7-9.8,8.2
		c-3.5,2.4-7.1,4.6-11,6.6c-3.8,1.9-7.8,3.7-11.8,5.2c-4.1,1.5-8.1,2.8-12.4,3.9c-2.1,0.6-4.3,1.1-6.4,1.5c-2.2,0.5-4.4,0.9-6.6,1.3
		c-8.9,1.7-18.2,3-27.8,4.6c-2.4,0.4-4.8,0.8-7.2,1.3c-2.4,0.5-4.8,1-7.2,1.5c-4.8,1.1-9.8,2.3-14.7,3.9c-2.5,0.8-4.9,1.7-7.4,2.7
		c-2.4,1-5,2.2-7.3,3.6c-4.7,2.7-9,5.8-12.8,9.6c-3.8,3.7-7.2,8.1-9.4,13.1c-1.1,2.5-1.8,5.2-2,7.8c0,0.5,0,1,0,1.5
		c0.6,1,1.2,2.1,1.9,3.1C29,167,29.6,165.8,30.2,164.7z"/>
	
		<linearGradient id="SVGID_11_" gradientUnits="userSpaceOnUse" x1="12.243" y1="231.6046" x2="162.3225" y2="219.4879" gradientTransform="matrix(0.9202 0.3915 -0.3915 0.9202 110.6509 -146.717)">
		<stop  offset="0" style="stop-color:#FFFFFF;stop-opacity:0"/>
		<stop  offset="0.104" style="stop-color:#D5D5D5;stop-opacity:0.1281"/>
		<stop  offset="0.301" style="stop-color:#8A8A8A;stop-opacity:0.3707"/>
		<stop  offset="0.4774" style="stop-color:#4F4F4F;stop-opacity:0.588"/>
		<stop  offset="0.6266" style="stop-color:#242424;stop-opacity:0.7718"/>
		<stop  offset="0.7429" style="stop-color:#0A0A0A;stop-opacity:0.915"/>
		<stop  offset="0.8119" style="stop-color:#000000"/>
	</linearGradient>
	<path class="st11" d="M32.9,128.4c1.6-1.3,3.2-2.5,4.9-3.5c0.4-0.2,0.8-0.5,1.3-0.7l1.4-0.7c1-0.5,2-0.9,3-1.4
		c4-1.8,8-3.4,12.2-4.8c4.1-1.4,8.3-2.6,12.4-3.5c2.1-0.5,4.1-0.9,6.2-1.2c1-0.2,2-0.3,3.1-0.4l3.1-0.3c9.1-0.9,18.4-1.8,27.9-3.1
		c9.4-1.3,19-3.1,28.6-5.8c2.4-0.7,4.8-1.4,7.1-2.3c2.4-0.8,4.7-1.7,7.1-2.7c4.7-2,9.4-4.4,13.8-7.4c2.2-1.5,4.3-3.1,6.4-4.9
		c1-0.9,2-1.8,2.9-2.8c0.9-1,1.8-1.9,2.7-3c3.5-4.1,6.4-8.8,8.3-13.9c0.9-2.6,1.6-5.2,1.9-7.9c0.3-2.7,0.3-5.4-0.1-8
		c-0.3-2.1-0.9-4.2-1.7-6.1c-1.3-1.2-2.7-2.5-4.1-3.6c0.3,3.4,0.1,6.6-0.6,9.6c-1,4.1-2.9,7.8-5.3,10.9c-2.4,3.2-5.5,5.9-8.7,8.3
		c-0.8,0.6-1.7,1.2-2.5,1.7l-1.3,0.8l-1.3,0.8c-1.7,1-3.5,1.9-5.4,2.7c-3.7,1.6-7.7,3-11.7,4.1c-4.1,1.1-8.4,2.1-12.7,3
		c-8.6,1.7-17.5,3.1-26.6,4.4c-9.1,1.3-18.4,2.6-27.8,4.4l-0.9,0.2l-1,0.2l-1.9,0.4c-1.3,0.3-2.6,0.6-3.8,1
		c-1.3,0.4-2.5,0.7-3.7,1.1c-1.2,0.4-2.5,0.8-3.7,1.3c-4.8,1.8-9.4,4-13.8,6.4c-4.4,2.5-8.6,5.3-12.6,8.4c-1,0.8-2,1.6-2.9,2.4
		c-0.5,0.4-0.9,0.8-1.5,1.3c-0.5,0.5-1,1-1.5,1.5c-2,2-3.7,4.1-5.1,6.4c-1.4,2.2-2.7,4.5-3.6,6.9c-0.5,1.2-0.9,2.4-1.3,3.6
		c-0.4,1.2-0.7,2.4-1,3.6c-0.7,2.9-1.1,5.7-1.3,8.6c0.4,1.2,0.8,2.4,1.2,3.6c1.6-3.5,3.5-6.8,5.6-9.8
		C26.8,134.4,29.7,131.1,32.9,128.4z"/>
	
		<linearGradient id="SVGID_12_" gradientUnits="userSpaceOnUse" x1="45.8039" y1="263.9256" x2="204.4543" y2="237.3739" gradientTransform="matrix(0.9202 0.3915 -0.3915 0.9202 110.6509 -146.717)">
		<stop  offset="0" style="stop-color:#FFFFFF;stop-opacity:0"/>
		<stop  offset="0.104" style="stop-color:#D5D5D5;stop-opacity:0.1281"/>
		<stop  offset="0.301" style="stop-color:#8A8A8A;stop-opacity:0.3707"/>
		<stop  offset="0.4774" style="stop-color:#4F4F4F;stop-opacity:0.588"/>
		<stop  offset="0.6266" style="stop-color:#242424;stop-opacity:0.7718"/>
		<stop  offset="0.7429" style="stop-color:#0A0A0A;stop-opacity:0.915"/>
		<stop  offset="0.8119" style="stop-color:#000000"/>
	</linearGradient>
	<path class="st12" d="M58.6,179.4c2-0.7,4-1.3,6-1.7c4.1-0.9,8.5-1.4,12.9-1.8c4.5-0.5,9-0.6,13.6-0.9c9.2-0.5,18.4-1.2,27.7-2.3
		c1.2-0.1,2.3-0.3,3.5-0.4c1.2-0.2,2.5-0.4,3.7-0.6c2.5-0.4,4.9-0.9,7.3-1.4c4.8-1.1,9.6-2.3,14.3-3.7c1.2-0.4,2.3-0.7,3.5-1.1
		l3.5-1.2l3.5-1.3l3.5-1.4c4.6-1.9,9.2-4.1,13.9-6.9c2.4-1.4,4.5-2.9,6.6-4.5c2.1-1.6,4.1-3.3,6-5.1c3.8-3.6,7.3-7.5,10.3-11.8
		c6.1-8.5,10.3-18.2,12.2-28.1c0.4-2.5,0.8-5,1-7.5c0.1-2.5,0.3-4.9,0.2-7.4c-0.1-2.4-0.3-4.8-0.7-7.2c-0.3-0.9-0.6-1.8-1-2.6
		c-0.5-1.2-0.9-2.3-1.4-3.4c-0.6,4.3-1.9,8.3-3.4,12.2c-0.8,2.1-1.7,4.2-2.6,6.2c-0.9,2-1.9,4-3,5.9c-4.2,7.6-9.4,14.2-15.4,19.9
		c-3,2.8-6.1,5.4-9.4,7.8c-1.7,1.2-3.4,2.3-5.1,3.3c-1.7,1-3.5,2-5.2,2.9c-3.5,1.8-7.4,3.4-11.4,4.8c-4,1.5-8.2,2.8-12.3,4.1
		c-4.2,1.2-8.4,2.4-12.7,3.4c-2.1,0.5-4.2,1-6.3,1.4l-6.5,1.3c-9.1,1.8-18.2,3.8-27.3,6.5c-4.6,1.3-9.2,2.9-13.8,4.5
		c-4.6,1.6-9.3,3.6-13.8,6.2c-2.2,1.3-4.4,2.7-6.4,4.5c-2,1.7-3.9,3.6-5.4,5.7c-2.3,3-3.9,6.3-4.8,9.7c0.5,0.5,0.9,0.9,1.4,1.4
		c2.4-2.6,5-4.8,7.8-6.4C54.7,181,56.6,180.1,58.6,179.4z"/>
</g>
</svg>
