<?xml version="1.0" encoding="utf-8"?>
<!-- Generator: Adobe Illustrator 21.0.2, SVG Export Plug-In . SVG Version: 6.00 Build 0)  -->
<svg version="1.1" id="Layer_1" xmlns="http://www.w3.org/2000/svg" xmlns:xlink="http://www.w3.org/1999/xlink" x="0px" y="0px"
	 viewBox="0 0 1223.5 520.5" style="enable-background:new 0 0 1223.5 520.5;" xml:space="preserve">
<style type="text/css">
	.st0{font-family:'Raleway-Light';}
	.st1{font-size:48px;}
</style>
<path d="M0,225.3c0-26.4,5-52.4,14.9-78c10-25.6,24.5-48.6,43.6-68.9S100.8,41.6,128,29s58.3-18.9,93.3-18.9
	c41.9,0,78.1,8.6,108.8,25.9s53.5,40.1,68.6,68.6l-90.8,64.6c-4.1-10.6-9.4-19.3-16.2-26.2c-6.7-6.9-14.1-12.4-22.3-16.5
	c-8.1-4.1-16.6-6.9-25.3-8.5c-8.7-1.6-17.2-2.4-25.3-2.4c-17.1,0-31.8,3.4-44.2,10.1c-12.4,6.7-22.6,15.5-30.5,26.2
	c-7.9,10.8-13.8,23-17.7,36.6s-5.8,27.1-5.8,40.5c0,15,2.2,29.5,6.7,43.3s11,26,19.5,36.6s19,19,31.4,25.3s26.3,9.4,41.8,9.4
	c8.1,0,16.5-0.9,25-2.7c8.5-1.8,16.8-4.9,24.7-9.1c7.9-4.3,15-9.8,21.3-16.5s11.3-14.9,14.9-24.7l96.9,57.9
	c-6.5,15.8-16.4,30.1-29.6,42.7s-28.3,23.2-45.1,31.7c-16.9,8.5-35,15-54.3,19.5s-38.1,6.7-56.4,6.7c-32.1,0-61.5-6.4-88.1-19.2
	c-26.6-12.8-49.6-29.8-68.9-50.9s-34.2-45.1-44.8-71.9C5.3,280.2,0,252.9,0,225.3z"/>
<path d="M447.3,447.4c0-139.8,0-279.6,0-419.3c0-38.9,0,23.8,0-15.1c40.3,0,80.6,0,120.9,0v434.4H447.3z"/>
<path d="M931.8,152.7c-12.2-7.3-24.8-13.8-37.8-19.5c-11-4.9-23.3-9.4-36.9-13.7c-13.6-4.3-26.9-6.4-39.9-6.4
	c-10.6,0-19,1.6-25.3,4.9c-6.3,3.3-9.4,8.7-9.4,16.4c0,5.7,1.8,10.4,5.5,14c3.7,3.7,8.9,7,15.8,10.1c6.9,3,15.3,6,25.3,8.8
	c9.9,2.8,21.2,6.3,33.8,10.4c19.9,6.1,37.9,12.8,53.9,20.1s29.7,15.9,41.1,25.9s20.1,22,26.2,36.2c6.1,14.2,9.1,31.5,9.1,51.8
	c0,26-4.8,47.8-14.3,65.5s-22.1,31.8-37.8,42.3c-15.6,10.6-33.3,18.2-53,22.8c-19.7,4.7-39.5,7-59.4,7c-15.8,0-32.1-1.2-48.7-3.7
	c-16.7-2.4-33.2-5.9-49.6-10.4c-16.4-4.5-32.3-9.7-47.5-15.8c-15.2-6.1-29.3-13-42.3-20.7l51.2-104.2c14.2,8.9,29,16.9,44.5,23.8
	c13,6.1,27.7,11.6,44.2,16.4c16.4,4.9,33.2,7.3,50.3,7.3c13,0,22-1.7,27.1-5.2c5.1-3.4,7.6-8,7.6-13.7c0-6.1-2.5-11.3-7.6-15.5
	c-5.1-4.3-12.1-8-21-11.3c-8.9-3.2-19.2-6.5-30.8-9.7s-23.9-7.1-36.9-11.6c-19.1-6.5-35.5-13.5-49.3-21c-13.8-7.5-25.2-16-34.1-25.6
	c-8.9-9.5-15.5-20.4-19.8-32.6s-6.4-26.2-6.4-42c0-24,4.4-45.1,13.1-63.4c8.7-18.3,20.6-33.5,35.6-45.7s32.2-21.4,51.5-27.7
	s39.7-9.4,61.2-9.4c15.8,0,31.3,1.5,46.3,4.6c15,3,29.5,6.9,43.6,11.6c14,4.7,27.1,9.7,39.3,15.2c12.2,5.5,23.1,10.7,32.9,15.5
	L931.8,152.7z"/>
<text transform="matrix(1 0 0 1 386.5285 501.3943)" class="st0 st1">Comprehensive Immigration Solutions</text>
<g>
	<g>
		<path d="M1183.9,272.2c10,8.1,18.7,18,25.3,29.2c3.3,5.6,6.1,11.5,8.3,17.7c2.2,6.2,3.9,12.6,4.8,19.1c0.9,6.5,1.3,13.2,0.8,19.8
			c-0.1,1.7-0.2,3.3-0.4,5c-0.2,1.6-0.4,3.3-0.7,4.9c-0.3,1.6-0.6,3.3-1,4.9c-0.4,1.6-0.7,3.2-1.2,4.8c-3.6,12.8-10,24.9-18.5,35.1
			c-4.3,5.1-9.1,9.7-14.2,13.8c-5.2,4.1-10.8,7.7-16.6,10.6c-5.9,3-12,5.4-18.3,7.2c-6.3,1.8-12.7,3-19.2,3.7
			c-13,1.3-26.1,0.2-38.7-3.3c-1.6-0.5-3.1-0.9-4.7-1.4c-1.5-0.6-3.1-1-4.6-1.7c-1.5-0.6-3-1.2-4.5-1.8c-1.5-0.7-3-1.3-4.4-2.1
			c-5.9-2.9-11.5-6.3-16.7-10.3c-10.4-8-19.5-18-26.1-29.5c-6.6-11.5-10.9-24.4-12.5-37.7c-1.6-13.3-0.6-26.9,3.1-39.8
			c1.8-6.5,4.3-12.7,7.4-18.7c3.1-5.9,6.8-11.6,11-16.8c4.2-5.2,9-10,14.2-14.2c5.2-4.3,10.7-8,16.7-11.1c1.5-0.8,3-1.5,4.5-2.2
			c1.5-0.7,3.1-1.3,4.6-2c1.5-0.6,3.1-1.1,4.7-1.7c1.6-0.5,3.2-1,4.8-1.5c6.4-1.8,13-2.9,19.6-3.4c13.2-0.9,26.4,0.9,38.8,4.9
			C1162.3,257.8,1173.8,264.1,1183.9,272.2z M1183.4,272.8c-10-8-21.7-13.8-34-17c-12.3-3.2-25.2-3.6-37.6-1.7
			c-24.7,3.8-47.6,16.8-62.9,36.2c-3.8,4.8-7.2,10-10.1,15.4c-2.8,5.4-5.2,11.2-6.9,17.1c-3.6,11.8-4.8,24.3-3.6,36.6
			c2.4,24.6,14.5,48.3,33.8,64.6c9.6,8.1,20.8,14.5,33,18.1c12.1,3.7,25.1,4.8,37.7,3.3c6.3-0.8,12.5-2.2,18.5-4.2
			c6-2.1,11.7-4.7,17.1-7.9c10.8-6.4,20.2-14.9,27.8-24.8c15.2-19.7,22.9-44.7,21.1-69.8c-0.9-12.5-4.1-25-9.9-36.3
			C1201.7,291,1193.4,280.8,1183.4,272.8z"/>
	</g>
	<g>
		<path d="M1117.6,249.7c-0.1,0.1-0.2,0.2-0.4,0.3c22,0.7,58,22.6,45.8,44.9c-16.3,29.8-71.5,47.6-89.7,54.7
			c-40.6,15.8-46.8,20.5-46,25.7l0.2,0.6c1.7,4.2,4.1,9.6,6.1,13.6c-1.7-5.6,7.8-9.6,38-21.7c23-9.2,93.2-33.7,105.2-69.3
			C1189,263,1132.1,249.8,1117.6,249.7z"/>
		<path d="M1217.3,329.7c-2.1-9.7-2.8-12.6-4.7-18.4l-3.1-6.4c24.3,67.1-96.1,111.3-120.7,119c-10.5,3.3-16.3,6-18,7.7
			c0.1,0.4,0.3,1,0.6,1.3c6.5,3.3,6.9,3.5,10.6,4.9l0.7,0.3c-0.1-0.2-0.3-0.5-0.4-0.7c2.2-1.2,2.3-1.3,8.5-3.1
			c54-15.6,81.2-32.9,96.7-45.5C1202.1,376.8,1221.3,355.6,1217.3,329.7z"/>
		<path d="M1078.5,406c77.9-26.9,158.6-73.5,112.8-125.6c-1.7-1.7-4-4.1-5.8-5.8c-6.8-6.2-13.6-10.3-19.8-13.7
			c-2.7-1.4-3.1-1.4-4.7-2.3c74.5,44.4,1.3,101.6-86.3,133.6c-25,9.1-32.2,12.9-29.7,17c2.3,2.4,5.4,5.7,7.9,8l2.4,2.1
			C1052.8,416.3,1057.7,413.2,1078.5,406z"/>
	</g>
</g>
</svg>
