<?xml version="1.0" encoding="utf-8"?>
<!-- Generator: Adobe Illustrator 21.0.2, SVG Export Plug-In . SVG Version: 6.00 Build 0)  -->
<svg version="1.1" id="Layer_1" xmlns="http://www.w3.org/2000/svg" xmlns:xlink="http://www.w3.org/1999/xlink" x="0px" y="0px"
	 viewBox="0 0 1007.8 543.4" style="enable-background:new 0 0 1007.8 543.4;" xml:space="preserve">
<style type="text/css">
	.st0{enable-background:new    ;}
	.st1{display:none;}
	.st2{display:inline;}
	.st3{fill:#707070;}
	.st4{clip-path:url(#SVGID_2_);}
	.st5{fill:#1D1D1D;}
	.st6{clip-path:url(#SVGID_4_);}
	.st7{clip-path:url(#SVGID_6_);}
	.st8{clip-path:url(#SVGID_8_);}
	.st9{fill:url(#SVGID_9_);}
	.st10{fill:url(#SVGID_10_);stroke:url(#SVGID_11_);stroke-width:0.9225;stroke-miterlimit:10;}
	.st11{fill:url(#SVGID_12_);}
	.st12{fill:url(#SVGID_13_);}
</style>
<g class="st0">
	<g>
		<path d="M93.9,507.1c0-2,0.4-4.1,1.1-6.1s1.8-3.8,3.1-5.4c1.4-1.6,3.1-2.9,5.1-3.9s4.3-1.5,6.8-1.5c3,0,5.6,0.7,7.8,2.1
			c2.1,1.4,3.7,3.2,4.8,5.4l-2,1.2c-0.6-1.2-1.3-2.2-2.1-3c-0.8-0.8-1.7-1.4-2.6-1.9s-1.9-0.9-3-1.1c-1-0.2-2-0.3-3-0.3
			c-2.2,0-4.1,0.4-5.8,1.3c-1.7,0.9-3.1,2-4.2,3.4s-2,3-2.6,4.8s-0.9,3.6-0.9,5.4c0,2,0.4,3.9,1.1,5.8c0.7,1.8,1.7,3.4,2.9,4.8
			c1.2,1.4,2.7,2.5,4.3,3.3c1.7,0.8,3.5,1.2,5.4,1.2c1,0,2.1-0.1,3.2-0.4c1.1-0.3,2.1-0.7,3.1-1.2s1.9-1.2,2.8-2.1
			c0.9-0.8,1.6-1.8,2.2-3l2.1,1c-0.6,1.3-1.4,2.4-2.4,3.4s-2.1,1.8-3.3,2.5c-1.2,0.7-2.5,1.2-3.9,1.5s-2.7,0.5-4,0.5
			c-2.3,0-4.5-0.5-6.4-1.5s-3.6-2.4-5-4s-2.5-3.5-3.3-5.6C94.3,511.4,93.9,509.3,93.9,507.1z"/>
		<path d="M139.1,524.9c-1.8,0-3.4-0.3-4.9-1s-2.8-1.6-3.9-2.8c-1.1-1.2-1.9-2.6-2.5-4.1c-0.6-1.6-0.9-3.2-0.9-4.9
			c0-1.8,0.3-3.4,0.9-5c0.6-1.6,1.5-2.9,2.6-4.1s2.4-2.1,3.9-2.8c1.5-0.7,3.1-1,4.8-1s3.3,0.3,4.8,1s2.8,1.6,3.9,2.8s2,2.6,2.6,4.1
			c0.6,1.6,0.9,3.2,0.9,5c0,1.7-0.3,3.4-0.9,4.9c-0.6,1.6-1.5,2.9-2.6,4.1c-1.1,1.2-2.4,2.1-3.9,2.8
			C142.4,524.5,140.8,524.9,139.1,524.9z M129.3,512.1c0,1.5,0.3,2.9,0.8,4.2s1.2,2.4,2.1,3.4c0.9,1,1.9,1.7,3.1,2.3
			c1.2,0.6,2.4,0.8,3.8,0.8c1.3,0,2.6-0.3,3.8-0.8c1.2-0.6,2.2-1.3,3.1-2.3c0.9-1,1.6-2.1,2.1-3.4c0.5-1.3,0.8-2.7,0.8-4.2
			s-0.3-2.9-0.8-4.2c-0.5-1.3-1.2-2.4-2.1-3.4c-0.9-1-1.9-1.8-3.1-2.3c-1.2-0.6-2.4-0.9-3.8-0.9c-1.3,0-2.6,0.3-3.8,0.9
			s-2.2,1.4-3.1,2.4c-0.9,1-1.6,2.2-2.1,3.5C129.6,509.2,129.3,510.6,129.3,512.1z"/>
		<path d="M193.7,524.4h-2.4v-13.9c0-3.2-0.5-5.5-1.5-7s-2.5-2.3-4.5-2.3c-1,0-2,0.2-2.9,0.6s-1.8,0.9-2.5,1.6
			c-0.8,0.7-1.4,1.5-2,2.4s-1,2-1.3,3.1v15.4h-2.4v-13.9c0-3.2-0.5-5.5-1.4-7s-2.4-2.2-4.5-2.2c-1,0-2,0.2-2.9,0.6s-1.8,0.9-2.5,1.6
			c-0.8,0.7-1.4,1.5-2,2.4s-1,2-1.4,3.1v15.5h-2.4v-25h2.3v6c1-2,2.4-3.6,4-4.7c1.7-1.1,3.5-1.7,5.5-1.7c2.1,0,3.8,0.6,5.1,1.9
			c1.3,1.2,2.1,2.9,2.4,4.9c2.4-4.5,5.6-6.8,9.8-6.8c2.7,0,4.7,1,5.8,2.9c1.2,1.9,1.8,4.6,1.8,8.1v14.4H193.7z"/>
		<path d="M213.2,524.9c-2.1,0-4.1-0.6-5.7-1.7c-1.7-1.1-3-2.5-4.1-4.2v15.6H201v-35.2h2.2v5c1-1.6,2.4-2.9,4.1-3.9
			c1.7-1,3.5-1.5,5.4-1.5c1.7,0,3.3,0.4,4.8,1.1s2.7,1.7,3.8,2.9s1.9,2.6,2.5,4.2s0.9,3.2,0.9,4.8c0,1.7-0.3,3.4-0.8,4.9
			c-0.5,1.6-1.3,2.9-2.3,4.1c-1,1.2-2.2,2.1-3.6,2.8C216.4,524.5,214.9,524.9,213.2,524.9z M212.6,522.7c1.4,0,2.8-0.3,3.9-0.9
			c1.2-0.6,2.2-1.4,3-2.4s1.5-2.2,1.9-3.5s0.7-2.6,0.7-4c0-1.4-0.3-2.8-0.8-4.1c-0.5-1.3-1.2-2.4-2.1-3.4c-0.9-1-2-1.8-3.2-2.4
			s-2.5-0.9-3.9-0.9c-0.9,0-1.8,0.2-2.8,0.6s-1.9,0.9-2.8,1.5c-0.9,0.6-1.6,1.3-2.2,2.1c-0.6,0.8-1,1.6-1.1,2.5v8.2
			c0.4,0.9,0.9,1.8,1.6,2.6c0.6,0.8,1.4,1.5,2.2,2.1s1.7,1.1,2.6,1.4C210.6,522.5,211.6,522.7,212.6,522.7z"/>
		<path d="M242.2,501.6c-2.2,0.1-4.2,0.7-5.9,2s-2.9,3-3.5,5.2v15.6h-2.4v-25h2.3v6.1c0.9-1.8,2-3.2,3.4-4.3c1.4-1.1,3-1.7,4.6-1.9
			c0.3,0,0.6,0,0.9,0c0.3,0,0.5,0,0.6,0L242.2,501.6L242.2,501.6z"/>
		<path d="M256.1,524.9c-1.8,0-3.4-0.3-4.9-1s-2.8-1.6-3.9-2.8s-2-2.6-2.6-4.2c-0.6-1.6-0.9-3.2-0.9-5s0.3-3.4,0.9-5
			c0.6-1.6,1.5-2.9,2.6-4.1s2.4-2.1,3.9-2.8c1.5-0.7,3.1-1,4.8-1c1.8,0,3.4,0.3,4.9,1s2.8,1.6,3.9,2.8c1.1,1.2,1.9,2.5,2.5,4.1
			s0.9,3.2,0.9,4.9c0,0.2,0,0.4,0,0.6s0,0.4,0,0.5h-21.9c0.1,1.4,0.4,2.8,1,4s1.3,2.3,2.2,3.2s1.9,1.6,3,2.1
			c1.2,0.5,2.4,0.8,3.7,0.8c0.9,0,1.7-0.1,2.5-0.4c0.8-0.2,1.6-0.6,2.3-1c0.7-0.4,1.4-0.9,1.9-1.5c0.6-0.6,1-1.2,1.3-1.9l2.1,0.6
			c-0.4,0.9-0.9,1.7-1.6,2.5s-1.5,1.4-2.4,1.9s-1.9,1-3,1.3C258.3,524.7,257.2,524.9,256.1,524.9z M265.9,511c-0.1-1.5-0.4-2.8-1-4
			s-1.3-2.3-2.2-3.1c-0.9-0.9-1.9-1.6-3-2.1c-1.2-0.5-2.4-0.7-3.7-0.7s-2.5,0.2-3.7,0.7s-2.2,1.2-3,2.1c-0.9,0.9-1.6,1.9-2.1,3.2
			c-0.5,1.2-0.8,2.6-0.9,4h19.6V511z"/>
		<path d="M293.9,524.4h-2.4v-13.9c0-6.2-2.1-9.3-6.2-9.3c-1,0-2,0.2-3,0.6s-1.9,0.9-2.7,1.6c-0.8,0.7-1.6,1.5-2.2,2.5
			c-0.6,0.9-1.1,2-1.4,3v15.5h-2.4v-35h2.4v16c1-2,2.4-3.5,4.2-4.7c1.8-1.2,3.8-1.7,5.8-1.7c1.4,0,2.6,0.3,3.6,0.8s1.8,1.2,2.5,2.2
			s1.1,2.1,1.4,3.5s0.5,2.9,0.5,4.6L293.9,524.4L293.9,524.4z"/>
		<path d="M311.7,524.9c-1.8,0-3.4-0.3-4.9-1s-2.8-1.6-3.9-2.8s-2-2.6-2.6-4.2c-0.6-1.6-0.9-3.2-0.9-5s0.3-3.4,0.9-5
			s1.5-2.9,2.6-4.1s2.4-2.1,3.9-2.8c1.5-0.7,3.1-1,4.8-1c1.8,0,3.4,0.3,4.9,1s2.8,1.6,3.9,2.8c1.1,1.2,1.9,2.5,2.5,4.1
			s0.9,3.2,0.9,4.9c0,0.2,0,0.4,0,0.6s0,0.4,0,0.5h-21.9c0.1,1.4,0.4,2.8,1,4s1.3,2.3,2.2,3.2c0.9,0.9,1.9,1.6,3,2.1
			c1.2,0.5,2.4,0.8,3.7,0.8c0.9,0,1.7-0.1,2.5-0.4c0.8-0.2,1.6-0.6,2.3-1c0.7-0.4,1.4-0.9,1.9-1.5c0.6-0.6,1-1.2,1.3-1.9l2.1,0.6
			c-0.4,0.9-0.9,1.7-1.6,2.5s-1.5,1.4-2.4,1.9s-1.9,1-3,1.3C314,524.7,312.9,524.9,311.7,524.9z M321.5,511c-0.1-1.5-0.4-2.8-1-4
			s-1.3-2.3-2.2-3.1c-0.9-0.9-1.9-1.6-3-2.1c-1.2-0.5-2.4-0.7-3.7-0.7c-1.3,0-2.5,0.2-3.7,0.7s-2.2,1.2-3,2.1
			c-0.9,0.9-1.6,1.9-2.1,3.2c-0.5,1.2-0.8,2.6-0.9,4h19.6L321.5,511L321.5,511z"/>
		<path d="M349.5,524.4h-2.4v-13.9c0-3.2-0.5-5.6-1.4-7.1s-2.4-2.2-4.3-2.2c-1.1,0-2.1,0.2-3.1,0.6s-2,0.9-2.9,1.6s-1.7,1.5-2.4,2.5
			c-0.7,0.9-1.2,2-1.5,3v15.5h-2.4v-25h2.3v6c0.5-1,1.1-1.8,1.9-2.6c0.8-0.8,1.6-1.5,2.5-2c0.9-0.6,1.9-1,3-1.3s2.1-0.5,3.3-0.5
			c2.7,0,4.6,1,5.8,2.9c1.1,1.9,1.7,4.6,1.7,8.2v14.3H349.5z"/>
		<path d="M364.7,524.9c-1.9,0-3.8-0.3-5.5-1c-1.8-0.6-3.3-1.6-4.6-2.9l1.2-1.6c1.3,1.2,2.7,2.1,4.2,2.7c1.4,0.6,3,0.9,4.8,0.9
			c2.2,0,3.9-0.5,5.3-1.4c1.3-0.9,2-2.2,2-3.8c0-0.8-0.2-1.4-0.5-1.9s-0.8-1-1.5-1.3c-0.7-0.4-1.5-0.7-2.5-1s-2.1-0.6-3.5-0.9
			c-1.4-0.3-2.6-0.6-3.7-1c-1-0.3-1.9-0.7-2.6-1.2s-1.2-1-1.5-1.6s-0.5-1.5-0.5-2.4c0-1.2,0.2-2.3,0.7-3.3c0.5-0.9,1.1-1.7,2-2.3
			c0.8-0.6,1.8-1.1,2.9-1.4s2.3-0.5,3.5-0.5c2,0,3.7,0.3,5.2,1s2.7,1.5,3.5,2.5l-1.3,1.3c-0.8-1-1.9-1.7-3.2-2.2
			c-1.3-0.5-2.7-0.7-4.2-0.7c-0.9,0-1.8,0.1-2.6,0.3c-0.8,0.2-1.5,0.5-2.1,0.9s-1.1,1-1.4,1.6c-0.4,0.7-0.5,1.4-0.5,2.3
			c0,0.7,0.1,1.3,0.4,1.8c0.2,0.4,0.6,0.8,1.2,1.2c0.5,0.3,1.2,0.6,2,0.8c0.8,0.2,1.8,0.5,3,0.8c1.6,0.4,3,0.8,4.2,1.1
			c1.2,0.4,2.2,0.8,3,1.3s1.4,1.1,1.9,1.8c0.4,0.7,0.6,1.6,0.6,2.7c0,2.2-0.9,4-2.6,5.4C369.9,524.2,367.6,524.9,364.7,524.9z"/>
		<path d="M379.8,493.8v-4.4h2.4v4.4H379.8z M379.8,524.4v-25h2.4v25H379.8z"/>
		<path d="M397.4,524.4l-10.4-25h2.5l9.2,22.6l9.3-22.6h2.4l-10.4,25H397.4z"/>
		<path d="M424.8,524.9c-1.8,0-3.4-0.3-4.9-1s-2.8-1.6-3.9-2.8s-2-2.6-2.6-4.2c-0.6-1.6-0.9-3.2-0.9-5s0.3-3.4,0.9-5
			s1.5-2.9,2.6-4.1s2.4-2.1,3.9-2.8c1.5-0.7,3.1-1,4.8-1c1.8,0,3.4,0.3,4.9,1s2.8,1.6,3.9,2.8c1.1,1.2,1.9,2.5,2.5,4.1
			s0.9,3.2,0.9,4.9c0,0.2,0,0.4,0,0.6s0,0.4,0,0.5H415c0.1,1.4,0.4,2.8,1,4s1.3,2.3,2.2,3.2c0.9,0.9,1.9,1.6,3,2.1
			c1.2,0.5,2.4,0.8,3.7,0.8c0.9,0,1.7-0.1,2.5-0.4c0.8-0.2,1.6-0.6,2.3-1c0.7-0.4,1.4-0.9,1.9-1.5c0.6-0.6,1-1.2,1.3-1.9l2.1,0.6
			c-0.4,0.9-0.9,1.7-1.6,2.5s-1.5,1.4-2.4,1.9s-1.9,1-3,1.3S426,524.9,424.8,524.9z M434.6,511c-0.1-1.5-0.4-2.8-1-4
			s-1.3-2.3-2.2-3.1c-0.9-0.9-1.9-1.6-3-2.1c-1.2-0.5-2.4-0.7-3.7-0.7c-1.3,0-2.5,0.2-3.7,0.7s-2.2,1.2-3,2.1
			c-0.9,0.9-1.6,1.9-2.1,3.2c-0.5,1.2-0.8,2.6-0.9,4h19.6L434.6,511L434.6,511z"/>
	</g>
	<g>
		<path d="M455.3,524.4v-34.1h2.4v34.1H455.3z"/>
		<path d="M502.6,524.4h-2.4v-13.9c0-3.2-0.5-5.5-1.5-7s-2.5-2.3-4.5-2.3c-1,0-2,0.2-2.9,0.6s-1.8,0.9-2.5,1.6
			c-0.8,0.7-1.4,1.5-2,2.4s-1,2-1.3,3.1v15.4h-2.4v-13.9c0-3.2-0.5-5.5-1.4-7s-2.4-2.2-4.5-2.2c-1,0-2,0.2-2.9,0.6s-1.8,0.9-2.5,1.6
			c-0.8,0.7-1.4,1.5-2,2.4s-1,2-1.4,3.1v15.5H466v-25h2.3v6c1-2,2.4-3.6,4-4.7c1.7-1.1,3.5-1.7,5.5-1.7c2.1,0,3.8,0.6,5.1,1.9
			c1.3,1.2,2.1,2.9,2.4,4.9c2.4-4.5,5.6-6.8,9.8-6.8c2.7,0,4.7,1,5.8,2.9c1.2,1.9,1.8,4.6,1.8,8.1L502.6,524.4L502.6,524.4z"/>
		<path d="M546.5,524.4h-2.4v-13.9c0-3.2-0.5-5.5-1.5-7s-2.5-2.3-4.5-2.3c-1,0-2,0.2-2.9,0.6s-1.8,0.9-2.5,1.6
			c-0.8,0.7-1.4,1.5-2,2.4s-1,2-1.3,3.1v15.4H527v-13.9c0-3.2-0.5-5.5-1.4-7s-2.4-2.2-4.5-2.2c-1,0-2,0.2-2.9,0.6s-1.8,0.9-2.5,1.6
			c-0.8,0.7-1.4,1.5-2,2.4s-1,2-1.4,3.1v15.5h-2.4v-25h2.3v6c1-2,2.4-3.6,4-4.7c1.7-1.1,3.5-1.7,5.5-1.7c2.1,0,3.8,0.6,5.1,1.9
			c1.3,1.2,2.1,2.9,2.4,4.9c2.4-4.5,5.6-6.8,9.8-6.8c2.7,0,4.7,1,5.8,2.9c1.2,1.9,1.8,4.6,1.8,8.1L546.5,524.4L546.5,524.4z"/>
		<path d="M553.8,493.8v-4.4h2.4v4.4H553.8z M553.8,524.4v-25h2.4v25H553.8z"/>
		<path d="M573.8,524.8c-1.7,0-3.3-0.4-4.8-1.1c-1.4-0.7-2.7-1.7-3.7-2.9s-1.9-2.6-2.4-4.1c-0.6-1.5-0.9-3.1-0.9-4.8
			s0.3-3.3,0.8-4.9c0.6-1.6,1.4-3,2.4-4.2s2.2-2.2,3.7-2.9c1.4-0.7,3-1.1,4.7-1.1c2.2,0,4.1,0.6,5.7,1.7c1.6,1.1,3,2.5,4.1,4.2v-5.4
			h2.2v25.4c0,1.7-0.3,3.2-1,4.5c-0.6,1.3-1.5,2.3-2.6,3.2s-2.3,1.5-3.7,1.9s-2.9,0.6-4.5,0.6c-1.4,0-2.7-0.1-3.9-0.4
			c-1.2-0.3-2.2-0.7-3-1.2s-1.7-1.1-2.4-1.8s-1.3-1.5-1.8-2.4l1.6-1.1c1,1.7,2.3,2.9,4,3.7s3.5,1.2,5.4,1.2c1.3,0,2.5-0.2,3.6-0.5
			c1.1-0.4,2.1-0.9,3-1.6c0.8-0.7,1.5-1.5,2-2.6c0.5-1,0.7-2.2,0.7-3.6v-5.5c-1,1.6-2.4,2.9-4.1,3.9
			C577.4,524.3,575.6,524.8,573.8,524.8z M574.4,522.7c1.1,0,2.1-0.2,3.1-0.6c1-0.4,1.9-0.9,2.7-1.6c0.8-0.6,1.5-1.4,2-2.2
			s0.9-1.6,1-2.4v-8.2c-0.4-1-0.9-1.8-1.5-2.7c-0.6-0.8-1.4-1.5-2.2-2.1s-1.7-1-2.6-1.4c-0.9-0.3-1.9-0.5-2.9-0.5
			c-1.5,0-2.8,0.3-4,1c-1.2,0.6-2.2,1.5-3,2.5s-1.4,2.2-1.9,3.5c-0.4,1.3-0.6,2.6-0.6,3.9c0,1.4,0.3,2.8,0.8,4.1s1.2,2.4,2.1,3.4
			c0.9,1,2,1.8,3.2,2.4S573,522.7,574.4,522.7z"/>
		<path d="M604.9,501.6c-2.2,0.1-4.2,0.7-5.9,2s-2.9,3-3.5,5.2v15.6h-2.4v-25h2.3v6.1c0.9-1.8,2-3.2,3.4-4.3c1.4-1.1,3-1.7,4.6-1.9
			c0.3,0,0.6,0,0.9,0s0.5,0,0.6,0L604.9,501.6L604.9,501.6z"/>
		<path d="M615.3,524.9c-1.2,0-2.2-0.2-3.2-0.6c-1-0.4-1.9-0.9-2.6-1.6c-0.8-0.7-1.3-1.5-1.8-2.4c-0.4-0.9-0.6-2-0.6-3
			s0.3-2.1,0.8-3s1.2-1.7,2.1-2.3c0.9-0.7,2-1.2,3.3-1.5c1.3-0.4,2.7-0.6,4.2-0.6c1.3,0,2.7,0.1,4.1,0.4c1.4,0.2,2.6,0.6,3.7,1v-2.4
			c0-2.4-0.7-4.2-2-5.6s-3.2-2.1-5.5-2.1c-1.2,0-2.5,0.3-3.9,0.8s-2.7,1.2-4.2,2.2l-0.9-1.6c3.2-2.2,6.2-3.3,9.1-3.3
			c3,0,5.4,0.9,7.1,2.6c1.7,1.7,2.6,4.2,2.6,7.2V521c0,0.8,0.4,1.2,1.1,1.2v2.2c-0.2,0-0.3,0.1-0.5,0.1s-0.3,0-0.5,0
			c-0.6,0-1.2-0.2-1.5-0.6c-0.4-0.4-0.6-1-0.7-1.6v-2.1c-1.2,1.5-2.6,2.7-4.4,3.5C619.3,524.5,617.3,524.9,615.3,524.9z M615.7,523
			c1.9,0,3.6-0.4,5.1-1.1c1.6-0.7,2.7-1.6,3.6-2.8c0.5-0.7,0.8-1.3,0.8-1.9v-4.4c-1.2-0.4-2.4-0.8-3.6-1c-1.2-0.2-2.5-0.3-3.9-0.3
			c-1.2,0-2.4,0.1-3.4,0.4c-1,0.3-1.9,0.6-2.6,1.1c-0.7,0.5-1.3,1.1-1.7,1.8s-0.6,1.4-0.6,2.3s0.2,1.6,0.5,2.4
			c0.3,0.7,0.8,1.4,1.3,1.9c0.6,0.5,1.3,0.9,2,1.2C614,522.8,614.8,523,615.7,523z"/>
		<path d="M645.8,523.2c-0.1,0.1-0.3,0.2-0.6,0.4s-0.7,0.3-1.2,0.5s-1,0.3-1.6,0.4c-0.6,0.1-1.2,0.2-1.9,0.2s-1.3-0.1-1.9-0.3
			c-0.6-0.2-1.1-0.5-1.6-0.9c-0.4-0.4-0.8-0.8-1.1-1.4s-0.4-1.2-0.4-1.9v-18.8H632v-2h3.5v-8.5h2.4v8.5h5.8v2h-5.8v18.2
			c0,0.9,0.3,1.6,1,2.1c0.6,0.5,1.4,0.7,2.2,0.7c1,0,1.8-0.2,2.6-0.5s1.2-0.6,1.3-0.6L645.8,523.2z"/>
		<path d="M650.1,493.8v-4.4h2.4v4.4H650.1z M650.1,524.4v-25h2.4v25H650.1z"/>
		<path d="M670.5,524.9c-1.8,0-3.4-0.3-4.9-1s-2.8-1.6-3.9-2.8c-1.1-1.2-1.9-2.6-2.5-4.1c-0.6-1.6-0.9-3.2-0.9-4.9
			c0-1.8,0.3-3.4,0.9-5c0.6-1.6,1.5-2.9,2.6-4.1s2.4-2.1,3.9-2.8c1.5-0.7,3.1-1,4.8-1s3.3,0.3,4.8,1s2.8,1.6,3.9,2.8
			c1.1,1.2,2,2.6,2.6,4.1c0.6,1.6,0.9,3.2,0.9,5c0,1.7-0.3,3.4-0.9,4.9c-0.6,1.6-1.5,2.9-2.6,4.1c-1.1,1.2-2.4,2.1-3.9,2.8
			C673.8,524.5,672.2,524.9,670.5,524.9z M660.7,512.1c0,1.5,0.3,2.9,0.8,4.2s1.2,2.4,2.1,3.4c0.9,1,1.9,1.7,3.1,2.3
			c1.2,0.6,2.4,0.8,3.8,0.8s2.6-0.3,3.8-0.8c1.2-0.6,2.2-1.3,3.1-2.3c0.9-1,1.6-2.1,2.1-3.4s0.8-2.7,0.8-4.2s-0.3-2.9-0.8-4.2
			s-1.2-2.4-2.1-3.4c-0.9-1-1.9-1.8-3.1-2.3s-2.4-0.9-3.8-0.9s-2.6,0.3-3.8,0.9s-2.2,1.4-3.1,2.4c-0.9,1-1.6,2.2-2.1,3.5
			C660.9,509.2,660.7,510.6,660.7,512.1z"/>
		<path d="M708.8,524.4h-2.4v-13.9c0-3.2-0.5-5.6-1.4-7.1s-2.4-2.2-4.3-2.2c-1.1,0-2.1,0.2-3.1,0.6s-2,0.9-2.9,1.6s-1.7,1.5-2.4,2.5
			c-0.7,0.9-1.2,2-1.5,3v15.5h-2.4v-25h2.3v6c0.5-1,1.1-1.8,1.9-2.6c0.8-0.8,1.6-1.5,2.5-2c0.9-0.6,1.9-1,3-1.3s2.1-0.5,3.3-0.5
			c2.7,0,4.6,1,5.8,2.9c1.1,1.9,1.7,4.6,1.7,8.2L708.8,524.4L708.8,524.4z"/>
	</g>
	<g>
		<path d="M748.9,496c-2.2-2.5-5.3-3.7-9.4-3.7c-3.3,0-5.8,0.6-7.3,1.9s-2.3,3-2.3,5.1c0,1.1,0.2,2,0.6,2.7c0.4,0.7,1,1.3,1.8,1.8
			s1.8,0.9,3.1,1.3c1.2,0.4,2.8,0.7,4.5,1.1c1.8,0.4,3.5,0.8,5,1.3s2.8,1,3.8,1.8c1,0.7,1.8,1.6,2.4,2.6c0.6,1,0.8,2.3,0.8,3.8
			s-0.3,2.8-0.9,3.9s-1.4,2.1-2.5,2.8c-1.1,0.8-2.4,1.3-3.8,1.7c-1.5,0.4-3.1,0.6-5,0.6c-5.3,0-9.8-1.7-13.5-5.1l1.3-2
			c1.4,1.5,3.2,2.7,5.3,3.6c2.1,0.9,4.4,1.3,7,1.3c3,0,5.3-0.5,7-1.6s2.5-2.7,2.5-4.9c0-1.1-0.2-2.1-0.7-2.9s-1.1-1.5-2-2
			s-2-1.1-3.3-1.5s-2.9-0.8-4.7-1.2c-1.8-0.4-3.4-0.8-4.8-1.2c-1.4-0.4-2.6-1-3.5-1.6c-0.9-0.7-1.7-1.4-2.1-2.4
			c-0.5-0.9-0.7-2.1-0.7-3.5c0-1.5,0.3-2.9,0.9-4.1s1.4-2.2,2.5-3s2.3-1.4,3.8-1.8s3.1-0.6,4.9-0.6c2.2,0,4.2,0.3,5.9,1
			s3.3,1.7,4.7,3L748.9,496z"/>
		<path d="M767.9,524.9c-1.8,0-3.4-0.3-4.9-1s-2.8-1.6-3.9-2.8c-1.1-1.2-1.9-2.6-2.5-4.1c-0.6-1.6-0.9-3.2-0.9-4.9
			c0-1.8,0.3-3.4,0.9-5c0.6-1.6,1.5-2.9,2.6-4.1s2.4-2.1,3.9-2.8c1.5-0.7,3.1-1,4.8-1s3.3,0.3,4.8,1s2.8,1.6,3.9,2.8
			c1.1,1.2,2,2.6,2.6,4.1c0.6,1.6,0.9,3.2,0.9,5c0,1.7-0.3,3.4-0.9,4.9c-0.6,1.6-1.5,2.9-2.6,4.1c-1.1,1.2-2.4,2.1-3.9,2.8
			C771.2,524.5,769.6,524.9,767.9,524.9z M758.1,512.1c0,1.5,0.3,2.9,0.8,4.2s1.2,2.4,2.1,3.4c0.9,1,1.9,1.7,3.1,2.3
			c1.2,0.6,2.4,0.8,3.8,0.8s2.6-0.3,3.8-0.8c1.2-0.6,2.2-1.3,3.1-2.3c0.9-1,1.6-2.1,2.1-3.4s0.8-2.7,0.8-4.2s-0.3-2.9-0.8-4.2
			s-1.2-2.4-2.1-3.4c-0.9-1-1.9-1.8-3.1-2.3s-2.4-0.9-3.8-0.9s-2.6,0.3-3.8,0.9s-2.2,1.4-3.1,2.4c-0.9,1-1.6,2.2-2.1,3.5
			C758.4,509.2,758.1,510.6,758.1,512.1z"/>
		<path d="M786,489.4h2.4v30.1c0,0.9,0.3,1.7,0.8,2.2s1.3,0.8,2.2,0.8c0.4,0,0.8,0,1.3-0.1s1-0.2,1.4-0.4l0.5,1.9
			c-0.5,0.2-1.2,0.4-2,0.6c-0.8,0.1-1.5,0.2-2.1,0.2c-1.3,0-2.4-0.4-3.2-1.2s-1.2-1.9-1.2-3.3v-30.8L786,489.4L786,489.4z"/>
		<path d="M806,524.9c-5.3,0-8-3.7-8-11v-14.4h2.4v14.1c0,6.1,2.1,9.2,6.3,9.2c1.1,0,2.1-0.2,3.1-0.6c1-0.4,1.9-0.9,2.8-1.5
			s1.6-1.4,2.3-2.4c0.7-0.9,1.2-2,1.6-3.1v-15.7h2.4V521c0,0.8,0.3,1.2,1,1.2v2.2c-0.2,0-0.3,0-0.4,0c-0.1,0-0.2,0-0.3,0
			c-0.6,0-1.2-0.2-1.7-0.6s-0.7-0.9-0.7-1.6v-3.7c-1.1,2-2.6,3.6-4.5,4.7C810.3,524.3,808.2,524.9,806,524.9z"/>
		<path d="M837.6,523.2c-0.1,0.1-0.3,0.2-0.6,0.4s-0.7,0.3-1.2,0.5s-1,0.3-1.6,0.4c-0.6,0.1-1.2,0.2-1.9,0.2s-1.3-0.1-1.9-0.3
			c-0.6-0.2-1.1-0.5-1.6-0.9c-0.4-0.4-0.8-0.8-1.1-1.4s-0.4-1.2-0.4-1.9v-18.8H824v-2h3.5v-8.5h2.4v8.5h5.8v2h-5.8v18.2
			c0,0.9,0.3,1.6,1,2.1c0.6,0.5,1.4,0.7,2.2,0.7c1,0,1.8-0.2,2.6-0.5s1.2-0.6,1.3-0.6L837.6,523.2z"/>
		<path d="M841.8,493.8v-4.4h2.4v4.4H841.8z M841.8,524.4v-25h2.4v25H841.8z"/>
		<path d="M862.2,524.9c-1.8,0-3.4-0.3-4.9-1s-2.8-1.6-3.9-2.8c-1.1-1.2-1.9-2.6-2.5-4.1c-0.6-1.6-0.9-3.2-0.9-4.9
			c0-1.8,0.3-3.4,0.9-5c0.6-1.6,1.5-2.9,2.6-4.1s2.4-2.1,3.9-2.8c1.5-0.7,3.1-1,4.8-1s3.3,0.3,4.8,1s2.8,1.6,3.9,2.8
			c1.1,1.2,2,2.6,2.6,4.1c0.6,1.6,0.9,3.2,0.9,5c0,1.7-0.3,3.4-0.9,4.9c-0.6,1.6-1.5,2.9-2.6,4.1c-1.1,1.2-2.4,2.1-3.9,2.8
			C865.5,524.5,863.9,524.9,862.2,524.9z M852.4,512.1c0,1.5,0.3,2.9,0.8,4.2s1.2,2.4,2.1,3.4c0.9,1,1.9,1.7,3.1,2.3
			c1.2,0.6,2.4,0.8,3.8,0.8s2.6-0.3,3.8-0.8c1.2-0.6,2.2-1.3,3.1-2.3c0.9-1,1.6-2.1,2.1-3.4s0.8-2.7,0.8-4.2s-0.3-2.9-0.8-4.2
			s-1.2-2.4-2.1-3.4c-0.9-1-1.9-1.8-3.1-2.3s-2.4-0.9-3.8-0.9s-2.6,0.3-3.8,0.9s-2.2,1.4-3.1,2.4c-0.9,1-1.6,2.2-2.1,3.5
			C852.7,509.2,852.4,510.6,852.4,512.1z"/>
		<path d="M900.6,524.4h-2.4v-13.9c0-3.2-0.5-5.6-1.4-7.1s-2.4-2.2-4.3-2.2c-1.1,0-2.1,0.2-3.1,0.6s-2,0.9-2.9,1.6s-1.7,1.5-2.4,2.5
			c-0.7,0.9-1.2,2-1.5,3v15.5h-2.4v-25h2.3v6c0.5-1,1.1-1.8,1.9-2.6c0.8-0.8,1.6-1.5,2.5-2c0.9-0.6,1.9-1,3-1.3s2.1-0.5,3.3-0.5
			c2.7,0,4.6,1,5.8,2.9c1.1,1.9,1.7,4.6,1.7,8.2L900.6,524.4L900.6,524.4z"/>
		<path d="M915.7,524.9c-1.9,0-3.8-0.3-5.5-1c-1.8-0.6-3.3-1.6-4.6-2.9l1.2-1.6c1.3,1.2,2.7,2.1,4.2,2.7c1.4,0.6,3,0.9,4.8,0.9
			c2.2,0,3.9-0.5,5.3-1.4c1.3-0.9,2-2.2,2-3.8c0-0.8-0.2-1.4-0.5-1.9s-0.8-1-1.5-1.3c-0.7-0.4-1.5-0.7-2.5-1s-2.1-0.6-3.5-0.9
			c-1.4-0.3-2.6-0.6-3.7-1c-1-0.3-1.9-0.7-2.6-1.2s-1.2-1-1.5-1.6s-0.5-1.5-0.5-2.4c0-1.2,0.2-2.3,0.7-3.3c0.5-0.9,1.1-1.7,2-2.3
			c0.8-0.6,1.8-1.1,2.9-1.4c1.1-0.3,2.3-0.5,3.5-0.5c2,0,3.7,0.3,5.2,1s2.7,1.5,3.5,2.5l-1.3,1.3c-0.8-1-1.9-1.7-3.2-2.2
			s-2.7-0.7-4.2-0.7c-0.9,0-1.8,0.1-2.6,0.3c-0.8,0.2-1.5,0.5-2.1,0.9s-1.1,1-1.4,1.6c-0.4,0.7-0.5,1.4-0.5,2.3
			c0,0.7,0.1,1.3,0.4,1.8c0.2,0.4,0.6,0.8,1.2,1.2c0.5,0.3,1.2,0.6,2,0.8c0.8,0.2,1.8,0.5,3,0.8c1.6,0.4,3,0.8,4.2,1.1
			c1.2,0.4,2.2,0.8,3,1.3s1.4,1.1,1.9,1.8c0.4,0.7,0.6,1.6,0.6,2.7c0,2.2-0.9,4-2.6,5.4C921,524.2,918.6,524.9,915.7,524.9z"/>
	</g>
</g>
<g>
	<path d="M747.9,382.8c-4.3-7.5-8-15.5-10.9-23.7c-2.9-8.3-4.9-16.8-6.1-25.5c-1.2-8.7-1.5-17.5-0.8-26.3c0.2-2.2,0.4-4.4,0.6-6.5
		c0.3-2.2,0.6-4.3,0.9-6.5c0.5-2.1,0.8-4.3,1.3-6.4c0.6-2.1,1-4.3,1.7-6.4c4.8-17,13.3-32.9,24.5-46.6c1-1.2,2-2.3,3-3.5
		c-1.8-1.3-3.6-2.5-5.5-3.8c-30.4-20.9-51-35.4-61.8-43.7c-10.8-8.2-19.2-17-25.4-26.3c-6.1-9.3-9.2-20.4-9.2-33.4
		c0-15.8,5.2-28.1,15.5-36.8c10.3-8.8,23.8-13.2,40.3-13.2c18.2,0,34.2,5.9,48,17.6c13.9,11.8,24.9,27,33,45.8s12.9,38.4,14.3,58.9
		h0.4c4-1.6,8-3,12.2-4.2c0-59.7,0.9-102.1,2.7-127.3H814c-1.1,8.2-2.5,14.2-4.3,18s-4.4,5.7-7.7,5.7c-2.3,0-4.7-0.6-7.2-1.7
		s-6.3-3.1-11.5-5.9c-12.1-6.7-24.6-11.9-37.6-15.8s-30-5.8-51-5.8c-24.6,0-47.1,3.7-67.5,11c-20.5,7.4-36.9,18.7-49.3,34.1
		c-12.4,15.3-18.6,34.2-18.6,56.7c0,18.6,4.2,35,12.7,49.3s19.1,26.8,32,37.5c12.9,10.7,30.4,23.3,52.5,37.9
		c18.2,11.9,32.7,22.6,43.8,32c11,9.4,19.8,19.7,26.3,31s9.7,24.1,9.7,38.3c0,16.5-5.9,29.4-17.6,38.7c-11.7,9.3-27.8,13.9-48,13.9
		c-32.6,0-56.7-13.3-72.3-40c-15.7-26.7-24.6-61.3-27-103.9h-12.5c0,76.8-0.8,128.9-2.4,156.2H569c1.2-8.4,2.8-14.5,4.5-18.1
		c1.8-3.7,4.4-5.5,7.7-5.5c4.1,0,10.2,2.5,18.4,7.6c12.8,6.1,26.6,11,41.2,14.6c14.7,3.6,33.2,5.4,55.7,5.4c27.6,0,52.6-3.9,75-11.8
		c9.2-3.2,17.6-7.1,25.2-11.7c-5.4-3.2-10.5-6.7-15.3-10.6C768.1,411,756.6,397.8,747.9,382.8z"/>
	<g>
		<g>
			<g class="st1">
				<g class="st2">
					<g class="st0">
						<g>
							<path class="st3" d="M866.9,448.3c0.7-0.1,1.4-0.2,2.1-0.3c0.6,0.3,0.1,0.7-1.1,0.9c-1.2,0.2-2.6,0-3.2-0.3
								c-0.6-0.3-0.1-0.7,1.1-0.9s2.6,0,3.2,0.3C868.3,448.1,867.6,448.2,866.9,448.3z"/>
						</g>
						<g class="st0">
							<defs>
								<path id="SVGID_1_" class="st0" d="M731.2,319.8c-0.1-3.6,0.1-8.3,0.5-11.9c0.4-3.2,0.8-7.5,1.4-10.7
									c0.6-3.4,1.6-8,2.5-11.4c0.8-3,2-7.1,3.1-10c1.2-3.3,3-7.6,4.3-10.8c1.3-3.3,3.6-7.6,5.4-10.6c3.1-5.2,7.6-11.9,11.2-16.8
									c2.2-3,5.4-6.8,8.1-9.4c2.1-2.1,4.8-4.9,6.9-6.8c3.1-2.7,7.3-6.2,10.6-8.7c2.2-1.7,5.2-3.7,7.5-5.2c2.3-1.5,5.5-3.3,7.8-4.7
									c2-1.2,4.8-2.6,7-3.6c3.4-1.6,8-3.5,11.5-4.9c1.5-0.6,3.5-1.3,5-1.7c3-0.9,7-2.1,10-2.8c2.9-0.7,6.7-1.5,9.6-2
									c3.2-0.6,5.9-0.9,8.2-1.1c2.2-0.3,8.3-0.9,16.2-0.8c9.3,0.1,16.7,1.1,19.5,1.5c2.7,0.4,6.2,1,8.3,1.5
									c2.8,0.6,6.5,1.5,9.3,2.3c2.1,0.5,4.8,1.4,6.8,2.1c2.8,1,6.5,2.4,9.3,3.5c4.3,1.8,9.7,4.7,13.8,6.8
									c32.6,18.5,54.1,55.1,54,100C989,374.5,935.2,439.1,869,448c-0.6-0.3-2-0.5-3.2-0.3s-1.7,0.5-1.1,0.9c0.6,0.3,2,0.5,3.2,0.3
									c1.2-0.2,1.7-0.5,1.1-0.9c66.2-8.9,120-73.5,120.1-144.4c0.1-44.9-21.4-81.5-54-100c3.2,1.9,7.4,4.4,10.4,6.6
									c2.2,1.7,5.3,3.8,7.4,5.5c2.7,2.2,6.3,5.2,8.7,7.7c2.1,2.1,4.9,4.9,6.9,7.1c2.3,2.6,5.2,6.1,7.3,8.8
									c1.8,2.4,4.2,5.7,5.8,8.3c1.8,2.9,4.2,6.8,5.8,9.8c2.1,4.1,5.3,10.3,8.6,19.9c2,6,3.9,14.3,5.1,20.5
									c0.7,3.5,1.1,8.1,1.4,11.6c0.3,3.3,0.3,7.6,0.4,10.9c0.1,4-0.2,9.3-0.7,13.3c-0.4,3.2-0.9,7.5-1.5,10.6
									c-0.6,3.4-1.7,8-2.6,11.4c-0.8,3-2.1,7-3.2,10c-1.2,3.3-3.1,7.5-4.4,10.7c-1.2,2.8-3.2,6.5-4.7,9.1c-1.8,3.1-4.3,7-6.2,10
									c-2,3.2-5.2,7.2-7.6,10.1c-3.8,4.5-9.1,10.2-13.6,14.1c-3.1,2.7-7.4,6.2-10.8,8.7c-2.2,1.6-5.2,3.6-7.5,5.1
									c-1.3,0.8-8.9,5.4-15.2,8.2c-5.6,2.5-10.9,4.8-20.2,7.4c-6,1.7-11.2,2.7-14.5,3.3c-7.7,1.3-13.9,1.6-15,1.7
									c-3.4,0.2-4.6,0.2-6.3,0.2c-2.9,0-5.9,0-9.2-0.2c-4.8-0.3-9.5-0.6-17.3-2c-6.8-1.2-13-2.9-14.7-3.4c-1.7-0.5-4-1.2-5.6-1.8
									c-2.8-1-6.5-2.4-9.3-3.5c-4.3-1.8-9.8-4.6-13.8-6.8c-3.7-2.1-8.5-5.1-11.9-7.6c-2.9-2.1-6.7-4.9-9.3-7.3
									c-2.1-2-5.1-4.5-7.2-6.6c-2.4-2.5-5.6-5.8-7.8-8.5c-3.9-4.6-8.5-11.3-11.8-16.3c-1.9-2.9-4-7-5.6-10
									c-1.6-3-3.5-7.2-4.7-10.4c-2.1-5.9-4.8-13.9-6.2-20c-1.3-5.6-2.3-13.3-2.9-19C731.3,327.5,731.2,323.1,731.2,319.8z"/>
							</defs>
							<clipPath id="SVGID_2_">
								<use xlink:href="#SVGID_1_"  style="overflow:visible;"/>
							</clipPath>
							<g class="st4">
								<g>
									<g>
										<path class="st5" d="M988.3,372.9c1,3.4,1.4,5-0.4,8.9l2.4-4.8c1.3-2.8,1.4-5.7,0.2-8.6
											C989.8,369.9,989.1,371.4,988.3,372.9"/>
										<path class="st5" d="M963.3,386.4c11.4,6.5,13.6,13.5,8.1,20l2.3-2.8l1.1-1.5c5.1-6.5,2.6-13.5-8.8-20
											C965.2,383.5,964.3,384.9,963.3,386.4"/>
										<path class="st5" d="M948.1,405.5c6.9,3.9,9.8,8,9.2,12.1c1.3-1.1,2.5-2.1,3.8-3.2c0.6-4.2-2.4-8.5-9.6-12.6
											C950.4,403.1,949.3,404.3,948.1,405.5"/>
										<path class="st5" d="M983.6,342.6c10.9,6.2,14.8,12.8,12.8,19.1l1.6-5.2c1-6.7-0.8-11.4-13-18.9
											C984.5,339.3,984.1,341,983.6,342.6"/>
									</g>
								</g>
							</g>
						</g>
						<g class="st0">
							<defs>
								<path id="SVGID_3_" class="st0" d="M799.1,436.5c-2.3-1.4-5.4-3.2-7.7-4.7c-3.5-2.4-8.1-5.8-11.5-8.5
									c-4.6-3.7-10.1-9.2-14.1-13.4c-2.7-2.8-6-6.7-8.1-9.9c-2-2.9-4.8-6.8-6.7-9.8c-1.6-2.6-3.7-6.1-5-8.9
									c-1.5-3.1-3.5-7.3-4.9-10.5c-1.2-2.9-2.6-6.8-3.6-9.8c-1.1-3.3-2.3-7.8-3.1-11.2c-0.7-3.1-1.4-7.3-1.9-10.5
									c-0.9-5.8-1.4-13.6-1.4-19.5c0.1-6.5,1-15.1,1.8-21.6c0.4-3.4,1.4-8,2.4-11.3c0.9-3,2-7.1,3-10.1c1.1-3.2,2.7-7.5,4.1-10.6
									c1.3-2.8,3-6.5,4.5-9.2c1.6-3,3.9-6.9,5.8-9.8c1.6-2.5,4-5.8,5.8-8.2c2.1-2.7,5.1-6.3,7.4-8.8c2-2.2,4.7-5,6.8-7
									c2.6-2.4,6.2-5.4,8.9-7.7c3.1-2.6,7.5-5.8,11-7.9c2-1.3,4.7-3,6.8-4.1c4.1-2.2,9.7-4.9,13.9-6.8c0.1,0,6.7-3,16.1-5.6
									c6.4-1.8,10.7-2.6,14.6-3.2c2.2-0.4,7.4-1.1,11.3-1.4c1.9-0.1,4.6-0.3,6.5-0.4c3-0.1,5.8-0.1,6.2-0.1c0.9,0,2.2,0,3.1,0.1
									c0.9,0,2.2,0.1,3.1,0.1c1,0,2.2,0.1,3.2,0.2c0.1,0,2.7,0.2,6.6,0.6c6.4,0.8,11.4,1.9,11.5,1.9c2.8,0.6,6.5,1.5,9.2,2.2
									c1.8,0.5,4.2,1.2,6,1.8c2.1,0.7,4.8,1.7,6.9,2.5c2.1,0.8,4.8,2,6.9,2.9c3.2,1.4,7.4,3.7,10.5,5.4
									c-18.8-10.7-41.4-15.4-65.6-12.1c-0.6-0.3-2-0.5-3.2-0.3s-1.7,0.5-1.1,0.9c0.6,0.3,2,0.5,3.2,0.3s1.7-0.5,1.1-0.9
									c24.2-3.3,46.8,1.4,65.6,12.1c4.7,2.9,10.9,6.7,15.2,10.1c3,2.3,6.8,5.6,9.6,8.1c2.2,2,5,4.8,7,6.9c2.5,2.7,5.7,6.4,8,9.3
									c1.9,2.4,4.2,5.7,5.9,8.2c1.9,2.9,4.4,7,6.1,10.1c1.5,2.7,3.2,6.4,4.6,9.2c1.5,3.1,3.1,7.5,4.3,10.8c1,3,2.1,7,3,10
									c1,3.3,2,7.9,2.4,11.4c0.4,3.2,1.1,7.5,1.4,10.7c0.3,3.6,0.5,8.3,0.5,11.9c0,6.5-0.8,15.2-1.8,21.6
									c-0.6,3.8-1.6,8.9-2.7,12.6c-0.9,3-2,7.1-3.1,10c-1.1,3.2-2.7,7.5-4.3,10.6c-1.4,2.8-3.1,6.5-4.6,9.2c-1.7,3-4,6.9-5.9,9.7
									c-4.7,7-9.7,13-13.3,16.9c-3,3.2-8,8.4-15.9,14.6c-2.2,1.7-5.1,3.9-7.4,5.4c-3.1,2-7.4,4.6-10.6,6.5
									c-5.5,3.2-13.8,6.6-15.3,7.2c-3,1.1-6.9,2.5-9.9,3.5c-2.9,0.9-6.9,2-9.9,2.6c-11.3,2.6-20.4,3.2-26.2,3.4
									c-3.9,0.2-8.5,0.1-12.4-0.1c-4.9-0.3-8.5-0.6-13.3-1.3c-11.8-1.7-21.4-4.9-23.2-5.5c-5.2-1.8-7.5-2.6-13.8-5.4
									C806.3,440.4,802.2,438.3,799.1,436.5z"/>
							</defs>
							<clipPath id="SVGID_4_">
								<use xlink:href="#SVGID_3_"  style="overflow:visible;"/>
							</clipPath>
							<g class="st6">
								<g>
									<g>
										<path class="st5" d="M900,384.8c-46.6,3.3-96-0.8-128.8-10.4c-0.3-1.6-0.5-3.1-0.8-4.7c33.1,9.7,82.9,13.8,129.8,10.5
											C900.2,381.7,900.1,383.3,900,384.8"/>
										<path class="st5" d="M987.9,381.8c-15.2,22.9-83.6,28.9-121.6,28.9c0-1.3,0-2.5,0-3.9c18.6,0.1,37.6-1,55.4-3.4
											c38.8-5.2,63.3-15.3,68.6-26.4L987.9,381.8"/>
										<path class="st5" d="M968.8,326.7c-11.5,3.7-25.7,6.7-42.4,9c-13.2,1.8-26.9,2.9-40.7,3.4c0-1.8-0.1-3.5-0.1-5.3
											c13.7-0.5,27.3-1.6,40.4-3.4c16.6-2.2,30.8-5.3,42.2-8.9C968.4,323.3,968.6,325,968.8,326.7"/>
										<path class="st5" d="M990.7,342.6c-12.5,7.7-34.4,14.2-63.8,18.2c-37.1,5-78.4,4.8-113.5,0.6c0-1.7-0.1-3.4-0.1-5.2
											c35.2,4.3,76.6,4.4,113.7-0.6c29.5-4,51.4-10.5,63.9-18.2C990.8,339.1,990.8,340.8,990.7,342.6"/>
										<path class="st5" d="M973.7,403.5l-2.3,2.8c-7.1,8.4-27.2,15.8-57.2,19.8c-38.3,5.2-82.4,3.4-113.8-3.6
											c-0.6-1.1-1.3-2.1-1.9-3.2c32.3,7.1,77.6,9,117,3.7c31.6-4.2,52.4-12.1,59.3-21L973.7,403.5"/>
										<path class="st5" d="M996.4,361.8c-1.3,4-5.1,8-11.1,11.6c0.5-1.5,0.9-3.1,1.3-4.6c6.3-3.8,10.1-8,11.3-12.2L996.4,361.8"
											/>
									</g>
								</g>
							</g>
						</g>
						<g>
							<path class="st3" d="M869.5,191.5c-0.7,0.1-1.4,0.2-2.1,0.3C868,191.7,868.8,191.6,869.5,191.5c0.6,0.3,0.1,0.7-1.1,0.9
								s-2.6,0-3.2-0.3c-0.6-0.3-0.1-0.7,1.1-0.9S868.9,191.2,869.5,191.5z"/>
						</g>
					</g>
				</g>
			</g>
			<g class="st1">
				<g class="st2">
					<g class="st0">
						<g>
							<path class="st3" d="M862.9,447.3c0.7-0.1,1.4-0.2,2.1-0.3c0.6,0.3,0.1,0.7-1.1,0.9c-1.2,0.2-2.6,0-3.2-0.3
								c-0.6-0.3-0.1-0.7,1.1-0.9c1.2-0.2,2.6,0,3.2,0.3C864.3,447.1,863.6,447.2,862.9,447.3z"/>
						</g>
						<g class="st0">
							<defs>
								<path id="SVGID_5_" class="st0" d="M727.3,318.8c-0.1-3.6,0.1-8.3,0.5-11.9c0.4-3.2,0.8-7.5,1.4-10.7
									c0.6-3.4,1.6-8,2.5-11.4c0.8-3,2-7.1,3.1-10c1.2-3.3,3-7.6,4.3-10.8c1.3-3.3,3.6-7.6,5.4-10.6c3.1-5.2,7.6-11.9,11.2-16.8
									c2.2-3,5.4-6.8,8.1-9.4c2.1-2.1,4.8-4.9,6.9-6.8c3.1-2.7,7.3-6.2,10.6-8.7c2.2-1.7,5.2-3.7,7.5-5.2c2.3-1.5,5.5-3.3,7.8-4.7
									c2-1.2,4.8-2.6,7-3.6c3.4-1.6,8-3.5,11.5-4.9c1.5-0.6,3.5-1.3,5-1.7c3-0.9,7-2.1,10-2.8c2.9-0.7,6.7-1.5,9.6-2
									c3.2-0.6,5.9-0.9,8.2-1.1c1.2-0.1,4.9-0.5,6.8-0.6c2.8-0.1,5.3-0.3,9.4-0.2c9.3,0.1,16.7,1.1,19.5,1.5
									c2.7,0.4,6.2,1,8.3,1.5c2.8,0.6,6.5,1.5,9.3,2.3c2.1,0.5,4.8,1.4,6.8,2.1c2.8,1,6.5,2.4,9.3,3.5c4.3,1.8,9.7,4.7,13.8,6.8
									c32.6,18.5,54.1,55.1,54,100C985,373.5,931.2,438.1,865,447c-0.6-0.3-2-0.5-3.2-0.3c-1.2,0.2-1.7,0.5-1.1,0.9
									c0.6,0.3,2,0.5,3.2,0.3c1.2-0.2,1.7-0.5,1.1-0.9c66.2-8.9,120-73.5,120.1-144.4c0.1-44.9-21.4-81.5-54-100
									c3.2,1.9,7.4,4.4,10.4,6.5c2.2,1.7,5.3,3.8,7.4,5.5c2.7,2.2,6.3,5.2,8.7,7.7c2.1,2.1,4.9,4.9,6.9,7.1
									c2.3,2.6,5.2,6.1,7.3,8.8c1.8,2.4,4.2,5.7,5.8,8.3c1.8,2.9,4.2,6.8,5.8,9.8c2.1,4.1,5.3,10.3,8.6,19.9
									c2,6,3.9,14.3,5.1,20.5c0.7,3.5,1.1,8.1,1.4,11.6c0.3,3.3,0.3,7.6,0.4,10.9c0.1,4-0.2,9.3-0.7,13.3
									c-0.4,3.2-0.9,7.5-1.5,10.6c-0.6,3.4-1.7,8-2.6,11.4c-0.8,3-2.1,7-3.2,10c-1.2,3.3-3.1,7.5-4.4,10.7
									c-1.2,2.8-3.2,6.5-4.7,9.1c-1.8,3.1-4.3,7-6.2,10c-2,3.2-5.2,7.2-7.6,10.1c-3.8,4.5-9.1,10.2-13.6,14.1
									c-3.1,2.7-7.4,6.2-10.8,8.7c-2.2,1.6-5.2,3.6-7.5,5.1c-1.3,0.8-8.9,5.4-15.2,8.2c-5.6,2.5-10.9,4.8-20.2,7.4
									c-6,1.7-11.2,2.7-14.5,3.3c-7.7,1.3-13.9,1.6-15,1.7c-3.7,0.2-4.6,0.2-6.3,0.2c-2.9,0-5.9,0-9.2-0.2
									c-4.7-0.3-9.5-0.6-17.3-2c-6.8-1.2-13-2.9-14.7-3.4c-1.7-0.5-4-1.2-5.6-1.8c-2.8-1-6.5-2.4-9.3-3.5
									c-4.3-1.8-9.8-4.6-13.8-6.8c-3.7-2.1-8.5-5.1-11.9-7.6c-2.9-2.1-6.7-4.9-9.3-7.3c-2.1-2-5.1-4.5-7.2-6.6
									c-2.4-2.5-5.6-5.8-7.8-8.5c-3.9-4.6-8.5-11.3-11.8-16.3c-1.9-2.9-4-7-5.6-10c-1.6-3-3.5-7.2-4.7-10.4
									c-2.1-5.9-4.8-13.9-6.2-20c-1.3-5.6-2.3-13.3-2.9-19C727.3,326.5,727.3,322.1,727.3,318.8z"/>
							</defs>
							<clipPath id="SVGID_6_">
								<use xlink:href="#SVGID_5_"  style="overflow:visible;"/>
							</clipPath>
							<g class="st7">
								<g>
									<g>
										<path class="st5" d="M865.5,308.7c0-0.1,0-0.2,0-0.3c-20.5-0.1-41.4,1-61,3.7c-49.7,6.7-77.4,20.8-74.3,35.3l0.1,0.3
											C728.4,322.7,797.6,308.2,865.5,308.7"/>
										<path class="st5" d="M769.2,261.8c0-0.1,0-0.2,0-0.2c-22.1,6.2-35.2,14.4-37.5,22.9l-0.1,0.3
											C733.4,280.6,737.3,270.9,769.2,261.8"/>
										<path class="st5" d="M740.2,373.9c0.1-4.9,4.2-9.8,11.6-14.2c0-0.1-0.1-0.2-0.1-0.2c-7.5,4.4-11.5,9.3-11.6,14.2
											C740.1,373.8,740.2,373.8,740.2,373.9"/>
										<path class="st5" d="M751,251.1c11-6.5,29.3-12,53.6-15.6c0-0.1,0-0.1,0.1-0.2c-24.3,3.6-42.6,9.1-53.6,15.6
											C751.1,251,751.1,251.1,751,251.1"/>
										<path class="st5" d="M879.6,270.4c0-0.1,0-0.2,0-0.3c-25.2-0.9-51.5,0.1-76,3.4c-46.8,6.3-74.4,19.1-75.7,32.7l0,0.3
											c1.3-13.5,28.9-26.4,75.8-32.7C828.1,270.6,854.4,269.5,879.6,270.4"/>
										<path class="st5" d="M782.6,284.9c0-0.1,0-0.2,0-0.3c-34.9,7.1-54.8,18.3-55.2,30l0,0.3
											C727.7,303.2,747.6,292,782.6,284.9"/>
									</g>
								</g>
							</g>
						</g>
						<g class="st0">
							<defs>
								<path id="SVGID_7_" class="st0" d="M795.2,435.5c-2.3-1.4-5.4-3.2-7.7-4.7c-3.5-2.4-8.1-5.8-11.5-8.5
									c-4.6-3.7-10.1-9.2-14.1-13.4c-2.7-2.8-6-6.7-8.1-9.9c-2-2.9-4.8-6.8-6.7-9.8c-1.6-2.6-3.7-6.1-5-8.9
									c-1.5-3.1-3.5-7.3-4.9-10.5c-1.2-2.9-2.6-6.8-3.6-9.8c-1.1-3.3-2.3-7.8-3.1-11.2c-0.7-3.1-1.4-7.3-1.9-10.5
									c-0.9-5.8-1.4-13.6-1.4-19.5c0.1-6.5,1-15.1,1.8-21.6c0.4-3.4,1.4-8,2.4-11.3c0.9-3,2-7.1,3-10.1c1.1-3.2,2.7-7.5,4.1-10.6
									c1.3-2.8,3-6.5,4.5-9.2c1.6-3,3.9-6.9,5.8-9.8c1.6-2.5,4-5.8,5.8-8.2c2.1-2.7,5.1-6.3,7.4-8.8c2-2.2,4.7-5,6.8-7
									c2.6-2.4,6.2-5.4,8.9-7.7c3.1-2.6,7.5-5.8,11-7.9c2-1.3,4.7-3,6.8-4.1c4.1-2.2,9.7-4.9,13.9-6.8c0.1,0,6.7-3,16.1-5.6
									c6.4-1.8,10.7-2.6,14.6-3.2c2.2-0.4,7.4-1.1,11.3-1.4c1.6-0.1,4.4-0.3,6.5-0.4c4.4-0.1,4.7-0.1,9.3,0c1,0,6.1,0.2,12.9,1
									c6.4,0.8,11.4,1.9,11.5,1.9c2.8,0.6,6.5,1.5,9.2,2.2c1.8,0.5,4.2,1.2,6,1.8c2.1,0.7,4.8,1.7,6.9,2.5c2.1,0.8,4.8,2,6.9,2.9
									c3.2,1.4,7.4,3.7,10.5,5.4c-18.8-10.7-41.4-15.4-65.6-12.1c-0.6-0.3-2-0.5-3.2-0.3c-1.2,0.2-1.7,0.5-1.1,0.9
									c0.6,0.3,2,0.5,3.2,0.3c1.2-0.2,1.7-0.5,1.1-0.9c24.2-3.3,46.8,1.4,65.6,12.1c4.7,2.9,10.9,6.7,15.2,10.1
									c3,2.3,6.8,5.6,9.6,8.1c2.2,2,5,4.8,7,6.9c2.5,2.7,5.7,6.4,8,9.3c1.9,2.4,4.2,5.7,5.9,8.2c1.9,2.9,4.4,7,6.1,10.1
									c1.5,2.7,3.2,6.4,4.6,9.2c1.5,3.1,3.1,7.5,4.3,10.8c1,3,2.1,7,3,10c1,3.3,2,7.9,2.4,11.4c0.4,3.2,1.1,7.5,1.4,10.7
									c0.3,3.6,0.5,8.3,0.5,11.9c0,6.5-0.8,15.2-1.8,21.6c-0.6,3.8-1.6,8.9-2.7,12.6c-0.9,3-2,7.1-3.1,10
									c-1.1,3.2-2.7,7.5-4.3,10.6c-1.4,2.8-3.1,6.5-4.6,9.2c-1.7,3-4,6.9-5.9,9.7c-4.6,7-9.7,13-13.3,16.9c-3,3.2-8,8.4-15.9,14.6
									c-2.2,1.7-5.1,3.9-7.4,5.4c-3.1,2-7.4,4.6-10.6,6.5c-5.5,3.2-13.8,6.6-15.3,7.2c-3,1.1-6.9,2.5-9.9,3.5
									c-2.9,0.9-6.9,2-9.9,2.6c-11.3,2.6-20.4,3.2-26.2,3.4c-3.9,0.2-8.5,0.1-12.4-0.1c-4.9-0.3-8.5-0.6-13.3-1.3
									c-11.8-1.7-21.4-4.9-23.2-5.5c-5.2-1.8-7.5-2.6-13.8-5.4C802.4,439.4,798.2,437.2,795.2,435.5z"/>
							</defs>
							<clipPath id="SVGID_8_">
								<use xlink:href="#SVGID_7_"  style="overflow:visible;"/>
							</clipPath>
							<g class="st8">
								<g>
									<g>
										<path class="st5" d="M758,368.1c-12.5-4.9-24.9-10.5-27.7-20.4l-0.1-0.3c1,4.7,5.4,9.5,13.4,14.1
											c4.1,2.3,8.9,4.4,14.3,6.4C757.9,367.9,758,368,758,368.1"/>
										<path class="st5" d="M807,320.7c-73.1-10.7-77-28.7-75.3-35.9l0.1-0.3c-1.7,6.3,2.4,12.7,13.1,18.8
											c13.7,7.8,36,13.6,62.1,17.1C807,320.5,807,320.6,807,320.7"/>
										<path class="st5" d="M729.5,313.5c-1.4-2.3-1.9-4.7-1.7-7l0-0.3c-0.2,2.3,0.3,4.7,1.7,7
											C729.5,313.4,729.5,313.5,729.5,313.5"/>
										<path class="st5" d="M761.4,340.2c-7.9-2.5-14.7-5.3-20.2-8.4c-9.6-5.5-14.1-11.2-13.9-16.9l0-0.3
											c-0.2,5.7,4.3,11.5,13.9,17c5.5,3.1,12.3,5.9,20.2,8.4C761.4,340,761.4,340.1,761.4,340.2"/>
										<path class="st5" d="M891.1,392.2c-50.9,3-104.4-2.7-134.5-14.8c0-0.1,0-0.2-0.1-0.2c30.2,12.1,83.7,17.8,134.6,14.8
											C891.1,392,891.1,392.1,891.1,392.2"/>
										<path class="st5" d="M950.2,358.6c-8.2,1.9-17.4,3.5-27.4,4.9c-30.9,4.2-64.7,4.7-95.5,2.3c0-0.1,0-0.2,0-0.3
											c30.7,2.4,64.6,1.8,95.5-2.3c10-1.4,19.2-3,27.4-4.9C950.2,358.5,950.2,358.5,950.2,358.6"/>
										<path class="st5" d="M954.3,314.3c-9.5,2.5-20.6,4.7-33,6.3c-9.6,1.3-19.6,2.2-29.6,2.8c0-0.1,0-0.2,0-0.3
											c10-0.6,20-1.5,29.6-2.8c12.4-1.7,23.5-3.8,33-6.3C954.3,314.1,954.3,314.2,954.3,314.3"/>
										<path class="st5" d="M979.5,327.2c-13,6-32.2,11.1-56.7,14.4c-14.7,2-30.1,3.1-45.5,3.6c0-0.1,0-0.2,0-0.3
											c15.4-0.4,30.8-1.6,45.5-3.6c24.5-3.3,43.7-8.4,56.7-14.4C979.4,327,979.4,327.1,979.5,327.2"/>
									</g>
								</g>
							</g>
						</g>
						<g>
							<path class="st3" d="M865.5,190.5c-0.7,0.1-1.4,0.2-2.1,0.3C864.1,190.7,864.8,190.6,865.5,190.5c0.6,0.3,0.1,0.7-1.1,0.9
								c-1.2,0.2-2.6,0-3.2-0.3c-0.6-0.3-0.1-0.7,1.1-0.9C863.5,190,864.9,190.2,865.5,190.5z"/>
						</g>
					</g>
				</g>
			</g>
			<g>
				<linearGradient id="SVGID_9_" gradientUnits="userSpaceOnUse" x1="776.4614" y1="422.1388" x2="949.4135" y2="213.2559">
					<stop  offset="0" style="stop-color:#FFFFFF;stop-opacity:0"/>
					<stop  offset="0.3434" style="stop-color:#AAAAAA;stop-opacity:0.3434"/>
					<stop  offset="1" style="stop-color:#000000"/>
				</linearGradient>
				<path class="st9" d="M738.1,271c3-8.1,6.8-16,11.2-23.4c4.4-7.5,9.6-14.4,15.4-21c11.6-13,25.6-23.9,41.4-31.6
					c7.9-3.8,16.2-7,24.7-9.1c2.1-0.5,4.3-1,6.5-1.5c2.2-0.4,4.3-0.8,6.5-1.2c2.2-0.3,4.4-0.6,6.6-0.8c2.2-0.1,4.4-0.4,6.6-0.5
					c17.7-0.8,35.5,2.2,52,8.5c8.2,3.2,16.1,7.2,23.5,12c7.4,4.8,14.3,10.3,20.6,16.4c6.3,6.1,12,12.8,17,20
					c5,7.2,9.3,14.8,12.9,22.7c7.2,15.9,11.3,33.1,12.1,50.5c0,2.2,0.2,4.4,0.1,6.5c-0.1,2.2,0,4.4-0.2,6.5
					c-0.2,2.2-0.2,4.4-0.5,6.5c-0.3,2.2-0.4,4.3-0.8,6.5c-1.2,8.6-3.4,17.2-6.3,25.5c-5.8,16.5-14.8,32-26.7,45.1
					c-11.8,13.1-26.4,23.8-42.4,31.3c-16.1,7.5-33.6,11.8-51.4,12.6c-8.9,0.4-17.8-0.1-26.6-1.5c-8.8-1.4-17.4-3.7-25.7-6.8
					c-16.6-6.3-32.1-15.8-44.9-28.1c-1.6-1.5-3.1-3.1-4.7-4.7c-1.5-1.6-3-3.3-4.5-4.9c-1.4-1.7-2.8-3.4-4.2-5.2
					c-1.3-1.8-2.6-3.6-3.9-5.4c-5.1-7.3-9.3-15.1-12.7-23.1c-3.4-8.1-6.1-16.5-7.9-25.1c-1.8-8.6-2.7-17.3-2.9-26
					c-0.1-8.7,0.5-17.4,2.1-25.9C732.8,287.5,735.1,279.1,738.1,271z M738.8,271.3c-2.9,8.1-5.1,16.5-6.4,25
					c-1.2,8.5-1.7,17.1-1.1,25.7c1,17.1,5.6,33.9,13.1,49.1c3.8,7.6,8.3,14.8,13.3,21.5c1.3,1.6,2.6,3.3,3.9,4.9
					c1.4,1.6,2.7,3.2,4.2,4.7c1.5,1.5,2.9,3.1,4.4,4.6c1.5,1.4,3,2.9,4.6,4.3c6.2,5.6,13,10.7,20.1,15c7.2,4.3,14.8,8,22.6,10.9
					c7.9,2.9,16,5.1,24.3,6.4c8.3,1.3,16.7,1.9,25,1.6c16.7-0.5,33.4-4.3,48.8-11.2c15.3-6.9,29.3-16.8,41-29
					c5.8-6.1,11.1-12.8,15.7-19.9c4.6-7.1,8.5-14.7,11.6-22.6c3.1-7.9,5.4-16.2,6.9-24.6c0.4-2.1,0.6-4.2,1-6.3
					c0.3-2.1,0.4-4.2,0.7-6.4c0.2-2.1,0.2-4.3,0.3-6.4c0.1-2.1,0-4.3,0-6.4c-0.5-17.1-4.5-34.1-11.8-49.6
					c-3.6-7.7-8.1-15.1-13.2-21.9c-5.1-6.8-10.9-13.1-17.3-18.8c-12.7-11.3-27.6-19.9-43.5-25.6c-7.9-2.9-16.2-4.9-24.5-6.2
					c-8.3-1.3-16.7-1.8-25.2-1.6c-2.1,0-4.2,0.2-6.3,0.3c-2.1,0.1-4.2,0.4-6.3,0.7c-2.1,0.2-4.2,0.6-6.3,0.9
					c-2.1,0.4-4.1,0.8-6.2,1.2c-8.2,1.8-16.3,4.4-24.1,7.7c-15.6,6.6-30.1,16.3-42,28.7c-6,6.1-11.3,13-15.9,20.2
					C745.7,255.5,741.9,263.3,738.8,271.3z"/>
			</g>
		</g>
		<linearGradient id="SVGID_10_" gradientUnits="userSpaceOnUse" x1="734.7494" y1="277.5104" x2="937.9071" y2="277.5104">
			<stop  offset="0" style="stop-color:#FFFFFF"/>
			<stop  offset="1" style="stop-color:#000000"/>
		</linearGradient>
		<linearGradient id="SVGID_11_" gradientUnits="userSpaceOnUse" x1="734.2881" y1="277.382" x2="938.3683" y2="277.382">
			<stop  offset="0" style="stop-color:#FFFFFF;stop-opacity:0"/>
			<stop  offset="0.3706" style="stop-color:#969696;stop-opacity:0.3706"/>
			<stop  offset="0.6777" style="stop-color:#454545;stop-opacity:0.6777"/>
			<stop  offset="0.8938" style="stop-color:#131313;stop-opacity:0.8938"/>
			<stop  offset="1" style="stop-color:#000000"/>
		</linearGradient>
		<path class="st10" d="M856,183.7c-0.1,0.1-0.3,0.3-0.5,0.4c29.5,1,77.9,30.3,61.4,60.4c-21.9,40-96,63.9-120.4,73.4
			c-54.5,21.2-62.8,27.5-61.7,34.5l0.3,0.8c2.3,5.6,5.6,12.9,8.3,18.3c-2.3-7.5,10.4-12.9,51-29.2c30.9-12.3,125.1-45.3,141.3-93.1
			C951.8,201.4,875.4,183.8,856,183.7z"/>
		<linearGradient id="SVGID_12_" gradientUnits="userSpaceOnUse" x1="792.8691" y1="347.2272" x2="990.5318" y2="347.2272">
			<stop  offset="0" style="stop-color:#FFFFFF"/>
			<stop  offset="0.3706" style="stop-color:#969696"/>
			<stop  offset="0.6777" style="stop-color:#454545"/>
			<stop  offset="0.8938" style="stop-color:#131313"/>
			<stop  offset="1" style="stop-color:#000000"/>
		</linearGradient>
		<path class="st11" d="M989.8,291c-2.8-13-3.7-17-6.4-24.6l-4.2-8.6c32.6,90.1-129.1,149.4-162.1,159.8c-14.1,4.4-22,8-24.2,10.4
			c0.2,0.5,0.4,1.4,0.8,1.7c8.7,4.4,9.3,4.7,14.2,6.6l0.9,0.4c-0.2-0.3-0.4-0.6-0.5-0.9c2.9-1.6,3.1-1.7,11.3-4.1
			c72.6-21,109-44.1,129.9-61.1C969.5,354.3,995.2,325.8,989.8,291z"/>
		<linearGradient id="SVGID_13_" gradientUnits="userSpaceOnUse" x1="757.7322" y1="303.4226" x2="972.7944" y2="303.4226">
			<stop  offset="0" style="stop-color:#FFFFFF"/>
			<stop  offset="0.3706" style="stop-color:#969696"/>
			<stop  offset="0.6777" style="stop-color:#454545"/>
			<stop  offset="0.8938" style="stop-color:#131313"/>
			<stop  offset="1" style="stop-color:#000000"/>
		</linearGradient>
		<path class="st12" d="M803.4,393.6c104.6-36.1,212.9-98.7,151.4-168.7c-2.3-2.3-5.4-5.5-7.8-7.8c-9.1-8.3-18.3-13.8-26.6-18.4
			c-3.7-1.8-4.2-1.9-6.3-3.1c100.1,59.6,1.8,136.5-115.9,179.4c-33.6,12.3-43.2,17.3-39.8,22.8c3.1,3.3,7.3,7.7,10.6,10.7l3.3,2.8
			C768.9,407.3,775.5,403.2,803.4,393.6z"/>
	</g>
</g>
<g>
	<path d="M539.8,81.3c-6.2,2.3-10.3,6.6-12.5,12.8c-2.2,6.2-3.3,16.2-3.3,29.9v270.8c0,13.7,1.1,23.6,3.4,29.9
		c2.3,6.2,6.5,10.5,12.7,12.8s16,3.7,29.6,4.3v10.9c-25.1-1.1-60.8-1.6-107.2-1.6c-51.8,0-89.9,0.5-114.4,1.6v-10.9
		c13.8-0.5,23.8-2,29.9-4.3c6.2-2.3,10.3-6.6,12.5-12.8c2.2-6.2,3.3-16.2,3.3-29.9V123.9c0-13.7-1.2-23.6-3.4-29.9
		c-2.3-6.2-6.5-10.5-12.7-12.8s-16-3.7-29.6-4.3V66.1c24.4,1.1,62.6,1.6,114.4,1.6c46.4,0,82.1-0.5,107.2-1.6V77
		C556,77.6,546,79,539.8,81.3z"/>
</g>
<g>
	<path d="M343.9,427.3c-2-5-5-7.5-8.9-7.5c-2.8,0-6.5,1.5-11.1,4.5c-10.8,7.6-20.7,13.8-29.8,18.7c-9.1,4.9-19.4,8.8-31.1,11.9
		c-11.6,3.1-24.8,4.6-39.4,4.6c-40.9,0-76.7-7.8-107.4-23.3s-54.5-38.1-71.4-67.6c-17-29.6-25.5-64.7-25.5-105.5
		c0-39.9,8.7-75.1,26.1-105.8s41.5-54.5,72.5-71.4s66.4-25.4,106.2-25.4c21.5,0,39.9,3.1,55.2,9.3c15.3,6.2,30.1,14.8,44.6,25.9
		c4.1,3.2,7.6,4.8,10.6,4.8c7.4,0,12-10.8,13.8-32.3h12.4c-1.4,25.6-2.1,70.7-2.1,135.5h-12.4c-1.8-19.2-4.3-35.3-7.5-48.3
		c-3.3-13-8.2-24.6-15-34.9c-6.7-10.3-15.9-19.3-27.5-26.9c-16.6-10.8-33.3-16.1-50.3-16.1c-25.9,0-46.4,9.1-61.5,27.4
		s-25.6,41.1-31.5,68.4s-8.9,56.6-8.9,87.9s3,60.5,8.9,87.9c5.9,27.3,16.4,50.1,31.5,68.4s35.6,27.4,61.5,27.4
		c16.9,0,33.7-5.4,50.3-16.1c11.6-7.2,20.8-16.1,27.5-26.7s11.7-23,15-37.2s5.8-32.1,7.5-53.6h12.4c0,67.2,0.7,114.1,2.1,140.8
		h-12.4C347.3,440.5,345.9,432.4,343.9,427.3z"/>
</g>
</svg>
