<?xml version="1.0" encoding="utf-8"?>
<!-- Generator: Adobe Illustrator 21.0.2, SVG Export Plug-In . SVG Version: 6.00 Build 0)  -->
<svg version="1.1" id="Layer_1" xmlns="http://www.w3.org/2000/svg" xmlns:xlink="http://www.w3.org/1999/xlink" x="0px" y="0px"
	 viewBox="0 0 1223.5 599.4" style="enable-background:new 0 0 1223.5 599.4;" xml:space="preserve">
<style type="text/css">
	.st0{font-family:'Raleway-Light';}
	.st1{font-size:48px;}
	.st2{fill:none;stroke:#000000;stroke-width:10;stroke-miterlimit:10;}
</style>
<text transform="matrix(1 0 0 1 386.5285 512.3943)" class="st0 st1">Comprehensive Immigration Solutions</text>
<g>
	<g>
		<path d="M1179.7,276.4c10.5,8.5,19.5,18.9,26.3,30.6c3.4,5.9,6.3,12.1,8.5,18.5c2.2,6.5,3.8,13.1,4.8,19.9
			c0.9,6.8,1.2,13.7,0.6,20.6c-0.1,1.7-0.3,3.5-0.5,5.1c-0.2,1.7-0.4,3.4-0.7,5.1c-0.4,1.7-0.6,3.4-1,5c-0.4,1.7-0.8,3.4-1.3,5
			c-3.7,13.3-10.4,25.8-19.2,36.4c-4.4,5.3-9.3,10.2-14.7,14.5c-5.3,4.3-11.2,8.1-17.2,11.2s-12.5,5.8-19,7.6
			c-6.6,1.9-13.2,3.2-20,4c-13.5,1.4-27.3,0.2-40.4-3.5c-1.7-0.5-3.2-0.9-4.9-1.5c-1.6-0.6-3.2-1.1-4.8-1.7
			c-1.6-0.6-3.2-1.2-4.8-1.9c-1.5-0.7-3.1-1.4-4.6-2.2c-6.1-3-11.9-6.7-17.3-10.9c-10.8-8.4-20.1-18.9-26.9-30.9
			c-6.8-12-11.2-25.4-12.7-39.1c-1.6-13.8-0.5-27.8,3.3-41.1c1.9-6.7,4.5-13.2,7.7-19.3c3.2-6.1,7-12,11.4-17.4
			c8.8-10.7,19.6-19.9,31.8-26.4c1.5-0.8,3.1-1.5,4.6-2.3c1.6-0.7,3.2-1.4,4.8-2.1c1.6-0.6,3.2-1.2,4.8-1.8c1.7-0.6,3.3-1.1,4.9-1.6
			c6.6-1.9,13.5-3.2,20.2-3.7c6.8-0.6,13.8-0.4,20.5,0.4c1.7,0.2,3.4,0.4,5,0.7c1.7,0.3,3.4,0.6,5,0.9c1.7,0.4,3.3,0.7,5,1.2
			c1.7,0.5,3.3,0.9,4.9,1.4c6.5,2.1,12.7,4.7,18.7,7.9C1168.8,268.4,1174.5,272.1,1179.7,276.4z M1179.4,276.8
			c-5.3-4.2-10.9-7.8-16.9-10.9c-6-3-12.2-5.5-18.7-7.1c-12.9-3.5-26.5-4.2-39.6-2.4c-6.6,0.9-13,2.5-19.2,4.6
			c-1.5,0.6-3.1,1.1-4.6,1.7c-1.5,0.6-3,1.2-4.5,1.9c-1.5,0.7-3,1.4-4.5,2.1c-1.4,0.8-3,1.5-4.3,2.3c-5.7,3.2-11.1,7-16.1,11.2
			c-5,4.2-9.6,9-13.6,14.1c-4.1,5-7.8,10.5-10.8,16.3c-3,5.8-5.5,11.9-7.3,18.1c-3.7,12.5-5,25.8-3.7,38.9
			c1.4,13,5.3,25.8,11.4,37.5c3.1,5.8,6.7,11.4,10.9,16.5c4.2,5.1,8.8,9.9,13.9,14.1c5.1,4.2,10.7,8,16.5,11.2
			c1.4,0.8,3,1.5,4.5,2.3c1.5,0.7,3,1.4,4.5,2.1c1.5,0.6,3.1,1.2,4.7,1.8s3.2,1,4.8,1.6c12.7,3.9,26.4,5,39.6,3.5
			c6.6-0.8,13.2-2.2,19.5-4.3c6.3-2.2,12.4-4.9,18.1-8.2c11.5-6.6,21.5-15.6,29.7-25.9c4-5.2,7.6-10.8,10.7-16.6
			c3-5.8,5.5-12,7.3-18.2c0.5-1.6,0.9-3.2,1.3-4.8c0.4-1.6,0.7-3.2,1.1-4.8s0.6-3.2,0.9-4.8c0.3-1.7,0.4-3.2,0.6-4.9
			c0.6-6.6,0.8-13.2,0.2-19.8c-1.1-13.2-4.7-26.3-10.9-38.2C1198.5,295.8,1189.9,285.2,1179.4,276.8z"/>
	</g>
	<path d="M1116.3,253.9c0,0-73,26-66.5,84.5c2.1,19,10.9,36.4,25.6,48.7c16.9,14.2,50.5,20.2,38.5,49.7c-8.9,22-46.2,14.4-60.6,2.3
		c-12.3-10.4-24-23.3-31-37.7c-16.3-33.6-11-75,9.6-105.3C1050.7,268.9,1084.6,257.7,1116.3,253.9z"/>
	<path d="M1130.6,405.6c5-5.8,7.9-17.1,3.9-24.2c-4.4-7.7-11.6-13.2-18.6-18.6c-24.8-18.6-33.6-29.1-33.6-58.8
		c0.1-17.8,18.7-39,31.5-49.5c-37.7,11.1-59.5,46.9-40.8,83.3C1086.3,363.7,1126.3,373.8,1130.6,405.6
		C1130.6,405.7,1130.6,405.7,1130.6,405.6z"/>
	<path d="M1123.8,255.4c-17.1-4.5-27.9,9.6-30.4,24c-4,23.1,14.5,34.3,30.2,46.7c8,6.3,15.7,13.3,20.7,22.2c5,8.9,7.2,19.8,3.7,29.4
		l0.6-0.4c7.1-9.2,10.9-20.9,6-32c-4-9.1-12-15.8-19.9-21.7c-8-5.9-16.5-11.4-22.7-19.2C1101.6,291.2,1103.3,257.6,1123.8,255.4"/>
</g>
<path class="st2" d="M943.1,102.3c0,0-44.4-23.8-89.4-35.8c-57.3-15.3-132,5.7-142.4,72.8c-6.2,39.6,12.8,72.5,50.1,87.3
	c39.6,15.8,95.2,12.8,127.6,40.5c31.6,26.9,29,85.7-4.6,110c-39,28.3-86.9,22.9-128,16.6c-41-6.3-72.8-20.3-106.7-44.2"/>
<line class="st2" x1="517.8" y1="43.4" x2="517.8" y2="417.4"/>
<path class="st2" d="M357,137.1C333.2,82.6,265.8,50.9,208.7,56c-54.8,4.9-105.2,40.5-130.3,89.4c-51.9,101.5,7.9,247.3,127.3,259.5
	c62,6.3,126.3-28.4,155-83.7"/>
</svg>
