<?xml version="1.0" encoding="utf-8"?>
<!-- Generator: Adobe Illustrator 21.0.2, SVG Export Plug-In . SVG Version: 6.00 Build 0)  -->
<svg version="1.1" id="Layer_1" xmlns="http://www.w3.org/2000/svg" xmlns:xlink="http://www.w3.org/1999/xlink" x="0px" y="0px"
	 viewBox="0 0 1223.5 599.4" style="enable-background:new 0 0 1223.5 599.4;" xml:space="preserve">
<style type="text/css">
	.st0{display:none;}
	.st1{display:inline;}
	.st2{fill:#808080;}
	.st3{fill:#FFFFFF;}
	.st4{font-family:'Raleway-Light';}
	.st5{font-size:48px;}
</style>
<g class="st0">
	<g class="st1">
		<g>
			<path class="st2" d="M1167.4,349.9c0.2-2.2,1.3-3.6,1.6-4c0,0,0,0,0,0.1c-3.6,5.1-0.3,11.6,4.3,11.1
				C1169.4,357.6,1167.1,353.7,1167.4,349.9 M1169.7,345.3L1169.7,345.3L1169.7,345.3c0.3-0.4,0.7-0.6,1-0.8
				C1170.4,344.7,1170.1,345,1169.7,345.3"/>
		</g>
		<g>
			<path class="st2" d="M1125.8,437.9c0.8,0.1,1.8,0.2,2.5,0.3c-0.4,0-0.7-0.1-1.1-0.1c-0.3,0-0.6-0.1-1-0.1c1.1,0,2.2,0.2,3.3,0.2
				C1128.5,438,1127,437.9,1125.8,437.9 M1125.8,437.9L1125.8,437.9c7.1-0.3,7.2-0.3,11-0.9c-0.4,0-0.8,0.1-1.1,0.1
				c-0.7,0-0.7,0-1,0l0.1-0.1l0,0c0.1,0,0.2-0.1,0.4-0.1l0,0c0.8-0.2,1.7-0.4,2.5-0.5h0.1l0,0c-4,0.4-7.9,1-11.8,1.5H1125.8
				 M1125.8,437.9c1.4,0.1,3.3,0.2,4.7,0.3c2.6,0.1,5.3-0.2,7.9,0c0.6,0,0.6,0,0.7,0.1c-0.1,0-0.4,0.2-2.4,0.2
				C1133,438.6,1130,438.3,1125.8,437.9 M1125.8,437.9c2.2-0.3,5.2-0.8,7.5-1.1c-0.1,0-0.3,0.1-0.4,0.1c3.7-0.4,3.8-0.4,6-0.6
				c0.6-0.1,1.1-0.2,1.7-0.4h0.2c4.3-1,4.3-1,6.5-1.8l0.7-0.2l-2.1,0.8c0.8-0.2,1-0.2,1-0.2c0.2,0,0.4-0.1,0.9-0.1v0.1l0,0l0,0l0,0
				c-0.9,0.5-3,1-3.1,1h-0.1c3.6-0.2,3.6-0.2,5.6-0.4c6.8-1.8,7.5-2,8.3-2c0,0.1,0,0.1,0,0.2c-2.1,1.5-10.8,3.3-12.5,3.1
				c0.2-0.2,0.3-0.2,3.4-1.1c-3.3,0.2-3.6,0.2-5.6,0.3c-0.3,0.1-0.6,0.1-0.8,0.2h-0.2c-2.6,0.5-9.2,1.8-15.9,1.8c0.6,0,1.3,0,1.9,0
				h-0.1l0,0C1128.1,437.9,1127.4,437.9,1125.8,437.9 M1174.8,425.5l0.7-0.5l0.7-0.1L1174.8,425.5L1174.8,425.5 M1189.2,410.7
				l0.4-0.7l2-0.4c1.3-1.5,3.2-3.5,5-4.8c1-0.7,1.4-0.7,1.2,0c-0.3,1.5-2.6,4.1-3.3,4.8c-0.3,0.3-0.6,0.7-0.9,0.9l-10.9,10.6
				c0.7-0.4,0.8-0.4,1-0.4v0.1c-1.4,0.8-3.4,1.9-4.8,2.6c0.2-0.1,0.3-0.2,0.5-0.3c1.2-0.8,1.2-0.8,2.8-1.8c5.5-5,5.7-5.2,8.4-8.3
				c-1.1,0.7-1.2,0.6-1.5,0.5c-0.1-0.4,0.2-1.1,2-3.4C1190.6,410.5,1189.8,410.6,1189.2,410.7 M1202.9,385.2c0,0,0.9-5,0.3-12.2
				c0.3-0.2,0.3-0.2,0.5-0.5c0.3,7.8,0.3,7.8-0.3,12.1c1.8-1.4,2.2-0.4,2.3-0.1l0,0c0.2,0.9,0.2,1.7-0.7,4.1c3-0.8,3.2-0.9,4.3-1.3
				c0.6-1.3,2.5-5.5,3.6-6.5c0.1,0,0.1,0.1,0.2,0.1c-0.2,2.8-5.7,13.9-11,21.4c0.1-0.1,0.2-0.3,0.3-0.4c-1,1.3-2.2,2.9-3.2,4.2
				c-1.4,1.6-3.2,3.9-4.7,5.4l0,0c5.5-6.4,9.5-11,13.9-19.8c-0.4,0.5-0.4,0.6-0.7,0.7c-0.1,0-0.1-0.1-0.2-0.1c0-0.5,0.1-1.2,1.5-4.3
				c-2.4,0.8-2.4,0.8-4.3,1.3c-2.2,4.6-5.4,7.1-6.1,5.5c-0.4-1,0.3-3,0.5-3.7c-0.7,0.1-1.6,0.3-2.2,0.5l0.1-0.8l2.4-0.5l0,0
				C1200.4,388.5,1202.1,387.1,1202.9,385.2 M1202.4,373.6L1202.4,373.6L1202.4,373.6L1202.4,373.6L1202.4,373.6 M1196.2,369.8
				l-0.2-0.9l2.7-0.6c0.3-2.3,1-4.2,2.3-5.8c0,0.1,0,0.1,0,0.2c-3.5,4.8-2.6,11.7,0.6,11.2c0.2,0,0.5-0.1,0.7-0.2
				c-1.9,1-2.7-0.4-3.1-1l0,0c-0.5-1-0.6-1.8-0.6-3.3C1197.9,369.5,1196.9,369.7,1196.2,369.8 M1093.8,435.7l-0.4-0.1
				c-1.5-0.6-3.5-1.4-5-2.1c0.3,0.1,0.6,0.2,0.8,0.3C1090.6,434.4,1092.4,435.2,1093.8,435.7 M1130.6,439.8c0.7,0.2,1.5,0.4,2.2,0.7
				c0.2,0.1,0.2,0.1,0.3,0.1c0,0,0,0,0,0.1c-1.4,0.6-5.5-1.3-7.2-2.8l0,0c0.6,0.4,1.4,1,2.1,1.3c-0.5-0.3-0.6-0.4-0.6-0.5
				c0.1,0,0.1,0,0.6,0.2C1128.5,439.1,1129.3,439.4,1130.6,439.8 M1125.8,437.9l0.4,0.1c3.5,0.9,3.5,0.9,3.5,0.9
				C1129.7,439,1128.4,438.8,1125.8,437.9 M1130.2,441.3c0.6,0.1,0.6,0.1,1.1,0.1h-0.5h-0.2c-0.4,0-1,0-1.4,0.1h-1.2h-0.2
				c-0.4,0-0.4,0-1.3,0l0,0h0.4h0.5h-0.1c0.2-0.2,0.6-0.4,0.6-0.7C1128.1,440.9,1128.1,440.9,1130.2,441.3 M1176.4,425.2l-1.6,0.3
				l1.3-0.6l1-0.2c2.1-1.4,4.4-2.5,6.6-3.8c0,0-0.1,0.1-0.2,0.3l0,0c-0.6,0.6-1.6,1.4-3.2,2.6c0.4-0.1,0.9-0.3,1.2-0.5l-0.7,0.5
				c-0.4,0.2-0.9,0.4-1.3,0.5c-3.1,2.1-5.8,3.4-6.3,3.3C1173.1,427.5,1173.6,427.1,1176.4,425.2 M1160.9,425.4
				c2-0.8,2.4-0.5,2.5-0.2l0,0c0,0.7-1.4,1.6-2.2,2.2c4-0.6,4-0.6,6.4-0.9c1.1-0.7,3.3-2,5.5-3c4.7-4.6,4.9-4.8,7.1-7.8
				c-1.9,0.9-2.7,0.9-2.5-0.3l0,0c0.1-0.2,0.1-0.2,0.3-0.7c0.3-0.6,0.5-1,1-1.6c-7,1.3-8,1.5-8,1.5s0,0.1-0.1,0.1
				c-1.7,2-3.6,3.2-4.4,3.6C1163.3,422.8,1163.2,423,1160.9,425.4 M1168.9,411.3c2.3-1.3,3-0.6,3.2-0.4l0,0c0.7,0.8-0.3,2.4-0.7,3
				c4.4-0.9,4.4-0.9,8.1-1.5c0.2-0.3,0.5-0.5,0.7-0.7l0.1-0.1c2.1-2.2,3.3-3,3.9-3.4c2.2-6.2,2.3-6.3,2.9-10.1
				c-1.9,1.2-3.2,1.2-3.8-0.2v-0.1c-0.1-0.4-0.2-0.7-0.1-1.2l0,0c0-0.5,0.1-0.8,0.2-1.4v-0.1c-6.1,1.4-6.3,1.4-9.8,2.3
				c-0.9,2.5-3.3,4.6-3.4,4.6C1169.7,407.9,1169.7,408.1,1168.9,411.3 M1127.6,436c0.8-0.7,0.9-0.6,1-0.6l0,0c0,0.1-0.1,0.4-1,1.2
				c2-1.1,2.1-1.1,3.6-1.7c2-1.5,2.6-1.9,3.5-2.4c2.2-3.2,2.2-3.2,2.7-5.3c-1.9,1.4-2.3,0.8-2.5,0.5l0,0c-0.1-0.4-0.1-0.8,0.1-1.6
				c-3.4,1.7-3.5,1.7-5.1,2.7c-0.2,1.2-0.8,2.2-1.2,2.9C1128.4,434.6,1128.4,434.7,1127.6,436 M1118.7,419.3c-0.2-0.7-0.5-2.2,0-3.4
				c1.4-2.5,4.1-1.3,5,1.4c0.6,1.8,0.2,3.2,0,3.9c2.6,3.9,2.7,4.1,3.6,6.1c0.7-0.9,0.8-0.9,1.8-0.9l0,0c0.6,0.5,0.7,0.6,0.7,1.9
				c3-1.7,3.1-1.8,5.2-2.7c1.7-4.7,5.1-6,5.8-4.3c0.8,1.9-5.7,10.8-5.8,10.9c0.7-0.4,1.5-0.8,1.9-0.6l0,0c-0.2,0.6-0.2,0.6-1.1,1.3
				c1.9-0.5,3.7-1,5.6-1.4c6.9-4.6,6.9-4.6,8.9-9c-1.9,1-2.2,0.9-3,0.6c-0.6-3.7,6.2-8.8,7.9-7.8c0.9,0.5,0.4,1.9-0.3,2.9l-8.1,10.2
				c1-0.4,2.1-0.8,2.5-0.4l0,0v0.1l0,0l0,0c-0.4,0.7-0.4,0.8-1.7,1.7l-0.1,0.1c4.4-0.9,4.5-0.9,7-1.3c8-4.8,8-4.8,11-10
				c-1.8,0.9-2.2,0.8-3,0.6c-0.9-2.2,4.2-6.6,5-7.1c1.4-1,1.7-9.5,1.7-9.5c-3.5,2.2-5.1,0.6-4.7-2.2l0,0v-0.1c0.4-2.2,1.5-4.2,3.4-6
				c-1.6-6.4-1.7-6.7-3.2-10.5c-4.1,3.2-7.5,0.3-7-4.1c0.5-5.4,6-8.7,8.9-5.4c1.3,1.5,2,5.2-1.2,8.9c2.4,6.7,2.5,6.9,3.3,10.6
				c2.2-1.4,3.2-1,4-0.7l0,0c0.9,0.8,1.3,1.5,0.9,3.5c6.4-1.5,6.4-1.5,9.8-2.3c1-2.7,2.4-4.2,3.6-5.2c-0.6-7-0.6-7.3-1.6-11.4
				c-4.2,3.1-6.7-0.7-6.1-4.8c0.4-2.8,1.8-4.4,2.4-5c-3.3-7.5-3.4-7.7-5.7-11.9c0.2-0.2,0.5-0.4,0.6-0.6c3.9,7.5,4.1,7.8,5.7,12
				c2.1-1.6,3.4-1.1,4.3-0.7l0,0c1,0.8,1.8,1.6,1.9,4.1c2.2-0.5,5.1-1.2,7.3-1.7l0.2,0.9c-2.3,0.5-5.3,1.2-7.5,1.8
				c-0.3,2.2-1.1,3.8-2.5,5.4c1.4,7.2,1.5,7.5,1.6,11.5c1.6-1,2.6-1.1,3.5-0.4l0,0c0.4,0.5,0.9,1.3,0.3,3.6c1.6-0.2,3.8-0.5,5.4-0.8
				l-0.1,0.8c-1.7,0.3-4,0.8-5.7,1.1c-0.8,1.8-2.8,2.8-3.6,4.7c-1.4,3.3-1.5,6.9-2.9,10.1c1-0.5,1.5-0.7,2.2-0.5
				c0.1,0.1,0.3,0.2,0.4,0.4l0,0c-0.1,1.4-0.7,2.3-1.4,3.2c1.1-0.2,2.6-0.5,3.8-0.7l-0.4,0.7c-1.2,0.2-2.7,0.5-3.9,0.7l-11.7,11.6
				c1.2-0.5,1.3-0.4,1.8-0.4c0,0.1,0,0.2,0,0.3l0,0c-0.5,0.7-0.8,1.1-2.7,2.4c0.8-0.1,1.9-0.3,2.7-0.4l-0.7,0.5
				c-0.8,0.1-2,0.3-2.8,0.4c-2,1.2-6.6,3.6-7.9,3c0.3-0.5,0.5-0.7,2.6-2.1c-3.7,0.5-4.2,0.6-6.4,0.9c-2.2,1.2-12.3,6-12.4,6
				l-0.7,0.2c2.1-1,4.9-2.3,7-3.5c-1.2,0.4-1.5,0.4-2.1,0.5c0-0.1,0-0.3-0.1-0.5l0,0l0,0c0.4-0.3,0.4-0.4,0.8-0.6h0.1
				c0.4-0.3,0.5-0.4,1.1-0.7c-4.3,0.8-4.5,0.8-6.9,1.3c-0.2,0.1-0.4,0.3-0.6,0.4l-0.1,0.1h-0.1c-1.6,0.9-3.2,1.5-4,1.8
				c-4.7,2.5-4.9,2.6-8.2,3.6c1.2-0.3,1.3-0.3,1.9-0.3v0.1l0,0c-1.3,0.5-1.7,0.7-10.1,1.9l0,0h0.2c4.3-0.7,9.7-1.5,15.5-5
				c-1.4,0.5-1.5,0.5-2.1,0.6c0.2-0.5,0.3-0.6,1.6-1.5c-3.8,1-3.9,1-5.8,1.6c-3.1,1.9-5.9,2.8-5.9,2.8c0.4-0.3,0.4-0.3,1.2-0.9
				c-2.1,0.8-2.1,0.8-3.3,1.5c-0.5,0.4-0.9,0.6-1.4,1l0.2-0.2c1.7-1.8,2.5-3.2,2.4-5.6c-0.5,0.6-0.5,0.6-1.1,0.8
				c-1.1-1.4-0.5-4.1-0.5-4.2c0.5-1.7-2.4-5.8-3.3-7C1121.9,424.8,1119.4,421.5,1118.7,419.3 M1123.7,434.9
				c-1.4-2.1-1.1-3.1-0.4-2.9c0.4,0.1,0.9,0.6,1.2,1.4c0.1,0.3,0.2,0.6,0.3,0.8c0.2,0.6,0.3,1.3,0.5,1.9c0.2,0.5,0.5,1.2,0.6,1.8
				l-0.6-1.5c0.1,0.6,0.1,0.6,0.1,0.7l0,0C1125.1,436.9,1124.1,435.7,1123.7,434.9"/>
		</g>
		<g>
			<path class="st2" d="M1120.1,441c-0.6,0.1-1.3,0.1-1.7,0l0,0h-0.1c0,0,0,0,0-0.1c0.1-0.1,0.2-0.1,0.6-0.2c-3,0-3.2,0-5.2-0.2
				c-0.6,0-0.9,0-1.3,0c-0.6,0-1.2-0.1-2.3-0.2l0,0l-0.5-0.1c0.8,0.1,2,0.3,2.8,0.5c3.1,0.4,3.1,0.4,4.6,0.6c0.9,0.1,2.1,0.2,3,0.2
				c0,0-0.1-0.1-0.1-0.2C1119.9,441.1,1120,441,1120.1,441 M1125.8,437.9L1125.8,437.9c-0.1,0-0.2,0.1-0.2,0.1l0,0
				C1125.7,437.9,1125.8,437.9,1125.8,437.9 M1122.6,441.5L1122.6,441.5c-0.3,0-0.8,0-1.2-0.1h0.2
				C1121.9,441.5,1122.3,441.5,1122.6,441.5 M1126,441.6h1.1h-0.4H1126 M1127.9,440.8c-0.1,0.2-0.3,0.6-0.6,0.6c0,0-0.1-0.1-0.2-0.1
				c0-0.1,0-0.1,0-0.2c-1.5-0.8-1.5-0.8-1.7-1.6c-0.3,0.4-0.4,0.4-0.6,0.3l0,0c-0.1-0.2-0.1-0.2,0.1-0.7c-1.3,0.7-1.3,0.7-2.5,1l0,0
				c-0.8,0.4-1.8,0.4-2.4,1.1c0.1,0,0.1,0.1,0.2,0.1c-1-0.1-2.4-0.2-3.4-0.3c-3-0.3-3.1-0.3-4.6-0.6c-1-0.2-2.3-0.4-3.3-0.5l0.4,0.1
				c-1.4-0.2-2.4-0.5-2.5-0.5l0,0c0.2,0,0.2,0,0.9,0.1c-4.2-0.9-4.5-0.9-7-1.6c-2.4-0.6-4-1.1-8-2.5l0,0h-0.1l0,0
				c0.4,0.1,0.9,0.3,1.3,0.4c-0.2-0.1-0.5-0.2-0.7-0.3l0.4,0.1l0.9,0.4c4.9,1.5,5.7,1.7,12.1,2c2.7,0.3,5.6,0.5,8.6,0.5h-0.3
				c-5.4,0.2-14.7-1-14.8-1c2.2,0.6,2.3,0.6,2.6,0.7c0,0,0,0-0.1,0l0,0c-0.2,0-0.2,0-0.5,0l0,0c-0.3-0.1-0.4-0.1-0.8-0.1
				c4.5,1.1,4.5,1.1,7,1.5c2.2,0.2,4.4,0.1,6.6,0.4c-0.2,0.2-0.2,0.2-0.9,0.3c3.5,0.2,3.5,0.2,5.2,0.1c1.4-0.4,2.7-1.1,4.2-1.2
				c-0.2,0.2-0.2,0.2-0.6,0.5c1.6-0.4,1.6-0.5,2.3-1c0.6-0.9,0.6-0.9,0.7-1.1c-0.1,1.7-0.2,2.6,1.5,3.2
				C1127.4,441,1127.6,440.8,1127.9,440.8 M1125.8,437.9L1125.8,437.9L1125.8,437.9"/>
		</g>
		<g>
			<path class="st2" d="M1201.6,362.1c1-0.9,1.7-1,1.9-1c-0.7,0-1.3,0.3-2,0.9L1201.6,362.1"/>
		</g>
		<g>
			<path class="st2" d="M1063.4,416.7c-1.3-1.3-1.9-2-1.8-2.3c0.1,0,0.2,0,0.3,0l0,0c0.2,0.1,0.2,0.1,0.5,0.3
				c0.5,0.3,0.9,0.5,1.4,0.9c-2.4-3.9-2.5-4-3.4-6.4c-2.2-2-3.4-3.7-3.9-4.4c-4.7-3.4-5-3.6-7.2-5.6c1.1,2,1.1,2.4,1,2.6l0,0
				c-0.1,0-0.4,0.1-1.7-1.6c1.2,2,3,4.6,4.4,6.5l2.1,2.5c1.2,1.4,2.1,2.3,2.7,3C1060.9,415,1061,415.1,1063.4,416.7 M1076.1,427.2
				c-1-0.6-1.8-1.2-2.4-1.6c-0.1-0.1-0.3-0.2-0.4-0.3c0.2,0,0.2,0,1.5,0.8c-4-3.1-4.3-3.3-6.3-5.3c-1.5-1-3.1-2.3-4.5-3.6
				c-3.8-2.7-4-2.9-5.6-4.5c0.2,0.3,0.5,0.5,0.7,0.8c2.1,2,5,4.7,7.3,6.7C1069.2,422.3,1073.1,425.1,1076.1,427.2
				C1076,427.1,1076.1,427.2,1076.1,427.2 M1099.8,437c-0.4-0.1-0.6-0.2-0.9-0.3c-0.1,0-0.1-0.1-0.2-0.1c0.3-0.2,0.3-0.2,2.3,0.2
				c-12.5-4.4-14.2-5.3-14.7-6.1c0.3-0.1,0.4-0.2,2.8,0.6c-2.2-1.5-4.1-3.4-6.4-4.6c-1.9-1-3.2-1.9-3.7-2.3c-5.7-2.4-6-2.5-8.9-3.9
				c0.8,0.7,1.2,1.1,1.5,1.6c0,0.1,0.1,0.2,0.1,0.3l0,0c-0.7,0-1.9-0.8-2.4-1.1c5,4.6,5,4.6,11.9,8.4c2.3,1.3,2.4,1.4,2.6,1.6
				c-0.5,0-3-1.2-6.9-3.6l0,0l3,1.8C1085.9,432.9,1092.6,435.4,1099.8,437 M1036.5,375.9l0.2,0.7l-0.3-1.1L1036.5,375.9
				 M1110.1,438.4c-11-0.8-21.3-3.9-30.3-9c-6.4-3.9-7.7-4.7-13.4-9.2c-6.4-5.7-7.1-6.3-11.2-10.9l-3-3.6c-1.3-1.8-2.9-4.2-4-6.1
				c-1.9-2.6-5.2-8.1-5.2-8.1l-0.5-0.9c0.6,1,1.4,2.4,2.1,3.4c-1-1.9-1.1-2.4-1.2-2.9c0.1,0,0.2,0,0.3-0.1l0,0
				c0.4,0.3,0.4,0.3,0.6,0.5l0,0c0.3,0.3,0.4,0.4,0.8,1c-0.3-1.5-0.8-3.5-1-5l0.4,0.5c0.3,1.6,0.6,3.7,1,5.2
				c5.1,7.2,5.1,7.2,10.5,10.9c-0.9-1.7-0.8-2-0.5-2.6c2.8,0,7.3,6.3,7.4,6.4c0.4,0.6,3.8,2.6,10,5.8c-0.7-1.2-0.6-1.5-0.5-2
				c1.2,1.7,2.8,4,4.1,5.6c-3.9-3.1-3.9-3.1-12.9-8.3c0.7,1.2,0.7,1.5,0.7,2c-0.1,0.1-0.2,0.3-0.3,0.3l0,0c-0.6,0-1.3-0.2-2.9-1.5
				c1.9,4.1,1.9,4.1,3.4,6.3c0.3,0.2,0.6,0.4,0.9,0.7l0.1,0.1c5.8,4.4,5.8,4.4,12.8,7.2c-1-0.8-1.1-1-1.4-1.5
				c0.1-0.1,0.1-0.2,0.2-0.3c0.2,0,0.4,0,0.5,0l0,0c0.4,0.1,0.5,0.1,1.1,0.4h0.1c0.5,0.2,0.7,0.3,1.4,0.6c-0.7-1.2-1.6-2.9-2.1-4.1
				l1.1,1.2c0.5,1,1.2,2.4,1.8,3.4c2,1.1,3.7,2.6,5.9,3.4l0.6,0.4l-0.5-0.2c1.2,0.9,1.2,1,1.3,1.4h-0.1l0,0c-0.6,0-1.1-0.1-3-0.8
				c2.5,2.3,2.5,2.3,4.7,3.7l0,0c7.1,2.4,7.1,2.4,14.1,3.7l0.7,0.2c-2.4-0.4-5.7-1-8.1-1.5c1.5,0.6,1.6,0.6,1.9,0.9
				c0,0,0,0.1-0.1,0.1l0,0c-0.5,0-0.9,0-3-0.5c3.9,1.7,4,1.7,6.4,2.4c2.8,0.5,5.7,0.8,8.5,1.4
				C1110.2,438.2,1110.1,438.3,1110.1,438.4 M1193.9,284c-0.2-0.4-0.2-0.4-0.2-0.6c0.2,0,0.3,0,1.4,1.1l0.1,0.1
				c0.8,0.8,1.4,1.5,2.3,2.6l-0.1-0.2c-2.3-2.5-5.3-5.7-7.8-8.1c-2.7-2.3-6.3-5.3-9.1-7.4c0,0.1,0,0.2,0,0.2c-0.1,0-0.2,0.1-0.3,0.2
				c2.5,1.9,3.4,3,3.7,3.4C1190.2,280.4,1190.6,280.7,1193.9,284 M1174.8,315.6c1.1-1.1,3-2.1,5.9-0.3l0.1,0.1
				c0.6,0.5,1,0.8,1.5,1.4l0,0c0.4,0.5,0.7,0.9,1.1,1.7v0.1c6.4-1.7,6.4-1.7,10-2.7c-0.5-1.4-0.7-3.6-0.3-5.4
				c-6-7.3-6.1-7.4-9.8-11.4c-1.1,1.3-2.7,0.9-3.8,0.5l0,0c-1.7-0.7-3-1.8-4.3-3.6c-6.1,1.6-6.9,1.8-10.7,2.8
				c0.1,0.3,0.1,0.3,0.3,0.9l0.1,0.1c0.2,0.9,0.7,2.7-0.5,4.4C1171,311.1,1171.4,311.5,1174.8,315.6 M1154.7,295.9
				c1.1-1,3-2,6.2-0.5l0.1,0.1c0.4,0.2,0.5,0.3,1.1,0.8c0.9,0.7,1.3,1.1,1.9,1.9c6.9-1.9,6.9-1.9,10.7-2.8c-1.2-2.3-1-3.6-0.7-4.6
				c-6.9-6-6.9-6-10.9-9.1c-1.1,1.1-2.8,0.9-4,0.6l0,0c-2.3-0.6-3.7-2-4.4-2.8c-6.4,1.6-6.9,1.8-10.8,2.8c1.4,2.4,0.2,4-0.1,4.6
				C1150.4,292.1,1151,292.6,1154.7,295.9 M1157.5,260.6c-1.3-0.7-1.3-0.7-2.3-1.6c0.4-0.1,4,1.3,4.5,1.5l0,0c0.1,0,0.3-0.1,0.4-0.1
				l0,0l0,0l0.7,0.3c-0.1,0.1-0.3,0.1-0.5,0.2c0.5,0.2,0.5,0.2,1.2,0.6l0.1,0.1c0.6,0.3,1,0.5,1.4,0.8c1.4,0.9,1.2,1.1,1,1.1
				c-0.9,0.1-5.1-2-6.3-2.7C1157.7,260.7,1157.6,260.7,1157.5,260.6 M1135.6,287.2c2-2.1,4.8-4.8,6.9-6.8c0.3,0.2,0.6,0.5,0.8,0.8
				c4.8-1,4.8-1,11-2.5c-0.9-1.5-1-2.2-0.7-3.4c-1-0.8-2.2-1.8-3.2-2.6l0.3-0.4l3.3,2.2c1.7-1.5,3.9-0.7,5-0.2l0,0
				c0.7,0.3,0.8,0.4,1.5,0.9l0.1,0.1c0.5,0.4,0.7,0.5,1.2,1c4.9-1.1,4.9-1.1,7.7-1.7l-0.5-0.5l-0.1-0.1l0,0c-1-1.3-1.1-2-1.2-2.6
				c-6.8-4.3-6.8-4.3-10.6-6.4c-0.3,0.2-0.7,0.4-1.1,0.5c0.2-0.6,0.5-1.3,0.6-1.9c0.3,0.5,0.3,0.5,11,7.5c1.6-1.9,6.3,2,6.3,2.1
				c2.7-0.6,3-0.7,4-0.9c-2.9-2.5-3.2-3.1-3.4-3.5c0.6,0.1,1.3,0.2,4.7,2.6c0.1-0.1,0.2-0.2,0.3-0.4c3,2.3,7,5.5,9.9,8
				c2.6,2.6,6,6.1,8.4,8.8l0.1,0.2c2.9,3.6,3.4,4.7,3.6,5.2c-1.8-0.5-6.9-7.6-6.9-7.7c-0.9-1.3-4.9-5.3-10.8-9.9
				c-0.1,0.1-0.3,0.3-0.5,0.4c-0.2-0.1-0.6-0.2-0.8-0.4l0,0c-1.2-0.7-2.1-1.3-3.9-2.7c-2.1,0.5-2.1,0.5-4.1,0.9
				c4.5,4.1,8.6,8.5,13,12.7c0.1-0.2,0.2-0.4,0.3-0.5c5.3-0.9,8.1,9.6,8,9.8c-2,1.8-7.8-5.2-8.2-8.1c-0.2-1.6-10.3-9.4-10.8-9.7
				c-0.5,0.5-0.8,0.9-2.7,0.2h-0.1l-0.3-0.1l0,0l0,0c-1.9-1.1-2.7-1.5-3.7-2.5l-0.1-0.1c-3.5,0.8-5,1.1-7.7,1.7
				c1.2,1.6,1.3,2.4,1.1,3.7c3.6,3.2,7.2,6.2,10.7,9.4c3.2-3.4,9.7,3.2,9.6,7.1c0,0.3-0.1,0.6-0.1,0.9c3.2,3.9,6.5,7.7,9.7,11.7
				c2.4-2.9,5.9,1.5,6.7,3.3v0.1c0.1,0.3,0.3,0.7,0.5,1.1c0.7,1.7-0.1,3.6,0.5,5.3c1.8,4.7,4.7,9,6.8,13.6c2.2-2.9,4.4,1.1,4.9,5.1
				c0.7,5.3-1.2,8.6-3.2,7.3c-2.4-1.6-3.3-8-2.4-10.8c0.7-2.2-6.5-14.1-6.6-14.2c-0.7,0.8-1.5,1.4-3.4,0.4h-0.1
				c-1.2-0.8-2.2-1.7-3.4-4.3c-6,1.6-6.5,1.7-10,2.7c1,3.1,0.3,4.9-0.5,6.2c5.2,7.8,5.5,8.3,8.1,12.8c3.9-3.7,7.5,1.6,7.3,6.5
				c-0.1,2.3-1.1,3.7-1.4,4.2c3.1,8.1,3.2,8.4,4.3,12.9c3-2.6,5,0.3,4.6,4.4c-0.5,5.1-4.3,9-6.4,6.6c-1.4-1.6-1.6-6.6,1.2-10.5
				c-2.3-8.1-2.4-8.3-4.3-12.9c-1.9,1.6-3.5,0.9-4.1,0.6h-0.1c-1.1-0.8-2-1.7-2.7-4.3c-2.5,0.7-5.7,1.5-8.2,2.2l-0.5-0.9
				c2.6-0.7,6-1.6,8.5-2.3c-0.2-2,0-3.8,1.2-5.9c-4.7-8-4.9-8.3-8.1-12.8c-1.8,1.7-3.3,1.3-4.7,0.9h-0.1c-1.4-0.7-2.5-1.4-3.8-3.9
				c-2.5,0.6-5.9,1.5-8.4,2.3l-0.7-0.9c2.6-0.8,6.1-1.9,8.7-2.6c-0.6-2.3-0.5-4,0.5-5.8c-6.5-7.3-6.5-7.3-10.4-11.3
				c-0.5,0.4-1.6,1.3-3.3,1.2c-0.9,0-1.1-0.1-1.7-0.2h-0.1c-0.7-0.3-2.5-1.1-4.2-3.1c-2.5,0.6-5.8,1.3-8.2,2.1l-0.8-0.7
				c2.5-0.8,5.8-1.8,8.3-2.6c-0.7-2-0.4-3.2,0.1-4.8c-5.9-5.5-5.9-5.5-10.8-9.4c-1.9,1.4-3.6,1.2-5,1.1h-0.1
				C1137.4,288.1,1136.7,287.9,1135.6,287.2 M1078.5,418.5l0.6,1.7l-1.1-1.2l-0.3-1c-1-0.7-1.9-1.2-5-6.6c1.4-0.3,3.5,1.3,3.6,1.4
				h0.1c2.9,2,4.8,4.3,4.9,4.4s0.2,0.3,0.3,0.4c0.1,0.1,4.4,2.1,10.6,4.9c-0.9-1.1-0.7-1.8,0.3-1.7c2.4,0.2,9.3,5.4,9.2,6.9
				c-0.8,0.5-3.7-1-4.6-1.5c-1.6-0.9-2.8-2.4-4.5-3.3c-3.4-1.8-7.1-3.2-10.6-4.9c1,1.5,0.5,1.8,0.1,1.8l0,0
				C1080.9,419.9,1079.2,418.9,1078.5,418.5 M1106.8,435.8l-2.1-0.3l-0.7-0.2l2.1,0.3c-1.5-0.4-1.7-0.6-1.9-0.7
				c0.3-0.1,0.3-0.1,0.7,0l0,0c0.7,0.1,1.3,0.2,2.8,0.5c-3-1.4-3.2-1.5-4.7-2.5c-5.2-1.7-10.3-3.7-15.5-5.4l-0.6-0.4
				c6.5,2.2,6.5,2.2,10,3.3c-0.9-0.6-1.1-0.7-1.3-1.1c0-0.1,0.1-0.2,0.2-0.2c1.2,0,4.3,1.2,9.4,3.6c1,0.5,10.7,3,10.8,3
				c-1.1-0.4-1.3-0.5-1.4-0.7c0.4-0.1,0.6-0.1,3.9,1c2.7,0.9,4.9,1.5,7.3,2c-4.5-0.8-5.7-1-19.6-4.8c1,0.5,1.1,0.6,1.3,0.8
				c-0.1,0-0.1,0.1-0.2,0.1l0,0c-0.6,0-1.3-0.2-3.5-0.8c2.8,1.6,2.8,1.7,4.7,2.4c2.9,0.6,5.9,1.1,8.8,1.7
				C1116.7,437.4,1114.4,437.3,1106.8,435.8 M1087.2,262.9c1-0.6,2.2-1.4,3.2-1.8l0,0l0.5-0.2c-0.9,0.5-2.2,1.1-3,1.7
				c1.9-0.9,3.3-1.4,3.5-1.3l0,0v0.1c-0.1,0.2-0.1,0.2-0.5,0.5c1.5-0.6,3.5-1.3,5-1.8l-0.1,0.2c-1.6,0.6-3.7,1.3-5.3,1.9
				c-2.7,2-7.8,4.9-8.5,4.3C1082.1,265.8,1082.2,265.8,1087.2,262.9 M1071.9,271.3l1.1-0.8l0.7-0.5l-1.1,0.8c0.4-0.3,2.4-1.6,3-1.9
				c0,0,0,0,0.1,0c-0.3,0.5-8.6,7.3-9.4,7.2C1066.1,276.1,1066.4,275.2,1071.9,271.3 M1058.7,344.6c0.8-1.7,2.3-3.6,5.1-2.9h0.1
				c0.5,0.2,0.9,0.4,1.4,0.8l0,0c0.4,0.3,0.7,0.7,1.1,1.3v0.1c6.7-5,7-5.2,11.4-8c-0.9-2.6-0.2-4.6,0.6-6.1
				c-6.3-5.7-6.3-5.7-9.5-8.9c-2,2.6-3.9,2.7-4.6,2.8l0,0c-2.3,0.1-3.1-1.9-3.3-2.5c-6.4,5.2-6.6,5.4-9.7,8.5
				c0.3,1.2,0.7,3.1-0.4,6.7C1055.6,341.7,1055.6,341.7,1058.7,344.6 M1035.5,347.7c0.8-4.9,2.2-3.3,2.3-3.1
				c0.3,0.4,0.9,1.6,0.9,1.6v0.1l0,0c3.2-5.7,3.3-6,5.7-9.2c-0.5-2.9,0.2-5.3,0.5-6.3c-2.9-4.9-2.9-5-3.9-7.5c-1.2,2.7-2,3-2.3,3.1
				l0,0c-0.8,0.1-0.9-1-0.9-2.1c-2.7,5.5-3,6.1-3.9,9.2c-0.6,2.2-0.4,4.4-0.7,6.6C1034.3,345,1034.3,345.1,1035.5,347.7 M1034,365.7
				c-0.4-2.6-0.4-3.1-0.3-3.4c1,0.6,2.4,7.5,2.7,8.9c2.8,4.3,2.8,4.4,5,6.9c-0.3-2.2-0.3-4.2,1.6-2.8c0.5,0.4,0.9,0.9,1.2,1.3l0,0
				c1.5-5.3,1.6-5.5,3-8.5c-2.7-5.4-1-11.1,2-9.8c1,0.4,1.7,1.4,2.1,2c4.2-5.3,4.3-5.5,7.3-8.5c-1.2-2.8-0.6-5.2-0.4-6.1
				c-5.2-5.1-5.5-5.4-7.9-8.2c-2.3,5.1-5,2.7-5.7,0.9c0-0.1-0.1-0.2-0.1-0.3c-5.7,8.3-5.7,8.6-5.4,10.6v0.1c0.1,0.8,0.2,1.7,0.2,2.5
				c0.1,1.7-0.1,2.6-0.1,3.2c-0.4,2.9-1.4,4.1-2.4,2.8c-0.8-1-1.1-2.3-1.3-3.3c-0.3-1.7-0.4-2.9-0.3-5.1v-0.2
				c-1.9-4.8-1.9-4.9-2.3-7.6c-0.4,2.8-0.5,3-0.7,3.3c-0.1-0.2-0.2-0.4-0.1-2.2v0.4l-0.1,5.1c0.4,10,0.4,10.4,1.4,16.4
				C1033.7,364.5,1033.9,365.2,1034,365.7 M1039.7,316.9c1.4-3,2.7-4,3.1-2.6c0.3,0.8,0.3,3.6-1.4,8.1c2.1,4.8,2.1,4.8,3.9,7.5
				c1-2.2,2-3.2,3.4-3.2l0,0h0.1c0.7,0.2,1.6,0.5,2.3,2.1c5.8-5.5,5.9-5.6,9.7-8.5c-1-6.1,5.2-11.4,8.5-8.9c0.6,0.5,0.9,1,1.2,1.5
				c7.9-4.7,8.1-4.8,12.9-7.3c-0.6-2.6,0.9-4.6,1.4-5.4c-5.1-4.6-5.4-4.9-7.7-7.2c-2.1,1.9-3.7,2.2-4.8,2.3l0,0
				c-2.1,0-2.5-1.4-2.6-2c-7,4.4-7.3,4.5-10.9,7.2c0,1.9-0.8,3.9-2.4,6.3c-2.9,3.8-5.1,3.6-5.6,1.3V308c0-1.1-0.1-2.9,2.1-6.3
				c-1.2-3.9-1.2-4.1-1.2-6.2c-1.7,2-2.4,2.5-2.8,2.7l0,0c-0.1,0-0.2,0-0.3,0c-0.2-0.3-0.3-0.4,0.2-1.7c-5.1,6.2-5.1,6.2-8.5,13.6
				C1039.5,314.3,1039.5,314.5,1039.7,316.9 M1033.3,333.3c0.2-1.6,0.4-2.4,0.5-2.5l0.1,0.1l0,0c0.1,0.8,0,1.4,0,1.9
				c2.1-5.9,2.1-6,3.9-9.2c0.3-2.6,1.1-4.9,1.5-5.8c-0.1-4.2-0.1-4.4,0.6-6.7c-1.2,2.6-1.4,2.9-1.4,3l0,0V314l-1,2.8
				c-2.8,9.2-2.9,9.6-3.9,15L1033.3,333.3C1033.3,333.4,1033.3,333.3,1033.3,333.3 M1036.5,375.9l-0.1-0.4v-0.1l-0.8-2.9
				c-0.5-1.6-0.5-1.6-1.8-7.3c-1.4-9.5-1.5-10.4-1.6-17.5c0.4-10.1,0.4-10.3,1.4-15.8c2.1-9.6,2.1-9.8,3.9-15
				c3.5-8.8,3.6-9.2,6.2-14l0.2-0.4l0,0v0.1l0,0l-0.2,0.5v0.1c-0.1,0.3-0.3,0.7-0.4,1c3.4-5,3.4-5.1,5.9-7.9c1.1-2.1,6.3-10,6.3-10
				l2.8-3.1l0,0c-3.2,3.4-4.5,5.1-5.4,7.5c1.7-2,2-2.1,2.9-2.7c0.2,0.8,0.2,0.8,0,1.4l0,0c-3.6,8.1-3.6,8.1-2.2,11.7
				c3.8-4.6,5-2.4,5.3-1.6c3.7-2.2,7.3-4.5,10.9-6.6c0.5-4.6,5.6-7.8,8-7.6c3.4,0.6,2.7,4.2,0.1,7.3c4.5,4.4,4.5,4.4,7.6,7.2
				c2.3-2,4.6-2.7,7-2.1l0,0c0.7,0.3,0.9,0.3,1.5,0.8l0.1,0.1c0.6,0.6,0.7,0.7,1,1.2c8.9-3.8,8.9-3.8,14-5.7
				c-1.4-5.4,5.9-8.9,10-6.2c0.5,0.3,1.1,1,1.5,1.5c1.6-0.5,3.7-1.2,5.3-1.8l0.7,0.6l-5.7,1.9c0.3,1,0.3,1,0.2,2.2
				c-0.1,1-0.3,1.6-1.3,3.1l3.6,3l-0.7,0.6l-3.5-3c-2.4,1.8-4.5,1.8-5.6,1.6h-0.1c-2.2-0.4-2.7-0.8-3.9-2.2
				c-7.8,2.4-7.8,2.4-14.2,5.3c0.5,2,0.2,3.7-1.3,5.7c5.9,5.1,7.1,6.1,10.4,9.1c1.2-1.1,1.9-1.6,3.5-2.1c-1.6,1.8-3.7,4.3-5.3,6.1
				c0.2-1.5,0.4-1.9,1.2-3.2c-6.2-5.5-6.2-5.5-10.5-9.1c-2.4,2.2-4.6,2.3-5.6,2.2h-0.1c-1.9-0.2-2.8-0.7-3.8-2.1
				c-7.8,3.5-7.8,3.5-13.2,6.9l0,0c0.4,2.1,0.1,4-1.2,6.3c5.4,5.2,6.1,5.9,9.5,8.9c2.4-2.8,4.6-2.8,5.8-2.7l0,0l0.2,0.1
				c0.3,0.1,0.7,0.1,1,0.2l0,0c1.7,0.9,2.2,1.3,3,2.4c2.8-1.5,6.5-3.4,9.4-4.8l-1.5,1.8c-2.2,1.1-5.2,2.6-7.4,3.8
				c1.2,3.5,0.1,5.1-1.8,7.9c-2,1.8-3.1,1.9-4.8,1.9l0,0l0,0h-0.2h-0.2h-0.1h-0.1c-0.8-0.2-2.3-0.7-3.7-2.4
				c-7.1,4.1-7.1,4.1-11.6,7.6c0.9,2.2,1,4.2,0.2,6.5c2.4,2,5.6,4.6,8,6.5l-0.4,0.8c-2.4-1.9-5.6-4.5-7.9-6.5
				c-1.4,2.5-2.8,2.7-3.8,2.8h-0.1c-1-0.1-2.3-0.2-3.8-2.5c-5.1,5.3-5.1,5.3-7.3,8.4l0,0c1,2.1,1.4,4,1.3,6.3
				c5.8,4.8,5.8,4.8,9.5,7.7c0.9-3.8,3.9-2.7,4-2.7l0,0c1.1,0.4,1.4,0.6,2.3,1.5c-0.6,3-1.4,7-1.8,10.1c-1.8-1-3.1-2.5-3.9-4.5
				c-1.6-3.9-1.6-3.9-10.3-11.3c-0.3,1.6-0.8,2.6-2.2,2.9l0,0c-1.1-0.1-1.9-0.4-3.1-2.2c-2.2,5.3-2.3,5.5-3,8.5
				c1.2,1.8,1,4.2,2.5,5.9c0,0,2.8,2.6,8.4,6.7c-0.5-3.9,2.3-2.9,3.6-1.9c3.5,2.8,6,9.2,3.9,10.1c-1.3,0.5-3.9-1.4-5.7-4.1
				c-1.9-2.9-1.9-2.9-10-10c0.3,1.9,0.1,2.2-0.5,2.8l0,0h-0.1l0,0l0,0c-1-0.4-1.1-0.4-2.2-1.8l-0.1-0.1l0.2,2.9l-0.4-0.5l-0.2-3.2
				l-0.4-0.7l-0.1-0.2l0,0c-1-1.8-1.5-3.5-1.8-4.5c-3.4-4.2-3.6-4.4-5-6.9c0.3,1.5,0.4,2.6,0.3,3.1l0,0c-0.5-0.5-0.5-0.5-1-1.9
				C1036,374,1036.3,375.1,1036.5,375.9"/>
		</g>
		<g>
			<path class="st2" d="M1130,304.9c-2.2-1.9-5-4.4-7.2-6.3l0.7-0.6c2.2,1.8,5,4.3,7.2,6.2c1-0.9,1-0.9,4.1-1.7
				c2.6-0.1,4.6,1,6.2,3.2c1.4-0.5,3.4-1.1,4.8-1.6l0.8,0.7l-5.1,1.7c2.3,5.8-3.8,9.9-8.7,7.5C1129.9,312.7,1127.3,308.9,1130,304.9
				 M1103.4,322.8l-6.6,3.2l1.5-1.8l4.6-2.2c-0.8-2.5-0.8-2.5,5.3-8.9c6-0.8,9.5,5,6.2,10.2c6.7,6.3,7.5,7.1,11.1,10.6
				c1.1-1.1,1.1-1.1,4.2-2c2.7-0.1,4.7,1,6.2,3.5c8.9-3.2,8.9-3.2,13.9-5c-1.6-6.4,4.3-10.3,8.7-7.4c1.5,1,2.2,2.2,2.6,3
				c1.2-0.4,2.8-0.9,4-1.3l0.7,0.9l-4.3,1.4l0,0c1,3.5-0.4,5.5-1,6.4c5.8,7.4,6.2,7.8,9.1,12c2.7-2.4,4.9-1.4,6.4-0.4l0,0
				c1.1,0.9,1.6,1.7,2.1,3.2c0.9-0.3,2.2-0.6,3.1-0.9l0.5,0.9l-3.4,0.9c0.8,6.3-4.9,9.9-8.5,6.9c-2.4-2-3.4-6.3-0.8-10.1
				c-5.4-7.5-5.5-7.7-9.1-12c-2.2,1.9-4.3,1.6-5.4,1.2h-0.1c-2.4-0.8-3.5-2.3-4.2-3.9c-8.4,2.9-9.1,3.2-13.9,5
				c1.9,6.2-4.1,10.7-8.9,8.2c-2.6-1.3-5.2-5.4-2.5-9.9c-6.8-6.5-6.8-6.5-11.2-10.6c-2.2,2.1-4.1,2.2-5.7,2h-0.1
				C1105,325.6,1103.9,323.7,1103.4,322.8 M1087.7,337.7l1.5-2c-0.2,0.3-0.2,0.4-0.4,0.7c6.4,5.4,8,6.7,11.3,9.6
				c3.8-4.7,10.4-1.8,11,3.4c0.7,5.8-5.5,9.6-9.9,6c-0.4-0.3-4.1-3.6-1.7-8.6c-6.4-5.4-6.4-5.4-11.4-9.6
				C1088,337.3,1087.9,337.5,1087.7,337.7 M1067.3,383.9c0.4-3.1,1.1-7.1,1.7-10.1c0.1,0.1,0.3,0.3,0.4,0.4c4.4-3.9,6-5.4,8.7-7.4
				c-1.1-2.1-1.3-3.8-0.7-5.9c-0.8-0.7-1.9-1.5-2.8-2.2l0.4-0.8l2.7,2.1c2.7-5,9-2.7,10.3,2.5c0.6,2.2,0,3.8-0.3,4.5
				c6.9,5.4,7.7,5.9,11.4,8.9c2.9-4.5,8.9-1.9,9.8,3c0.9,4.7-2.9,8.7-7.3,5.9c-1.9-1.2-4.2-4.4-2.9-8.2c-6.4-5-6.4-5-11.4-8.9
				c-1.1,1.8-1.5,1.8-4.3,2.4h-0.1c-2.5-0.2-3.9-1.9-4.4-2.6c-5.8,4.7-5.9,4.8-8.6,7.5c2.9,4.6,1.8,9.9-1.8,9.1
				C1068.2,384.2,1067.8,384.1,1067.3,383.9 M1126.7,287.9l-0.7-0.6c2.3-0.7,5.3-1.7,7.6-2.4c-1.7-3.9,2.4-7.2,7-5.5
				c0.9,0.3,1.5,0.8,1.9,1c-2.1,2-5,4.6-7.2,6.6c-0.6-0.5-0.9-0.8-1.3-1.4C1131.8,286.3,1128.8,287.2,1126.7,287.9 M1135.9,263.5
				c0.2-0.2,0.3-0.3,0.7-0.4c0.6-0.2,0.6-0.2,1.6-0.3c0.6,0,0.8,0,1.3,0.1h0.1c0.2,0.1,0.5,0.1,0.7,0.2h0.1c0.6,0.2,1.3,0.5,2.4,1.3
				l0.1,0.1l0,0c4.8-1,4.8-1,7.3-1.5c-1.5-1.3-1.5-1.9-1.5-2.2c-5.8-2.6-5.8-2.6-8.7-3.7c-0.4,0.3-1.1,0.4-2.3,0.2l0,0
				c-0.4-0.1-1.7-0.3-2.9-0.9c-3.6,0.6-4,0.6-6.4,1.1c0.7,0.8,0.2,1.4-0.3,1.9C1132.5,261.6,1133.1,261.9,1135.9,263.5
				 M1103.7,257.1c3.1-1,3.5-0.7,3.7-0.6c-0.2,0.6-2.3,1.6-3.2,2c1.2,1.5,1.2,1.5,2.5,2.6c0.5-0.2,0.6-0.3,1.1-0.5
				c1.1-0.3,4-1.2,4.9,0.4c6-1.6,6-1.6,9.1-2.3c-0.7-2,3.9-3,6.1-1.8c0.1,0.1,0.3,0.2,0.4,0.3c4.3-0.8,4.3-0.8,6.3-1
				c-0.9-0.6-0.8-0.9-0.7-1c-3.9-0.9-3.9-0.9-7-1l0,0c-0.3,0-0.3,0-1.4-0.1c-3.5,0.1-3.5,0.1-6.8,1.1c-0.3,0.1-0.4,0.1-0.8,0.2
				c-1.5,0.3-2.5,0.4-3,0c0,0,0-0.1,0-0.2c0.1-0.1,0.5-0.4,2.1-0.7l-0.1-0.1c-1,0.1-2.4,0.3-3.4,0.4c-3.6,0.5-4.6,0.7-8.6,1.6
				C1104.5,256.6,1104,256.8,1103.7,257.1 M1095.9,260.2l0.1-0.2l3.9-1.2c1.1-0.7,4.5-2.2,4.6-2.2c4-0.9,4.9-1.1,9.1-1.7
				c1.1-0.1,2.7-0.3,3.8-0.4h0.1c0.3,0,0.5-0.1,0.8-0.1c1.2-0.1,1.5-0.1,6.9-0.3h1.6c0.6,0,1.5,0,2.1,0l0,0c2.7,0.4,3,0.4,5.2,1
				c0.3-0.1,0.8-0.3,2.5,0l0,0c0.4,0.1,0.5,0.1,1,0.2h0.1c0.3,0.1,0.5,0.1,0.9,0.3c2.2-0.2,2.2-0.2,3-0.2c-0.9-0.2-1.2-0.3-1.7-0.4
				l0,0c1.3,0.2,3,0.5,4.3,0.7l0.3,0.1c0,0,8.4,2.4,11.2,3.5l0.7,0.5c-0.1-0.1-0.3-0.2-0.5-0.3c-6.2-2.2-6.3-2.3-9.6-3.1
				c-0.4,0.1-0.4,0.1-1,0l0,0c-3.6-0.8-3.6-0.8-6.2-0.5c1.3,0.6,1.3,0.8,1.4,1.2c5.1,2,5.4,2.1,8.6,3.6c1.2-1.2,5.9,0.9,7.8,2.8
				c-0.2,0.6-0.3,1.5-0.6,2.1c-0.5,0-0.5,0-1.5-0.2l0,0c-1.2-0.4-2.2-0.7-3.8-1.8c-4,0.8-4.6,0.9-7.4,1.5c0.2,0.3,0.4,0.5,0.6,0.8
				v0.1c0.2,0.6,0.5,1.1-0.1,2.1c2.1,1.3,4.8,3.1,6.8,4.4l-0.3,0.4c-2-1.3-4.8-3.1-6.8-4.4c-0.4,0.3-0.4,0.3-0.7,0.4
				c-1.1,0.4-1.1,0.4-3.1,0.2h-0.1h-0.1h-0.2c-2.1-0.5-3.2-1.6-3.4-1.8l-0.1-0.1c-6.1,1.5-6.6,1.7-10.3,2.7c1.6,3.4-3.3,6.1-7.1,4.9
				c-3.6-1.1-3.7-4.6-0.3-6.4c1.7-0.9,5-1.4,7.1,1c6.6-1.8,6.6-1.8,10.2-2.7c-0.1-0.1-0.2-0.3-0.2-0.4v-0.1c-0.4-0.9,0-1.6,0.1-1.9
				c-4.1-2.7-4.1-2.7-7.6-4.5c-1.3,0.7-2.6,0.7-3.4,0.6l0,0c-1.3-0.2-1.7-0.4-2.4-0.9c-5,0.9-5,0.9-9.4,2.1c0.1,1.7-2.5,3.2-3.4,3.5
				c-2.6,0.8-3.8,0.9-5.1-0.2c-0.4-0.4-0.8-1.5,1.8-3.2c-1.9-1.8-2.1-2-2.5-2.7c-1.5,0.6-2.5,0.9-3.5,0.9l0,0
				c-0.2,0-0.5-0.1-0.7-0.2c0-0.1,0.1-0.2,0.1-0.3C1098.3,259.4,1096.9,259.9,1095.9,260.2"/>
		</g>
	</g>
	<g class="st1">
		<g>
			<path class="st2" d="M1079.3,427.9c-2.6-2.4-7.6-5.9-8.4-5.6c-0.4,1,7.5,6.3,7.6,6.3c0.3,0.2,0.7,0.4,1,0.6
				c-0.8-0.5-1.9-1.3-2.6-1.9c0.9,0.6,3,1.8,3.5,1.7l0,0c0-0.1,0-0.2-0.6-0.8c2.2,1.1,5.2,2.5,7.5,3.5l0,0l-0.1-0.2
				C1084.7,430.4,1081.6,429,1079.3,427.9z"/>
		</g>
		<g>
			<path class="st2" d="M1071.1,414.7c-1.2,2.2,6.1,8.8,8.6,7.8c0.6-0.2,0.5-0.8,0.5-1.1c2.5,1.2,5.8,2.7,8.3,3.8l0,0l0.2-0.3
				c-2.6-1.2-6-2.7-8.6-3.9C1078.9,417.2,1072.2,412.7,1071.1,414.7z"/>
		</g>
		<g>
			<path class="st2" d="M1169.6,363c-0.8-0.7-1.6-1.1-2.6-1.3l4.4,4.3C1171,364.7,1170.5,363.8,1169.6,363z"/>
		</g>
		<g>
			<path class="st2" d="M1106.6,431.6c-2.8-0.9-3.7-1.2-6.4-2.1c-0.2-1.5-1.8-2.8-2.4-3.3c1.3-1.2,2-1.9,2.6-2.5
				c-0.2-0.2-0.3-0.4-0.5-0.6c-1.3,1.2-1.8,1.6-2.8,2.7c-2.2-1.3-2.8-1.4-4.7-1.5c2.4,1.8,5.7,4.1,8.2,5.7c3.5,1.2,5.1,1.7,6.3,2.1
				C1106.9,431.9,1106.8,431.8,1106.6,431.6z"/>
		</g>
		<g>
			<path class="st2" d="M1215.6,350.5c-0.8-1.7-2-1-2.8,1.6c-1,3.2-1,7.3-0.6,9.1c0.4,1.5-4.8,11.9-5.7,13.6
				c-0.8-1.4-1.8-0.9-2.7-0.3l0,0c-1.7,1.3-2.6,3.4-3,4.3c-4.8-1.3-4.8-1.3-8.5-2.4c1.7-5.1-1.2-9.2-5.1-7.3c-1.9,1-4,3.5-4.4,6.9
				c-0.2,1.9-0.2,1.9,2.9,5.6c0.5,0.1,2,0.3,3.7-1.1l0,0c1.1-0.9,1.7-1.8,2.5-3.2c5.4,1.5,6.1,1.7,8.5,2.4c-0.7,2.3-0.9,3.8-0.6,5.3
				c-1.9,2.5-4.4,5.9-6.4,8.3l-2.8,3.2c-0.9-1.1-1.8-1-3.4-0.4h-0.1c-1.1,0.6-2.2,1.2-3.9,3.4c-4.7-0.9-4.7-0.9-10.1-2.2l0,0
				c1.4-2.8,0.8-4.1,0.2-5.3c6.6-6.9,7-7.3,10.5-11.5c0.5,0.5,0.7,0.7,1.5,1c-0.7-1-1.7-2.3-2.5-3.3c0.1,0.4,0.3,0.9,0.4,1.3
				c-5.6,7.2-5.6,7.2-10.3,11.9c-1.8-1.5-3.4-1.1-4.9-0.8h-0.1c-1.7,0.7-3.1,1.3-4.7,3.6c-7.9-2.1-8.4-2.2-13.1-3.6
				c0.7-1.3,1.3-3.3-0.4-5.9c6.9-6.7,7.4-7.3,11.2-11.3c4.6,4.1,10.9-0.5,10.7-6.1c0-1.2,0-1.2-4.6-5.7c-6-0.7-10,6-6.8,11.1
				c-7,7.4-7,7.4-11.2,11.4c-0.6-0.5-2.5-2-5.6-1.3h-0.1l-0.4,0.1l0,0l0,0c-2.8,1.3-2.8,1.3-4.1,3.2l-0.1,0.1l-5-1.7
				c-2.7-1-6.4-2.3-9.1-3.4c1-2.9,0.1-4.8-0.9-6.3c6.8-6.6,7.5-7.2,11.1-10.9c4.7,4.5,11.5,0.3,11.2-5.3c-0.1-1.9-0.9-3.1-1.4-3.8
				c2.1-2.3,4.9-5.5,7-7.9l3-3.6c4.2,3.7,8.8,0.3,9.4-2.2V341c0.9-2.6,0.4-5-1.5-7.2c4.7-7.2,4.9-7.5,7-11.5
				c4.1,3.2,7.7,0.3,7.1-4.1c-0.1-0.4-0.2-0.9-0.3-1.3c-1.6-5.4-7.4-7.5-9.3-3.4c-0.2,0.4-1.7,4.1,1.7,8.1c-4,7.2-4,7.2-7,11.5
				c-2.5-1.9-4.7-1.4-5.3-1.1h-0.1c-2.5,0.8-3.3,2.9-3.7,3.8c-8.4-2.8-8.8-2.9-13.4-4.7c0.8-2.9-0.3-4.9-1.2-6.1
				c5.2-6.4,5.6-6.8,8.1-10.5c4,3.5,8.6,0.6,8.1-3.9c-0.2-2.4-1.6-3.9-2.1-4.5c0.1-0.1,0.1-0.3,0.2-0.4c-0.3-0.2-0.5-0.3-0.7-0.5
				c-0.1,0.1-0.1,0.2-0.2,0.3c-2.1-1.6-3.5-1.3-4.5-1.1h-0.1c-1.8,0.7-2.4,2-2.8,3.3c-7.1-2.7-7.4-2.8-11.1-4.4
				c1-4.9-3.2-9.1-6.7-6.7c-1.7,1.2-3.3,4.5-1.6,8.1c-1.7,1.9-4,4.3-5.8,6.2l-3.2,3.1c-1.7-2-3.4-2-4.3-1.8h-0.1
				c-1.6,0.4-2.7,1-4,2.9c-6.1-3.7-6.4-3.9-9.5-6.1c2.8-5.2,0.2-9.4-3.7-8c0,0-4.6,1.8-4.8,7.6c-5.1,4.4-5.1,4.4-10.8,8.7
				c-0.6-1.4-1.4-2.4-3.2-2.4h-0.1c-1.5,0.2-2.6,0.6-4.1,2.4c-4-4.7-4.2-4.8-6-7.5c3.2-4.2,3.4-9.1,0.4-8.8
				c-2.6,0.2-5.6,3.9-6.4,6.7c-0.1,0.4-0.3,1-6.4,5.5c-0.2,0.4-0.4,0.8-0.6,1.2c2-1.4,4.6-3.3,6.6-4.7c0,1.3,0.3,3.3,2.9,2.8h0.1
				c1.1-0.4,1.7-0.8,2.8-1.9c3.4,4.7,3.5,4.9,6,7.6c-1.7,2.7-1.5,4.9-1.4,5.7c-6.2,4.8-7,5.4-10.2,8c-0.8-2.6-2.4-2.8-2.9-2.9l0,0
				c-1.3,0-2.5,0.7-3.6,2.2c-1.4-2.1-3.1-4.9-4.3-7.1c-0.1,0.3-0.2,0.6-0.4,1c1.2,2.1,2.8,4.9,4.2,6.9c-1,2-1.3,3.7-1.1,6
				c-5,4.7-5.4,5.1-7.7,7.7c-0.1-0.2-0.1-0.4-0.2-0.6c-0.7,3.2-1,6.9-1.2,10.6l0.1-0.1c2.2-2.7,1.8-7.2,1.5-9
				c4.6-4.9,4.6-4.9,7.7-7.7c1,3.2,2.8,3.4,4.1,3.1l0,0c0.8-0.4,0.8-0.4,1.3-0.8l0.1-0.1c0.7-0.7,0.7-0.7,1.1-1.2
				c5.3,5.3,5.4,5.4,9,8.3c-2.3,6.3,2.6,11.2,6.4,9.8c0.4-0.2,1.5-0.7,2.5-2.3c7.3,4.8,7.5,4.9,12,7.6c-1.9,6.5,4.2,11.5,8.7,8.9
				c1.2-0.7,1.8-1.7,2.1-2.2c8.3,4.1,8.8,4.4,13.8,6.6c-0.7,2.2-0.4,3.9,0.8,5.9c-0.1,0-0.1,0.1-0.1,0.1c0.4,0.2,0.7,0.5,0.9,0.7
				c2.8,2.7,5.7,2.1,7.2,1.5l0,0c0.8-0.4,1-0.5,1.7-1.1l0.1-0.1c0.5-0.5,0.7-0.7,1.2-1.4c2.6,1,6.1,2.3,8.7,3.3l5.4,1.9
				c-0.1,0.2-0.1,0.6-0.2,0.8v0.2v0.1c-0.3,1.4-0.3,1.4,0.9,4.3c-6.9,6-6.9,6-11,9.3c-2.2-1.7-4.4-1.7-5.4-1.5h-0.1
				c-1.7,0.4-3,0.8-4.3,2.7c-0.2-0.1-0.4-0.1-0.6-0.2c-0.1,0.2-0.2,0.5-0.4,0.7l0.7,0.3c-0.4,1.5-0.5,2.9,0.9,4.7
				c-0.1,0.1-0.2,0.2-0.4,0.3c0.3,0.2,0.5,0.3,0.7,0.5l0.3-0.2c4.5,3.8,10.9,0.4,10.4-4.1c-0.2-1.2-0.8-2.1-1.1-2.5
				c6.6-5.4,7.2-6,11-9.3c5.7,4.1,9.7-1,10.2-1.6l0,0c8.3,2.4,8.5,2.4,13.1,3.6c-1,2.2-0.8,4,0.5,5.4c2.5,2.2,6.7,1.2,9.4-2.4
				c3.3,0.8,6.6,1.6,9.9,2.4c-1.3,2.3-1.3,3.6-1.1,4.6c-6.9,6.1-6.9,6.1-10.9,9.2c-1.9-2.1-6.6,0.6-8.5,2.6
				c-6.2-1.4-6.8-1.5-10.6-2.4c0.2-0.4,0.4-0.7,0.6-1.1l0.1-0.1c0.2-0.9,0.2-1,0.2-1.7c-0.9-4.9-8.3-3.5-10.6,0.1
				c-0.2,0.3-0.4,0.7-0.6,1c-0.6,1.8,0.1,2.9,0.4,3.3l0.1,0.1c-0.2,0.2-0.5,0.3-0.7,0.5c0.1,0.2,0.3,0.4,0.3,0.6
				c0.3-0.2,0.5-0.4,0.8-0.6c3.9,2.8,7.8-0.4,8.9-1.4l0,0l0,0c6.6,1.6,6.6,1.6,10.6,2.4c-1.5,2-1.1,3.2-0.9,3.6
				c-7,4.5-7,4.5-10.7,6.7c-1-0.9-2.6-0.7-3.7-0.5l0,0c-2.3,0.5-3.5,1.5-4,2c-0.4-0.1-0.8-0.2-1.2-0.3c-0.1,0.2-0.2,0.3-0.3,0.5
				c0.3,0.1,0.7,0.1,1.1,0.2c-1,1.3-0.8,2.1-0.5,2.6c-5.6,2.9-5.6,2.9-8.4,4.3c-1-0.6-2.3-0.6-3.1-0.5l0,0c-1.2,0.2-2.2,0.5-2.8,1.1
				c-2.3-0.5-3.6-0.8-4.7-1c-0.2,0.1-0.5,0.2-0.8,0.2c1.1,0.2,2.7,0.6,5.2,1.1c-0.1,0.4-0.1,0.9,0,1.3c-1.2,0.7-2.8,1.5-4.1,2
				l0.3,0.1c1.3-0.5,3-1.1,4.3-1.7c0.5,0.2,1.6,0.6,3.5,0.2l0,0c0.3-0.1,0.7-0.2,1-0.3h0.1c0.2-0.1,0.5-0.2,0.8-0.4
				c3.8,0.6,3.8,0.6,5.6,0.8c-1.6,0.8-3.2,1.3-4.7,1.6c1.2-0.2,2.4-0.4,3.5-0.6c1.4,0.2,3.1-0.2,4.3-0.6l0,0c2-0.6,12-5,12.1-5
				c3,2.5,5.3-1.5,8.2-0.9c-1.4,0.7-2.8,1.3-4.1,2.1c0.3-0.1,0.7-0.2,1-0.3c8.1-3,16.4-8.2,18.8-9.7c-0.1,0.1-0.3,0.3-0.4,0.4
				c0.8-0.4,0.8-0.4,1.5-0.8l0,0c0.4-0.3,0.8-0.6,1.3-0.9l0.1-0.1c0.5-0.3,0.9-0.6,1.3-1l-0.1,0.1l0.7-0.5l0.1-0.1
				c2-1.5,2.5-1.9,4.1-3.4c1.8-1.6,4.3-3.7,6-5.3l3.4-3.4c-0.2,0.2-0.3,0.4-0.5,0.6c1.4-1.6,3.4-3.7,4.7-5.4l3.2-4.2l0,0
				c0-0.1,0.1-0.1,0.1-0.2c-0.2,0.2-0.2,0.2-0.5,0.5l0,0c-0.5,0.7-1,1.2-2.8,3.5c-0.5-0.7-0.5-0.7-1.4-1.1c0.3-0.4,0.5-0.7,0.8-1.2
				c0.7-1.1,0.9-2.4,1.6-3.4c2.5-3.8,5.5-7.2,7.9-11.1c0,0.5,0,0.5,0.2,0.8c1.6-0.3,6-10.6,5-12c-1.5,0.2-4.5,7.7-5,10.3
				c-0.3,1.3-5.4,8.5-8,11.7c0-0.9,0-0.9-1.7-0.1l0,0l0,0l-0.1,0.1l-0.1,0.1l0,0l-0.1,0.1c-1,0.8-2.2,2.2-2.2,2.2
				c-0.2,0.3-0.5,0.6-0.7,0.9c-2.4-0.3-2.4-0.3-5.9-1.2c1.7-2.7,1.5-3.9,1.3-5c0.8-1,2-2.2,2.8-3.2c2-2.4,4.5-5.7,6.4-8.2
				c1.4,2.7,4.9-0.8,6.3-5.3c0.5-1.6-0.1-3.3,0.4-4.9c1.6-4.5,4.2-8.6,5.8-13.1c1.1,2.3,2.3,0.2,2.8-1.4c0.2-0.6,0.8-2.7,0.9-5.6
				l0,0C1216.3,354.1,1216.2,352,1215.6,350.5z M1119.4,311.5c1.7-1.8,4.1-4.3,5.8-6.1c1.5,1.8,3.5,2.3,5.5,1.2l0,0
				c1-0.6,1.5-1.3,2.1-2.4c6.8,2.8,7.1,2.9,11.2,4.4c-0.2,2.6,0.7,4.1,1.6,5.3c-4.8,6.5-4.9,6.6-8.1,10.4c-2-1.9-3.7-1.7-5-1.5h-0.1
				c-1.1,0.3-1.8,0.7-2.7,1.5c2.5,2.8,5.8,6.4,8.4,9.1c0.4-0.5,0.6-0.8,0.9-1.4c8.3,3,8.6,3.1,13.5,4.7c-0.5,2.7,0.8,4.8,1.3,5.8
				c-0.9,1.1-2.1,2.6-2.9,3.8c-2.1,2.4-4.8,5.5-7,7.8c-2.5-2.1-4.8-1.8-5.7-1.5h-0.1c-1.7,0.5-3.1,1.2-4.5,3.6
				c-8.8-3.5-9.1-3.6-13.9-5.7c0.1-0.3,0.2-0.8,0.3-1.2v-0.1c0.4-2.4-0.5-4.1-0.9-5c3.4-3.6,6.9-7.1,10.3-10.7
				c2.9,2.9,5.7,1.8,6.9,1.3l0,0c0.7-0.5,0.9-0.5,1.5-1.2l0.1-0.1c-2.5-2.8-5.8-6.4-8.3-9.2c-0.6,0.7-0.7,0.8-1.2,1.6
				c-7.2-3-7.2-3-12.1-5.4l0,0c0.8-2.2,0.7-3.9-0.2-5.9C1117.2,313.7,1118.4,312.4,1119.4,311.5z M1075.5,347.2
				c-1.2-1.8-2.4-2.6-4.2-2.6l0,0c-2.4,0.1-3.6,1.9-4.1,2.6c-5.9-5.1-6.1-5.3-8.9-8.3c1.5-3,1.1-5.4,1-6.4c6.2-4.9,6.2-4.9,10.2-8
				c1.4,4.4,6.3,3.2,8.5-0.9c0.9-1.7,1.2-3.6,0.9-5.5c5.4-4,7.8-5.9,10.9-8.2c0.6,1.4,1.3,1.9,2.3,2.2c1.3,0.4,3.3,0.3,5.4-2.3
				c5.7,3.8,5.9,4,9.6,6.1c-1.2,2.9-0.5,5,0.3,6.3c2.3,3.2,6.5,2.9,8.8-0.7c7.3,3.5,7.6,3.6,12.1,5.6c-0.9,3,0.3,5,0.8,5.8
				c-6.4,6.6-6.4,6.6-10.4,10.4c-1.1-1.2-1.8-1.5-3.5-1.9c-0.9-0.1-1-0.1-1.7-0.1l0,0c0,0-2.9,0.6-4.5,3.2c-7.9-4-8.2-4.2-12.3-6.6
				c2.5-5.8-1.8-10.7-6.3-9c-2.4,1-5.3,4.5-3.8,9.2C1080.4,343,1078.7,344.5,1075.5,347.2z M1092.5,359.2L1092.5,359.2
				c-2.5,0.3-3.7,1.7-4.5,3c-7.7-4.6-8-4.8-12-7.6c0.5-1.2,0.5-1.6,0.5-2.6c0-0.8,0.1-2.2-0.6-4v-0.1c6-5.1,6-5.1,10.7-9.1
				c0.8,1.3,1.7,2,3.2,2.4c1,0.3,3.7,0.7,6-2.6c7.6,4.3,7.7,4.3,12.3,6.7c-0.5,1.4-0.6,3.8,0.5,6.1c-4.7,4.3-4.7,4.3-11,10
				C1095.7,359.1,1093.3,359.2,1092.5,359.2z M1117.4,372.1L1117.4,372.1c-2.8,0.4-4.1,2.3-4.7,3.3c-8.6-4-9-4.1-13.7-6.6
				c0.8-2.1,0.6-4.3-0.7-6.6c4.6-4.2,8.2-7.4,11-10c1,1.2,3.3,3.1,7,1.8h0.1c0.4-0.2,0.5-0.2,1.1-0.7c1-0.7,1.4-1.3,1.9-2
				c8.7,3.7,8.8,3.8,14,5.7c-0.8,2.8,0,4.7,0.9,6.1c-6.8,6.7-6.8,6.7-11.1,10.9C1120.7,371.8,1118.3,372,1117.4,372.1z
				 M1177.4,425.8c-6.6,4.1-6.8,4.2-10.6,6.1c0.1,0,0.1-0.1,0.2-0.2c-0.3-0.1-0.3-0.1-1,0.2l0,0c-0.9,0.4-1.9,0.8-3.8,1.8
				c-1.3-0.3-1.3-0.3-2.7-0.5c3-1.8,3.1-2.9,2.4-3.1c-0.6-0.2-2.4,0-5.6,1.9h-0.1c-1.6,1.1-2.5,1.7-2.9,2.7
				c-6.2,2.6-6.2,2.6-9.5,3.8c-0.2-0.2-0.5-0.4-2.1-0.1l0,0c-1.3,0.2-2.3,0.6-3.1,1c-3.2-0.4-3.5-0.4-5.7-0.8
				c0.9-0.8,0.7-1.3,0.3-1.8c4.8-2.3,5.3-2.5,8.4-4.2c2.7,2.1,9.2-1.5,8.9-4c0-0.2-0.1-0.4-0.2-0.5c6.4-3.8,7.2-4.3,10.7-6.7
				c0.9,0.9,1.9,1,3.8,0.4l0,0l0.1-0.1c0.8-0.3,2.4-1,3.9-2.4c4.1,0.9,4.8,1,6.5,1.4c-1,1-2.2,2.5-2.3,3.5c0.2,1.3,3-0.1,5.7-2.2
				c0.7,0.2,1.6,0.5,2.3,0.8C1180,424,1178.6,424.8,1177.4,425.8z M1194.8,408.3c0.4-0.3,0.7-0.6,0.9-1.4c0,0.2,0,0.4-0.1,0.6
				c0.7-0.7,1-1.1,1.6-1.8c1.2,0.7,1.3,0.7,1.4,1.1c-3,3.8-3,3.8-6.7,7.5c-1.8,1.6-4.2,3.8-6,5.3c0.1-0.1,0.2-0.3,0.3-0.5
				c-0.3,0.1-0.6,0.3-0.9,0.4l0,0c-0.9,0.6-1.6,1.1-3.5,2.6c-0.8-0.2-1.7-0.5-2.5-0.7l0,0c1-0.9,12.9-12.5,13-12.7
				c0.1,0.2,0.1,0.4,0.2,0.6c0.6,0.1,0.6,0.1,1.5-0.5l0,0l0.1-0.1C1194.4,408.6,1194.6,408.4,1194.8,408.3L1194.8,408.3z
				 M1194.5,404.2c-1.5,2.1-1.9,3.4-2.1,4.2c-6.3,5.9-6.4,6-10.2,9.1c-0.1-0.7-0.8-0.7-2.1-0.2l0,0c-1.2,0.5-2.6,1.5-4.1,2.8
				c-3.5-0.8-3.5-0.8-6.6-1.4c0.7-0.8,2.1-2.3,1.5-4.1c6.9-5.6,7.2-5.8,10.8-9.1c0.8,1.2,2.2,1.1,4.3-0.1l0.1-0.1
				c0.5-0.4,0.9-0.6,1.4-1.2l0,0c0.4-0.4,0.7-0.8,1.2-1.4l0.1-0.1C1192.7,403.7,1193,403.7,1194.5,404.2z"/>
		</g>
		<g>
			<polyline class="st2" points="1126.7,441.6 1126.7,441.6 1126.7,441.6 1126.7,441.6 			"/>
		</g>
		<g>
			<path class="st2" d="M1129.4,441.5l1.3-0.1l0,0C1130.2,441.5,1129.8,441.5,1129.4,441.5L1129.4,441.5c-0.5,0-0.8,0-1.2,0
				C1128.5,441.5,1129,441.5,1129.4,441.5"/>
		</g>
		<g>
			<path class="st2" d="M1119.9,441.4c-0.9-0.1-2.1-0.2-3-0.2c-3-0.3-3.1-0.3-4.6-0.6c-0.8-0.1-2-0.3-2.8-0.5
				c-0.3-0.1-0.8-0.3-1.1-0.6c1,0.3,1.7,0.4,2.2,0.5c0.6,0.1,1.5,0.2,1.3-0.2c2.3,0.4,4.5,0.8,6.8,1.2c0.2,0,0.4,0.2,0.6,0.3
				c0.3,0.1,0.8,0.2,0.9,0.2L1119.9,441.4 M1100.2,429.8l0.5,0.2c-2.6-1.7-6-3.9-8.6-5.6c-1.1,0.3-1.1,1.2-1.1,1.2s0,0.1-0.1,0.1
				c-0.7-0.3-1.5-0.6-2.2-0.9l-0.2,0.3l2.5,1c0.4,1.2,1.6,2.2,2.6,3c-1.3,2.3-1.3,2.4-1.4,3.4c-2.1-1-2.9-1.2-3.6-1.3l0,0
				c-0.9-0.1-0.6,0.4-0.4,0.7c0,0.1,0.1,0.1,0.2,0.2c-0.4-0.2-1-0.4-1.4-0.6l0.1,0.2l1.6,0.7c0.4,0.3,0.8,0.6,1.5,1s1.5,0.7,2.2,1.1
				c0.4,0.2,0.8,0.7,1.2,1c0.5,0.4,1.3,0.7,1.9,0.9c-1.3-0.5-2.6-0.9-2.7-1c1,0.4,2.4,0.8,3.4,1.2l0,0c-2.3-1-2.4-1.1-3.1-1.9
				c0.8,0.3,3.3,1.4,3.7,1.1c0-0.6-2.5-2.2-4-3.1c0.5-2,0.5-2,1.4-3.3c2.4,1.4,3.7,1.5,4.3,1.4h0.1
				C1099.2,430.8,1100,430.7,1100.2,429.8 M1126,441.6h0.7l0,0c-1,0-2.2-0.1-3.2-0.1v-0.1l0,0c-0.1-0.1-0.2-0.2-0.8-0.5
				c0.1,0,0.2-0.1,0.2-0.1l-0.3-0.1l-0.2,0.1c-0.9-0.2-1.5-0.3-1.7-0.3c-0.3,0-0.3,0-0.7,0l0,0c-0.4,0-0.7,0.3-1.2,0.3
				c-2.4-0.3-3.5-0.4-6.9-1.2c-1.5-1.4-6.5-3.1-7-2.1c0.3,0.9,4.2,2.5,4.2,2.5c1,0.2,2.3,0.4,3.3,0.5c3.1,0.4,3.1,0.4,4.6,0.6
				c1,0.1,2.4,0.2,3.4,0.3h0.1c0.5,0,0.5,0,2.2,0.1h0.1l0,0l0,0c0.1,0,0.2,0,0.2,0C1124,441.5,1125,441.6,1126,441.6"/>
		</g>
		<g>
			<path class="st2" d="M1053.8,407.6c0.5,0.6,1,1.2,1.3,1.6l-2.1-2.5L1053.8,407.6L1053.8,407.6 M1074.7,426.2l1.3,0.9
				c-3-2-6.8-4.8-9.7-7c-2.2-2-5.2-4.6-7.3-6.7c1.2,1.2,1.5,1.4,1.6,1.5l0,0h0.1c-0.1-0.2-0.1-0.3-1-1.3c1.2,1,2.8,2.4,4.1,3.3
				C1067.2,420.5,1070.9,423.6,1074.7,426.2 M1079.7,429.4l-3-1.8l-1.1-0.7C1077,427.7,1078.4,428.6,1079.7,429.4 M1079.7,429.4
				c-6.1-3.5-11.6-7.8-16.4-12.9c-1.2-0.9-2.7-2.2-3.9-3.2c-1.8-2.2-5.9-6.8-6.9-7.6c0,0.2,0,0.2,0.8,1.3c-0.3-0.4-0.8-1-1.1-1.4
				l3,3.6c6.1,6.6,6.5,7,11.2,10.9C1073.4,425.5,1073.6,425.7,1079.7,429.4 M1043.8,378.6c-0.8-3.6-1.3-7.4-1.7-11.3l-0.2,0.1
				c-0.4,0.4-0.6,0.8-0.8,1.7c-1.3-2-3.1-4.7-4.2-6.8l-0.2,0.5c1.2,2.1,2.9,5,4.3,7l0,0c-0.1,1.1,0.1,2.3,0.4,3.6
				c0.2,0.9,1,1.6,0.9,2.6c-0.2,2.3-1.5,4.4-1.5,6.8c-0.5-1-0.8-1.4-0.8-1.4c-0.8-1.3-1-1.5-1-1.5c-0.2-0.2-0.2-0.3-0.5-0.4l0,0
				l-0.1,0.1l0,0c0,0.5,0,0.7,0.2,1.7l0,0c-0.8-1.8-1.8-4.1-2.4-6l0,0l0.3,1.1c0.6,1.7,1.5,3.9,2.3,5.5c0.2,0.6,0.2,0.6,0.5,1.4
				l0.1,0.2c0.9,2.3,2,4.6,3,6.9l0.5,0.9l-1.2-2.9c0.4,0.8,0.6,1.1,0.6,1.1c0.8,1.3,0.9,1.4,1.3,1.8l0,0l0,0h0.1l0.1-0.1
				c0-0.4,0-0.8-0.2-1.6v-0.1c1.8,2.2,4.3,5,6.3,7.1c-0.1-0.3-0.3-0.6-0.4-0.9c-1.9-2-4.4-4.8-6.1-6.9c-0.1-0.2-0.2-0.4-0.2-0.7
				l-0.1-0.2c-0.5-1.5-1.8-2.8-1.9-4.5c0-0.3,0-2.9,1.6-6.7C1043.3,377.9,1043.5,378.2,1043.8,378.6 M1039.5,319.6l-0.7,5.4
				c0.3-1.2,0.5-2.2,0.6-3.2C1039.4,321.4,1039.6,320.5,1039.5,319.6 M1052.9,295c1-2,1.1-2.9,0.3-2.7l0,0c-0.2,0.1-0.2,0.1-0.5,0.3
				c-0.5,0.3-0.8,0.6-1.3,1.1c2.2-4.6,2.3-4.7,4-7.1c0.6-0.7,2.1-2.2,4-4.2c4.1-2.9,4.2-2.9,7.1-4.5c-1.1,1.2-1.6,1.9-1.3,2.1l0,0
				c0.1,0,0.6,0.2,2.8-1.3c-1.9,3.8-2,3.9-2.5,6.2c-1.2,0.9-2.8,2.4-4.2,4.6C1055.9,292.8,1055.6,293,1052.9,295 M1055.3,308.5
				c-0.6,0.4-1.4,1-2,1.4c0.2-1.7-0.2-2.2-0.5-2.6s-1.3-1.2-3.5,1.3c-0.4-5.1-0.4-5.2,0-8c1.3-1.7,2.7-3.9,3.3-4.9
				c5.1-3.6,5.1-3.6,8.4-5.6c-0.7,1.4-0.6,2.2,0.1,2.4l0,0c1,0.1,2.3-0.8,3.4-1.6l0.4,3.2C1061.4,298.6,1058.1,303.5,1055.3,308.5
				 M1074.1,274.1c1.6-1.4,1.5-1.7,1.5-1.9c-0.1-0.1-0.2-0.1-0.5-0.1l0,0c-0.3,0.1-0.5,0.1-0.9,0.3l0,0c-0.4,0.2-0.7,0.3-1.2,0.6
				h-0.1c3.2-3.2,3.3-3.2,5.4-4.9c0.2-0.1,0.3-0.2,0.5-0.3l0.2-0.1l0.2-0.1c0,0,2-1,4.1-2.1l0.2-0.1c5.3-1.7,5.4-1.7,8.9-2.6
				c-1.8,0.8-1.8,1-1.8,1.2c0,0,0,0,0.1,0l0,0c0.4,0,0.7,0,3.2-0.7c-2,1.4-3.6,3.2-5.8,4.2l-0.2,0.1c-1.8,1-2.6,1.4-3.9,2.3
				C1077.7,272.5,1077.3,272.7,1074.1,274.1 M1092.4,267.4c0.4-0.3,0.6-0.4,0.8-0.6c0.2-0.2,0.5-0.5,0.5-0.7
				c-0.1-0.1-0.1-0.1-0.3-0.1l0,0c-0.1,0-0.3,0-0.4,0h-0.1c-0.7,0.1-1.1,0.2-2.6,0.8l-0.1,0.1l0,0c2.6-2.4,2.7-2.4,4.5-3.6
				c2-0.6,5.1-1.7,5.7-1.9c6.6-1.2,6.8-1.3,10.7-1.8c-1.2,0.3-1.5,0.5-1.6,0.5l0.1,0.1l0,0c0.5,0,1.3-0.1,3.6-0.6
				c-2.9,1.2-3.1,1.3-4.4,2.2c-3.2,1-4.9,1.9-5.6,2.3C1096.5,266,1096,266.2,1092.4,267.4 M1042.3,349.3c0.4-4.2,1.1-8.4,2-12.4
				l-0.1-0.1c-0.9-1.1-1.5-0.9-1.5-0.9s-0.1,0-0.2,0c-0.7,0.2-1.4,0.4-2.2,2c-0.6-1.6-1.5-3.8-2-5.5v2l1.6,4.2c-1,2.8-1,2.8,0.2,9.5
				C1041.1,349.4,1042.1,349.3,1042.3,349.3 M1102,264.7c3.1-1.4,6.3-2.7,9.6-3.7h-0.2c-0.8,0.2-1,0.3-1.9,0.5
				c2.6-1.4,2.7-1.5,4.5-2.1c5.7-1.1,5.7-1.1,12.2-1.7l0,0c-1.6,0.2-3.8,0.4-5.5,0.6c0.6-0.1,1.3-0.2,1.9-0.3c-0.2,0-0.4,0-0.5,0
				l0,0c-0.4,0-0.8,0.1-1.2,0.1h-0.1c-0.5,0-1,0.1-1.6,0.1c3.6-0.5,3.7-0.5,5.8-0.5c0.3,0,0.8,0,1.2,0l0,0h-0.5
				c-0.3,0-6.2-0.2-13.1,0c1.9-0.2,1.9-0.2,2.2-0.3c-0.4-0.1-0.7-0.1-2.9-0.1l0,0c1.2-0.1,2.8-0.3,4-0.4h-0.6
				c-1.3,0.1-2.9,0.3-4.2,0.5c-0.5,0-1,0.1-1.6,0.1h-0.2c-0.9,0.1-1.4,0.1-2.3,0.3c-2.1,0.3-3.2,0.5-4.4,0.9
				c0.4,0.2,0.4,0.2,4.5-0.3c3.9-0.5,3.9-0.5,4.8-0.6c6.5-0.2,6.6-0.2,10.5-0.2c-1.2,0-1.5,0-1.9,0.1h0.1l0,0c1.2,0,2.4,0,3.6,0
				c-3.7,0.2-3.8,0.3-5.8,0.6c-4.5,0.5-17,2.8-17.1,2.8c1.4-0.5,1.4-0.5,2-0.8c-2.6-0.4-16.3,4.1-19,5c1.4-0.8,1.5-0.8,2.1-1.2
				c-0.6-0.2-0.6-0.2-1.9,0.3c4.3-2.3,4.3-2.3,6.9-3.4c2.7-0.9,5.5-1.6,8.2-2.6c-0.5-0.1-0.5-0.1-1.6,0.2c1-0.3,2.4-0.7,3.5-1
				l-1.6,0.4l-2.5,0.8l0,0c-3.2,0.9-7.8,2.8-8,2.8c-0.1,0.1-0.3,0.1-0.4,0.2l0,0c0.5-0.1,0.5-0.1,1.8-0.5c-4.4,2-4.6,2.2-7,3.5
				c-3.3,1.4-9.2,4.8-9.3,4.8l-0.7,0.4c1.2-0.7,2.7-1.6,3.9-2.1c-1.7,1.1-1.9,1.3-2.2,1.6l0,0l0,0l0,0l0,0c0.6-0.2,0.6-0.2,2.1-0.9
				h0.1c-3.5,2.9-3.7,3.1-5.4,4.9c-1.9,1.1-12,8.1-12.1,8.2c1.5-1.5,1.6-1.7,2-2.3c-0.7,0.4-2.6,2.1-8,8.4c0.2-0.2,0.5-0.5,0.7-0.7
				c-2.6,4.1-2.9,4.5-3.9,7.1c-0.2,0.3-0.4,0.5-0.7,0.8l-0.1,0.1c-1.6,2-2.8,4.2-4.6,6.1l-0.4,0.7l1.7-1.8c-0.6,1.2-0.7,1.8-0.7,2.4
				c0,0.1,0,0.4,0.1,0.4l0,0c0.7-0.2,1.2-0.5,2-1.4c-0.1,3.8-0.1,5.5,0.2,7.8c-3.2,4.5-3.7,9.8-1,9.6c1.8-0.1,4.6-4,5.3-7.6
				c0.1-0.7,1.1-1.2,1.6-1.6c3.2-5.8,6.8-11.3,11-16.4l-0.4-3c1.3-1.1,5.7-5.8,4.4-7.3c-0.7-0.1-1.3-0.1-3.3,1.3
				c1.3-3.9,1.3-4,2.6-6.1c6.9-4.7,6.9-4.7,14.4-7.5c-0.3,0.2-0.7,0.6-0.7,0.6c-0.1,0.2-0.3,0.5-0.4,0.7c0.1,0.1,0.2,0.2,0.3,0.3
				l0,0l0,0l0,0c1.4-0.2,3.1-1,3.3-1.1l0.1-0.1c-0.5,1.2-1.1,2.7-1.5,3.9c0.3-0.2,0.5-0.4,0.8-0.6c0.4-1.1,0.9-2.7,1.5-3.7
				c0.2-0.1,0.5-0.3,0.8-0.4l0.2-0.1c5.9-3.1,5.9-3.1,14.8-5.8c-0.1,0.1-0.2,0.2-0.4,0.2C1102.2,264.6,1102.1,264.7,1102,264.7
				 M1189.6,278.9c2.4,2.4,5.5,5.6,7.8,8.1c-0.3-0.2-0.7-0.5-1.1-0.6c-2-2.3-3.3-3.4-3.9-3.8c-5.4-5.5-5.5-5.6-8.9-8.4
				c0.3,0.2,0.5,0.3,0.7,0.4c-0.1-0.2-0.1-0.2-0.4-0.4l0,0c-0.6-0.5-1.8-1.5-3.5-2.6l0.1,0.1C1183.3,273.6,1187,276.5,1189.6,278.9
				 M1160.2,260.5L1160.2,260.5L1160.2,260.5c-2.4-0.9-4.1-1.4-5.4-1.6c0.1,0.1,0.2,0.2,0.4,0.3c13.4,4.9,13.4,4.9,19.6,8.8
				c-0.5-0.2-0.5-0.2-0.9-0.4c0.3,0.4,0.3,0.4,1,0.8l0,0c0.4,0.3,0.8,0.5,1.2,0.8l0.1,0.1c0.4,0.3,0.9,0.6,1.4,0.9
				c-1.9-0.3-1.9-0.3-3.5-0.6c-3-1.8-6.2-3.1-7.4-3.1c0,0.1,0,0.3,0.1,0.4c1.8,1.6,7.6,4.7,8.4,5.1c1.6,0.8,6,5.3,8.2,8
				c-1.2-0.6-1.6-0.6-1.9-0.6c-1.4,2.7,8.9,9,9.1,9c0.7-0.2,0.3-1.6-1.9-4.2l-12.3-11.7c0.8,0.3,1,0.4,1.4,0.4
				c0.1-0.1,0.1-0.2,0.2-0.2l-0.1-0.1l0,0c-0.5-0.6-1.1-1.2-2.9-2.4c2.4,0.4,2.6,0.4,3.5,0.6c4.8,3.2,8,5.3,13.7,11.5
				c-0.5-0.3-0.5-0.3-0.9-0.6c0,0.1-0.1,0.2-0.2,0.3c1,2,5.6,6.7,6.8,7.9c1.2,1.1,4.4,7,6,10.9c-1.1-1-1.7-1-1.8-0.1
				c-0.2,3.1,5.3,11.9,6.6,10.6c0.5-0.5,0-2.7-1.1-5.1l-8.8-15.5c0.4,0.3,0.4,0.3,0.9,0.6c0-0.1,0.1-0.2,0.1-0.3
				c0-0.1-0.1-0.1-0.1-0.2l0,0c-0.4-0.7-0.8-1.5-2.5-3.4c0.3,0.2,0.8,0.4,1.1,0.6c-2.4-2.7-5.8-6.2-8.4-8.8c-2.9-2.5-6.8-5.7-9.9-8
				l-0.2-0.1c-1.5-1-9.9-6.1-14.9-8.4c0.2,0.1,0.4,0.1,0.6,0.2c-0.2-0.1-0.4-0.2-0.6-0.3l0,0c-1.2-0.5-2.1-0.9-3.7-1.6
				c0,0,0,0,0.1,0L1160.2,260.5 M1101.7,257.3l-2.1,0.6l1.6-0.4l0.9-0.2H1101.7 M1089.2,261.5c0,0-0.1,0-0.1,0.1
				c1.8-0.7,4.1-1.6,5.9-2.3c-1.3,0.4-1.5,0.5-4.2,1.5l-0.5,0.2l0,0l1-0.4C1090.3,261.1,1089.6,261.4,1089.2,261.5 M1072.9,270.5
				l0.7-0.5l0.7-0.4l-0.7,0.4L1072.9,270.5 M1033.6,364c-1.3-9.7-1.4-10.3-1.4-16.4l0.1-5.1c0,0.1,0.5,12,1.1,15.9
				C1033.4,360.1,1033.4,362.3,1033.6,364 M1033.2,334.3c0-0.3,0.1-0.6,0.1-0.9l0.3-1.6c2.1-9.6,2.1-9.8,3.9-15l1-2.8
				c0.1-0.2,0.2-0.6,0.8-1.7c-1.6,5.4-1.7,5.6-2,8.8c-1.1,2.7-1.6,5.2-1.8,6.2C1033.7,331.6,1033.6,331.8,1033.2,334.3 M1054,288
				c1.4-1.3,2.9-3.4,4.2-4.8c1-1.1,2.4-2.4,3.4-3.5c-1.7,1.4-2.9,2.8-6.4,6.5l0,0c-1.4,1.6-1.8,2.1-1.8,2.2l0,0
				C1053.5,288.5,1053.5,288.5,1054,288 M1036.4,375.5L1036.4,375.5v-0.1V375.5 M1040.2,347.8l-0.9-5.1c-0.1,3.9-2.8,6.6-4.1,9.9
				c-0.5-2.8-0.9-3.2-1.2-3.6c-0.1,0-0.2,0-0.3,0.1l0,0c-0.2,0.3-0.2,0.3-0.3,0.7v0.1c0,0.2-0.1,0.7-0.2,1.2c-0.8-6-0.8-6.2-0.6-9.6
				c0.3-4.2,0.6-8.6,3-13.2c-0.2,1.9-0.1,2.9,0.3,3.2l0,0c0.5-0.1,0.8-0.2,1.6-2c0.3,1.5,0.7,3.5,1.2,5v-2l-0.8-3.8
				c1-2.5,1-2.5,1.9-8.9c-0.1-0.7-0.1-0.7-0.3-1.1c-0.5,0.1-0.7,0.1-1.6,1.7c0.8-5.6,0.9-5.7,2-8.8c2.8-6.2,2.8-6.2,5.7-9.6l0.4-0.7
				c-1,1.2-2.3,2.9-3.2,4.2c0.8-1.7,1.1-2.4,1.4-2.9c-0.1,0.1-0.1,0.2-0.2,0.3c-4.2,8.5-4.4,8.8-6.2,14c-2.8,9.2-2.9,9.6-3.9,15
				c-1.3,9.8-1.3,10.2-1.4,15.8c0.4,9.9,0.4,10.7,1.6,17.5c-0.2-1.7-0.3-4.1-0.2-5.8c0.5,2.5,0.9,3.1,1.2,3.3l0,0
				c0.5-0.2,0.6-0.3,0.8-1.9c0.3,0.6,0.8,1.5,1.2,2.2l0.2-0.5l-1.3-2.7c0.1-2.1-1-4.1-0.4-6.2c0,0,1.1-3.1,4.3-7.5
				C1039.7,346.6,1039.9,347.2,1040.2,347.8 M1115.2,256.9h0.6l2-0.1c2.6,0.1,4.4,0.3,6.4,0.6c0.7,0.1,1,0.1,1.5,0.2
				c-0.1,0-0.1,0-0.2,0c-6.5-1.2-12.6-1.5-15.6-1.6c0.3,0,0.6-0.1,0.8-0.1c-0.6,0.1-1.3,0.1-1.8,0.2c0.8-0.1,3.6,0,7.3,0.3
				c-1.1,0-1.7,0-2,0.1l0,0l0,0c0.4,0.1,0.6,0.1,2.7,0.2C1116.5,256.9,1115.7,256.9,1115.2,256.9"/>
		</g>
		<g>
			<path class="st2" d="M1104.9,256.4c4-0.9,4.8-1,8.6-1.6c1-0.1,2.4-0.3,3.4-0.4c0.2,0.1,0.5,0.2,0.8,0.2c-0.8,0-1.6,0-2,0.1l0,0
				c0,0-0.1,0-0.1,0.1c0.2,0.1,0.2,0.1,0.9,0.2c-0.7,0-6.6,0.4-10.2,1.1L1104.9,256.4 M1139.7,255h-0.3h-0.1c-0.2,0-0.4,0-0.5,0
				c0,0,0.1,0.1,0.8,0.2c3.3,0.4,3.3,0.4,4.4,0.7C1142.7,255.5,1141,255.2,1139.7,255 M1126.7,254h-1.6h0.3l0,0
				c0.1,0.1,1.1,0.5,1.7,0.4c0.3,0,0.3,0,1.7-0.4C1128.2,254,1127.3,254,1126.7,254 M1101.7,257.3l0.4-0.1l2.7-0.7
				c2.2-0.3,3.4-0.4,5.9-0.7c1.1-0.1,1.2-0.2,1.4-0.2v-0.1l0,0c-0.1,0-0.2,0-0.5-0.1l0,0c-0.2,0-0.4,0-0.7,0
				c3.9-0.4,3.9-0.4,5.9-0.5c1.6,0.2,2.5,0.3,3.9,0.6c1.1,0.2,1.2,0.2,1.3,0.1l0,0c-1.3-1.4-3.2-0.9-4.8-1.4
				c-1.1,0.1-2.7,0.3-3.8,0.4c-3.6,0.5-4.6,0.7-9.1,1.7l1.2-0.3c-1.1,0.2-2.2,0.5-2.6,0.6l0,0c0.1,0,0.1,0,1.2-0.2
				C1103.5,256.9,1102.5,257.2,1101.7,257.3"/>
		</g>
	</g>
</g>
<g>
	<path d="M0,225.3c0-26.4,5-52.4,14.9-78c10-25.6,24.5-48.6,43.6-68.9S100.8,41.6,128,29s58.3-18.9,93.3-18.9
		c41.9,0,78.1,8.6,108.8,25.9s53.5,40.1,68.6,68.6l-90.8,64.6c-4.1-10.6-9.4-19.3-16.2-26.2c-6.7-6.9-14.1-12.4-22.3-16.5
		c-8.1-4.1-16.6-6.9-25.3-8.5c-8.7-1.6-17.2-2.4-25.3-2.4c-17.1,0-31.8,3.4-44.2,10.1c-12.4,6.7-22.6,15.5-30.5,26.2
		c-7.9,10.8-13.8,23-17.7,36.6s-5.8,27.1-5.8,40.5c0,15,2.2,29.5,6.7,43.3s11,26,19.5,36.6s19,19,31.4,25.3s26.3,9.4,41.8,9.4
		c8.1,0,16.5-0.9,25-2.7c8.5-1.8,16.8-4.9,24.7-9.1c7.9-4.3,15-9.8,21.3-16.5s11.3-14.9,14.9-24.7l96.9,57.9
		c-6.5,15.8-16.4,30.1-29.6,42.7s-28.3,23.2-45.1,31.7c-16.9,8.5-35,15-54.3,19.5s-38.1,6.7-56.4,6.7c-32.1,0-61.5-6.4-88.1-19.2
		c-26.6-12.8-49.6-29.8-68.9-50.9s-34.2-45.1-44.8-71.9C5.3,280.2,0,252.9,0,225.3z"/>
</g>
<g>
	<path d="M447.3,447.4c0-139.8,0-279.6,0-419.3c0-38.9,0,23.8,0-15.1c40.3,0,80.6,0,120.9,0v434.4H447.3z"/>
</g>
<g>
	<path d="M931.8,152.7c-12.2-7.3-24.8-13.8-37.8-19.5c-11-4.9-23.3-9.4-36.9-13.7c-13.6-4.3-26.9-6.4-39.9-6.4
		c-10.6,0-19,1.6-25.3,4.9c-6.3,3.3-9.4,8.7-9.4,16.4c0,5.7,1.8,10.4,5.5,14c3.7,3.7,8.9,7,15.8,10.1c6.9,3,15.3,6,25.3,8.8
		c9.9,2.8,21.2,6.3,33.8,10.4c19.9,6.1,37.9,12.8,53.9,20.1s29.7,15.9,41.1,25.9s20.1,22,26.2,36.2c6.1,14.2,9.1,31.5,9.1,51.8
		c0,26-4.8,47.8-14.3,65.5s-22.1,31.8-37.8,42.3c-15.6,10.6-33.3,18.2-53,22.8c-19.7,4.7-39.5,7-59.4,7c-15.8,0-32.1-1.2-48.7-3.7
		c-16.7-2.4-33.2-5.9-49.6-10.4c-16.4-4.5-32.3-9.7-47.5-15.8c-15.2-6.1-29.3-13-42.3-20.7l51.2-104.2c14.2,8.9,29,16.9,44.5,23.8
		c13,6.1,27.7,11.6,44.2,16.4c16.4,4.9,33.2,7.3,50.3,7.3c13,0,22-1.7,27.1-5.2c5.1-3.4,7.6-8,7.6-13.7c0-6.1-2.5-11.3-7.6-15.5
		c-5.1-4.3-12.1-8-21-11.3c-8.9-3.2-19.2-6.5-30.8-9.7s-23.9-7.1-36.9-11.6c-19.1-6.5-35.5-13.5-49.3-21
		c-13.8-7.5-25.2-16-34.1-25.6c-8.9-9.5-15.5-20.4-19.8-32.6s-6.4-26.2-6.4-42c0-24,4.4-45.1,13.1-63.4
		c8.7-18.3,20.6-33.5,35.6-45.7s32.2-21.4,51.5-27.7s39.7-9.4,61.2-9.4c15.8,0,31.3,1.5,46.3,4.6c15,3,29.5,6.9,43.6,11.6
		c14,4.7,27.1,9.7,39.3,15.2c12.2,5.5,23.1,10.7,32.9,15.5L931.8,152.7z"/>
</g>
<rect x="0.5" y="450.4" width="1223" height="149"/>
<text transform="matrix(1 0 0 1 372.5 551.3943)" class="st3 st4 st5">Comprehensive Immigration Solutions</text>
<g>
	<g>
		<path d="M1183.9,272.2c10,8.1,18.7,18,25.3,29.2c3.3,5.6,6.1,11.5,8.3,17.7c2.2,6.2,3.9,12.6,4.8,19.1c0.9,6.5,1.3,13.2,0.8,19.8
			c-0.1,1.7-0.2,3.3-0.4,5c-0.2,1.6-0.4,3.3-0.7,4.9c-0.3,1.6-0.6,3.3-1,4.9c-0.4,1.6-0.7,3.2-1.2,4.8c-3.6,12.8-10,24.9-18.5,35.1
			c-4.3,5.1-9.1,9.7-14.2,13.8c-5.2,4.1-10.8,7.7-16.6,10.6c-5.9,3-12,5.4-18.3,7.2c-6.3,1.8-12.7,3-19.2,3.7
			c-13,1.3-26.1,0.2-38.7-3.3c-1.6-0.5-3.1-0.9-4.7-1.4c-1.5-0.6-3.1-1-4.6-1.7c-1.5-0.6-3-1.2-4.5-1.8c-1.5-0.7-3-1.3-4.4-2.1
			c-5.9-2.9-11.5-6.3-16.7-10.3c-10.4-8-19.5-18-26.1-29.5c-6.6-11.5-10.9-24.4-12.5-37.7c-1.6-13.3-0.6-26.9,3.1-39.8
			c1.8-6.5,4.3-12.7,7.4-18.7c3.1-5.9,6.8-11.6,11-16.8c4.2-5.2,9-10,14.2-14.2c5.2-4.3,10.7-8,16.7-11.1c1.5-0.8,3-1.5,4.5-2.2
			c1.5-0.7,3.1-1.3,4.6-2c1.5-0.6,3.1-1.1,4.7-1.7c1.6-0.5,3.2-1,4.8-1.5c6.4-1.8,13-2.9,19.6-3.4c13.2-0.9,26.4,0.9,38.8,4.9
			C1162.3,257.8,1173.8,264.1,1183.9,272.2z M1183.4,272.8c-10-8-21.7-13.8-34-17c-12.3-3.2-25.2-3.6-37.6-1.7
			c-24.7,3.8-47.6,16.8-62.9,36.2c-3.8,4.8-7.2,10-10.1,15.4c-2.8,5.4-5.2,11.2-6.9,17.1c-3.6,11.8-4.8,24.3-3.6,36.6
			c2.4,24.6,14.5,48.3,33.8,64.6c9.6,8.1,20.8,14.5,33,18.1c12.1,3.7,25.1,4.8,37.7,3.3c6.3-0.8,12.5-2.2,18.5-4.2
			c6-2.1,11.7-4.7,17.1-7.9c10.8-6.4,20.2-14.9,27.8-24.8c15.2-19.7,22.9-44.7,21.1-69.8c-0.9-12.5-4.1-25-9.9-36.3
			C1201.7,291,1193.4,280.8,1183.4,272.8z"/>
	</g>
	<g>
		<path d="M1117.6,249.7c-0.1,0.1-0.2,0.2-0.4,0.3c22,0.7,58,22.6,45.8,44.9c-16.3,29.8-71.5,47.6-89.7,54.7
			c-40.6,15.8-46.8,20.5-46,25.7l0.2,0.6c1.7,4.2,4.1,9.6,6.1,13.6c-1.7-5.6,7.8-9.6,38-21.7c23-9.2,93.2-33.7,105.2-69.3
			C1189,263,1132.1,249.8,1117.6,249.7z"/>
		<path d="M1217.3,329.7c-2.1-9.7-2.8-12.6-4.7-18.4l-3.1-6.4c24.3,67.1-96.1,111.3-120.7,119c-10.5,3.3-16.3,6-18,7.7
			c0.1,0.4,0.3,1,0.6,1.3c6.5,3.3,6.9,3.5,10.6,4.9l0.7,0.3c-0.1-0.2-0.3-0.5-0.4-0.7c2.2-1.2,2.3-1.3,8.5-3.1
			c54-15.6,81.2-32.9,96.7-45.5C1202.1,376.8,1221.3,355.6,1217.3,329.7z"/>
		<path d="M1078.5,406c77.9-26.9,158.6-73.5,112.8-125.6c-1.7-1.7-4-4.1-5.8-5.8c-6.8-6.2-13.6-10.3-19.8-13.7
			c-2.7-1.4-3.1-1.4-4.7-2.3c74.5,44.4,1.3,101.6-86.3,133.6c-25,9.1-32.2,12.9-29.7,17c2.3,2.4,5.4,5.7,7.9,8l2.4,2.1
			C1052.8,416.3,1057.7,413.2,1078.5,406z"/>
	</g>
</g>
<g class="st0">
	<g class="st1">
		<path d="M1184.7,264.4c10.5,8.5,19.5,18.9,26.3,30.6c3.4,5.9,6.3,12.1,8.5,18.5c2.2,6.5,3.8,13.1,4.8,19.9
			c0.9,6.8,1.2,13.7,0.6,20.6c-0.1,1.7-0.3,3.5-0.5,5.1c-0.2,1.7-0.4,3.4-0.7,5.1c-0.4,1.7-0.6,3.4-1,5c-0.4,1.7-0.8,3.4-1.3,5
			c-3.7,13.3-10.4,25.8-19.2,36.4c-4.4,5.3-9.3,10.2-14.7,14.5c-5.3,4.3-11.2,8.1-17.2,11.2s-12.5,5.8-19,7.6
			c-6.6,1.9-13.2,3.2-20,4c-13.5,1.4-27.3,0.2-40.4-3.5c-1.7-0.5-3.2-0.9-4.9-1.5c-1.6-0.6-3.2-1.1-4.8-1.7
			c-1.6-0.6-3.2-1.2-4.8-1.9c-1.5-0.7-3.1-1.4-4.6-2.2c-6.1-3-11.9-6.7-17.3-10.9c-10.8-8.4-20.1-18.9-26.9-30.9
			c-6.8-12-11.2-25.4-12.7-39.1c-1.6-13.8-0.5-27.8,3.3-41.1c1.9-6.7,4.5-13.2,7.7-19.3c3.2-6.1,7-12,11.4-17.4
			c8.8-10.7,19.6-19.9,31.8-26.4c1.5-0.8,3.1-1.5,4.6-2.3c1.6-0.7,3.2-1.4,4.8-2.1c1.6-0.6,3.2-1.2,4.8-1.8c1.7-0.6,3.3-1.1,4.9-1.6
			c6.6-1.9,13.5-3.2,20.2-3.7c6.8-0.6,13.8-0.4,20.5,0.4c1.7,0.2,3.4,0.4,5,0.7c1.7,0.3,3.4,0.6,5,0.9c1.7,0.4,3.3,0.7,5,1.2
			c1.7,0.5,3.3,0.9,4.9,1.4c6.5,2.1,12.7,4.7,18.7,7.9C1173.8,256.4,1179.5,260.1,1184.7,264.4z M1184.4,264.8
			c-5.3-4.2-10.9-7.8-16.9-10.9c-6-3-12.2-5.5-18.7-7.1c-12.9-3.5-26.5-4.2-39.6-2.4c-6.6,0.9-13,2.5-19.2,4.6
			c-1.5,0.6-3.1,1.1-4.6,1.7s-3,1.2-4.5,1.9c-1.5,0.7-3,1.4-4.5,2.1c-1.4,0.8-3,1.5-4.3,2.3c-5.7,3.2-11.1,7-16.1,11.2
			c-5,4.2-9.6,9-13.6,14.1c-4.1,5-7.8,10.5-10.8,16.3c-3,5.8-5.5,11.9-7.3,18.1c-3.7,12.5-5,25.8-3.7,38.9
			c1.4,13,5.3,25.8,11.4,37.5c3.1,5.8,6.7,11.4,10.9,16.5c4.2,5.1,8.8,9.9,13.9,14.1c5.1,4.2,10.7,8,16.5,11.2
			c1.4,0.8,3,1.5,4.5,2.3c1.5,0.7,3,1.4,4.5,2.1c1.5,0.6,3.1,1.2,4.7,1.8s3.2,1,4.8,1.6c12.7,3.9,26.4,5,39.6,3.5
			c6.6-0.8,13.2-2.2,19.5-4.3c6.3-2.2,12.4-4.9,18.1-8.2c11.5-6.6,21.5-15.6,29.7-25.9c4-5.2,7.6-10.8,10.7-16.6
			c3-5.8,5.5-12,7.3-18.2c0.5-1.6,0.9-3.2,1.3-4.8c0.4-1.6,0.7-3.2,1.1-4.8s0.6-3.2,0.9-4.8c0.3-1.7,0.4-3.2,0.6-4.9
			c0.6-6.6,0.8-13.2,0.2-19.8c-1.1-13.2-4.7-26.3-10.9-38.2C1203.5,283.8,1194.9,273.2,1184.4,264.8z"/>
	</g>
	<path class="st1" d="M1121.3,241.9c0,0-73,26-66.5,84.5c2.1,19,10.9,36.4,25.6,48.7c16.9,14.2,50.5,20.2,38.5,49.7
		c-8.9,22-46.2,14.4-60.6,2.3c-12.3-10.4-24-23.3-31-37.7c-16.3-33.6-11-75,9.6-105.3C1055.7,256.9,1089.6,245.7,1121.3,241.9z"/>
	<path class="st1" d="M1135.6,393.6c5-5.8,7.9-17.1,3.9-24.2c-4.4-7.7-11.6-13.2-18.6-18.6c-24.8-18.6-33.6-29.1-33.6-58.8
		c0.1-17.8,18.7-39,31.5-49.5c-37.7,11.1-59.5,46.9-40.8,83.3C1091.3,351.7,1131.3,361.8,1135.6,393.6
		C1135.6,393.7,1135.6,393.7,1135.6,393.6z"/>
	<path class="st1" d="M1128.8,243.4c-17.1-4.5-27.9,9.6-30.4,24c-4,23.1,14.5,34.3,30.2,46.7c8,6.3,15.7,13.3,20.7,22.2
		c5,8.9,7.2,19.8,3.7,29.4l0.6-0.4c7.1-9.2,10.9-20.9,6-32c-4-9.1-12-15.8-19.9-21.7c-8-5.9-16.5-11.4-22.7-19.2
		C1106.6,279.2,1108.3,245.6,1128.8,243.4"/>
</g>
</svg>
