<?xml version="1.0" encoding="utf-8"?>
<!-- Generator: Adobe Illustrator 21.0.2, SVG Export Plug-In . SVG Version: 6.00 Build 0)  -->
<svg version="1.1" id="Layer_1" xmlns="http://www.w3.org/2000/svg" xmlns:xlink="http://www.w3.org/1999/xlink" x="0px" y="0px"
	 viewBox="0 0 1366 651" style="enable-background:new 0 0 1366 651;" xml:space="preserve">
<style type="text/css">
	.st0{display:none;}
	.st1{display:inline;}
	.st2{fill:#808080;}
	.st3{display:inline;fill:#808080;}
	.st4{fill:#FFFFFF;}
	.st5{font-family:'Raleway-Light';}
	.st6{font-size:48px;}
</style>
<g class="st0">
	<g>
		<g class="st1">
			<path class="st2" d="M1246.9,370.5c0.2-2.2,1.3-3.6,1.6-4c0,0,0,0,0,0.1c-3.6,5.1-0.3,11.6,4.3,11.1
				C1248.9,378.2,1246.6,374.3,1246.9,370.5 M1249.2,365.9L1249.2,365.9L1249.2,365.9c0.3-0.4,0.7-0.6,1-0.8
				C1249.9,365.3,1249.6,365.6,1249.2,365.9"/>
		</g>
		<g class="st1">
			<path class="st2" d="M1205.3,458.5c0.8,0.1,1.8,0.2,2.5,0.3c-0.4,0-0.7-0.1-1.1-0.1c-0.3,0-0.6-0.1-1-0.1c1.1,0,2.2,0.2,3.3,0.2
				C1208,458.6,1206.5,458.5,1205.3,458.5 M1205.3,458.5L1205.3,458.5c7.1-0.3,7.2-0.3,11-0.9c-0.4,0-0.8,0.1-1.1,0.1
				c-0.7,0-0.7,0-1,0c0,0,0.1-0.1,0.1-0.1l0,0c0.1,0,0.2-0.1,0.4-0.1l0,0c0.8-0.2,1.7-0.4,2.5-0.5l0.1,0l0,0c-4,0.4-7.9,1-11.8,1.5
				L1205.3,458.5 M1205.3,458.5c1.4,0.1,3.3,0.2,4.7,0.3c2.6,0.1,5.3-0.2,7.9,0c0.6,0,0.6,0,0.7,0.1c-0.1,0-0.4,0.2-2.4,0.2
				C1212.5,459.2,1209.5,458.9,1205.3,458.5 M1205.3,458.5c2.2-0.3,5.2-0.8,7.5-1.1c-0.1,0-0.3,0.1-0.4,0.1c3.7-0.4,3.8-0.4,6-0.6
				c0.6-0.1,1.1-0.2,1.7-0.4l0.2,0c4.3-1,4.3-1,6.5-1.8l0.7-0.2l-2.1,0.8c0.8-0.2,1-0.2,1-0.2c0.2,0,0.4-0.1,0.9-0.1
				c0,0,0,0.1,0,0.1l0,0l0,0l0,0c-0.9,0.5-3,1-3.1,1l-0.1,0c3.6-0.2,3.6-0.2,5.6-0.4c6.8-1.8,7.5-2,8.3-2c0,0.1,0,0.1,0,0.2
				c-2.1,1.5-10.8,3.3-12.5,3.1c0.2-0.2,0.3-0.2,3.4-1.1c-3.3,0.2-3.6,0.2-5.6,0.3c-0.3,0.1-0.6,0.1-0.8,0.2l-0.2,0
				c-2.6,0.5-9.2,1.8-15.9,1.8c0.6,0,1.3,0,1.9,0c0,0-0.1,0-0.1,0l0,0C1207.6,458.5,1206.9,458.5,1205.3,458.5 M1254.3,446.1
				l0.7-0.5l0.7-0.1L1254.3,446.1L1254.3,446.1 M1268.7,431.3l0.4-0.7l2-0.4c1.3-1.5,3.2-3.5,5-4.8c1-0.7,1.4-0.7,1.2,0
				c-0.3,1.5-2.6,4.1-3.3,4.8c-0.3,0.3-0.6,0.7-0.9,0.9l-10.9,10.6c0.7-0.4,0.8-0.4,1-0.4c0,0,0,0.1,0,0.1c-1.4,0.8-3.4,1.9-4.8,2.6
				c0.2-0.1,0.3-0.2,0.5-0.3c1.2-0.8,1.2-0.8,2.8-1.8c5.5-5,5.7-5.2,8.4-8.3c-1.1,0.7-1.2,0.6-1.5,0.5c-0.1-0.4,0.2-1.1,2-3.4
				C1270.1,431.1,1269.3,431.2,1268.7,431.3 M1282.4,405.8c0,0,0.9-5,0.3-12.2c0.3-0.2,0.3-0.2,0.5-0.5c0.3,7.8,0.3,7.8-0.3,12.1
				c1.8-1.4,2.2-0.4,2.3-0.1l0,0c0.2,0.9,0.2,1.7-0.7,4.1c3-0.8,3.2-0.9,4.3-1.3c0.6-1.3,2.5-5.5,3.6-6.5c0.1,0,0.1,0.1,0.2,0.1
				c-0.2,2.8-5.7,13.9-11,21.4c0.1-0.1,0.2-0.3,0.3-0.4c-1,1.3-2.2,2.9-3.2,4.2c-1.4,1.6-3.2,3.9-4.7,5.4l0,0
				c5.5-6.4,9.5-11,13.9-19.8c-0.4,0.5-0.4,0.6-0.7,0.7c-0.1,0-0.1-0.1-0.2-0.1c0-0.5,0.1-1.2,1.5-4.3c-2.4,0.8-2.4,0.8-4.3,1.3
				c-2.2,4.6-5.4,7.1-6.1,5.5c-0.4-1,0.3-3,0.5-3.7c-0.7,0.1-1.6,0.3-2.2,0.5l0.1-0.8l2.4-0.5l0,0
				C1279.9,409.1,1281.6,407.7,1282.4,405.8 M1281.9,394.2C1281.9,394.2,1281.9,394.2,1281.9,394.2
				C1281.9,394.2,1281.9,394.2,1281.9,394.2C1281.9,394.2,1281.9,394.2,1281.9,394.2C1281.9,394.2,1281.9,394.2,1281.9,394.2
				 M1275.7,390.4l-0.2-0.9l2.7-0.6c0.3-2.3,1-4.2,2.3-5.8c0,0.1,0,0.1,0,0.2c-3.5,4.8-2.6,11.7,0.6,11.2c0.2,0,0.5-0.1,0.7-0.2
				c-1.9,1-2.7-0.4-3.1-1l0,0c-0.5-1-0.6-1.8-0.6-3.3C1277.4,390.1,1276.4,390.3,1275.7,390.4 M1173.3,456.3l-0.4-0.1
				c-1.5-0.6-3.5-1.4-5-2.1c0.3,0.1,0.6,0.2,0.8,0.3C1170.1,455,1171.9,455.8,1173.3,456.3 M1210.1,460.4c0.7,0.2,1.5,0.4,2.2,0.7
				c0.2,0.1,0.2,0.1,0.3,0.1c0,0,0,0,0,0.1c-1.4,0.6-5.5-1.3-7.2-2.8l0,0c0.6,0.4,1.4,1,2.1,1.3c-0.5-0.3-0.6-0.4-0.6-0.5
				c0.1,0,0.1,0,0.6,0.2C1208,459.7,1208.8,460,1210.1,460.4 M1205.3,458.5l0.4,0.1c3.5,0.9,3.5,0.9,3.5,0.9
				C1209.2,459.6,1207.9,459.4,1205.3,458.5 M1209.7,461.9c0.6,0.1,0.6,0.1,1.1,0.1l-0.5,0l-0.2,0c-0.4,0-1,0-1.4,0.1l-1.2,0l-0.2,0
				c-0.4,0-0.4,0-1.3,0h0l0.4,0l0.5,0c0,0-0.1,0-0.1,0c0.2-0.2,0.6-0.4,0.6-0.7C1207.6,461.5,1207.6,461.5,1209.7,461.9
				 M1255.9,445.8l-1.6,0.3l1.3-0.6l1-0.2c2.1-1.4,4.4-2.5,6.6-3.8c0,0-0.1,0.1-0.2,0.3l0,0c-0.6,0.6-1.6,1.4-3.2,2.6
				c0.4-0.1,0.9-0.3,1.2-0.5l-0.7,0.5c-0.4,0.2-0.9,0.4-1.3,0.5c-3.1,2.1-5.8,3.4-6.3,3.3C1252.6,448.1,1253.1,447.7,1255.9,445.8
				 M1240.4,446c2-0.8,2.4-0.5,2.5-0.2l0,0c0,0.7-1.4,1.6-2.2,2.2c4-0.6,4-0.6,6.4-0.9c1.1-0.7,3.3-2,5.5-3c4.7-4.6,4.9-4.8,7.1-7.8
				c-1.9,0.9-2.7,0.9-2.5-0.3l0,0c0.1-0.2,0.1-0.2,0.3-0.7c0.3-0.6,0.5-1,1-1.6c-7,1.3-8,1.5-8,1.5c0,0,0,0.1-0.1,0.1
				c-1.7,2-3.6,3.2-4.4,3.6C1242.8,443.4,1242.7,443.6,1240.4,446 M1248.4,431.9c2.3-1.3,3-0.6,3.2-0.4l0,0c0.7,0.8-0.3,2.4-0.7,3
				c4.4-0.9,4.4-0.9,8.1-1.5c0.2-0.3,0.5-0.5,0.7-0.7l0.1-0.1c2.1-2.2,3.3-3,3.9-3.4c2.2-6.2,2.3-6.3,2.9-10.1
				c-1.9,1.2-3.2,1.2-3.8-0.2l0-0.1c-0.1-0.4-0.2-0.7-0.1-1.2l0,0c0-0.5,0.1-0.8,0.2-1.4l0-0.1c-6.1,1.4-6.3,1.4-9.8,2.3
				c-0.9,2.5-3.3,4.6-3.4,4.6C1249.2,428.5,1249.2,428.7,1248.4,431.9 M1207.1,456.6c0.8-0.7,0.9-0.6,1-0.6l0,0c0,0.1-0.1,0.4-1,1.2
				c2-1.1,2.1-1.1,3.6-1.7c2-1.5,2.6-1.9,3.5-2.4c2.2-3.2,2.2-3.2,2.7-5.3c-1.9,1.4-2.3,0.8-2.5,0.5l0,0c-0.1-0.4-0.1-0.8,0.1-1.6
				c-3.4,1.7-3.5,1.7-5.1,2.7c-0.2,1.2-0.8,2.2-1.2,2.9C1207.9,455.2,1207.9,455.3,1207.1,456.6 M1198.2,439.9
				c-0.2-0.7-0.5-2.2,0-3.4c1.4-2.5,4.1-1.3,5,1.4c0.6,1.8,0.2,3.2,0,3.9c2.6,3.9,2.7,4.1,3.6,6.1c0.7-0.9,0.8-0.9,1.8-0.9l0,0
				c0.6,0.5,0.7,0.6,0.7,1.9c3-1.7,3.1-1.8,5.2-2.7c1.7-4.7,5.1-6,5.8-4.3c0.8,1.9-5.7,10.8-5.8,10.9c0.7-0.4,1.5-0.8,1.9-0.6l0,0
				c-0.2,0.6-0.2,0.6-1.1,1.3c1.9-0.5,3.7-1,5.6-1.4c6.9-4.6,6.9-4.6,8.9-9c-1.9,1-2.2,0.9-3,0.6c-0.6-3.7,6.2-8.8,7.9-7.8
				c0.9,0.5,0.4,1.9-0.3,2.9l-8.1,10.2c1-0.4,2.1-0.8,2.5-0.4l0,0l0,0.1l0,0l0,0c-0.4,0.7-0.4,0.8-1.7,1.7l-0.1,0.1
				c4.4-0.9,4.5-0.9,7-1.3c8-4.8,8-4.8,11-10c-1.8,0.9-2.2,0.8-3,0.6c-0.9-2.2,4.2-6.6,5-7.1c1.4-1,1.7-9.5,1.7-9.5
				c-3.5,2.2-5.1,0.6-4.7-2.2c0,0,0,0,0,0l0-0.1c0.4-2.2,1.5-4.2,3.4-6c-1.6-6.4-1.7-6.7-3.2-10.5c-4.1,3.2-7.5,0.3-7-4.1
				c0.5-5.4,6-8.7,8.9-5.4c1.3,1.5,2,5.2-1.2,8.9c2.4,6.7,2.5,6.9,3.3,10.6c2.2-1.4,3.2-1,4-0.7l0,0c0.9,0.8,1.3,1.5,0.9,3.5
				c6.4-1.5,6.4-1.5,9.8-2.3c1-2.7,2.4-4.2,3.6-5.2c-0.6-7-0.6-7.3-1.6-11.4c-4.2,3.1-6.7-0.7-6.1-4.8c0.4-2.8,1.8-4.4,2.4-5
				c-3.3-7.5-3.4-7.7-5.7-11.9c0.2-0.2,0.5-0.4,0.6-0.6c3.9,7.5,4.1,7.8,5.7,12c2.1-1.6,3.4-1.1,4.3-0.7l0,0c1,0.8,1.8,1.6,1.9,4.1
				c2.2-0.5,5.1-1.2,7.3-1.7l0.2,0.9c-2.3,0.5-5.3,1.2-7.5,1.8c-0.3,2.2-1.1,3.8-2.5,5.4c1.4,7.2,1.5,7.5,1.6,11.5
				c1.6-1,2.6-1.1,3.5-0.4l0,0c0.4,0.5,0.9,1.3,0.3,3.6c1.6-0.2,3.8-0.5,5.4-0.8l-0.1,0.8c-1.7,0.3-4,0.8-5.7,1.1
				c-0.8,1.8-2.8,2.8-3.6,4.7c-1.4,3.3-1.5,6.9-2.9,10.1c1-0.5,1.5-0.7,2.2-0.5c0.1,0.1,0.3,0.2,0.4,0.4l0,0
				c-0.1,1.4-0.7,2.3-1.4,3.2c1.1-0.2,2.6-0.5,3.8-0.7l-0.4,0.7c-1.2,0.2-2.7,0.5-3.9,0.7l-11.7,11.6c1.2-0.5,1.3-0.4,1.8-0.4
				c0,0.1,0,0.2,0,0.3l0,0c-0.5,0.7-0.8,1.1-2.7,2.4c0.8-0.1,1.9-0.3,2.7-0.4l-0.7,0.5c-0.8,0.1-2,0.3-2.8,0.4c-2,1.2-6.6,3.6-7.9,3
				c0.3-0.5,0.5-0.7,2.6-2.1c-3.7,0.5-4.2,0.6-6.4,0.9c-2.2,1.2-12.3,6-12.4,6l-0.7,0.2c2.1-1,4.9-2.3,7-3.5
				c-1.2,0.4-1.5,0.4-2.1,0.5c0-0.1,0-0.3-0.1-0.5c0,0,0,0,0,0l0,0c0.4-0.3,0.4-0.4,0.8-0.6l0.1,0c0.4-0.3,0.5-0.4,1.1-0.7
				c-4.3,0.8-4.5,0.8-6.9,1.3c-0.2,0.1-0.4,0.3-0.6,0.4l-0.1,0.1l-0.1,0c-1.6,0.9-3.2,1.5-4,1.8c-4.7,2.5-4.9,2.6-8.2,3.6
				c1.2-0.3,1.3-0.3,1.9-0.3c0,0,0,0.1,0,0.1l0,0c-1.3,0.5-1.7,0.7-10.1,1.9l0,0l0.2,0c4.3-0.7,9.7-1.5,15.5-5
				c-1.4,0.5-1.5,0.5-2.1,0.6c0.2-0.5,0.3-0.6,1.6-1.5c-3.8,1-3.9,1-5.8,1.6c-3.1,1.9-5.9,2.8-5.9,2.8c0.4-0.3,0.4-0.3,1.2-0.9
				c-2.1,0.8-2.1,0.8-3.3,1.5c-0.5,0.4-0.9,0.6-1.4,1l0.2-0.2c1.7-1.8,2.5-3.2,2.4-5.6c-0.5,0.6-0.5,0.6-1.1,0.8
				c-1.1-1.4-0.5-4.1-0.5-4.2c0.5-1.7-2.4-5.8-3.3-7C1201.4,445.4,1198.9,442.1,1198.2,439.9 M1203.2,455.5
				c-1.4-2.1-1.1-3.1-0.4-2.9c0.4,0.1,0.9,0.6,1.2,1.4c0.1,0.3,0.2,0.6,0.3,0.8c0.2,0.6,0.3,1.3,0.5,1.9c0.2,0.5,0.5,1.2,0.6,1.8
				l-0.6-1.5c0.1,0.6,0.1,0.6,0.1,0.7c0,0,0,0,0,0C1204.6,457.5,1203.6,456.3,1203.2,455.5"/>
		</g>
		<g class="st1">
			<path class="st2" d="M1199.6,461.6c-0.6,0.1-1.3,0.1-1.7,0l0,0c0,0-0.1,0-0.1,0c0,0,0,0,0-0.1c0.1-0.1,0.2-0.1,0.6-0.2
				c-3,0-3.2,0-5.2-0.2c-0.6,0-0.9,0-1.3,0c-0.6,0-1.2-0.1-2.3-0.2l0,0l-0.5-0.1c0.8,0.1,2,0.3,2.8,0.5c3.1,0.4,3.1,0.4,4.6,0.6
				c0.9,0.1,2.1,0.2,3,0.2c0,0-0.1-0.1-0.1-0.2C1199.4,461.7,1199.5,461.6,1199.6,461.6 M1205.3,458.5L1205.3,458.5
				c-0.1,0-0.2,0.1-0.2,0.1c0,0,0,0,0,0C1205.2,458.5,1205.3,458.5,1205.3,458.5 M1202.1,462.1
				C1202.1,462.1,1202.1,462.1,1202.1,462.1c-0.3,0-0.8,0-1.2-0.1l0.2,0C1201.4,462.1,1201.8,462.1,1202.1,462.1 M1205.5,462.2
				l1.1,0l-0.4,0L1205.5,462.2 M1207.4,461.4c-0.1,0.2-0.3,0.6-0.6,0.6c0,0-0.1-0.1-0.2-0.1c0-0.1,0-0.1,0-0.2
				c-1.5-0.8-1.5-0.8-1.7-1.6c-0.3,0.4-0.4,0.4-0.6,0.3l0,0c-0.1-0.2-0.1-0.2,0.1-0.7c-1.3,0.7-1.3,0.7-2.5,1l0,0
				c-0.8,0.4-1.8,0.4-2.4,1.1c0.1,0,0.1,0.1,0.2,0.1c-1-0.1-2.4-0.2-3.4-0.3c-3-0.3-3.1-0.3-4.6-0.6c-1-0.2-2.3-0.4-3.3-0.5l0.4,0.1
				c-1.4-0.2-2.4-0.5-2.5-0.5l0,0c0.2,0,0.2,0,0.9,0.1c-4.2-0.9-4.5-0.9-7-1.6c-2.4-0.6-4-1.1-8-2.5l0,0l-0.1,0l0,0
				c0.4,0.1,0.9,0.3,1.3,0.4c-0.2-0.1-0.5-0.2-0.7-0.3l0.4,0.1l0.9,0.4c4.9,1.5,5.7,1.7,12.1,2c2.7,0.3,5.6,0.5,8.6,0.5l-0.3,0
				c-5.4,0.2-14.7-1-14.8-1c2.2,0.6,2.3,0.6,2.6,0.7c0,0,0,0-0.1,0l0,0c-0.2,0-0.2,0-0.5,0l0,0c-0.3-0.1-0.4-0.1-0.8-0.1
				c4.5,1.1,4.5,1.1,7,1.5c2.2,0.2,4.4,0.1,6.6,0.4c-0.2,0.2-0.2,0.2-0.9,0.3c3.5,0.2,3.5,0.2,5.2,0.1c1.4-0.4,2.7-1.1,4.2-1.2
				c-0.2,0.2-0.2,0.2-0.6,0.5c1.6-0.4,1.6-0.5,2.3-1c0.6-0.9,0.6-0.9,0.7-1.1c-0.1,1.7-0.2,2.6,1.5,3.2
				C1206.9,461.6,1207.1,461.4,1207.4,461.4 M1205.3,458.5L1205.3,458.5L1205.3,458.5"/>
		</g>
		<g class="st1">
			<path class="st2" d="M1281.1,382.7c1-0.9,1.7-1,1.9-1c-0.7,0-1.3,0.3-2,0.9L1281.1,382.7"/>
		</g>
		<g class="st1">
			<path class="st2" d="M1142.9,437.3c-1.3-1.3-1.9-2-1.8-2.3c0.1,0,0.2,0,0.3,0l0,0c0.2,0.1,0.2,0.1,0.5,0.3
				c0.5,0.3,0.9,0.5,1.4,0.9c-2.4-3.9-2.5-4-3.4-6.4c-2.2-2-3.4-3.7-3.9-4.4c-4.7-3.4-5-3.6-7.2-5.6c1.1,2,1.1,2.4,1,2.6l0,0
				c-0.1,0-0.4,0.1-1.7-1.6c1.2,2,3,4.6,4.4,6.5l2.1,2.5c1.2,1.4,2.1,2.3,2.7,3C1140.4,435.6,1140.5,435.7,1142.9,437.3
				 M1155.6,447.8c-1-0.6-1.8-1.2-2.4-1.6c-0.1-0.1-0.3-0.2-0.4-0.3c0.2,0,0.2,0,1.5,0.8c-4-3.1-4.3-3.3-6.3-5.3
				c-1.5-1-3.1-2.3-4.5-3.6c-3.8-2.7-4-2.9-5.6-4.5c0.2,0.3,0.5,0.5,0.7,0.8c2.1,2,5,4.7,7.3,6.7
				C1148.7,442.9,1152.6,445.7,1155.6,447.8C1155.5,447.7,1155.6,447.8,1155.6,447.8 M1179.3,457.6c-0.4-0.1-0.6-0.2-0.9-0.3
				c-0.1,0-0.1-0.1-0.2-0.1c0.3-0.2,0.3-0.2,2.3,0.2c-12.5-4.4-14.2-5.3-14.7-6.1c0.3-0.1,0.4-0.2,2.8,0.6c-2.2-1.5-4.1-3.4-6.4-4.6
				c-1.9-1-3.2-1.9-3.7-2.3c-5.7-2.4-6-2.5-8.9-3.9c0.8,0.7,1.2,1.1,1.5,1.6c0,0.1,0.1,0.2,0.1,0.3l0,0c-0.7,0-1.9-0.8-2.4-1.1
				c5,4.6,5,4.6,11.9,8.4c2.3,1.3,2.4,1.4,2.6,1.6c-0.5,0-3-1.2-6.9-3.6l0,0l3,1.8C1165.4,453.5,1172.1,456,1179.3,457.6
				 M1116,396.5l0.2,0.7l-0.3-1.1L1116,396.5 M1189.6,459c-11-0.8-21.3-3.9-30.3-9c-6.4-3.9-7.7-4.7-13.4-9.2
				c-6.4-5.7-7.1-6.3-11.2-10.9l-3-3.6c-1.3-1.8-2.9-4.2-4-6.1c-1.9-2.6-5.2-8.1-5.2-8.1l-0.5-0.9c0.6,1,1.4,2.4,2.1,3.4
				c-1-1.9-1.1-2.4-1.2-2.9c0.1,0,0.2,0,0.3-0.1l0,0c0.4,0.3,0.4,0.3,0.6,0.5l0,0c0.3,0.3,0.4,0.4,0.8,1c-0.3-1.5-0.8-3.5-1-5
				l0.4,0.5c0.3,1.6,0.6,3.7,1,5.2c5.1,7.2,5.1,7.2,10.5,10.9c-0.9-1.7-0.8-2-0.5-2.6c2.8,0,7.3,6.3,7.4,6.4c0.4,0.6,3.8,2.6,10,5.8
				c-0.7-1.2-0.6-1.5-0.5-2c1.2,1.7,2.8,4,4.1,5.6c-3.9-3.1-3.9-3.1-12.9-8.3c0.7,1.2,0.7,1.5,0.7,2c-0.1,0.1-0.2,0.3-0.3,0.3l0,0
				c-0.6,0-1.3-0.2-2.9-1.5c1.9,4.1,1.9,4.1,3.4,6.3c0.3,0.2,0.6,0.4,0.9,0.7l0.1,0.1c5.8,4.4,5.8,4.4,12.8,7.2
				c-1-0.8-1.1-1-1.4-1.5c0.1-0.1,0.1-0.2,0.2-0.3c0.2,0,0.4,0,0.5,0l0,0c0.4,0.1,0.5,0.1,1.1,0.4l0.1,0c0.5,0.2,0.7,0.3,1.4,0.6
				c-0.7-1.2-1.6-2.9-2.1-4.1l1.1,1.2c0.5,1,1.2,2.4,1.8,3.4c2,1.1,3.7,2.6,5.9,3.4l0.6,0.4l-0.5-0.2c1.2,0.9,1.2,1,1.3,1.4
				c0,0-0.1,0-0.1,0l0,0c-0.6,0-1.1-0.1-3-0.8c2.5,2.3,2.5,2.3,4.7,3.7l0,0c7.1,2.4,7.1,2.4,14.1,3.7l0.7,0.2
				c-2.4-0.4-5.7-1-8.1-1.5c1.5,0.6,1.6,0.6,1.9,0.9c0,0,0,0.1-0.1,0.1l0,0c-0.5,0-0.9,0-3-0.5c3.9,1.7,4,1.7,6.4,2.4
				c2.8,0.5,5.7,0.8,8.5,1.4C1189.7,458.8,1189.6,458.9,1189.6,459 M1273.4,304.6c-0.2-0.4-0.2-0.4-0.2-0.6c0.2,0,0.3,0,1.4,1.1
				l0.1,0.1c0.8,0.8,1.4,1.5,2.3,2.6l-0.1-0.2c-2.3-2.5-5.3-5.7-7.8-8.1c-2.7-2.3-6.3-5.3-9.1-7.4c0,0.1,0,0.2,0,0.2
				c-0.1,0-0.2,0.1-0.3,0.2c2.5,1.9,3.4,3,3.7,3.4C1269.7,301,1270.1,301.3,1273.4,304.6 M1254.3,336.2c1.1-1.1,3-2.1,5.9-0.3
				l0.1,0.1c0.6,0.5,1,0.8,1.5,1.4l0,0c0.4,0.5,0.7,0.9,1.1,1.7l0,0.1c6.4-1.7,6.4-1.7,10-2.7c-0.5-1.4-0.7-3.6-0.3-5.4
				c-6-7.3-6.1-7.4-9.8-11.4c-1.1,1.3-2.7,0.9-3.8,0.5l0,0c-1.7-0.7-3-1.8-4.3-3.6c-6.1,1.6-6.9,1.8-10.7,2.8
				c0.1,0.3,0.1,0.3,0.3,0.9l0.1,0.1c0.2,0.9,0.7,2.7-0.5,4.4C1250.5,331.7,1250.9,332.1,1254.3,336.2 M1234.2,316.5
				c1.1-1,3-2,6.2-0.5l0.1,0.1c0.4,0.2,0.5,0.3,1.1,0.8c0.9,0.7,1.3,1.1,1.9,1.9c6.9-1.9,6.9-1.9,10.7-2.8c-1.2-2.3-1-3.6-0.7-4.6
				c-6.9-6-6.9-6-10.9-9.1c-1.1,1.1-2.8,0.9-4,0.6l0,0c-2.3-0.6-3.7-2-4.4-2.8c-6.4,1.6-6.9,1.8-10.8,2.8c1.4,2.4,0.2,4-0.1,4.6
				C1229.9,312.7,1230.5,313.2,1234.2,316.5 M1237,281.2c-1.3-0.7-1.3-0.7-2.3-1.6c0.4-0.1,4,1.3,4.5,1.5l0,0c0.1,0,0.3-0.1,0.4-0.1
				c0,0,0,0,0,0l0,0l0.7,0.3c-0.1,0.1-0.3,0.1-0.5,0.2c0.5,0.2,0.5,0.2,1.2,0.6l0.1,0.1c0.6,0.3,1,0.5,1.4,0.8
				c1.4,0.9,1.2,1.1,1,1.1c-0.9,0.1-5.1-2-6.3-2.7C1237.2,281.3,1237.1,281.3,1237,281.2 M1215.1,307.8c2-2.1,4.8-4.8,6.9-6.8
				c0.3,0.2,0.6,0.5,0.8,0.8c4.8-1,4.8-1,11-2.5c-0.9-1.5-1-2.2-0.7-3.4c-1-0.8-2.2-1.8-3.2-2.6l0.3-0.4l3.3,2.2
				c1.7-1.5,3.9-0.7,5-0.2l0,0c0.7,0.3,0.8,0.4,1.5,0.9l0.1,0.1c0.5,0.4,0.7,0.5,1.2,1c4.9-1.1,4.9-1.1,7.7-1.7l-0.5-0.5l-0.1-0.1
				l0,0c-1-1.3-1.1-2-1.2-2.6c-6.8-4.3-6.8-4.3-10.6-6.4c-0.3,0.2-0.7,0.4-1.1,0.5c0.2-0.6,0.5-1.3,0.6-1.9c0.3,0.5,0.3,0.5,11,7.5
				c1.6-1.9,6.3,2,6.3,2.1c2.7-0.6,3-0.7,4-0.9c-2.9-2.5-3.2-3.1-3.4-3.5c0.6,0.1,1.3,0.2,4.7,2.6c0.1-0.1,0.2-0.2,0.3-0.4
				c3,2.3,7,5.5,9.9,8c2.6,2.6,6,6.1,8.4,8.8l0.1,0.2c2.9,3.6,3.4,4.7,3.6,5.2c-1.8-0.5-6.9-7.6-6.9-7.7c-0.9-1.3-4.9-5.3-10.8-9.9
				c-0.1,0.1-0.3,0.3-0.5,0.4c-0.2-0.1-0.6-0.2-0.8-0.4l0,0c-1.2-0.7-2.1-1.3-3.9-2.7c-2.1,0.5-2.1,0.5-4.1,0.9
				c4.5,4.1,8.6,8.5,13,12.7c0.1-0.2,0.2-0.4,0.3-0.5c5.3-0.9,8.1,9.6,8,9.8c-2,1.8-7.8-5.2-8.2-8.1c-0.2-1.6-10.3-9.4-10.8-9.7
				c-0.5,0.5-0.8,0.9-2.7,0.2l-0.1,0l-0.3-0.1l0,0l0,0c-1.9-1.1-2.7-1.5-3.7-2.5l-0.1-0.1c-3.5,0.8-5,1.1-7.7,1.7
				c1.2,1.6,1.3,2.4,1.1,3.7c3.6,3.2,7.2,6.2,10.7,9.4c3.2-3.4,9.7,3.2,9.6,7.1c0,0.3-0.1,0.6-0.1,0.9c3.2,3.9,6.5,7.7,9.7,11.7
				c2.4-2.9,5.9,1.5,6.7,3.3l0,0.1c0.1,0.3,0.3,0.7,0.5,1.1c0.7,1.7-0.1,3.6,0.5,5.3c1.8,4.7,4.7,9,6.8,13.6
				c2.2-2.9,4.4,1.1,4.9,5.1c0.7,5.3-1.2,8.6-3.2,7.3c-2.4-1.6-3.3-8-2.4-10.8c0.7-2.2-6.5-14.1-6.6-14.2c-0.7,0.8-1.5,1.4-3.4,0.4
				l-0.1,0c-1.2-0.8-2.2-1.7-3.4-4.3c-6,1.6-6.5,1.7-10,2.7c1,3.1,0.3,4.9-0.5,6.2c5.2,7.8,5.5,8.3,8.1,12.8
				c3.9-3.7,7.5,1.6,7.3,6.5c-0.1,2.3-1.1,3.7-1.4,4.2c3.1,8.1,3.2,8.4,4.3,12.9c3-2.6,5,0.3,4.6,4.4c-0.5,5.1-4.3,9-6.4,6.6
				c-1.4-1.6-1.6-6.6,1.2-10.5c-2.3-8.1-2.4-8.3-4.3-12.9c-1.9,1.6-3.5,0.9-4.1,0.6l-0.1,0c-1.1-0.8-2-1.7-2.7-4.3
				c-2.5,0.7-5.7,1.5-8.2,2.2l-0.5-0.9c2.6-0.7,6-1.6,8.5-2.3c-0.2-2,0-3.8,1.2-5.9c-4.7-8-4.9-8.3-8.1-12.8
				c-1.8,1.7-3.3,1.3-4.7,0.9l-0.1,0c-1.4-0.7-2.5-1.4-3.8-3.9c-2.5,0.6-5.9,1.5-8.4,2.3l-0.7-0.9c2.6-0.8,6.1-1.9,8.7-2.6
				c-0.6-2.3-0.5-4,0.5-5.8c-6.5-7.3-6.5-7.3-10.4-11.3c-0.5,0.4-1.6,1.3-3.3,1.2c-0.9,0-1.1-0.1-1.7-0.2l-0.1,0
				c-0.7-0.3-2.5-1.1-4.2-3.1c-2.5,0.6-5.8,1.3-8.2,2.1l-0.8-0.7c2.5-0.8,5.8-1.8,8.3-2.6c-0.7-2-0.4-3.2,0.1-4.8
				c-5.9-5.5-5.9-5.5-10.8-9.4c-1.9,1.4-3.6,1.2-5,1.1l-0.1,0C1216.9,308.7,1216.2,308.5,1215.1,307.8 M1158,439.1l0.6,1.7l-1.1-1.2
				l-0.3-1c-1-0.7-1.9-1.2-5-6.6c1.4-0.3,3.5,1.3,3.6,1.4l0.1,0c2.9,2,4.8,4.3,4.9,4.4c0.1,0.1,0.2,0.3,0.3,0.4
				c0.1,0.1,4.4,2.1,10.6,4.9c-0.9-1.1-0.7-1.8,0.3-1.7c2.4,0.2,9.3,5.4,9.2,6.9c-0.8,0.5-3.7-1-4.6-1.5c-1.6-0.9-2.8-2.4-4.5-3.3
				c-3.4-1.8-7.1-3.2-10.6-4.9c1,1.5,0.5,1.8,0.1,1.8l0,0C1160.4,440.5,1158.7,439.5,1158,439.1 M1186.3,456.4l-2.1-0.3l-0.7-0.2
				l2.1,0.3c-1.5-0.4-1.7-0.6-1.9-0.7c0.3-0.1,0.3-0.1,0.7,0l0,0c0.7,0.1,1.3,0.2,2.8,0.5c-3-1.4-3.2-1.5-4.7-2.5
				c-5.2-1.7-10.3-3.7-15.5-5.4l-0.6-0.4c6.5,2.2,6.5,2.2,10,3.3c-0.9-0.6-1.1-0.7-1.3-1.1c0-0.1,0.1-0.2,0.2-0.2
				c1.2,0,4.3,1.2,9.4,3.6c1,0.5,10.7,3,10.8,3c-1.1-0.4-1.3-0.5-1.4-0.7c0.4-0.1,0.6-0.1,3.9,1c2.7,0.9,4.9,1.5,7.3,2
				c-4.5-0.8-5.7-1-19.6-4.8c1,0.5,1.1,0.6,1.3,0.8c-0.1,0-0.1,0.1-0.2,0.1l0,0c-0.6,0-1.3-0.2-3.5-0.8c2.8,1.6,2.8,1.7,4.7,2.4
				c2.9,0.6,5.9,1.1,8.8,1.7C1196.2,458,1193.9,457.9,1186.3,456.4 M1166.7,283.5c1-0.6,2.2-1.4,3.2-1.8l0,0l0.5-0.2
				c-0.9,0.5-2.2,1.1-3,1.7c1.9-0.9,3.3-1.4,3.5-1.3h0c0,0,0,0.1,0,0.1c-0.1,0.2-0.1,0.2-0.5,0.5c1.5-0.6,3.5-1.3,5-1.8l-0.1,0.2
				c-1.6,0.6-3.7,1.3-5.3,1.9c-2.7,2-7.8,4.9-8.5,4.3C1161.6,286.4,1161.7,286.4,1166.7,283.5 M1151.4,291.9l1.1-0.8l0.7-0.5
				l-1.1,0.8c0.4-0.3,2.4-1.6,3-1.9c0,0,0,0,0.1,0c-0.3,0.5-8.6,7.3-9.4,7.2C1145.6,296.7,1145.9,295.8,1151.4,291.9 M1138.2,365.2
				c0.8-1.7,2.3-3.6,5.1-2.9l0.1,0c0.5,0.2,0.9,0.4,1.4,0.8l0,0c0.4,0.3,0.7,0.7,1.1,1.3l0,0.1c6.7-5,7-5.2,11.4-8
				c-0.9-2.6-0.2-4.6,0.6-6.1c-6.3-5.7-6.3-5.7-9.5-8.9c-2,2.6-3.9,2.7-4.6,2.8l0,0c-2.3,0.1-3.1-1.9-3.3-2.5
				c-6.4,5.2-6.6,5.4-9.7,8.5c0.3,1.2,0.7,3.1-0.4,6.7C1135.1,362.3,1135.1,362.3,1138.2,365.2 M1115,368.3c0.8-4.9,2.2-3.3,2.3-3.1
				c0.3,0.4,0.9,1.6,0.9,1.6l0,0.1l0,0c3.2-5.7,3.3-6,5.7-9.2c-0.5-2.9,0.2-5.3,0.5-6.3c-2.9-4.9-2.9-5-3.9-7.5
				c-1.2,2.7-2,3-2.3,3.1l0,0c-0.8,0.1-0.9-1-0.9-2.1c-2.7,5.5-3,6.1-3.9,9.2c-0.6,2.2-0.4,4.4-0.7,6.6
				C1113.8,365.6,1113.8,365.7,1115,368.3 M1113.5,386.3c-0.4-2.6-0.4-3.1-0.3-3.4c1,0.6,2.4,7.5,2.7,8.9c2.8,4.3,2.8,4.4,5,6.9
				c-0.3-2.2-0.3-4.2,1.6-2.8c0.5,0.4,0.9,0.9,1.2,1.3l0,0c1.5-5.3,1.6-5.5,3-8.5c-2.7-5.4-1-11.1,2-9.8c1,0.4,1.7,1.4,2.1,2
				c4.2-5.3,4.3-5.5,7.3-8.5c-1.2-2.8-0.6-5.2-0.4-6.1c-5.2-5.1-5.5-5.4-7.9-8.2c-2.3,5.1-5,2.7-5.7,0.9c0-0.1-0.1-0.2-0.1-0.3
				c-5.7,8.3-5.7,8.6-5.4,10.6l0,0.1c0.1,0.8,0.2,1.7,0.2,2.5c0.1,1.7-0.1,2.6-0.1,3.2c-0.4,2.9-1.4,4.1-2.4,2.8
				c-0.8-1-1.1-2.3-1.3-3.3c-0.3-1.7-0.4-2.9-0.3-5.1l0-0.2c-1.9-4.8-1.9-4.9-2.3-7.6c-0.4,2.8-0.5,3-0.7,3.3
				c-0.1-0.2-0.2-0.4-0.1-2.2l0,0.4l-0.1,5.1c0.4,10,0.4,10.4,1.4,16.4C1113.2,385.1,1113.4,385.8,1113.5,386.3 M1119.2,337.5
				c1.4-3,2.7-4,3.1-2.6c0.3,0.8,0.3,3.6-1.4,8.1c2.1,4.8,2.1,4.8,3.9,7.5c1-2.2,2-3.2,3.4-3.2l0,0l0.1,0c0.7,0.2,1.6,0.5,2.3,2.1
				c5.8-5.5,5.9-5.6,9.7-8.5c-1-6.1,5.2-11.4,8.5-8.9c0.6,0.5,0.9,1,1.2,1.5c7.9-4.7,8.1-4.8,12.9-7.3c-0.6-2.6,0.9-4.6,1.4-5.4
				c-5.1-4.6-5.4-4.9-7.7-7.2c-2.1,1.9-3.7,2.2-4.8,2.3l0,0c-2.1,0-2.5-1.4-2.6-2c-7,4.4-7.3,4.5-10.9,7.2c0,1.9-0.8,3.9-2.4,6.3
				c-2.9,3.8-5.1,3.6-5.6,1.3l0-0.1c0-1.1-0.1-2.9,2.1-6.3c-1.2-3.9-1.2-4.1-1.2-6.2c-1.7,2-2.4,2.5-2.8,2.7l0,0c-0.1,0-0.2,0-0.3,0
				c-0.2-0.3-0.3-0.4,0.2-1.7c-5.1,6.2-5.1,6.2-8.5,13.6C1119,334.9,1119,335.1,1119.2,337.5 M1112.8,353.9c0.2-1.6,0.4-2.4,0.5-2.5
				l0.1,0.1l0,0c0.1,0.8,0,1.4,0,1.9c2.1-5.9,2.1-6,3.9-9.2c0.3-2.6,1.1-4.9,1.5-5.8c-0.1-4.2-0.1-4.4,0.6-6.7
				c-1.2,2.6-1.4,2.9-1.4,3l0,0l0-0.1l-1,2.8c-2.8,9.2-2.9,9.6-3.9,15L1112.8,353.9C1112.8,354,1112.8,353.9,1112.8,353.9
				 M1116,396.5l-0.1-0.4l0-0.1l-0.8-2.9c-0.5-1.6-0.5-1.6-1.8-7.3c-1.4-9.5-1.5-10.4-1.6-17.5c0.4-10.1,0.4-10.3,1.4-15.8
				c2.1-9.6,2.1-9.8,3.9-15c3.5-8.8,3.6-9.2,6.2-14l0.2-0.4l0,0l0,0.1l0,0l-0.2,0.5l0,0.1c-0.1,0.3-0.3,0.7-0.4,1
				c3.4-5,3.4-5.1,5.9-7.9c1.1-2.1,6.3-10,6.3-10l2.8-3.1l0,0c-3.2,3.4-4.5,5.1-5.4,7.5c1.7-2,2-2.1,2.9-2.7c0.2,0.8,0.2,0.8,0,1.4
				l0,0c-3.6,8.1-3.6,8.1-2.2,11.7c3.8-4.6,5-2.4,5.3-1.6c3.7-2.2,7.3-4.5,10.9-6.6c0.5-4.6,5.6-7.8,8-7.6c3.4,0.6,2.7,4.2,0.1,7.3
				c4.5,4.4,4.5,4.4,7.6,7.2c2.3-2,4.6-2.7,7-2.1l0,0c0.7,0.3,0.9,0.3,1.5,0.8l0.1,0.1c0.6,0.6,0.7,0.7,1,1.2
				c8.9-3.8,8.9-3.8,14-5.7c-1.4-5.4,5.9-8.9,10-6.2c0.5,0.3,1.1,1,1.5,1.5c1.6-0.5,3.7-1.2,5.3-1.8l0.7,0.6l-5.7,1.9
				c0.3,1,0.3,1,0.2,2.2c-0.1,1-0.3,1.6-1.3,3.1l3.6,3l-0.7,0.6l-3.5-3c-2.4,1.8-4.5,1.8-5.6,1.6l-0.1,0c-2.2-0.4-2.7-0.8-3.9-2.2
				c-7.8,2.4-7.8,2.4-14.2,5.3c0.5,2,0.2,3.7-1.3,5.7c5.9,5.1,7.1,6.1,10.4,9.1c1.2-1.1,1.9-1.6,3.5-2.1c-1.6,1.8-3.7,4.3-5.3,6.1
				c0.2-1.5,0.4-1.9,1.2-3.2c-6.2-5.5-6.2-5.5-10.5-9.1c-2.4,2.2-4.6,2.3-5.6,2.2l-0.1,0c-1.9-0.2-2.8-0.7-3.8-2.1
				c-7.8,3.5-7.8,3.5-13.2,6.9l0,0c0.4,2.1,0.1,4-1.2,6.3c5.4,5.2,6.1,5.9,9.5,8.9c2.4-2.8,4.6-2.8,5.8-2.7l0,0l0.2,0.1
				c0.3,0.1,0.7,0.1,1,0.2l0,0c1.7,0.9,2.2,1.3,3,2.4c2.8-1.5,6.5-3.4,9.4-4.8l-1.5,1.8c-2.2,1.1-5.2,2.6-7.4,3.8
				c1.2,3.5,0.1,5.1-1.8,7.9c-2,1.8-3.1,1.9-4.8,1.9l0,0l0,0l-0.2,0l-0.2,0l-0.1,0l-0.1,0c-0.8-0.2-2.3-0.7-3.7-2.4
				c-7.1,4.1-7.1,4.1-11.6,7.6c0.9,2.2,1,4.2,0.2,6.5c2.4,2,5.6,4.6,8,6.5l-0.4,0.8c-2.4-1.9-5.6-4.5-7.9-6.5
				c-1.4,2.5-2.8,2.7-3.8,2.8l-0.1,0c-1-0.1-2.3-0.2-3.8-2.5c-5.1,5.3-5.1,5.3-7.3,8.4l0,0c1,2.1,1.4,4,1.3,6.3
				c5.8,4.8,5.8,4.8,9.5,7.7c0.9-3.8,3.9-2.7,4-2.7l0,0c1.1,0.4,1.4,0.6,2.3,1.5c-0.6,3-1.4,7-1.8,10.1c-1.8-1-3.1-2.5-3.9-4.5
				c-1.6-3.9-1.6-3.9-10.3-11.3c-0.3,1.6-0.8,2.6-2.2,2.9l0,0c-1.1-0.1-1.9-0.4-3.1-2.2c-2.2,5.3-2.3,5.5-3,8.5
				c1.2,1.8,1,4.2,2.5,5.9c0,0,2.8,2.6,8.4,6.7c-0.5-3.9,2.3-2.9,3.6-1.9c3.5,2.8,6,9.2,3.9,10.1c-1.3,0.5-3.9-1.4-5.7-4.1
				c-1.9-2.9-1.9-2.9-10-10c0.3,1.9,0.1,2.2-0.5,2.8l0,0l-0.1,0l0,0l0,0c-1-0.4-1.1-0.4-2.2-1.8l-0.1-0.1l0.2,2.9l-0.4-0.5l-0.2-3.2
				l-0.4-0.7l-0.1-0.2l0,0c-1-1.8-1.5-3.5-1.8-4.5c-3.4-4.2-3.6-4.4-5-6.9c0.3,1.5,0.4,2.6,0.3,3.1l0,0c-0.5-0.5-0.5-0.5-1-1.9
				C1115.5,394.6,1115.8,395.7,1116,396.5"/>
		</g>
		<g class="st1">
			<path class="st2" d="M1209.5,325.5c-2.2-1.9-5-4.4-7.2-6.3l0.7-0.6c2.2,1.8,5,4.3,7.2,6.2c1-0.9,1-0.9,4.1-1.7
				c2.6-0.1,4.6,1,6.2,3.2c1.4-0.5,3.4-1.1,4.8-1.6l0.8,0.7l-5.1,1.7c2.3,5.8-3.8,9.9-8.7,7.5
				C1209.4,333.3,1206.8,329.5,1209.5,325.5 M1182.9,343.4l-6.6,3.2l1.5-1.8l4.6-2.2c-0.8-2.5-0.8-2.5,5.3-8.9c6-0.8,9.5,5,6.2,10.2
				c6.7,6.3,7.5,7.1,11.1,10.6c1.1-1.1,1.1-1.1,4.2-2c2.7-0.1,4.7,1,6.2,3.5c8.9-3.2,8.9-3.2,13.9-5c-1.6-6.4,4.3-10.3,8.7-7.4
				c1.5,1,2.2,2.2,2.6,3c1.2-0.4,2.8-0.9,4-1.3l0.7,0.9l-4.3,1.4l0,0c1,3.5-0.4,5.5-1,6.4c5.8,7.4,6.2,7.8,9.1,12
				c2.7-2.4,4.9-1.4,6.4-0.4l0,0c1.1,0.9,1.6,1.7,2.1,3.2c0.9-0.3,2.2-0.6,3.1-0.9l0.5,0.9l-3.4,0.9c0.8,6.3-4.9,9.9-8.5,6.9
				c-2.4-2-3.4-6.3-0.8-10.1c-5.4-7.5-5.5-7.7-9.1-12c-2.2,1.9-4.3,1.6-5.4,1.2l-0.1,0c-2.4-0.8-3.5-2.3-4.2-3.9
				c-8.4,2.9-9.1,3.2-13.9,5c1.9,6.2-4.1,10.7-8.9,8.2c-2.6-1.3-5.2-5.4-2.5-9.9c-6.8-6.5-6.8-6.5-11.2-10.6c-2.2,2.1-4.1,2.2-5.7,2
				l-0.1,0C1184.5,346.2,1183.4,344.3,1182.9,343.4 M1167.2,358.3l1.5-2c-0.2,0.3-0.2,0.4-0.4,0.7c6.4,5.4,8,6.7,11.3,9.6
				c3.8-4.7,10.4-1.8,11,3.4c0.7,5.8-5.5,9.6-9.9,6c-0.4-0.3-4.1-3.6-1.7-8.6c-6.4-5.4-6.4-5.4-11.4-9.6
				C1167.5,357.9,1167.4,358.1,1167.2,358.3 M1146.8,404.5c0.4-3.1,1.1-7.1,1.7-10.1c0.1,0.1,0.3,0.3,0.4,0.4c4.4-3.9,6-5.4,8.7-7.4
				c-1.1-2.1-1.3-3.8-0.7-5.9c-0.8-0.7-1.9-1.5-2.8-2.2l0.4-0.8l2.7,2.1c2.7-5,9-2.7,10.3,2.5c0.6,2.2,0,3.8-0.3,4.5
				c6.9,5.4,7.7,5.9,11.4,8.9c2.9-4.5,8.9-1.9,9.8,3c0.9,4.7-2.9,8.7-7.3,5.9c-1.9-1.2-4.2-4.4-2.9-8.2c-6.4-5-6.4-5-11.4-8.9
				c-1.1,1.8-1.5,1.8-4.3,2.4l-0.1,0c-2.5-0.2-3.9-1.9-4.4-2.6c-5.8,4.7-5.9,4.8-8.6,7.5c2.9,4.6,1.8,9.9-1.8,9.1
				C1147.7,404.8,1147.3,404.7,1146.8,404.5 M1206.2,308.5l-0.7-0.6c2.3-0.7,5.3-1.7,7.6-2.4c-1.7-3.9,2.4-7.2,7-5.5
				c0.9,0.3,1.5,0.8,1.9,1c-2.1,2-5,4.6-7.2,6.6c-0.6-0.5-0.9-0.8-1.3-1.4C1211.3,306.9,1208.3,307.8,1206.2,308.5 M1215.4,284.1
				c0.2-0.2,0.3-0.3,0.7-0.4c0.6-0.2,0.6-0.2,1.6-0.3c0.6,0,0.8,0,1.3,0.1l0.1,0c0.2,0.1,0.5,0.1,0.7,0.2l0.1,0
				c0.6,0.2,1.3,0.5,2.4,1.3l0.1,0.1l0,0c4.8-1,4.8-1,7.3-1.5c-1.5-1.3-1.5-1.9-1.5-2.2c-5.8-2.6-5.8-2.6-8.7-3.7
				c-0.4,0.3-1.1,0.4-2.3,0.2l0,0c-0.4-0.1-1.7-0.3-2.9-0.9c-3.6,0.6-4,0.6-6.4,1.1c0.7,0.8,0.2,1.4-0.3,1.9
				C1212,282.2,1212.6,282.5,1215.4,284.1 M1183.2,277.7c3.1-1,3.5-0.7,3.7-0.6c-0.2,0.6-2.3,1.6-3.2,2c1.2,1.5,1.2,1.5,2.5,2.6
				c0.5-0.2,0.6-0.3,1.1-0.5c1.1-0.3,4-1.2,4.9,0.4c6-1.6,6-1.6,9.1-2.3c-0.7-2,3.9-3,6.1-1.8c0.1,0.1,0.3,0.2,0.4,0.3
				c4.3-0.8,4.3-0.8,6.3-1c-0.9-0.6-0.8-0.9-0.7-1c-3.9-0.9-3.9-0.9-7-1l0,0c-0.3,0-0.3,0-1.4-0.1c-3.5,0.1-3.5,0.1-6.8,1.1
				c-0.3,0.1-0.4,0.1-0.8,0.2c-1.5,0.3-2.5,0.4-3,0c0,0,0-0.1,0-0.2c0.1-0.1,0.5-0.4,2.1-0.7l-0.1-0.1c-1,0.1-2.4,0.3-3.4,0.4
				c-3.6,0.5-4.6,0.7-8.6,1.6C1184,277.2,1183.5,277.4,1183.2,277.7 M1175.4,280.8l0.1-0.2l3.9-1.2c1.1-0.7,4.5-2.2,4.6-2.2
				c4-0.9,4.9-1.1,9.1-1.7c1.1-0.1,2.7-0.3,3.8-0.4l0.1,0c0.3,0,0.5-0.1,0.8-0.1c1.2-0.1,1.5-0.1,6.9-0.3l1.6,0c0.6,0,1.5,0,2.1,0
				l0,0c2.7,0.4,3,0.4,5.2,1c0.3-0.1,0.8-0.3,2.5,0l0,0c0.4,0.1,0.5,0.1,1,0.2l0.1,0c0.3,0.1,0.5,0.1,0.9,0.3c2.2-0.2,2.2-0.2,3-0.2
				c-0.9-0.2-1.2-0.3-1.7-0.4c0,0,0,0,0,0c1.3,0.2,3,0.5,4.3,0.7l0.3,0.1c0,0,8.4,2.4,11.2,3.5l0.7,0.5c-0.1-0.1-0.3-0.2-0.5-0.3
				c-6.2-2.2-6.3-2.3-9.6-3.1c-0.4,0.1-0.4,0.1-1,0l0,0c-3.6-0.8-3.6-0.8-6.2-0.5c1.3,0.6,1.3,0.8,1.4,1.2c5.1,2,5.4,2.1,8.6,3.6
				c1.2-1.2,5.9,0.9,7.8,2.8c-0.2,0.6-0.3,1.5-0.6,2.1c-0.5,0-0.5,0-1.5-0.2l0,0c-1.2-0.4-2.2-0.7-3.8-1.8c-4,0.8-4.6,0.9-7.4,1.5
				c0.2,0.3,0.4,0.5,0.6,0.8l0,0.1c0.2,0.6,0.5,1.1-0.1,2.1c2.1,1.3,4.8,3.1,6.8,4.4l-0.3,0.4c-2-1.3-4.8-3.1-6.8-4.4
				c-0.4,0.3-0.4,0.3-0.7,0.4c-1.1,0.4-1.1,0.4-3.1,0.2l-0.1,0l-0.1,0l-0.2,0c-2.1-0.5-3.2-1.6-3.4-1.8l-0.1-0.1
				c-6.1,1.5-6.6,1.7-10.3,2.7c1.6,3.4-3.3,6.1-7.1,4.9c-3.6-1.1-3.7-4.6-0.3-6.4c1.7-0.9,5-1.4,7.1,1c6.6-1.8,6.6-1.8,10.2-2.7
				c-0.1-0.1-0.2-0.3-0.2-0.4l0-0.1c-0.4-0.9,0-1.6,0.1-1.9c-4.1-2.7-4.1-2.7-7.6-4.5c-1.3,0.7-2.6,0.7-3.4,0.6l0,0
				c-1.3-0.2-1.7-0.4-2.4-0.9c-5,0.9-5,0.9-9.4,2.1c0.1,1.7-2.5,3.2-3.4,3.5c-2.6,0.8-3.8,0.9-5.1-0.2c-0.4-0.4-0.8-1.5,1.8-3.2
				c-1.9-1.8-2.1-2-2.5-2.7c-1.5,0.6-2.5,0.9-3.5,0.9l0,0c-0.2,0-0.5-0.1-0.7-0.2c0-0.1,0.1-0.2,0.1-0.3
				C1177.8,280,1176.4,280.5,1175.4,280.8"/>
		</g>
	</g>
	<g class="st1">
		<g>
			<path class="st2" d="M1158.8,448.5c-2.6-2.4-7.6-5.9-8.4-5.6c-0.4,1,7.5,6.3,7.6,6.3c0.3,0.2,0.7,0.4,1,0.6
				c-0.8-0.5-1.9-1.3-2.6-1.9c0.9,0.6,3,1.8,3.5,1.7l0,0c0-0.1,0-0.2-0.6-0.8c2.2,1.1,5.2,2.5,7.5,3.5l0,0l-0.1-0.2
				C1164.2,451,1161.1,449.6,1158.8,448.5z"/>
		</g>
		<g>
			<path class="st2" d="M1150.6,435.3c-1.2,2.2,6.1,8.8,8.6,7.8c0.6-0.2,0.5-0.8,0.5-1.1c2.5,1.2,5.8,2.7,8.3,3.8v0l0.2-0.3
				c-2.6-1.2-6-2.7-8.6-3.9C1158.4,437.8,1151.7,433.3,1150.6,435.3z"/>
		</g>
		<g>
			<path class="st2" d="M1249.1,383.6c-0.8-0.7-1.6-1.1-2.6-1.3l4.4,4.3C1250.5,385.3,1250,384.4,1249.1,383.6z"/>
		</g>
		<g>
			<path class="st2" d="M1186.1,452.2c-2.8-0.9-3.7-1.2-6.4-2.1c-0.2-1.5-1.8-2.8-2.4-3.3c1.3-1.2,2-1.9,2.6-2.5
				c-0.2-0.2-0.3-0.4-0.5-0.6c-1.3,1.2-1.8,1.6-2.8,2.7c-2.2-1.3-2.8-1.4-4.7-1.5c2.4,1.8,5.7,4.1,8.2,5.7c3.5,1.2,5.1,1.7,6.3,2.1
				C1186.4,452.5,1186.3,452.4,1186.1,452.2z"/>
		</g>
		<g>
			<path class="st2" d="M1295.1,371.1c-0.8-1.7-2-1-2.8,1.6c-1,3.2-1,7.3-0.6,9.1c0.4,1.5-4.8,11.9-5.7,13.6
				c-0.8-1.4-1.8-0.9-2.7-0.3l0,0c-1.7,1.3-2.6,3.4-3,4.3c-4.8-1.3-4.8-1.3-8.5-2.4c1.7-5.1-1.2-9.2-5.1-7.3c-1.9,1-4,3.5-4.4,6.9
				c-0.2,1.9-0.2,1.9,2.9,5.6c0.5,0.1,2,0.3,3.7-1.1l0,0c1.1-0.9,1.7-1.8,2.5-3.2c5.4,1.5,6.1,1.7,8.5,2.4c-0.7,2.3-0.9,3.8-0.6,5.3
				c-1.9,2.5-4.4,5.9-6.4,8.3l-2.8,3.2c-0.9-1.1-1.8-1-3.4-0.4l-0.1,0c-1.1,0.6-2.2,1.2-3.9,3.4c-4.7-0.9-4.7-0.9-10.1-2.2l0,0
				c1.4-2.8,0.8-4.1,0.2-5.3c6.6-6.9,7-7.3,10.5-11.5c0.5,0.5,0.7,0.7,1.5,1c-0.7-1-1.7-2.3-2.5-3.3c0.1,0.4,0.3,0.9,0.4,1.3
				c-5.6,7.2-5.6,7.2-10.3,11.9c-1.8-1.5-3.4-1.1-4.9-0.8l-0.1,0c-1.7,0.7-3.1,1.3-4.7,3.6c-7.9-2.1-8.4-2.2-13.1-3.6
				c0.7-1.3,1.3-3.3-0.4-5.9c6.9-6.7,7.4-7.3,11.2-11.3c4.6,4.1,10.9-0.5,10.7-6.1c0-1.2,0-1.2-4.6-5.7c-6-0.7-10,6-6.8,11.1
				c-7,7.4-7,7.4-11.2,11.4c-0.6-0.5-2.5-2-5.6-1.3l-0.1,0l-0.4,0.1l0,0l0,0c-2.8,1.3-2.8,1.3-4.1,3.2l-0.1,0.1l-5-1.7
				c-2.7-1-6.4-2.3-9.1-3.4c1-2.9,0.1-4.8-0.9-6.3c6.8-6.6,7.5-7.2,11.1-10.9c4.7,4.5,11.5,0.3,11.2-5.3c-0.1-1.9-0.9-3.1-1.4-3.8
				c2.1-2.3,4.9-5.5,7-7.9l3-3.6c4.2,3.7,8.8,0.3,9.4-2.2l0-0.1c0.9-2.6,0.4-5-1.5-7.2c4.7-7.2,4.9-7.5,7-11.5
				c4.1,3.2,7.7,0.3,7.1-4.1c-0.1-0.4-0.2-0.9-0.3-1.3c-1.6-5.4-7.4-7.5-9.3-3.4c-0.2,0.4-1.7,4.1,1.7,8.1c-4,7.2-4,7.2-7,11.5
				c-2.5-1.9-4.7-1.4-5.3-1.1l-0.1,0c-2.5,0.8-3.3,2.9-3.7,3.8c-8.4-2.8-8.8-2.9-13.4-4.7c0.8-2.9-0.3-4.9-1.2-6.1
				c5.2-6.4,5.6-6.8,8.1-10.5c4,3.5,8.6,0.6,8.1-3.9c-0.2-2.4-1.6-3.9-2.1-4.5c0.1-0.1,0.1-0.3,0.2-0.4c-0.3-0.2-0.5-0.3-0.7-0.5
				c-0.1,0.1-0.1,0.2-0.2,0.3c-2.1-1.6-3.5-1.3-4.5-1.1l-0.1,0c-1.8,0.7-2.4,2-2.8,3.3c-7.1-2.7-7.4-2.8-11.1-4.4
				c1-4.9-3.2-9.1-6.7-6.7c-1.7,1.2-3.3,4.5-1.6,8.1c-1.7,1.9-4,4.3-5.8,6.2l-3.2,3.1c-1.7-2-3.4-2-4.3-1.8l-0.1,0
				c-1.6,0.4-2.7,1-4,2.9c-6.1-3.7-6.4-3.9-9.5-6.1c2.8-5.2,0.2-9.4-3.7-8c0,0-4.6,1.8-4.8,7.6c-5.1,4.4-5.1,4.4-10.8,8.7
				c-0.6-1.4-1.4-2.4-3.2-2.4l-0.1,0c-1.5,0.2-2.6,0.6-4.1,2.4c-4-4.7-4.2-4.8-6-7.5c3.2-4.2,3.4-9.1,0.4-8.8
				c-2.6,0.2-5.6,3.9-6.4,6.7c-0.1,0.4-0.3,1-6.4,5.5c-0.2,0.4-0.4,0.8-0.6,1.2c2-1.4,4.6-3.3,6.6-4.7c0,1.3,0.3,3.3,2.9,2.8l0.1,0
				c1.1-0.4,1.7-0.8,2.8-1.9c3.4,4.7,3.5,4.9,6,7.6c-1.7,2.7-1.5,4.9-1.4,5.7c-6.2,4.8-7,5.4-10.2,8c-0.8-2.6-2.4-2.8-2.9-2.9l0,0
				c-1.3,0-2.5,0.7-3.6,2.2c-1.4-2.1-3.1-4.9-4.3-7.1c-0.1,0.3-0.2,0.6-0.4,1c1.2,2.1,2.8,4.9,4.2,6.9c-1,2-1.3,3.7-1.1,6
				c-5,4.7-5.4,5.1-7.7,7.7c-0.1-0.2-0.1-0.4-0.2-0.6c-0.7,3.2-1,6.9-1.2,10.6l0.1-0.1c2.2-2.7,1.8-7.2,1.5-9
				c4.6-4.9,4.6-4.9,7.7-7.7c1,3.2,2.8,3.4,4.1,3.1l0,0c0.8-0.4,0.8-0.4,1.3-0.8l0.1-0.1c0.7-0.7,0.7-0.7,1.1-1.2
				c5.3,5.3,5.4,5.4,9,8.3c-2.3,6.3,2.6,11.2,6.4,9.8c0.4-0.2,1.5-0.7,2.5-2.3c7.3,4.8,7.5,4.9,12,7.6c-1.9,6.5,4.2,11.5,8.7,8.9
				c1.2-0.7,1.8-1.7,2.1-2.2c8.3,4.1,8.8,4.4,13.8,6.6c-0.7,2.2-0.4,3.9,0.8,5.9c-0.1,0-0.1,0.1-0.1,0.1c0.4,0.2,0.7,0.5,0.9,0.7
				c2.8,2.7,5.7,2.1,7.2,1.5l0,0c0.8-0.4,1-0.5,1.7-1.1l0.1-0.1c0.5-0.5,0.7-0.7,1.2-1.4c2.6,1,6.1,2.3,8.7,3.3l5.4,1.9
				c-0.1,0.2-0.1,0.6-0.2,0.8l0,0.2l0,0.1c-0.3,1.4-0.3,1.4,0.9,4.3c-6.9,6-6.9,6-11,9.3c-2.2-1.7-4.4-1.7-5.4-1.5l-0.1,0
				c-1.7,0.4-3,0.8-4.3,2.7c-0.2-0.1-0.4-0.1-0.6-0.2c-0.1,0.2-0.2,0.5-0.4,0.7l0.7,0.3c-0.4,1.5-0.5,2.9,0.9,4.7
				c-0.1,0.1-0.2,0.2-0.4,0.3c0.3,0.2,0.5,0.3,0.7,0.5l0.3-0.2c4.5,3.8,10.9,0.4,10.4-4.1c-0.2-1.2-0.8-2.1-1.1-2.5
				c6.6-5.4,7.2-6,11-9.3c5.7,4.1,9.7-1,10.2-1.6l0,0c8.3,2.4,8.5,2.4,13.1,3.6c-1,2.2-0.8,4,0.5,5.4c2.5,2.2,6.7,1.2,9.4-2.4
				c3.3,0.8,6.6,1.6,9.9,2.4c-1.3,2.3-1.3,3.6-1.1,4.6c-6.9,6.1-6.9,6.1-10.9,9.2c-1.9-2.1-6.6,0.6-8.5,2.6
				c-6.2-1.4-6.8-1.5-10.6-2.4c0.2-0.4,0.4-0.7,0.6-1.1l0.1-0.1c0.2-0.9,0.2-1,0.2-1.7c-0.9-4.9-8.3-3.5-10.6,0.1
				c-0.2,0.3-0.4,0.7-0.6,1c-0.6,1.8,0.1,2.9,0.4,3.3l0.1,0.1c-0.2,0.2-0.5,0.3-0.7,0.5c0.1,0.2,0.3,0.4,0.3,0.6
				c0.3-0.2,0.5-0.4,0.8-0.6c3.9,2.8,7.8-0.4,8.9-1.4l0,0l0,0c6.6,1.6,6.6,1.6,10.6,2.4c-1.5,2-1.1,3.2-0.9,3.6
				c-7,4.5-7,4.5-10.7,6.7c-1-0.9-2.6-0.7-3.7-0.5l0,0c-2.3,0.5-3.5,1.5-4,2c-0.4-0.1-0.8-0.2-1.2-0.3c-0.1,0.2-0.2,0.3-0.3,0.5
				c0.3,0.1,0.7,0.1,1.1,0.2c-1,1.3-0.8,2.1-0.5,2.6c-5.6,2.9-5.6,2.9-8.4,4.3c-1-0.6-2.3-0.6-3.1-0.5l0,0c-1.2,0.2-2.2,0.5-2.8,1.1
				c-2.3-0.5-3.6-0.8-4.7-1c-0.2,0.1-0.5,0.2-0.8,0.2c1.1,0.2,2.7,0.6,5.2,1.1c-0.1,0.4-0.1,0.9,0,1.3c-1.2,0.7-2.8,1.5-4.1,2
				l0.3,0.1c1.3-0.5,3-1.1,4.3-1.7c0.5,0.2,1.6,0.6,3.5,0.2l0,0c0.3-0.1,0.7-0.2,1-0.3l0.1,0c0.2-0.1,0.5-0.2,0.8-0.4
				c3.8,0.6,3.8,0.6,5.6,0.8c-1.6,0.8-3.2,1.3-4.7,1.6c1.2-0.2,2.4-0.4,3.5-0.6c1.4,0.2,3.1-0.2,4.3-0.6l0,0c2-0.6,12-5,12.1-5
				c3,2.5,5.3-1.5,8.2-0.9c-1.4,0.7-2.8,1.3-4.1,2.1c0.3-0.1,0.7-0.2,1-0.3c8.1-3,16.4-8.2,18.8-9.7c-0.1,0.1-0.3,0.3-0.4,0.4
				c0.8-0.4,0.8-0.4,1.5-0.8l0,0c0.4-0.3,0.8-0.6,1.3-0.9l0.1-0.1c0.5-0.3,0.9-0.6,1.3-1l-0.1,0.1l0.7-0.5l0.1-0.1
				c2-1.5,2.5-1.9,4.1-3.4c1.8-1.6,4.3-3.7,6-5.3l3.4-3.4c-0.2,0.2-0.3,0.4-0.5,0.6c1.4-1.6,3.4-3.7,4.7-5.4l3.2-4.2l0,0
				c0-0.1,0.1-0.1,0.1-0.2c-0.2,0.2-0.2,0.2-0.5,0.5l0,0c-0.5,0.7-1,1.2-2.8,3.5c-0.5-0.7-0.5-0.7-1.4-1.1c0.3-0.4,0.5-0.7,0.8-1.2
				c0.7-1.1,0.9-2.4,1.6-3.4c2.5-3.8,5.5-7.2,7.9-11.1c0,0.5,0,0.5,0.2,0.8c1.6-0.3,6-10.6,5-12c-1.5,0.2-4.5,7.7-5,10.3
				c-0.3,1.3-5.4,8.5-8,11.7c0-0.9,0-0.9-1.7-0.1l0,0l0,0l-0.1,0.1l-0.1,0.1l0,0l-0.1,0.1c-1,0.8-2.2,2.2-2.2,2.2
				c-0.2,0.3-0.5,0.6-0.7,0.9c-2.4-0.3-2.4-0.3-5.9-1.2c1.7-2.7,1.5-3.9,1.3-5c0.8-1,2-2.2,2.8-3.2c2-2.4,4.5-5.7,6.4-8.2
				c1.4,2.7,4.9-0.8,6.3-5.3c0.5-1.6-0.1-3.3,0.4-4.9c1.6-4.5,4.2-8.6,5.8-13.1c1.1,2.3,2.3,0.2,2.8-1.4c0.2-0.6,0.8-2.7,0.9-5.6h0
				C1295.8,374.7,1295.7,372.6,1295.1,371.1z M1198.9,332.1c1.7-1.8,4.1-4.3,5.8-6.1c1.5,1.8,3.5,2.3,5.5,1.2l0,0
				c1-0.6,1.5-1.3,2.1-2.4c6.8,2.8,7.1,2.9,11.2,4.4c-0.2,2.6,0.7,4.1,1.6,5.3c-4.8,6.5-4.9,6.6-8.1,10.4c-2-1.9-3.7-1.7-5-1.5
				l-0.1,0c-1.1,0.3-1.8,0.7-2.7,1.5c2.5,2.8,5.8,6.4,8.4,9.1c0.4-0.5,0.6-0.8,0.9-1.4c8.3,3,8.6,3.1,13.5,4.7
				c-0.5,2.7,0.8,4.8,1.3,5.8c-0.9,1.1-2.1,2.6-2.9,3.8c-2.1,2.4-4.8,5.5-7,7.8c-2.5-2.1-4.8-1.8-5.7-1.5l-0.1,0
				c-1.7,0.5-3.1,1.2-4.5,3.6c-8.8-3.5-9.1-3.6-13.9-5.7c0.1-0.3,0.2-0.8,0.3-1.2l0-0.1c0.4-2.4-0.5-4.1-0.9-5
				c3.4-3.6,6.9-7.1,10.3-10.7c2.9,2.9,5.7,1.8,6.9,1.3l0,0c0.7-0.5,0.9-0.5,1.5-1.2l0.1-0.1c-2.5-2.8-5.8-6.4-8.3-9.2
				c-0.6,0.7-0.7,0.8-1.2,1.6c-7.2-3-7.2-3-12.1-5.4l0,0c0.8-2.2,0.7-3.9-0.2-5.9C1196.7,334.3,1197.9,333,1198.9,332.1z
				 M1155,367.8c-1.2-1.8-2.4-2.6-4.2-2.6l0,0c-2.4,0.1-3.6,1.9-4.1,2.6c-5.9-5.1-6.1-5.3-8.9-8.3c1.5-3,1.1-5.4,1-6.4
				c6.2-4.9,6.2-4.9,10.2-8c1.4,4.4,6.3,3.2,8.5-0.9c0.9-1.7,1.2-3.6,0.9-5.5c5.4-4,7.8-5.9,10.9-8.2c0.6,1.4,1.3,1.9,2.3,2.2
				c1.3,0.4,3.3,0.3,5.4-2.3c5.7,3.8,5.9,4,9.6,6.1c-1.2,2.9-0.5,5,0.3,6.3c2.3,3.2,6.5,2.9,8.8-0.7c7.3,3.5,7.6,3.6,12.1,5.6
				c-0.9,3,0.3,5,0.8,5.8c-6.4,6.6-6.4,6.6-10.4,10.4c-1.1-1.2-1.8-1.5-3.5-1.9c-0.9-0.1-1-0.1-1.7-0.1l0,0c0,0-2.9,0.6-4.5,3.2
				c-7.9-4-8.2-4.2-12.3-6.6c2.5-5.8-1.8-10.7-6.3-9c-2.4,1-5.3,4.5-3.8,9.2C1159.9,363.6,1158.2,365.1,1155,367.8z M1172,379.8
				L1172,379.8c-2.5,0.3-3.7,1.7-4.5,3c-7.7-4.6-8-4.8-12-7.6c0.5-1.2,0.5-1.6,0.5-2.6c0-0.8,0.1-2.2-0.6-4l0-0.1
				c6-5.1,6-5.1,10.7-9.1c0.8,1.3,1.7,2,3.2,2.4c1,0.3,3.7,0.7,6-2.6c7.6,4.3,7.7,4.3,12.3,6.7c-0.5,1.4-0.6,3.8,0.5,6.1
				c-4.7,4.3-4.7,4.3-11,10C1175.2,379.7,1172.8,379.8,1172,379.8z M1196.9,392.7L1196.9,392.7c-2.8,0.4-4.1,2.3-4.7,3.3
				c-8.6-4-9-4.1-13.7-6.6c0.8-2.1,0.6-4.3-0.7-6.6c4.6-4.2,8.2-7.4,11-10c1,1.2,3.3,3.1,7,1.8l0.1,0c0.4-0.2,0.5-0.2,1.1-0.7
				c1-0.7,1.4-1.3,1.9-2c8.7,3.7,8.8,3.8,14,5.7c-0.8,2.8,0,4.7,0.9,6.1c-6.8,6.7-6.8,6.7-11.1,10.9
				C1200.2,392.4,1197.8,392.6,1196.9,392.7z M1256.9,446.4c-6.6,4.1-6.8,4.2-10.6,6.1c0.1,0,0.1-0.1,0.2-0.2
				c-0.3-0.1-0.3-0.1-1,0.2l0,0c-0.9,0.4-1.9,0.8-3.8,1.8c-1.3-0.3-1.3-0.3-2.7-0.5c3-1.8,3.1-2.9,2.4-3.1c-0.6-0.2-2.4,0-5.6,1.9
				l-0.1,0c-1.6,1.1-2.5,1.7-2.9,2.7c-6.2,2.6-6.2,2.6-9.5,3.8c-0.2-0.2-0.5-0.4-2.1-0.1l0,0c-1.3,0.2-2.3,0.6-3.1,1
				c-3.2-0.4-3.5-0.4-5.7-0.8c0.9-0.8,0.7-1.3,0.3-1.8c4.8-2.3,5.3-2.5,8.4-4.2c2.7,2.1,9.2-1.5,8.9-4c0-0.2-0.1-0.4-0.2-0.5
				c6.4-3.8,7.2-4.3,10.7-6.7c0.9,0.9,1.9,1,3.8,0.4l0,0l0.1-0.1c0.8-0.3,2.4-1,3.9-2.4c4.1,0.9,4.8,1,6.5,1.4c-1,1-2.2,2.5-2.3,3.5
				c0.2,1.3,3-0.1,5.7-2.2c0.7,0.2,1.6,0.5,2.3,0.8C1259.5,444.6,1258.1,445.4,1256.9,446.4z M1274.3,428.9c0.4-0.3,0.7-0.6,0.9-1.4
				c0,0.2,0,0.4-0.1,0.6c0.7-0.7,1-1.1,1.6-1.8c1.2,0.7,1.3,0.7,1.4,1.1c-3,3.8-3,3.8-6.7,7.5c-1.8,1.6-4.2,3.8-6,5.3
				c0.1-0.1,0.2-0.3,0.3-0.5c-0.3,0.1-0.6,0.3-0.9,0.4l0,0c-0.9,0.6-1.6,1.1-3.5,2.6c-0.8-0.2-1.7-0.5-2.5-0.7l0,0
				c1-0.9,12.9-12.5,13-12.7c0.1,0.2,0.1,0.4,0.2,0.6c0.6,0.1,0.6,0.1,1.5-0.5l0,0l0.1-0.1C1273.9,429.2,1274.1,429,1274.3,428.9
				L1274.3,428.9z M1274,424.8c-1.5,2.1-1.9,3.4-2.1,4.2c-6.3,5.9-6.4,6-10.2,9.1c-0.1-0.7-0.8-0.7-2.1-0.2l0,0
				c-1.2,0.5-2.6,1.5-4.1,2.8c-3.5-0.8-3.5-0.8-6.6-1.4c0.7-0.8,2.1-2.3,1.5-4.1c6.9-5.6,7.2-5.8,10.8-9.1c0.8,1.2,2.2,1.1,4.3-0.1
				l0.1-0.1c0.5-0.4,0.9-0.6,1.4-1.2l0,0c0.4-0.4,0.7-0.8,1.2-1.4l0.1-0.1C1272.2,424.3,1272.5,424.3,1274,424.8z"/>
		</g>
		<g>
			<polyline class="st2" points="1206.2,462.2 1206.2,462.2 1206.2,462.2 1206.2,462.2 			"/>
		</g>
		<g>
			<path class="st2" d="M1208.9,462.1l1.3-0.1l0,0C1209.7,462.1,1209.3,462.1,1208.9,462.1L1208.9,462.1c-0.5,0-0.8,0-1.2,0
				C1208,462.1,1208.5,462.1,1208.9,462.1"/>
		</g>
		<g>
			<path class="st2" d="M1199.4,462c-0.9-0.1-2.1-0.2-3-0.2c-3-0.3-3.1-0.3-4.6-0.6c-0.8-0.1-2-0.3-2.8-0.5
				c-0.3-0.1-0.8-0.3-1.1-0.6c1,0.3,1.7,0.4,2.2,0.5c0.6,0.1,1.5,0.2,1.3-0.2c2.3,0.4,4.5,0.8,6.8,1.2c0.2,0,0.4,0.2,0.6,0.3
				c0.3,0.1,0.8,0.2,0.9,0.2L1199.4,462 M1179.7,450.4l0.5,0.2c-2.6-1.7-6-3.9-8.6-5.6c-1.1,0.3-1.1,1.2-1.1,1.2c0,0,0,0.1-0.1,0.1
				c-0.7-0.3-1.5-0.6-2.2-0.9l-0.2,0.3l2.5,1c0.4,1.2,1.6,2.2,2.6,3c-1.3,2.3-1.3,2.4-1.4,3.4c-2.1-1-2.9-1.2-3.6-1.3l0,0
				c-0.9-0.1-0.6,0.4-0.4,0.7c0,0.1,0.1,0.1,0.2,0.2c-0.4-0.2-1-0.4-1.4-0.6l0.1,0.2l1.6,0.7c0.4,0.3,0.8,0.6,1.5,1
				c0.7,0.4,1.5,0.7,2.2,1.1c0.4,0.2,0.8,0.7,1.2,1c0.5,0.4,1.3,0.7,1.9,0.9c-1.3-0.5-2.6-0.9-2.7-1c1,0.4,2.4,0.8,3.4,1.2l0,0
				c-2.3-1-2.4-1.1-3.1-1.9c0.8,0.3,3.3,1.4,3.7,1.1c0-0.6-2.5-2.2-4-3.1c0.5-2,0.5-2,1.4-3.3c2.4,1.4,3.7,1.5,4.3,1.4
				c0,0,0.1,0,0.1,0C1178.7,451.4,1179.5,451.3,1179.7,450.4 M1205.5,462.2l0.7,0h0c-1,0-2.2-0.1-3.2-0.1l0-0.1l0,0
				c-0.1-0.1-0.2-0.2-0.8-0.5c0.1,0,0.2-0.1,0.2-0.1l-0.3-0.1l-0.2,0.1c-0.9-0.2-1.5-0.3-1.7-0.3c-0.3,0-0.3,0-0.7,0l0,0
				c-0.4,0-0.7,0.3-1.2,0.3c-2.4-0.3-3.5-0.4-6.9-1.2c-1.5-1.4-6.5-3.1-7-2.1c0.3,0.9,4.2,2.5,4.2,2.5c1,0.2,2.3,0.4,3.3,0.5
				c3.1,0.4,3.1,0.4,4.6,0.6c1,0.1,2.4,0.2,3.4,0.3l0.1,0c0.5,0,0.5,0,2.2,0.1l0.1,0l0,0l0,0c0.1,0,0.2,0,0.2,0
				C1203.5,462.1,1204.5,462.2,1205.5,462.2"/>
		</g>
		<g>
			<path class="st2" d="M1133.3,428.2c0.5,0.6,1,1.2,1.3,1.6l-2.1-2.5L1133.3,428.2C1133.3,428.2,1133.3,428.2,1133.3,428.2
				 M1154.2,446.8l1.3,0.9c-3-2-6.8-4.8-9.7-7c-2.2-2-5.2-4.6-7.3-6.7c1.2,1.2,1.5,1.4,1.6,1.5l0,0c0,0,0.1,0,0.1,0
				c-0.1-0.2-0.1-0.3-1-1.3c1.2,1,2.8,2.4,4.1,3.3C1146.7,441.1,1150.4,444.2,1154.2,446.8 M1159.2,450l-3-1.8l-1.1-0.7
				C1156.5,448.3,1157.9,449.2,1159.2,450 M1159.2,450c-6.1-3.5-11.6-7.8-16.4-12.9c-1.2-0.9-2.7-2.2-3.9-3.2
				c-1.8-2.2-5.9-6.8-6.9-7.6c0,0.2,0,0.2,0.8,1.3c-0.3-0.4-0.8-1-1.1-1.4l3,3.6c6.1,6.6,6.5,7,11.2,10.9
				C1152.9,446.1,1153.1,446.3,1159.2,450 M1123.3,399.2c-0.8-3.6-1.3-7.4-1.7-11.3l-0.2,0.1c-0.4,0.4-0.6,0.8-0.8,1.7
				c-1.3-2-3.1-4.7-4.2-6.8l-0.2,0.5c1.2,2.1,2.9,5,4.3,7l0,0c-0.1,1.1,0.1,2.3,0.4,3.6c0.2,0.9,1,1.6,0.9,2.6
				c-0.2,2.3-1.5,4.4-1.5,6.8c-0.5-1-0.8-1.4-0.8-1.4c-0.8-1.3-1-1.5-1-1.5c-0.2-0.2-0.2-0.3-0.5-0.4l0,0l-0.1,0.1l0,0
				c0,0.5,0,0.7,0.2,1.7l0,0c-0.8-1.8-1.8-4.1-2.4-6l0,0l0.3,1.1c0.6,1.7,1.5,3.9,2.3,5.5c0.2,0.6,0.2,0.6,0.5,1.4l0.1,0.2
				c0.9,2.3,2,4.6,3,6.9l0.5,0.9l-1.2-2.9c0.4,0.8,0.6,1.1,0.6,1.1c0.8,1.3,0.9,1.4,1.3,1.8l0,0l0,0l0.1,0c0,0,0.1-0.1,0.1-0.1
				c0-0.4,0-0.8-0.2-1.6l0-0.1c1.8,2.2,4.3,5,6.3,7.1c-0.1-0.3-0.3-0.6-0.4-0.9c-1.9-2-4.4-4.8-6.1-6.9c-0.1-0.2-0.2-0.4-0.2-0.7
				l-0.1-0.2c-0.5-1.5-1.8-2.8-1.9-4.5c0-0.3,0-2.9,1.6-6.7C1122.8,398.5,1123,398.8,1123.3,399.2 M1119,340.2l-0.7,5.4
				c0.3-1.2,0.5-2.2,0.6-3.2C1118.9,342,1119.1,341.1,1119,340.2 M1132.4,315.6c1-2,1.1-2.9,0.3-2.7l0,0c-0.2,0.1-0.2,0.1-0.5,0.3
				c-0.5,0.3-0.8,0.6-1.3,1.1c2.2-4.6,2.3-4.7,4-7.1c0.6-0.7,2.1-2.2,4-4.2c4.1-2.9,4.2-2.9,7.1-4.5c-1.1,1.2-1.6,1.9-1.3,2.1l0,0
				c0.1,0,0.6,0.2,2.8-1.3c-1.9,3.8-2,3.9-2.5,6.2c-1.2,0.9-2.8,2.4-4.2,4.6C1135.4,313.4,1135.1,313.6,1132.4,315.6 M1134.8,329.1
				c-0.6,0.4-1.4,1-2,1.4c0.2-1.7-0.2-2.2-0.5-2.6c-0.3-0.4-1.3-1.2-3.5,1.3c-0.4-5.1-0.4-5.2,0-8c1.3-1.7,2.7-3.9,3.3-4.9
				c5.1-3.6,5.1-3.6,8.4-5.6c-0.7,1.4-0.6,2.2,0.1,2.4l0,0c1,0.1,2.3-0.8,3.4-1.6l0.4,3.2C1140.9,319.2,1137.6,324.1,1134.8,329.1
				 M1153.6,294.7c1.6-1.4,1.5-1.7,1.5-1.9c-0.1-0.1-0.2-0.1-0.5-0.1l0,0c-0.3,0.1-0.5,0.1-0.9,0.3l0,0c-0.4,0.2-0.7,0.3-1.2,0.6
				l-0.1,0c3.2-3.2,3.3-3.2,5.4-4.9c0.2-0.1,0.3-0.2,0.5-0.3l0.2-0.1l0.2-0.1c0,0,2-1,4.1-2.1l0.2-0.1c5.3-1.7,5.4-1.7,8.9-2.6
				c-1.8,0.8-1.8,1-1.8,1.2c0,0,0,0,0.1,0l0,0c0.4,0,0.7,0,3.2-0.7c-2,1.4-3.6,3.2-5.8,4.2l-0.2,0.1c-1.8,1-2.6,1.4-3.9,2.3
				C1157.2,293.1,1156.8,293.3,1153.6,294.7 M1171.9,288c0.4-0.3,0.6-0.4,0.8-0.6c0.2-0.2,0.5-0.5,0.5-0.7c-0.1-0.1-0.1-0.1-0.3-0.1
				l0,0c-0.1,0-0.3,0-0.4,0l-0.1,0c-0.7,0.1-1.1,0.2-2.6,0.8l-0.1,0.1l0,0c2.6-2.4,2.7-2.4,4.5-3.6c2-0.6,5.1-1.7,5.7-1.9
				c6.6-1.2,6.8-1.3,10.7-1.8c-1.2,0.3-1.5,0.5-1.6,0.5c0,0,0.1,0.1,0.1,0.1l0,0c0.5,0,1.3-0.1,3.6-0.6c-2.9,1.2-3.1,1.3-4.4,2.2
				c-3.2,1-4.9,1.9-5.6,2.3C1176,286.6,1175.5,286.8,1171.9,288 M1121.8,369.9c0.4-4.2,1.1-8.4,2-12.4l-0.1-0.1
				c-0.9-1.1-1.5-0.9-1.5-0.9c0,0-0.1,0-0.2,0c-0.7,0.2-1.4,0.4-2.2,2c-0.6-1.6-1.5-3.8-2-5.5l0,2l1.6,4.2c-1,2.8-1,2.8,0.2,9.5
				C1120.6,370,1121.6,369.9,1121.8,369.9 M1181.5,285.3c3.1-1.4,6.3-2.7,9.6-3.7l-0.2,0c-0.8,0.2-1,0.3-1.9,0.5
				c2.6-1.4,2.7-1.5,4.5-2.1c5.7-1.1,5.7-1.1,12.2-1.7l0,0c-1.6,0.2-3.8,0.4-5.5,0.6c0.6-0.1,1.3-0.2,1.9-0.3c-0.2,0-0.4,0-0.5,0
				l0,0c-0.4,0-0.8,0.1-1.2,0.1l-0.1,0c-0.5,0-1,0.1-1.6,0.1c3.6-0.5,3.7-0.5,5.8-0.5c0.3,0,0.8,0,1.2,0c0,0,0,0,0,0l-0.5,0
				c-0.3,0-6.2-0.2-13.1,0c1.9-0.2,1.9-0.2,2.2-0.3c-0.4-0.1-0.7-0.1-2.9-0.1l0,0c1.2-0.1,2.8-0.3,4-0.4l-0.6,0
				c-1.3,0.1-2.9,0.3-4.2,0.5c-0.5,0-1,0.1-1.6,0.1l-0.2,0c-0.9,0.1-1.4,0.1-2.3,0.3c-2.1,0.3-3.2,0.5-4.4,0.9
				c0.4,0.2,0.4,0.2,4.5-0.3c3.9-0.5,3.9-0.5,4.8-0.6c6.5-0.2,6.6-0.2,10.5-0.2c-1.2,0-1.5,0-1.9,0.1c0,0,0.1,0,0.1,0l0,0
				c1.2,0,2.4,0,3.6,0c-3.7,0.2-3.8,0.3-5.8,0.6c-4.5,0.5-17,2.8-17.1,2.8c1.4-0.5,1.4-0.5,2-0.8c-2.6-0.4-16.3,4.1-19,5
				c1.4-0.8,1.5-0.8,2.1-1.2c-0.6-0.2-0.6-0.2-1.9,0.3c4.3-2.3,4.3-2.3,6.9-3.4c2.7-0.9,5.5-1.6,8.2-2.6c-0.5-0.1-0.5-0.1-1.6,0.2
				c1-0.3,2.4-0.7,3.5-1l-1.6,0.4l-2.5,0.8l0,0c-3.2,0.9-7.8,2.8-8,2.8c-0.1,0.1-0.3,0.1-0.4,0.2l0,0c0.5-0.1,0.5-0.1,1.8-0.5
				c-4.4,2-4.6,2.2-7,3.5c-3.3,1.4-9.2,4.8-9.3,4.8l-0.7,0.4c1.2-0.7,2.7-1.6,3.9-2.1c-1.7,1.1-1.9,1.3-2.2,1.6l0,0l0,0l0,0l0,0
				c0.6-0.2,0.6-0.2,2.1-0.9l0.1,0c-3.5,2.9-3.7,3.1-5.4,4.9c-1.9,1.1-12,8.1-12.1,8.2c1.5-1.5,1.6-1.7,2-2.3
				c-0.7,0.4-2.6,2.1-8,8.4c0.2-0.2,0.5-0.5,0.7-0.7c-2.6,4.1-2.9,4.5-3.9,7.1c-0.2,0.3-0.4,0.5-0.7,0.8l-0.1,0.1
				c-1.6,2-2.8,4.2-4.6,6.1l-0.4,0.7l1.7-1.8c-0.6,1.2-0.7,1.8-0.7,2.4c0,0.1,0,0.4,0.1,0.4l0,0c0.7-0.2,1.2-0.5,2-1.4
				c-0.1,3.8-0.1,5.5,0.2,7.8c-3.2,4.5-3.7,9.8-1,9.6c1.8-0.1,4.6-4,5.3-7.6c0.1-0.7,1.1-1.2,1.6-1.6c3.2-5.8,6.8-11.3,11-16.4
				l-0.4-3c1.3-1.1,5.7-5.8,4.4-7.3c-0.7-0.1-1.3-0.1-3.3,1.3c1.3-3.9,1.3-4,2.6-6.1c6.9-4.7,6.9-4.7,14.4-7.5
				c-0.3,0.2-0.7,0.6-0.7,0.6c-0.1,0.2-0.3,0.5-0.4,0.7c0.1,0.1,0.2,0.2,0.3,0.3l0,0l0,0l0,0c1.4-0.2,3.1-1,3.3-1.1l0.1-0.1
				c-0.5,1.2-1.1,2.7-1.5,3.9c0.3-0.2,0.5-0.4,0.8-0.6c0.4-1.1,0.9-2.7,1.5-3.7c0.2-0.1,0.5-0.3,0.8-0.4l0.2-0.1
				c5.9-3.1,5.9-3.1,14.8-5.8c-0.1,0.1-0.2,0.2-0.4,0.2C1181.7,285.2,1181.6,285.3,1181.5,285.3 M1269.1,299.5
				c2.4,2.4,5.5,5.6,7.8,8.1c-0.3-0.2-0.7-0.5-1.1-0.6c-2-2.3-3.3-3.4-3.9-3.8c-5.4-5.5-5.5-5.6-8.9-8.4c0.3,0.2,0.5,0.3,0.7,0.4
				c-0.1-0.2-0.1-0.2-0.4-0.4l0,0c-0.6-0.5-1.8-1.5-3.5-2.6l0.1,0.1C1262.8,294.2,1266.5,297.1,1269.1,299.5 M1239.7,281.1
				L1239.7,281.1l-0.1,0c-2.3-0.9-4-1.4-5.3-1.6c0.1,0.1,0.2,0.2,0.4,0.3c13.4,4.9,13.4,4.9,19.6,8.8c-0.5-0.2-0.5-0.2-0.9-0.4
				c0.3,0.4,0.3,0.4,1,0.8l0,0c0.4,0.3,0.8,0.5,1.2,0.8l0.1,0.1c0.4,0.3,0.9,0.6,1.4,0.9c-1.9-0.3-1.9-0.3-3.5-0.6
				c-3-1.8-6.2-3.1-7.4-3.1c0,0.1,0,0.3,0.1,0.4c1.8,1.6,7.6,4.7,8.4,5.1c1.6,0.8,6,5.3,8.2,8c-1.2-0.6-1.6-0.6-1.9-0.6
				c-1.4,2.7,8.9,9,9.1,9c0.7-0.2,0.3-1.6-1.9-4.2l-12.3-11.7c0.8,0.3,1,0.4,1.4,0.4c0.1-0.1,0.1-0.2,0.2-0.2c0,0-0.1-0.1-0.1-0.1
				l0,0c-0.5-0.6-1.1-1.2-2.9-2.4c2.4,0.4,2.6,0.4,3.5,0.6c4.8,3.2,8,5.3,13.7,11.5c-0.5-0.3-0.5-0.3-0.9-0.6c0,0.1-0.1,0.2-0.2,0.3
				c1,2,5.6,6.7,6.8,7.9c1.2,1.1,4.4,7,6,10.9c-1.1-1-1.7-1-1.8-0.1c-0.2,3.1,5.3,11.9,6.6,10.6c0.5-0.5,0-2.7-1.1-5.1l-8.8-15.5
				c0.4,0.3,0.4,0.3,0.9,0.6c0-0.1,0.1-0.2,0.1-0.3c0-0.1-0.1-0.1-0.1-0.2l0,0c-0.4-0.7-0.8-1.5-2.5-3.4c0.3,0.2,0.8,0.4,1.1,0.6
				c-2.4-2.7-5.8-6.2-8.4-8.8c-2.9-2.5-6.8-5.7-9.9-8l-0.2-0.1c-1.5-1-9.9-6.1-14.9-8.4c0.2,0.1,0.4,0.1,0.6,0.2
				c-0.2-0.1-0.4-0.2-0.6-0.3l0,0c-1.2-0.5-2.1-0.9-3.7-1.6c0,0,0,0,0.1,0L1239.7,281.1 M1181.2,277.9l-2.1,0.6l1.6-0.4l0.9-0.2
				L1181.2,277.9 M1168.7,282.1c0,0-0.1,0-0.1,0.1c1.8-0.7,4.1-1.6,5.9-2.3c-1.3,0.4-1.5,0.5-4.2,1.5l-0.5,0.2l0,0l1-0.4
				C1169.8,281.7,1169.1,282,1168.7,282.1 M1152.4,291.1l0.7-0.5l0.7-0.4l-0.7,0.4L1152.4,291.1 M1113.1,384.6
				c-1.3-9.7-1.4-10.3-1.4-16.4l0.1-5.1c0,0.1,0.5,12,1.1,15.9C1112.9,380.7,1112.9,382.9,1113.1,384.6 M1112.7,354.9
				c0-0.3,0.1-0.6,0.1-0.9l0.3-1.6c2.1-9.6,2.1-9.8,3.9-15l1-2.8c0.1-0.2,0.2-0.6,0.8-1.7c-1.6,5.4-1.7,5.6-2,8.8
				c-1.1,2.7-1.6,5.2-1.8,6.2C1113.2,352.2,1113.1,352.4,1112.7,354.9 M1133.5,308.6c1.4-1.3,2.9-3.4,4.2-4.8c1-1.1,2.4-2.4,3.4-3.5
				c-1.7,1.4-2.9,2.8-6.4,6.5l0,0c-1.4,1.6-1.8,2.1-1.8,2.2l0,0C1133,309.1,1133,309.1,1133.5,308.6 M1115.9,396.1L1115.9,396.1
				l0-0.1L1115.9,396.1 M1119.7,368.4l-0.9-5.1c-0.1,3.9-2.8,6.6-4.1,9.9c-0.5-2.8-0.9-3.2-1.2-3.6c-0.1,0-0.2,0-0.3,0.1l0,0
				c-0.2,0.3-0.2,0.3-0.3,0.7l0,0.1c0,0.2-0.1,0.7-0.2,1.2c-0.8-6-0.8-6.2-0.6-9.6c0.3-4.2,0.6-8.6,3-13.2c-0.2,1.9-0.1,2.9,0.3,3.2
				l0,0c0.5-0.1,0.8-0.2,1.6-2c0.3,1.5,0.7,3.5,1.2,5l0-2l-0.8-3.8c1-2.5,1-2.5,1.9-8.9c-0.1-0.7-0.1-0.7-0.3-1.1
				c-0.5,0.1-0.7,0.1-1.6,1.7c0.8-5.6,0.9-5.7,2-8.8c2.8-6.2,2.8-6.2,5.7-9.6l0.4-0.7c-1,1.2-2.3,2.9-3.2,4.2
				c0.8-1.7,1.1-2.4,1.4-2.9c-0.1,0.1-0.1,0.2-0.2,0.3c-4.2,8.5-4.4,8.8-6.2,14c-2.8,9.2-2.9,9.6-3.9,15c-1.3,9.8-1.3,10.2-1.4,15.8
				c0.4,9.9,0.4,10.7,1.6,17.5c-0.2-1.7-0.3-4.1-0.2-5.8c0.5,2.5,0.9,3.1,1.2,3.3l0,0c0.5-0.2,0.6-0.3,0.8-1.9
				c0.3,0.6,0.8,1.5,1.2,2.2l0.2-0.5l-1.3-2.7c0.1-2.1-1-4.1-0.4-6.2c0,0,1.1-3.1,4.3-7.5C1119.2,367.2,1119.4,367.8,1119.7,368.4
				 M1194.7,277.5l0.6,0l2-0.1c2.6,0.1,4.4,0.3,6.4,0.6c0.7,0.1,1,0.1,1.5,0.2c-0.1,0-0.1,0-0.2,0c-6.5-1.2-12.6-1.5-15.6-1.6
				c0.3,0,0.6-0.1,0.8-0.1c-0.6,0.1-1.3,0.1-1.8,0.2c0.8-0.1,3.6,0,7.3,0.3c-1.1,0-1.7,0-2,0.1c0,0,0,0,0,0l0,0
				c0.4,0.1,0.6,0.1,2.7,0.2C1196,277.5,1195.2,277.5,1194.7,277.5"/>
		</g>
		<g>
			<path class="st2" d="M1184.4,277c4-0.9,4.8-1,8.6-1.6c1-0.1,2.4-0.3,3.4-0.4c0.2,0.1,0.5,0.2,0.8,0.2c-0.8,0-1.6,0-2,0.1l0,0
				c0,0-0.1,0-0.1,0.1c0.2,0.1,0.2,0.1,0.9,0.2c-0.7,0-6.6,0.4-10.2,1.1L1184.4,277 M1219.2,275.6l-0.3,0l-0.1,0c-0.2,0-0.4,0-0.5,0
				c0,0,0.1,0.1,0.8,0.2c3.3,0.4,3.3,0.4,4.4,0.7C1222.2,276.1,1220.5,275.8,1219.2,275.6 M1206.2,274.6l-1.6,0l0.3,0c0,0,0,0,0,0
				c0.1,0.1,1.1,0.5,1.7,0.4c0.3,0,0.3,0,1.7-0.4C1207.7,274.6,1206.8,274.6,1206.2,274.6 M1181.2,277.9l0.4-0.1l2.7-0.7
				c2.2-0.3,3.4-0.4,5.9-0.7c1.1-0.1,1.2-0.2,1.4-0.2c0,0,0-0.1,0-0.1l0,0c-0.1,0-0.2,0-0.5-0.1l0,0c-0.2,0-0.4,0-0.7,0
				c3.9-0.4,3.9-0.4,5.9-0.5c1.6,0.2,2.5,0.3,3.9,0.6c1.1,0.2,1.2,0.2,1.3,0.1c0,0,0,0,0,0c-1.3-1.4-3.2-0.9-4.8-1.4
				c-1.1,0.1-2.7,0.3-3.8,0.4c-3.6,0.5-4.6,0.7-9.1,1.7l1.2-0.3c-1.1,0.2-2.2,0.5-2.6,0.6l0,0c0.1,0,0.1,0,1.2-0.2
				C1183,277.5,1182,277.8,1181.2,277.9"/>
		</g>
	</g>
</g>
<g>
	<path d="M79.5,245.9c0-26.4,5-52.4,14.9-78c10-25.6,24.5-48.6,43.6-68.9c19.1-20.3,42.3-36.8,69.5-49.4
		c27.2-12.6,58.3-18.9,93.3-18.9c41.9,0,78.1,8.6,108.8,25.9c30.7,17.3,53.5,40.1,68.6,68.6l-90.8,64.6
		c-4.1-10.6-9.4-19.3-16.2-26.2c-6.7-6.9-14.1-12.4-22.3-16.5c-8.1-4.1-16.6-6.9-25.3-8.5c-8.7-1.6-17.2-2.4-25.3-2.4
		c-17.1,0-31.8,3.4-44.2,10.1c-12.4,6.7-22.6,15.5-30.5,26.2c-7.9,10.8-13.8,23-17.7,36.6c-3.9,13.6-5.8,27.1-5.8,40.5
		c0,15,2.2,29.5,6.7,43.3c4.5,13.8,11,26,19.5,36.6c8.5,10.6,19,19,31.4,25.3c12.4,6.3,26.3,9.4,41.8,9.4c8.1,0,16.5-0.9,25-2.7
		c8.5-1.8,16.8-4.9,24.7-9.1c7.9-4.3,15-9.8,21.3-16.5c6.3-6.7,11.3-14.9,14.9-24.7l96.9,57.9c-6.5,15.8-16.4,30.1-29.6,42.7
		c-13.2,12.6-28.3,23.2-45.1,31.7c-16.9,8.5-35,15-54.3,19.5c-19.3,4.5-38.1,6.7-56.4,6.7c-32.1,0-61.5-6.4-88.1-19.2
		c-26.6-12.8-49.6-29.8-68.9-50.9c-19.3-21.1-34.2-45.1-44.8-71.9C84.8,300.8,79.5,273.5,79.5,245.9z"/>
</g>
<g>
	<path d="M526.8,468c0-139.8,0-279.6,0-419.3c0-38.9,0,23.8,0-15.1c40.3,0,80.6,0,120.9,0V468H526.8z"/>
</g>
<g>
	<path d="M1011.3,173.3c-12.2-7.3-24.8-13.8-37.8-19.5c-11-4.9-23.3-9.4-36.9-13.7c-13.6-4.3-26.9-6.4-39.9-6.4
		c-10.6,0-19,1.6-25.3,4.9c-6.3,3.3-9.4,8.7-9.4,16.4c0,5.7,1.8,10.4,5.5,14c3.7,3.7,8.9,7,15.8,10.1c6.9,3,15.3,6,25.3,8.8
		c9.9,2.8,21.2,6.3,33.8,10.4c19.9,6.1,37.9,12.8,53.9,20.1c16,7.3,29.7,15.9,41.1,25.9c11.4,10,20.1,22,26.2,36.2
		c6.1,14.2,9.1,31.5,9.1,51.8c0,26-4.8,47.8-14.3,65.5c-9.5,17.7-22.1,31.8-37.8,42.3c-15.6,10.6-33.3,18.2-53,22.8
		c-19.7,4.7-39.5,7-59.4,7c-15.8,0-32.1-1.2-48.7-3.7c-16.7-2.4-33.2-5.9-49.6-10.4c-16.4-4.5-32.3-9.7-47.5-15.8
		c-15.2-6.1-29.3-13-42.3-20.7l51.2-104.2c14.2,8.9,29,16.9,44.5,23.8c13,6.1,27.7,11.6,44.2,16.4c16.4,4.9,33.2,7.3,50.3,7.3
		c13,0,22-1.7,27.1-5.2c5.1-3.4,7.6-8,7.6-13.7c0-6.1-2.5-11.3-7.6-15.5c-5.1-4.3-12.1-8-21-11.3c-8.9-3.2-19.2-6.5-30.8-9.7
		c-11.6-3.2-23.9-7.1-36.9-11.6c-19.1-6.5-35.5-13.5-49.3-21c-13.8-7.5-25.2-16-34.1-25.6c-8.9-9.5-15.5-20.4-19.8-32.6
		s-6.4-26.2-6.4-42c0-24,4.4-45.1,13.1-63.4c8.7-18.3,20.6-33.5,35.6-45.7c15-12.2,32.2-21.4,51.5-27.7c19.3-6.3,39.7-9.4,61.2-9.4
		c15.8,0,31.3,1.5,46.3,4.6c15,3,29.5,6.9,43.6,11.6c14,4.7,27.1,9.7,39.3,15.2c12.2,5.5,23.1,10.7,32.9,15.5L1011.3,173.3z"/>
</g>
<g class="st0">
	<path class="st3" d="M1205,462.7c-52.4,0-95-42.6-95-95c0-52.4,42.6-95,95-95s95,42.6,95,95C1300,420.1,1257.4,462.7,1205,462.7z
		 M1205,273.8c-61,2.2-94,40.2-94,94c0,51.8,42.2,94,94,94s94-42.2,94-94S1256.8,273.8,1205,273.8z"/>
</g>
<g>
	<path d="M1210,277.9c2.8,0,5.7,0.3,8.5,0.6c2.8,0.3,5.6,0.8,8.4,1.4c5.6,1.2,11.1,2.7,16.4,4.7c10.7,4,20.7,10,29.2,17.5
		c4.3,3.7,8.2,8,11.7,12.5c0.8,1.2,1.8,2.3,2.6,3.5l2.4,3.6c0.8,1.2,1.4,2.5,2.1,3.7c0.7,1.3,1.4,2.5,2,3.8
		c5,10.3,8.3,21.4,9.7,32.7l-0.2,0c-2.6-11.1-6.1-21.9-11.3-31.8c-2.6-5-5.5-9.8-8.9-14.3c-3.3-4.5-7.1-8.8-11.2-12.5
		c-8.3-7.6-18-13.6-28.5-17.8c-5.2-2.1-10.7-3.8-16.2-5.1c-2.8-0.6-5.5-1.2-8.3-1.6c-2.8-0.4-5.6-0.7-8.5-0.8V277.9z"/>
</g>
<g>
	<path d="M1208.5,277.7c-12.8,1.9-25.3,5.7-36.9,11.1c-11.6,5.3-22.6,12.4-31.3,21.6c-4.3,4.6-8.2,9.6-11.3,15.1
		c-3,5.5-5.6,11.2-7.6,17.2c-0.5,1.5-0.9,3-1.3,4.5l-0.7,2.3l-0.5,2.3l-1,4.6c-0.2,1.6-0.4,3.1-0.7,4.7l-0.4,2.4
		c-0.1,0.8-0.1,1.6-0.2,2.4l-0.4,4.8l-0.1,1.2l0,1.2l-0.1,2.4c-0.1,1.6-0.1,3.2-0.2,4.9l-0.5,0c-0.3-1.6-0.5-3.2-0.7-4.8l-0.3-2.4
		l-0.2-1.2l-0.1-1.2l-0.2-4.9c0-0.8-0.1-1.6-0.1-2.5l0.1-2.5c0.1-1.6,0.1-3.3,0.2-5l0.6-4.9l0.4-2.5l0.6-2.4
		c0.4-1.6,0.7-3.3,1.1-4.9c1.9-6.4,4.6-12.6,8.2-18.3l2.8-4.1c1-1.4,2.1-2.6,3.1-3.9c1-1.3,2.2-2.5,3.3-3.8l1.7-1.8
		c0.6-0.6,1.2-1.1,1.8-1.7c9.5-9.3,21-16.1,33.1-21.1c6.1-2.5,12.3-4.5,18.6-6c6.3-1.5,12.7-2.7,19.2-3.3L1208.5,277.7z"/>
</g>
<g>
	<path d="M1295.7,405.6c-3,7.7-7,15-11.6,21.8c-4.7,6.8-10,13.2-16.2,18.8c-6.1,5.6-13,10.5-20.5,14.2c-7.5,3.8-15.6,6.4-23.8,7.9
		c-1,0.2-2.1,0.3-3.1,0.5c-1,0.1-2.1,0.3-3.1,0.4c-2.1,0.2-4.2,0.4-6.3,0.4c-4.2,0.2-8.4,0-12.6-0.4c-4.2-0.5-8.4-1.3-12.5-2.3
		c-4.1-1.1-8.1-2.6-11.9-4.2c-7.7-3.5-14.9-7.9-21.4-13.1c-3.3-2.6-6.3-5.4-9.3-8.4c-2.9-3-5.6-6.1-8-9.6l0.4-0.3
		c11.7,11.5,25.4,20.7,40.2,26.7c3.7,1.5,7.5,2.7,11.4,3.8c3.9,1,7.8,1.9,11.7,2.4c7.9,1.1,16,1.2,23.9,0c7.9-1.2,15.8-3.4,23-6.9
		c7.3-3.4,14.1-7.9,20.3-13.2c6.2-5.2,11.7-11.3,16.6-17.9c2.4-3.3,4.7-6.7,6.8-10.2c2.1-3.5,4-7.1,5.6-10.9L1295.7,405.6z"/>
</g>
<g>
	<path d="M1121.4,404.5c1.6,4,4,9.2,5.9,13c-1.6-5.3,7.4-9.2,36.3-20.7c22-8.8,88.7-35.4,102.1-68.7c15.2-37.7-42.4-52.5-56.2-45.4
		c24.7-4.9,61.6,12.3,42.9,42.1c-17.2,27.5-70,48-87.3,54.7c-38.7,15.1-44.6,19.6-43.9,24.5L1121.4,404.5 M1222.1,279.8
		c-3.1-0.4-3.1-0.4-4.8-0.5c-1.4-0.1-2.9-0.2-4.3-0.3h-0.1c-2.2,0-7.9,0-4.6,2.9c0.3,0.3,0.8,0.5,1.1,0.8c0.1-5.2,14.8-3.1,24.7-0.4
		C1230.4,281.3,1227.1,280.4,1222.1,279.8 M1147,442.4l2.3,2c-2.4-2.9,1.6-5.1,21.5-12c82.5-28.5,147.8-77.7,107.6-123.4
		c-1.7-1.7-3.8-3.9-5.6-5.5c-6.2-5.3-7-6-12.6-9.7c-1.5-0.9-3.4-2.1-4.9-2.9c65.7,39.1,5.3,94.2-88.3,128.3
		c-23.9,8.7-30,11.6-27.7,15.6C1141.7,437.1,1144.6,440.3,1147,442.4 M1175.1,459.8l0.7,0.3c-0.1-0.2-0.3-0.4-0.4-0.6
		c2.1-1.1,2.2-1.2,8.1-2.9c51.6-14.9,77.2-32.6,92.1-44.7c14.2-11.5,30.3-30.5,26.5-55.3c-2.1-9.6-2.1-9.8-3.9-14.9l-2.1-5.3
		c23.2,64-92.9,104.1-116.4,111.5c-10,3.1-13.6,4.4-15.2,6.1c0.1,0.4,0.3,1,0.6,1.2C1171.2,458.2,1171.6,458.4,1175.1,459.8"/>
</g>
<rect x="80" y="471" width="1223" height="149"/>
<text transform="matrix(1 0 0 1 452 572)" class="st4 st5 st6">Comprehensive Immigration Solutions</text>
</svg>
