<?xml version="1.0" encoding="utf-8"?>
<!-- Generator: Adobe Illustrator 21.0.2, SVG Export Plug-In . SVG Version: 6.00 Build 0)  -->
<svg version="1.1" id="Layer_1" xmlns="http://www.w3.org/2000/svg" xmlns:xlink="http://www.w3.org/1999/xlink" x="0px" y="0px"
	 viewBox="0 0 1007.8 492.4" style="enable-background:new 0 0 1007.8 492.4;" xml:space="preserve">
<style type="text/css">
	.st0{enable-background:new    ;}
	.st1{fill:#FFFFFF;}
	.st2{fill:url(#SVGID_1_);stroke:url(#SVGID_2_);stroke-width:1.8405;stroke-miterlimit:10;}
	.st3{fill:url(#SVGID_3_);stroke:url(#SVGID_4_);stroke-width:1.8405;stroke-miterlimit:10;}
	.st4{fill:url(#SVGID_5_);stroke:url(#SVGID_6_);stroke-width:1.8405;stroke-miterlimit:10;}
	.st5{fill:url(#SVGID_7_);}
	.st6{fill:url(#SVGID_8_);}
	.st7{fill:url(#SVGID_9_);}
	.st8{fill:url(#SVGID_10_);}
</style>
<g class="st0">
	<g>
		<path class="st1" d="M29.6,458.3c0-2.3,0.5-4.7,1.3-7c0.8-2.3,2.1-4.4,3.6-6.2c1.6-1.8,3.6-3.3,5.9-4.5c2.3-1.2,5-1.7,7.9-1.7
			c3.5,0,6.5,0.8,9,2.4c2.4,1.6,4.3,3.7,5.5,6.2l-2.3,1.4c-0.7-1.4-1.5-2.5-2.4-3.5c-0.9-0.9-2-1.6-3-2.2c-1-0.6-2.2-1-3.5-1.3
			c-1.2-0.2-2.3-0.3-3.5-0.3c-2.5,0-4.7,0.5-6.7,1.5c-2,1-3.6,2.3-4.8,3.9c-1.3,1.6-2.3,3.5-3,5.5c-0.7,2.1-1,4.2-1,6.2
			c0,2.3,0.5,4.5,1.3,6.7c0.8,2.1,2,3.9,3.3,5.5c1.4,1.6,3.1,2.9,5,3.8c2,0.9,4,1.4,6.2,1.4c1.2,0,2.4-0.1,3.7-0.5
			c1.3-0.3,2.4-0.8,3.6-1.4s2.2-1.4,3.2-2.4c1-0.9,1.8-2.1,2.5-3.5l2.4,1.2c-0.7,1.5-1.6,2.8-2.8,3.9c-1.2,1.2-2.4,2.1-3.8,2.9
			c-1.4,0.8-2.9,1.4-4.5,1.7c-1.6,0.3-3.1,0.6-4.6,0.6c-2.7,0-5.2-0.6-7.4-1.7c-2.2-1.2-4.2-2.8-5.8-4.6c-1.6-1.8-2.9-4-3.8-6.5
			C30.1,463.3,29.6,460.9,29.6,458.3z"/>
		<path class="st1" d="M81.8,478.9c-2.1,0-3.9-0.3-5.7-1.2c-1.7-0.8-3.2-1.8-4.5-3.2c-1.3-1.4-2.2-3-2.9-4.7c-0.7-1.8-1-3.7-1-5.7
			c0-2.1,0.3-3.9,1-5.8c0.7-1.8,1.7-3.3,3-4.7c1.3-1.4,2.8-2.4,4.5-3.2c1.7-0.8,3.6-1.2,5.5-1.2c2,0,3.8,0.3,5.5,1.2
			c1.7,0.8,3.2,1.8,4.5,3.2c1.3,1.4,2.3,3,3,4.7c0.7,1.8,1,3.7,1,5.8c0,2-0.3,3.9-1,5.7c-0.7,1.8-1.7,3.3-3,4.7
			c-1.3,1.4-2.8,2.4-4.5,3.2C85.6,478.4,83.8,478.9,81.8,478.9z M70.5,464.1c0,1.7,0.3,3.3,0.9,4.8c0.6,1.5,1.4,2.8,2.4,3.9
			c1,1.2,2.2,2,3.6,2.7c1.4,0.7,2.8,0.9,4.4,0.9c1.5,0,3-0.3,4.4-0.9c1.4-0.7,2.5-1.5,3.6-2.7c1-1.2,1.8-2.4,2.4-3.9
			c0.6-1.5,0.9-3.1,0.9-4.8c0-1.7-0.3-3.3-0.9-4.8c-0.6-1.5-1.4-2.8-2.4-3.9c-1-1.2-2.2-2.1-3.6-2.7c-1.4-0.7-2.8-1-4.4-1
			c-1.5,0-3,0.3-4.4,1c-1.4,0.7-2.5,1.6-3.6,2.8c-1,1.2-1.8,2.5-2.4,4C70.8,460.7,70.5,462.4,70.5,464.1z"/>
		<path class="st1" d="M144.8,478.3h-2.8v-16c0-3.7-0.6-6.4-1.7-8.1c-1.2-1.7-2.9-2.7-5.2-2.7c-1.2,0-2.3,0.2-3.3,0.7
			c-1,0.5-2.1,1-2.9,1.8c-0.9,0.8-1.6,1.7-2.3,2.8c-0.7,1-1.2,2.3-1.5,3.6v17.8h-2.8v-16c0-3.7-0.6-6.4-1.6-8.1
			c-1-1.7-2.8-2.5-5.2-2.5c-1.2,0-2.3,0.2-3.3,0.7c-1,0.5-2.1,1-2.9,1.8c-0.9,0.8-1.6,1.7-2.3,2.8c-0.7,1-1.2,2.3-1.6,3.6v17.9h-2.8
			v-28.9h2.7v6.9c1.2-2.3,2.8-4.2,4.6-5.4c2-1.3,4-2,6.4-2c2.4,0,4.4,0.7,5.9,2.2c1.5,1.4,2.4,3.3,2.8,5.7c2.8-5.2,6.5-7.9,11.3-7.9
			c3.1,0,5.4,1.2,6.7,3.3c1.4,2.2,2.1,5.3,2.1,9.4v16.6H144.8z"/>
		<path class="st1" d="M167.4,478.9c-2.4,0-4.7-0.7-6.6-2c-2-1.3-3.5-2.9-4.7-4.8v18h-2.8v-40.6h2.5v5.8c1.2-1.8,2.8-3.3,4.7-4.5
			c2-1.2,4-1.7,6.2-1.7c2,0,3.8,0.5,5.5,1.3c1.7,0.8,3.1,2,4.4,3.3c1.3,1.4,2.2,3,2.9,4.8c0.7,1.8,1,3.7,1,5.5c0,2-0.3,3.9-0.9,5.7
			c-0.6,1.8-1.5,3.3-2.7,4.7c-1.2,1.4-2.5,2.4-4.2,3.2C171,478.4,169.3,478.9,167.4,478.9z M166.7,476.3c1.6,0,3.2-0.3,4.5-1
			c1.4-0.7,2.5-1.6,3.5-2.8s1.7-2.5,2.2-4c0.5-1.5,0.8-3,0.8-4.6c0-1.6-0.3-3.2-0.9-4.7c-0.6-1.5-1.4-2.8-2.4-3.9
			c-1-1.2-2.3-2.1-3.7-2.8c-1.4-0.7-2.9-1-4.5-1c-1,0-2.1,0.2-3.2,0.7c-1.2,0.5-2.2,1-3.2,1.7c-1,0.7-1.8,1.5-2.5,2.4
			c-0.7,0.9-1.2,1.8-1.3,2.9v9.5c0.5,1,1,2.1,1.8,3c0.7,0.9,1.6,1.7,2.5,2.4c0.9,0.7,2,1.3,3,1.6
			C164.4,476.1,165.5,476.3,166.7,476.3z"/>
		<path class="st1" d="M200.8,452c-2.5,0.1-4.8,0.8-6.8,2.3c-2,1.5-3.3,3.5-4,6v18h-2.8v-28.9h2.7v7c1-2.1,2.3-3.7,3.9-5
			c1.6-1.3,3.5-2,5.3-2.2c0.3,0,0.7,0,1,0c0.3,0,0.6,0,0.7,0L200.8,452L200.8,452z"/>
		<path class="st1" d="M216.9,478.9c-2.1,0-3.9-0.3-5.7-1.2s-3.2-1.8-4.5-3.2c-1.3-1.4-2.3-3-3-4.8c-0.7-1.8-1-3.7-1-5.8
			c0-2.1,0.3-3.9,1-5.8c0.7-1.8,1.7-3.3,3-4.7c1.3-1.4,2.8-2.4,4.5-3.2c1.7-0.8,3.6-1.2,5.5-1.2c2.1,0,3.9,0.3,5.7,1.2
			s3.2,1.8,4.5,3.2c1.3,1.4,2.2,2.9,2.9,4.7s1,3.7,1,5.7c0,0.2,0,0.5,0,0.7c0,0.2,0,0.5,0,0.6h-25.3c0.1,1.6,0.5,3.2,1.2,4.6
			s1.5,2.7,2.5,3.7c1,1,2.2,1.8,3.5,2.4c1.4,0.6,2.8,0.9,4.3,0.9c1,0,2-0.1,2.9-0.5c0.9-0.2,1.8-0.7,2.7-1.2c0.8-0.5,1.6-1,2.2-1.7
			c0.7-0.7,1.2-1.4,1.5-2.2l2.4,0.7c-0.5,1-1,2-1.8,2.9c-0.8,0.9-1.7,1.6-2.8,2.2s-2.2,1.2-3.5,1.5
			C219.4,478.6,218.2,478.9,216.9,478.9z M228.2,462.8c-0.1-1.7-0.5-3.2-1.2-4.6s-1.5-2.7-2.5-3.6c-1-1-2.2-1.8-3.5-2.4
			c-1.4-0.6-2.8-0.8-4.3-0.8s-2.9,0.2-4.3,0.8c-1.4,0.6-2.5,1.4-3.5,2.4c-1,1-1.8,2.2-2.4,3.7c-0.6,1.4-0.9,3-1,4.6h22.6V462.8z"/>
		<path class="st1" d="M260.5,478.3h-2.8v-16c0-7.2-2.4-10.7-7.2-10.7c-1.2,0-2.3,0.2-3.5,0.7c-1.2,0.5-2.2,1-3.1,1.8
			c-0.9,0.8-1.8,1.7-2.5,2.9c-0.7,1-1.3,2.3-1.6,3.5v17.9h-2.8v-40.4h2.8v18.5c1.2-2.3,2.8-4,4.8-5.4c2.1-1.4,4.4-2,6.7-2
			c1.6,0,3,0.3,4.2,0.9s2.1,1.4,2.9,2.5c0.8,1.2,1.3,2.4,1.6,4s0.6,3.3,0.6,5.3L260.5,478.3L260.5,478.3z"/>
		<path class="st1" d="M281.1,478.9c-2.1,0-3.9-0.3-5.7-1.2c-1.7-0.8-3.2-1.8-4.5-3.2c-1.3-1.4-2.3-3-3-4.8c-0.7-1.8-1-3.7-1-5.8
			c0-2.1,0.3-3.9,1-5.8c0.7-1.8,1.7-3.3,3-4.7c1.3-1.4,2.8-2.4,4.5-3.2c1.7-0.8,3.6-1.2,5.5-1.2c2.1,0,3.9,0.3,5.7,1.2
			c1.7,0.8,3.2,1.8,4.5,3.2c1.3,1.4,2.2,2.9,2.9,4.7s1,3.7,1,5.7c0,0.2,0,0.5,0,0.7c0,0.2,0,0.5,0,0.6h-25.3
			c0.1,1.6,0.5,3.2,1.2,4.6c0.7,1.4,1.5,2.7,2.5,3.7c1,1,2.2,1.8,3.5,2.4c1.4,0.6,2.8,0.9,4.3,0.9c1,0,2-0.1,2.9-0.5
			c0.9-0.2,1.8-0.7,2.7-1.2c0.8-0.5,1.6-1,2.2-1.7c0.7-0.7,1.2-1.4,1.5-2.2l2.4,0.7c-0.5,1-1,2-1.8,2.9c-0.8,0.9-1.7,1.6-2.8,2.2
			s-2.2,1.2-3.5,1.5C283.7,478.6,282.5,478.9,281.1,478.9z M292.4,462.8c-0.1-1.7-0.5-3.2-1.2-4.6c-0.7-1.4-1.5-2.7-2.5-3.6
			c-1-1-2.2-1.8-3.5-2.4c-1.4-0.6-2.8-0.8-4.3-0.8c-1.5,0-2.9,0.2-4.3,0.8s-2.5,1.4-3.5,2.4c-1,1-1.8,2.2-2.4,3.7
			c-0.6,1.4-0.9,3-1,4.6h22.6L292.4,462.8L292.4,462.8z"/>
		<path class="st1" d="M324.7,478.3H322v-16c0-3.7-0.6-6.5-1.6-8.2c-1-1.7-2.8-2.5-5-2.5c-1.3,0-2.4,0.2-3.6,0.7
			c-1.2,0.5-2.3,1-3.3,1.8s-2,1.7-2.8,2.9c-0.8,1-1.4,2.3-1.7,3.5v17.9h-2.8v-28.9h2.7v6.9c0.6-1.2,1.3-2.1,2.2-3
			c0.9-0.9,1.8-1.7,2.9-2.3c1-0.7,2.2-1.2,3.5-1.5c1.3-0.3,2.4-0.6,3.8-0.6c3.1,0,5.3,1.2,6.7,3.3c1.3,2.2,2,5.3,2,9.5v16.5H324.7z"
			/>
		<path class="st1" d="M342.3,478.9c-2.2,0-4.4-0.3-6.4-1.2c-2.1-0.7-3.8-1.8-5.3-3.3l1.4-1.8c1.5,1.4,3.1,2.4,4.8,3.1
			c1.6,0.7,3.5,1,5.5,1c2.5,0,4.5-0.6,6.1-1.6c1.5-1,2.3-2.5,2.3-4.4c0-0.9-0.2-1.6-0.6-2.2c-0.3-0.6-0.9-1.2-1.7-1.5
			c-0.8-0.5-1.7-0.8-2.9-1.2c-1.2-0.3-2.4-0.7-4-1c-1.6-0.3-3-0.7-4.3-1.2c-1.2-0.3-2.2-0.8-3-1.4s-1.4-1.2-1.7-1.8
			c-0.3-0.7-0.6-1.7-0.6-2.8c0-1.4,0.2-2.7,0.8-3.8c0.6-1,1.3-2,2.3-2.7c0.9-0.7,2.1-1.3,3.3-1.6c1.3-0.3,2.7-0.6,4-0.6
			c2.3,0,4.3,0.3,6,1.2s3.1,1.7,4,2.9l-1.5,1.5c-0.9-1.2-2.2-2-3.7-2.5c-1.5-0.6-3.1-0.8-4.8-0.8c-1,0-2.1,0.1-3,0.3
			c-0.9,0.2-1.7,0.6-2.4,1c-0.7,0.5-1.3,1.2-1.6,1.8c-0.5,0.8-0.6,1.6-0.6,2.7c0,0.8,0.1,1.5,0.5,2.1c0.2,0.5,0.7,0.9,1.4,1.4
			c0.6,0.3,1.4,0.7,2.3,0.9c0.9,0.2,2.1,0.6,3.5,0.9c1.8,0.5,3.5,0.9,4.8,1.3c1.4,0.5,2.5,0.9,3.5,1.5c0.9,0.6,1.6,1.3,2.2,2.1
			c0.5,0.8,0.7,1.8,0.7,3.1c0,2.5-1,4.6-3,6.2C348.3,478.1,345.6,478.9,342.3,478.9z"/>
		<path class="st1" d="M359.7,443v-5.1h2.8v5.1H359.7z M359.7,478.3v-28.9h2.8v28.9H359.7z"/>
		<path class="st1" d="M380,478.3l-12-28.9h2.9l10.6,26.1l10.7-26.1h2.8l-12,28.9H380z"/>
		<path class="st1" d="M411.7,478.9c-2.1,0-3.9-0.3-5.7-1.2c-1.7-0.8-3.2-1.8-4.5-3.2c-1.3-1.4-2.3-3-3-4.8c-0.7-1.8-1-3.7-1-5.8
			c0-2.1,0.3-3.9,1-5.8c0.7-1.8,1.7-3.3,3-4.7c1.3-1.4,2.8-2.4,4.5-3.2c1.7-0.8,3.6-1.2,5.5-1.2c2.1,0,3.9,0.3,5.7,1.2
			c1.7,0.8,3.2,1.8,4.5,3.2c1.3,1.4,2.2,2.9,2.9,4.7c0.7,1.8,1,3.7,1,5.7c0,0.2,0,0.5,0,0.7c0,0.2,0,0.5,0,0.6h-25.3
			c0.1,1.6,0.5,3.2,1.2,4.6c0.7,1.4,1.5,2.7,2.5,3.7c1,1,2.2,1.8,3.5,2.4c1.4,0.6,2.8,0.9,4.3,0.9c1,0,2-0.1,2.9-0.5
			c0.9-0.2,1.8-0.7,2.7-1.2c0.8-0.5,1.6-1,2.2-1.7c0.7-0.7,1.2-1.4,1.5-2.2l2.4,0.7c-0.5,1-1,2-1.8,2.9c-0.8,0.9-1.7,1.6-2.8,2.2
			c-1,0.6-2.2,1.2-3.5,1.5C414.1,478.8,413.1,478.9,411.7,478.9z M423,462.8c-0.1-1.7-0.5-3.2-1.2-4.6c-0.7-1.4-1.5-2.7-2.5-3.6
			c-1-1-2.2-1.8-3.5-2.4c-1.4-0.6-2.8-0.8-4.3-0.8c-1.5,0-2.9,0.2-4.3,0.8s-2.5,1.4-3.5,2.4c-1,1-1.8,2.2-2.4,3.7
			c-0.6,1.4-0.9,3-1,4.6H423L423,462.8L423,462.8z"/>
	</g>
	<g>
		<path class="st1" d="M446.9,478.3v-39.4h2.8v39.4H446.9z"/>
		<path class="st1" d="M501.5,478.3h-2.8v-16c0-3.7-0.6-6.4-1.7-8.1c-1.2-1.7-2.9-2.7-5.2-2.7c-1.2,0-2.3,0.2-3.3,0.7
			c-1,0.5-2.1,1-2.9,1.8c-0.9,0.8-1.6,1.7-2.3,2.8c-0.7,1-1.2,2.3-1.5,3.6v17.8H479v-16c0-3.7-0.6-6.4-1.6-8.1
			c-1-1.7-2.8-2.5-5.2-2.5c-1.2,0-2.3,0.2-3.3,0.7c-1,0.5-2.1,1-2.9,1.8c-0.9,0.8-1.6,1.7-2.3,2.8c-0.7,1-1.2,2.3-1.6,3.6v17.9h-2.8
			v-28.9h2.7v6.9c1.2-2.3,2.8-4.2,4.6-5.4c2-1.3,4-2,6.4-2c2.4,0,4.4,0.7,5.9,2.2c1.5,1.4,2.4,3.3,2.8,5.7c2.8-5.2,6.5-7.9,11.3-7.9
			c3.1,0,5.4,1.2,6.7,3.3c1.4,2.2,2.1,5.3,2.1,9.4L501.5,478.3L501.5,478.3z"/>
		<path class="st1" d="M552.2,478.3h-2.8v-16c0-3.7-0.6-6.4-1.7-8.1c-1.2-1.7-2.9-2.7-5.2-2.7c-1.2,0-2.3,0.2-3.3,0.7
			c-1,0.5-2.1,1-2.9,1.8c-0.9,0.8-1.6,1.7-2.3,2.8c-0.7,1-1.2,2.3-1.5,3.6v17.8h-2.8v-16c0-3.7-0.6-6.4-1.6-8.1
			c-1-1.7-2.8-2.5-5.2-2.5c-1.2,0-2.3,0.2-3.3,0.7c-1,0.5-2.1,1-2.9,1.8c-0.9,0.8-1.6,1.7-2.3,2.8c-0.7,1-1.2,2.3-1.6,3.6v17.9h-2.8
			v-28.9h2.7v6.9c1.2-2.3,2.8-4.2,4.6-5.4c2-1.3,4-2,6.4-2c2.4,0,4.4,0.7,5.9,2.2c1.5,1.4,2.4,3.3,2.8,5.7c2.8-5.2,6.5-7.9,11.3-7.9
			c3.1,0,5.4,1.2,6.7,3.3c1.4,2.2,2.1,5.3,2.1,9.4L552.2,478.3L552.2,478.3z"/>
		<path class="st1" d="M560.6,443v-5.1h2.8v5.1H560.6z M560.6,478.3v-28.9h2.8v28.9H560.6z"/>
		<path class="st1" d="M583.7,478.8c-2,0-3.8-0.5-5.5-1.3c-1.6-0.8-3.1-2-4.3-3.3s-2.2-3-2.8-4.7c-0.7-1.7-1-3.6-1-5.5
			c0-2,0.3-3.8,0.9-5.7c0.7-1.8,1.6-3.5,2.8-4.8s2.5-2.5,4.3-3.3c1.6-0.8,3.5-1.3,5.4-1.3c2.5,0,4.7,0.7,6.6,2
			c1.8,1.3,3.5,2.9,4.7,4.8v-6.2h2.5v29.3c0,2-0.3,3.7-1.2,5.2c-0.7,1.5-1.7,2.7-3,3.7c-1.3,1-2.7,1.7-4.3,2.2
			c-1.6,0.5-3.3,0.7-5.2,0.7c-1.6,0-3.1-0.1-4.5-0.5c-1.4-0.3-2.5-0.8-3.5-1.4c-0.9-0.6-2-1.3-2.8-2.1s-1.5-1.7-2.1-2.8l1.8-1.3
			c1.2,2,2.7,3.3,4.6,4.3c2,0.9,4,1.4,6.2,1.4c1.5,0,2.9-0.2,4.2-0.6c1.3-0.5,2.4-1,3.5-1.8c0.9-0.8,1.7-1.7,2.3-3
			c0.6-1.2,0.8-2.5,0.8-4.2v-6.4c-1.2,1.8-2.8,3.3-4.7,4.5C587.9,478.2,585.8,478.8,583.7,478.8z M584.4,476.3
			c1.3,0,2.4-0.2,3.6-0.7c1.2-0.5,2.2-1,3.1-1.8c0.9-0.7,1.7-1.6,2.3-2.5c0.6-0.9,1-1.8,1.2-2.8V459c-0.5-1.2-1-2.1-1.7-3.1
			c-0.7-0.9-1.6-1.7-2.5-2.4c-0.9-0.7-2-1.2-3-1.6c-1-0.3-2.2-0.6-3.3-0.6c-1.7,0-3.2,0.3-4.6,1.2c-1.4,0.7-2.5,1.7-3.5,2.9
			c-0.9,1.2-1.6,2.5-2.2,4c-0.5,1.5-0.7,3-0.7,4.5c0,1.6,0.3,3.2,0.9,4.7c0.6,1.5,1.4,2.8,2.4,3.9c1,1.2,2.3,2.1,3.7,2.8
			C581.4,476,582.8,476.3,584.4,476.3z"/>
		<path class="st1" d="M619.6,452c-2.5,0.1-4.8,0.8-6.8,2.3c-2,1.5-3.3,3.5-4,6v18H606v-28.9h2.7v7c1-2.1,2.3-3.7,3.9-5
			c1.6-1.3,3.5-2,5.3-2.2c0.3,0,0.7,0,1,0s0.6,0,0.7,0L619.6,452L619.6,452z"/>
		<path class="st1" d="M631.6,478.9c-1.4,0-2.5-0.2-3.7-0.7c-1.2-0.5-2.2-1-3-1.8c-0.9-0.8-1.5-1.7-2.1-2.8c-0.5-1-0.7-2.3-0.7-3.5
			c0-1.2,0.3-2.4,0.9-3.5c0.6-1,1.4-2,2.4-2.7c1-0.8,2.3-1.4,3.8-1.7c1.5-0.5,3.1-0.7,4.8-0.7c1.5,0,3.1,0.1,4.7,0.5
			c1.6,0.2,3,0.7,4.3,1.2v-2.8c0-2.8-0.8-4.8-2.3-6.5s-3.7-2.4-6.4-2.4c-1.4,0-2.9,0.3-4.5,0.9s-3.1,1.4-4.8,2.5l-1-1.8
			c3.7-2.5,7.2-3.8,10.5-3.8c3.5,0,6.2,1,8.2,3c2,2,3,4.8,3,8.3v13.7c0,0.9,0.5,1.4,1.3,1.4v2.5c-0.2,0-0.3,0.1-0.6,0.1
			c-0.2,0-0.3,0-0.6,0c-0.7,0-1.4-0.2-1.7-0.7c-0.5-0.5-0.7-1.2-0.8-1.8v-2.4c-1.4,1.7-3,3.1-5.1,4
			C636.2,478.4,633.9,478.9,631.6,478.9z M632.1,476.7c2.2,0,4.2-0.5,5.9-1.3c1.8-0.8,3.1-1.8,4.2-3.2c0.6-0.8,0.9-1.5,0.9-2.2v-5.1
			c-1.4-0.5-2.8-0.9-4.2-1.2s-2.9-0.3-4.5-0.3c-1.4,0-2.8,0.1-3.9,0.5c-1.2,0.3-2.2,0.7-3,1.3c-0.8,0.6-1.5,1.3-2,2.1
			s-0.7,1.6-0.7,2.7s0.2,1.8,0.6,2.8c0.3,0.8,0.9,1.6,1.5,2.2c0.7,0.6,1.5,1,2.3,1.4C630.1,476.4,631,476.7,632.1,476.7z"/>
		<path class="st1" d="M666.8,476.9c-0.1,0.1-0.3,0.2-0.7,0.5c-0.3,0.2-0.8,0.3-1.4,0.6c-0.6,0.2-1.2,0.3-1.8,0.5
			c-0.7,0.1-1.4,0.2-2.2,0.2s-1.5-0.1-2.2-0.3c-0.7-0.2-1.3-0.6-1.8-1c-0.5-0.5-0.9-0.9-1.3-1.6c-0.3-0.7-0.5-1.4-0.5-2.2v-21.7h-4
			v-2.3h4v-9.8h2.8v9.8h6.7v2.3h-6.7v21c0,1,0.3,1.8,1.2,2.4c0.7,0.6,1.6,0.8,2.5,0.8c1.2,0,2.1-0.2,3-0.6s1.4-0.7,1.5-0.7
			L666.8,476.9z"/>
		<path class="st1" d="M671.8,443v-5.1h2.8v5.1H671.8z M671.8,478.3v-28.9h2.8v28.9H671.8z"/>
		<path class="st1" d="M695.4,478.9c-2.1,0-3.9-0.3-5.7-1.2c-1.7-0.8-3.2-1.8-4.5-3.2c-1.3-1.4-2.2-3-2.9-4.7c-0.7-1.8-1-3.7-1-5.7
			c0-2.1,0.3-3.9,1-5.8c0.7-1.8,1.7-3.3,3-4.7c1.3-1.4,2.8-2.4,4.5-3.2c1.7-0.8,3.6-1.2,5.5-1.2c2,0,3.8,0.3,5.5,1.2
			c1.7,0.8,3.2,1.8,4.5,3.2c1.3,1.4,2.3,3,3,4.7c0.7,1.8,1,3.7,1,5.8c0,2-0.3,3.9-1,5.7c-0.7,1.8-1.7,3.3-3,4.7
			c-1.3,1.4-2.8,2.4-4.5,3.2C699.2,478.4,697.3,478.9,695.4,478.9z M684,464.1c0,1.7,0.3,3.3,0.9,4.8c0.6,1.5,1.4,2.8,2.4,3.9
			s2.2,2,3.6,2.7c1.4,0.7,2.8,0.9,4.4,0.9c1.6,0,3-0.3,4.4-0.9c1.4-0.7,2.5-1.5,3.6-2.7c1-1.2,1.8-2.4,2.4-3.9
			c0.6-1.5,0.9-3.1,0.9-4.8c0-1.7-0.3-3.3-0.9-4.8c-0.6-1.5-1.4-2.8-2.4-3.9c-1-1.2-2.2-2.1-3.6-2.7c-1.4-0.6-2.8-1-4.4-1
			c-1.6,0-3,0.3-4.4,1c-1.4,0.7-2.5,1.6-3.6,2.8c-1,1.2-1.8,2.5-2.4,4C684.3,460.7,684,462.4,684,464.1z"/>
		<path class="st1" d="M739.6,478.3h-2.8v-16c0-3.7-0.6-6.5-1.6-8.2c-1-1.7-2.8-2.5-5-2.5c-1.3,0-2.4,0.2-3.6,0.7
			c-1.2,0.5-2.3,1-3.3,1.8s-2,1.7-2.8,2.9c-0.8,1-1.4,2.3-1.7,3.5v17.9H716v-28.9h2.7v6.9c0.6-1.2,1.3-2.1,2.2-3
			c0.9-0.9,1.8-1.7,2.9-2.3c1-0.7,2.2-1.2,3.5-1.5c1.3-0.3,2.4-0.6,3.8-0.6c3.1,0,5.3,1.2,6.7,3.3c1.3,2.2,2,5.3,2,9.5L739.6,478.3
			L739.6,478.3z"/>
	</g>
	<g>
		<path class="st1" d="M785.9,445.5c-2.5-2.9-6.1-4.3-10.9-4.3c-3.8,0-6.7,0.7-8.4,2.2c-1.7,1.5-2.7,3.5-2.7,5.9
			c0,1.3,0.2,2.3,0.7,3.1c0.5,0.8,1.2,1.5,2.1,2.1s2.1,1,3.6,1.5c1.4,0.5,3.2,0.8,5.2,1.3c2.1,0.5,4,0.9,5.8,1.5s3.2,1.2,4.4,2.1
			c1.2,0.8,2.1,1.8,2.8,3c0.7,1.2,0.9,2.7,0.9,4.4s-0.3,3.2-1,4.5c-0.7,1.3-1.6,2.4-2.9,3.2c-1.3,0.9-2.8,1.5-4.4,2
			c-1.7,0.5-3.6,0.7-5.8,0.7c-6.1,0-11.3-2-15.6-5.9l1.5-2.3c1.6,1.7,3.7,3.1,6.1,4.2c2.4,1,5.1,1.5,8.1,1.5c3.5,0,6.1-0.6,8.1-1.8
			c2-1.3,2.9-3.1,2.9-5.7c0-1.3-0.2-2.4-0.8-3.3c-0.6-0.9-1.3-1.7-2.3-2.3c-1-0.6-2.3-1.3-3.8-1.7c-1.5-0.5-3.3-0.9-5.4-1.4
			c-2.1-0.5-3.9-0.9-5.5-1.4c-1.6-0.5-3-1.2-4-1.8c-1-0.8-2-1.6-2.4-2.8c-0.6-1-0.8-2.4-0.8-4c0-1.7,0.3-3.3,1-4.7s1.6-2.5,2.9-3.5
			s2.7-1.6,4.4-2.1c1.7-0.5,3.6-0.7,5.7-0.7c2.5,0,4.8,0.3,6.8,1.2s3.8,2,5.4,3.5L785.9,445.5z"/>
		<path class="st1" d="M807.8,478.9c-2.1,0-3.9-0.3-5.7-1.2s-3.2-1.8-4.5-3.2c-1.3-1.4-2.2-3-2.9-4.7c-0.7-1.8-1-3.7-1-5.7
			c0-2.1,0.3-3.9,1-5.8c0.7-1.8,1.7-3.3,3-4.7s2.8-2.4,4.5-3.2c1.7-0.8,3.6-1.2,5.5-1.2s3.8,0.3,5.5,1.2c1.7,0.8,3.2,1.8,4.5,3.2
			c1.3,1.4,2.3,3,3,4.7c0.7,1.8,1,3.7,1,5.8c0,2-0.3,3.9-1,5.7c-0.7,1.8-1.7,3.3-3,4.7c-1.3,1.4-2.8,2.4-4.5,3.2
			C811.6,478.4,809.8,478.9,807.8,478.9z M796.5,464.1c0,1.7,0.3,3.3,0.9,4.8c0.6,1.5,1.4,2.8,2.4,3.9c1,1.2,2.2,2,3.6,2.7
			c1.4,0.7,2.8,0.9,4.4,0.9s3-0.3,4.4-0.9c1.4-0.7,2.5-1.5,3.6-2.7s1.8-2.4,2.4-3.9c0.6-1.5,0.9-3.1,0.9-4.8c0-1.7-0.3-3.3-0.9-4.8
			c-0.6-1.5-1.4-2.8-2.4-3.9c-1-1.2-2.2-2.1-3.6-2.7c-1.4-0.6-2.8-1-4.4-1s-3,0.3-4.4,1c-1.4,0.7-2.5,1.6-3.6,2.8
			c-1,1.2-1.8,2.5-2.4,4C796.8,460.7,796.5,462.4,796.5,464.1z"/>
		<path class="st1" d="M828.7,437.9h2.8v34.8c0,1,0.3,2,0.9,2.5c0.6,0.6,1.5,0.9,2.5,0.9c0.5,0,0.9,0,1.5-0.1
			c0.6-0.1,1.2-0.2,1.6-0.5l0.6,2.2c-0.6,0.2-1.4,0.5-2.3,0.7c-0.9,0.1-1.7,0.2-2.4,0.2c-1.5,0-2.8-0.5-3.7-1.4
			c-0.9-0.9-1.4-2.2-1.4-3.8v-35.6L828.7,437.9L828.7,437.9z"/>
		<path class="st1" d="M851.8,478.9c-6.1,0-9.2-4.3-9.2-12.7v-16.6h2.8v16.3c0,7,2.4,10.6,7.3,10.6c1.3,0,2.4-0.2,3.6-0.7
			c1.2-0.5,2.2-1,3.2-1.7c1-0.7,1.8-1.6,2.7-2.8c0.8-1,1.4-2.3,1.8-3.6v-18.1h2.8v24.8c0,0.9,0.3,1.4,1.2,1.4v2.5
			c-0.2,0-0.3,0-0.5,0c-0.1,0-0.2,0-0.3,0c-0.7,0-1.4-0.2-2-0.7c-0.6-0.5-0.8-1-0.8-1.8v-4.3c-1.3,2.3-3,4.2-5.2,5.4
			C856.8,478.2,854.3,478.9,851.8,478.9z"/>
		<path class="st1" d="M888.3,476.9c-0.1,0.1-0.3,0.2-0.7,0.5c-0.3,0.2-0.8,0.3-1.4,0.6c-0.6,0.2-1.2,0.3-1.8,0.5
			c-0.7,0.1-1.4,0.2-2.2,0.2s-1.5-0.1-2.2-0.3c-0.7-0.2-1.3-0.6-1.8-1c-0.5-0.5-0.9-0.9-1.3-1.6s-0.5-1.4-0.5-2.2v-21.7h-3.8v-2.3h4
			v-9.8h2.8v9.8h6.7v2.3h-6.7v21c0,1,0.3,1.8,1.2,2.4c0.7,0.6,1.6,0.8,2.5,0.8c1.2,0,2.1-0.2,3-0.6s1.4-0.7,1.5-0.7L888.3,476.9z"/>
		<path class="st1" d="M893.1,443v-5.1h2.8v5.1H893.1z M893.1,478.3v-28.9h2.8v28.9H893.1z"/>
		<path class="st1" d="M916.7,478.9c-2.1,0-3.9-0.3-5.7-1.2c-1.7-0.8-3.2-1.8-4.5-3.2s-2.2-3-2.9-4.7c-0.7-1.8-1-3.7-1-5.7
			c0-2.1,0.3-3.9,1-5.8s1.7-3.3,3-4.7s2.8-2.4,4.5-3.2c1.7-0.8,3.6-1.2,5.5-1.2s3.8,0.3,5.5,1.2c1.7,0.8,3.2,1.8,4.5,3.2
			c1.3,1.4,2.3,3,3,4.7c0.7,1.8,1,3.7,1,5.8c0,2-0.3,3.9-1,5.7c-0.7,1.8-1.7,3.3-3,4.7c-1.3,1.4-2.8,2.4-4.5,3.2
			C920.5,478.4,918.6,478.9,916.7,478.9z M905.4,464.1c0,1.7,0.3,3.3,0.9,4.8c0.6,1.5,1.4,2.8,2.4,3.9c1,1.2,2.2,2,3.6,2.7
			c1.4,0.7,2.8,0.9,4.4,0.9s3-0.3,4.4-0.9c1.4-0.7,2.5-1.5,3.6-2.7c1-1.2,1.8-2.4,2.4-3.9c0.6-1.5,0.9-3.1,0.9-4.8
			c0-1.7-0.3-3.3-0.9-4.8c-0.6-1.5-1.4-2.8-2.4-3.9c-1-1.2-2.2-2.1-3.6-2.7c-1.4-0.6-2.8-1-4.4-1s-3,0.3-4.4,1
			c-1.4,0.7-2.5,1.6-3.6,2.8c-1,1.2-1.8,2.5-2.4,4C905.7,460.7,905.4,462.4,905.4,464.1z"/>
		<path class="st1" d="M961,478.3h-2.8v-16c0-3.7-0.6-6.5-1.6-8.2c-1-1.7-2.8-2.5-5-2.5c-1.3,0-2.4,0.2-3.6,0.7
			c-1.2,0.5-2.3,1-3.3,1.8c-1,0.8-2,1.7-2.8,2.9c-0.8,1-1.4,2.3-1.7,3.5v17.9h-2.8v-28.9h2.7v6.9c0.6-1.2,1.3-2.1,2.2-3
			c0.9-0.9,1.8-1.7,2.9-2.3c1-0.7,2.2-1.2,3.5-1.5c1.3-0.3,2.4-0.6,3.8-0.6c3.1,0,5.3,1.2,6.7,3.3c1.3,2.2,2,5.3,2,9.5L961,478.3
			L961,478.3z"/>
		<path class="st1" d="M978.5,478.9c-2.2,0-4.4-0.3-6.4-1.2c-2.1-0.7-3.8-1.8-5.3-3.3l1.4-1.8c1.5,1.4,3.1,2.4,4.8,3.1
			c1.6,0.7,3.5,1,5.5,1c2.5,0,4.5-0.6,6.1-1.6c1.5-1,2.3-2.5,2.3-4.4c0-0.9-0.2-1.6-0.6-2.2c-0.3-0.6-0.9-1.2-1.7-1.5
			c-0.8-0.5-1.7-0.8-2.9-1.2c-1.2-0.3-2.4-0.7-4-1c-1.6-0.3-3-0.7-4.3-1.2c-1.2-0.3-2.2-0.8-3-1.4s-1.4-1.2-1.7-1.8
			c-0.3-0.7-0.6-1.7-0.6-2.8c0-1.4,0.2-2.7,0.8-3.8c0.6-1,1.3-2,2.3-2.7c0.9-0.7,2.1-1.3,3.3-1.6c1.3-0.3,2.7-0.6,4-0.6
			c2.3,0,4.3,0.3,6,1.2s3.1,1.7,4,2.9l-1.5,1.5c-0.9-1.2-2.2-2-3.7-2.5c-1.5-0.6-3.1-0.8-4.8-0.8c-1,0-2.1,0.1-3,0.3
			c-0.9,0.2-1.7,0.6-2.4,1c-0.7,0.5-1.3,1.2-1.6,1.8c-0.5,0.8-0.6,1.6-0.6,2.7c0,0.8,0.1,1.5,0.5,2.1c0.2,0.5,0.7,0.9,1.4,1.4
			c0.6,0.3,1.4,0.7,2.3,0.9c0.9,0.2,2.1,0.6,3.5,0.9c1.8,0.5,3.5,0.9,4.8,1.3c1.4,0.5,2.5,0.9,3.5,1.5s1.6,1.3,2.2,2.1
			c0.5,0.8,0.7,1.8,0.7,3.1c0,2.5-1,4.6-3,6.2C984.6,478.1,981.8,478.9,978.5,478.9z"/>
	</g>
</g>
<g>
	<path class="st1" d="M539.8,30.3c-6.2,2.3-10.3,6.6-12.5,12.8c-2.2,6.2-3.3,16.2-3.3,29.9v270.8c0,13.7,1.1,23.6,3.4,29.9
		c2.3,6.2,6.5,10.5,12.7,12.8s16,3.7,29.6,4.3v10.9c-25.1-1.1-60.8-1.6-107.2-1.6c-51.8,0-89.9,0.5-114.4,1.6v-10.9
		c13.8-0.5,23.8-2,29.9-4.3c6.2-2.3,10.3-6.6,12.5-12.8c2.2-6.2,3.3-16.2,3.3-29.9V72.9c0-13.7-1.2-23.6-3.4-29.9
		c-2.3-6.2-6.5-10.5-12.7-12.8s-16-3.7-29.6-4.3V15.1c24.4,1.1,62.6,1.6,114.4,1.6c46.4,0,82.1-0.5,107.2-1.6V26
		C556,26.6,546,28,539.8,30.3z"/>
</g>
<g>
	<path class="st1" d="M747.9,331.8c-4.3-7.5-8-15.5-10.9-23.7c-2.9-8.3-4.9-16.8-6.1-25.5c-1.2-8.7-1.5-17.5-0.8-26.3
		c0.2-2.2,0.4-4.4,0.6-6.5c0.3-2.2,0.6-4.3,0.9-6.5c0.5-2.1,0.8-4.3,1.3-6.4c0.6-2.1,1-4.3,1.7-6.4c4.8-17,13.3-32.9,24.5-46.6
		c1-1.2,2-2.3,3-3.5c-1.8-1.3-3.6-2.5-5.5-3.8c-30.4-20.9-51-35.4-61.8-43.7c-10.8-8.2-19.2-17-25.4-26.3
		c-6.1-9.3-9.2-20.4-9.2-33.4c0-15.8,5.2-28.1,15.5-36.8c10.3-8.8,23.8-13.2,40.3-13.2c18.2,0,34.2,5.9,48,17.6
		c13.9,11.8,24.9,27,33,45.8s12.9,38.4,14.3,58.9h0.4c4-1.6,8-3,12.2-4.2c0-59.7,0.9-102.1,2.7-127.3H814c-1.1,8.2-2.5,14.2-4.3,18
		s-4.4,5.7-7.7,5.7c-2.3,0-4.7-0.6-7.2-1.7s-6.3-3.1-11.5-5.9c-12.1-6.7-24.6-11.9-37.6-15.8s-30-5.8-51-5.8
		c-24.6,0-47.1,3.7-67.5,11c-20.5,7.4-36.9,18.7-49.3,34.1c-12.4,15.3-18.6,34.2-18.6,56.7c0,18.6,4.2,35,12.7,49.3
		s19.1,26.8,32,37.5c12.9,10.7,30.4,23.3,52.5,37.9c18.2,11.9,32.7,22.6,43.8,32c11,9.4,19.8,19.7,26.3,31s9.7,24.1,9.7,38.3
		c0,16.5-5.9,29.4-17.6,38.7c-11.7,9.3-27.8,13.9-48,13.9c-32.6,0-56.7-13.3-72.3-40c-15.7-26.7-24.6-61.3-27-103.9h-12.5
		c0,76.8-0.8,128.9-2.4,156.2H569c1.2-8.4,2.8-14.5,4.5-18.1c1.8-3.7,4.4-5.5,7.7-5.5c4.1,0,10.2,2.5,18.4,7.6
		c12.8,6.1,26.6,11,41.2,14.6c14.7,3.6,33.2,5.4,55.7,5.4c27.6,0,52.6-3.9,75-11.8c9.2-3.2,17.6-7.1,25.2-11.7
		c-5.4-3.2-10.5-6.7-15.3-10.6C768.1,360,756.6,346.8,747.9,331.8z"/>
	<g>
		<g>
			<linearGradient id="SVGID_1_" gradientUnits="userSpaceOnUse" x1="734.7354" y1="226.2104" x2="937.393" y2="226.2104">
				<stop  offset="0" style="stop-color:#FFFFFF"/>
				<stop  offset="0.3704" style="stop-color:#969696"/>
				<stop  offset="0.6776" style="stop-color:#454545"/>
				<stop  offset="0.8938" style="stop-color:#131313"/>
				<stop  offset="1" style="stop-color:#000000"/>
			</linearGradient>
			<linearGradient id="SVGID_2_" gradientUnits="userSpaceOnUse" x1="733.8151" y1="225.9543" x2="938.3133" y2="225.9543">
				<stop  offset="0" style="stop-color:#FFFFFF;stop-opacity:0"/>
				<stop  offset="0.3706" style="stop-color:#969696;stop-opacity:0.3706"/>
				<stop  offset="0.6777" style="stop-color:#454545;stop-opacity:0.6777"/>
				<stop  offset="0.8938" style="stop-color:#131313;stop-opacity:0.8938"/>
				<stop  offset="1" style="stop-color:#000000"/>
			</linearGradient>
			<path class="st2" d="M855.7,132.6c-0.1,0.1-0.3,0.3-0.5,0.4c29.4,1,77.7,30.2,61.3,60.2c-21.8,39.9-95.8,63.7-120.1,73.2
				c-54.3,21.1-62.6,27.4-61.6,34.4l0.3,0.8c2.3,5.6,5.6,12.9,8.2,18.3c-2.3-7.4,10.4-12.9,50.9-29.1
				c30.8-12.3,124.8-45.2,140.9-92.8C951.3,150.3,875,132.7,855.7,132.6z"/>
			<linearGradient id="SVGID_3_" gradientUnits="userSpaceOnUse" x1="792.712" y1="294.5563" x2="989.8881" y2="294.5563">
				<stop  offset="0" style="stop-color:#FFFFFF"/>
				<stop  offset="0.3706" style="stop-color:#969696"/>
				<stop  offset="0.6777" style="stop-color:#454545"/>
				<stop  offset="0.8938" style="stop-color:#131313"/>
				<stop  offset="1" style="stop-color:#000000"/>
			</linearGradient>
			<linearGradient id="SVGID_4_" gradientUnits="userSpaceOnUse" x1="791.6725" y1="295.2863" x2="990.8084" y2="295.2863">
				<stop  offset="0" style="stop-color:#FFFFFF;stop-opacity:0"/>
				<stop  offset="0.3706" style="stop-color:#969696;stop-opacity:0.3706"/>
				<stop  offset="0.6777" style="stop-color:#454545;stop-opacity:0.6777"/>
				<stop  offset="0.8938" style="stop-color:#131313;stop-opacity:0.8938"/>
				<stop  offset="1" style="stop-color:#000000"/>
			</linearGradient>
			<path class="st3" d="M989.2,238.7c-2.8-12.9-3.7-16.9-6.4-24.6l-4.4-9.1C1011,294.9,849.9,354.6,816.9,365
				c-14,4.4-21.9,8-24.2,10.4c0.2,0.5,0.4,1.4,0.8,1.7c8.7,4.4,9.2,4.7,14.1,6.6l0.9,0.4c-0.2-0.3-0.4-0.6-0.5-0.9
				c2.9-1.6,3.1-1.7,11.3-4.1c72.4-20.9,108.8-44,129.6-60.9C968.9,301.9,994.5,273.5,989.2,238.7z"/>
			<linearGradient id="SVGID_5_" gradientUnits="userSpaceOnUse" x1="757.6617" y1="252.0589" x2="972.1944" y2="252.0589">
				<stop  offset="0" style="stop-color:#FFFFFF"/>
				<stop  offset="0.3706" style="stop-color:#969696"/>
				<stop  offset="0.6777" style="stop-color:#454545"/>
				<stop  offset="0.8938" style="stop-color:#131313"/>
				<stop  offset="1" style="stop-color:#000000"/>
			</linearGradient>
			<linearGradient id="SVGID_6_" gradientUnits="userSpaceOnUse" x1="756.7415" y1="252.0057" x2="973.1147" y2="252.0057">
				<stop  offset="0" style="stop-color:#FFFFFF;stop-opacity:0"/>
				<stop  offset="0.3706" style="stop-color:#969696;stop-opacity:0.3706"/>
				<stop  offset="0.6777" style="stop-color:#454545;stop-opacity:0.6777"/>
				<stop  offset="0.8938" style="stop-color:#131313;stop-opacity:0.8938"/>
				<stop  offset="1" style="stop-color:#000000"/>
			</linearGradient>
			<path class="st4" d="M803.3,342c104.4-36,212.4-98.5,151.1-168.3c-2.3-2.3-5.4-5.5-7.8-7.8c-9.1-8.2-18.3-13.8-26.5-18.4
				c-3.7-1.8-4.2-1.9-6.3-3.1c99.8,59.4,1.7,136.1-115.6,179c-33.6,12.2-43.1,17.3-39.7,22.8c3.1,3.3,7.3,7.6,10.6,10.7l3.3,2.8
				C768.8,355.6,775.4,351.6,803.3,342z"/>
		</g>
		<g>
			<linearGradient id="SVGID_7_" gradientUnits="userSpaceOnUse" x1="877.2633" y1="219.0788" x2="900.0655" y2="166.8022">
				<stop  offset="0" style="stop-color:#FFFFFF;stop-opacity:0"/>
				<stop  offset="0.2653" style="stop-color:#AEAEAE;stop-opacity:0.2653"/>
				<stop  offset="0.5304" style="stop-color:#646464;stop-opacity:0.5304"/>
				<stop  offset="0.7487" style="stop-color:#2E2E2E;stop-opacity:0.7487"/>
				<stop  offset="0.9113" style="stop-color:#0D0D0D;stop-opacity:0.9113"/>
				<stop  offset="1" style="stop-color:#000000"/>
			</linearGradient>
			<path class="st5" d="M898.3,227.1c5.5-3.8,10.6-8.1,15.1-13c4.4-4.9,8.1-10.5,10.1-16.7c2.1-6.2,2.5-12.9,1.2-19.3
				c-1.2-6.5-3.8-12.7-7.8-17.9c-4-5.3-9.2-9.6-14.9-13.1c-5.7-3.5-11.9-6.3-18.2-8.6c-3.2-1.2-6.4-2.2-9.6-3.2
				c-3.2-1,6.7,1.2,10,2.3c6.5,2.1,12.9,4.6,18.9,8c6,3.4,11.5,7.7,15.9,13.2c4.4,5.4,7.3,12,8.7,18.9c0.7,3.4,1.1,7,0.9,10.5
				c-0.2,3.5-0.8,7-1.9,10.4c-2.1,6.7-6,12.8-10.6,18c-4.6,5.2-10,9.7-15.6,13.6C894.7,234,892.8,230.9,898.3,227.1z"/>
			<linearGradient id="SVGID_8_" gradientUnits="userSpaceOnUse" x1="896.2791" y1="229.8206" x2="964.0986" y2="229.8206">
				<stop  offset="0" style="stop-color:#FFFFFF;stop-opacity:0"/>
				<stop  offset="0.2653" style="stop-color:#AEAEAE;stop-opacity:0.2653"/>
				<stop  offset="0.5304" style="stop-color:#646464;stop-opacity:0.5304"/>
				<stop  offset="0.7487" style="stop-color:#2E2E2E;stop-opacity:0.7487"/>
				<stop  offset="0.9113" style="stop-color:#0D0D0D;stop-opacity:0.9113"/>
				<stop  offset="1" style="stop-color:#000000"/>
			</linearGradient>
			<path class="st6" d="M948.5,169.8c6,5.9,10.4,12.9,13,20.5c1.3,3.8,2,7.7,2.4,11.6c0.4,3.9,0.3,7.8-0.1,11.7
				c-0.8,7.8-3.2,15.5-6.4,22.8c-3.3,7.3-7.7,14.3-13,20.8c-2.7,3.2-5.7,6.4-9,9.3c-3.3,2.9-6.7,5.6-10.3,8.1
				c-7.2,5-14.8,9.7-22.8,13.7c-7.9,4.1-7-1.8-3.3-4c7.4-4.4,14.6-9,21.3-14.1c6.7-5,12.7-10.5,17.7-16.5c5-6.1,9.2-12.7,12.6-19.5
				c3.4-6.8,5.9-14,7.3-21.2c1.3-7.3,1.5-14.7,0-22.1C956.3,183.6,953.1,176.5,948.5,169.8z"/>
			<linearGradient id="SVGID_9_" gradientUnits="userSpaceOnUse" x1="893.8366" y1="289.3213" x2="986.3398" y2="289.3213">
				<stop  offset="0" style="stop-color:#FFFFFF;stop-opacity:0"/>
				<stop  offset="0.2653" style="stop-color:#AEAEAE;stop-opacity:0.2653"/>
				<stop  offset="0.5304" style="stop-color:#646464;stop-opacity:0.5304"/>
				<stop  offset="0.7487" style="stop-color:#2E2E2E;stop-opacity:0.7487"/>
				<stop  offset="0.9113" style="stop-color:#0D0D0D;stop-opacity:0.9113"/>
				<stop  offset="1" style="stop-color:#000000"/>
			</linearGradient>
			<path class="st7" d="M986.3,233.7c-0.6,4,0.1,7.9-0.2,12c-0.3,4-0.9,8-1.8,12c-0.2,1-0.5,2-0.8,2.9c-0.3,1-0.5,2-0.8,2.9
				c-0.6,1.9-1.2,3.9-2,5.8c-1.4,3.8-3.2,7.5-5.1,11.1c-0.9,1.8-2,3.5-3,5.3c-1.1,1.7-2.2,3.4-3.4,5.1c-2.3,3.3-4.9,6.5-7.6,9.6
				c-5.4,6.1-11.3,11.6-17.7,16.7c-12.7,10.1-26.6,18.3-41,25.2c-14.4,7-9.2-0.6-2.3-4.5c13.8-7.7,27.1-16,39.3-25.8
				c12.2-9.7,23.1-21,31.3-34.1c1.1-1.6,2-3.3,2.9-5c0.9-1.7,1.8-3.4,2.6-5.2c0.9-1.7,1.6-3.5,2.4-5.3c0.7-1.8,1.4-3.6,2-5.5
				c1.3-3.7,2.3-7.5,3.1-11.3C985.2,241.6,985,237.5,986.3,233.7z"/>
		</g>
		<g>
			<linearGradient id="SVGID_10_" gradientUnits="userSpaceOnUse" x1="776.3448" y1="370.4828" x2="948.8711" y2="162.1141">
				<stop  offset="0" style="stop-color:#FFFFFF;stop-opacity:0"/>
				<stop  offset="0.3434" style="stop-color:#AAAAAA;stop-opacity:0.3434"/>
				<stop  offset="1" style="stop-color:#000000"/>
			</linearGradient>
			<path class="st8" d="M738.1,219.8c3-8.1,6.8-15.9,11.2-23.3c4.4-7.4,9.6-14.4,15.3-20.9c11.5-13,25.6-23.8,41.3-31.6
				c7.9-3.8,16.1-7,24.7-9.1c2.1-0.5,4.3-1,6.4-1.5c2.2-0.4,4.3-0.8,6.5-1.2c2.2-0.3,4.4-0.6,6.6-0.8c2.2-0.1,4.4-0.4,6.6-0.5
				c17.6-0.8,35.4,2.2,51.9,8.5c8.2,3.2,16.1,7.2,23.5,11.9c7.4,4.8,14.3,10.2,20.6,16.3c6.3,6.1,12,12.8,16.9,19.9
				c5,7.1,9.3,14.7,12.9,22.7c7.1,15.8,11.3,33,12.1,50.4c0,2.2,0.2,4.3,0.1,6.5c-0.1,2.2,0,4.4-0.2,6.5c-0.2,2.2-0.2,4.3-0.5,6.5
				c-0.3,2.2-0.4,4.3-0.8,6.5c-1.2,8.6-3.3,17.1-6.2,25.4c-5.8,16.5-14.8,32-26.6,45c-11.8,13.1-26.3,23.7-42.3,31.2
				c-16,7.5-33.5,11.8-51.2,12.6c-8.9,0.4-17.8-0.1-26.5-1.5c-8.8-1.4-17.4-3.7-25.7-6.8c-16.6-6.3-32-15.7-44.8-28
				c-1.6-1.5-3.1-3.1-4.7-4.7c-1.5-1.6-3-3.3-4.4-4.9c-1.4-1.7-2.8-3.4-4.2-5.2c-1.3-1.7-2.6-3.6-3.9-5.3c-5-7.2-9.2-15-12.7-23.1
				c-3.4-8.1-6.1-16.5-7.8-25c-1.8-8.5-2.7-17.2-2.9-25.9c-0.1-8.7,0.5-17.3,2-25.9C732.8,236.2,735.1,227.8,738.1,219.8z
				 M738.8,220c-2.9,8.1-5.1,16.4-6.4,24.9c-1.2,8.5-1.7,17.1-1.1,25.6c1,17.1,5.6,33.8,13.1,49c3.7,7.6,8.3,14.8,13.3,21.5
				c1.3,1.6,2.6,3.3,3.9,4.9c1.4,1.6,2.7,3.2,4.2,4.7c1.5,1.5,2.8,3.1,4.3,4.5c1.5,1.4,3,2.9,4.6,4.3c6.2,5.6,12.9,10.6,20.1,15
				c7.2,4.3,14.7,8,22.6,10.8c7.9,2.9,16,5,24.2,6.4c8.2,1.3,16.6,1.9,25,1.6c16.7-0.5,33.3-4.3,48.6-11.2
				c15.3-6.9,29.2-16.8,40.9-28.9c5.8-6.1,11.1-12.7,15.6-19.8c4.6-7.1,8.4-14.7,11.5-22.6c3.1-7.9,5.4-16.1,6.9-24.5
				c0.4-2.1,0.6-4.2,1-6.3c0.3-2.1,0.4-4.2,0.7-6.4c0.2-2.1,0.2-4.3,0.3-6.4c0.1-2.1,0-4.3,0-6.4c-0.5-17.1-4.5-34-11.7-49.5
				c-3.6-7.7-8-15.1-13.1-21.9c-5.1-6.8-10.9-13.1-17.2-18.7c-12.7-11.3-27.5-19.9-43.4-25.5c-7.9-2.8-16.1-4.9-24.4-6.2
				c-8.3-1.3-16.7-1.8-25.1-1.6c-2.1,0-4.2,0.2-6.3,0.3c-2.1,0.1-4.2,0.4-6.3,0.7c-2.1,0.2-4.2,0.6-6.2,0.9
				c-2.1,0.3-4.1,0.8-6.2,1.2c-8.2,1.8-16.3,4.4-24.1,7.7c-15.6,6.6-30,16.3-41.9,28.6c-6,6.1-11.3,12.9-15.9,20.2
				C745.6,204.2,741.9,212,738.8,220z"/>
		</g>
	</g>
</g>
<g>
	<path class="st1" d="M343.9,376.3c-2-5-5-7.5-8.9-7.5c-2.8,0-6.5,1.5-11.1,4.5c-10.8,7.6-20.7,13.8-29.8,18.7
		c-9.1,4.9-19.4,8.8-31.1,11.9c-11.6,3.1-24.8,4.6-39.4,4.6c-40.9,0-76.7-7.8-107.4-23.3s-54.5-38.1-71.4-67.6
		c-17-29.6-25.5-64.7-25.5-105.5c0-39.9,8.7-75.1,26.1-105.8s41.5-54.5,72.5-71.4S184.3,9.5,224.1,9.5c21.5,0,39.9,3.1,55.2,9.3
		c15.3,6.2,30.1,14.8,44.6,25.9c4.1,3.2,7.6,4.8,10.6,4.8c7.4,0,12-10.8,13.8-32.3h12.4c-1.4,25.6-2.1,70.7-2.1,135.5h-12.4
		c-1.8-19.2-4.3-35.3-7.5-48.3c-3.3-13-8.2-24.6-15-34.9c-6.7-10.3-15.9-19.3-27.5-26.9c-16.6-10.8-33.3-16.1-50.3-16.1
		c-25.9,0-46.4,9.1-61.5,27.4s-25.6,41.1-31.5,68.4s-8.9,56.6-8.9,87.9s3,60.5,8.9,87.9c5.9,27.3,16.4,50.1,31.5,68.4
		s35.6,27.4,61.5,27.4c16.9,0,33.7-5.4,50.3-16.1c11.6-7.2,20.8-16.1,27.5-26.7s11.7-23,15-37.2s5.8-32.1,7.5-53.6h12.4
		c0,67.2,0.7,114.1,2.1,140.8h-12.4C347.3,389.5,345.9,381.4,343.9,376.3z"/>
</g>
</svg>
