<?xml version="1.0" encoding="utf-8"?>
<!-- Generator: Adobe Illustrator 21.0.2, SVG Export Plug-In . SVG Version: 6.00 Build 0)  -->
<svg version="1.1" id="Layer_1" xmlns="http://www.w3.org/2000/svg" xmlns:xlink="http://www.w3.org/1999/xlink" x="0px" y="0px"
	 viewBox="0 0 1007.8 543.4" style="enable-background:new 0 0 1007.8 543.4;" xml:space="preserve">
<style type="text/css">
	.st0{enable-background:new    ;}
</style>
<g class="st0">
	<path d="M93.9,507.1c0-2,0.4-4.1,1.1-6.1c0.7-2,1.8-3.8,3.1-5.4c1.4-1.6,3.1-2.9,5.1-3.9c2-1,4.3-1.5,6.8-1.5c3,0,5.6,0.7,7.8,2.1
		c2.1,1.4,3.7,3.2,4.8,5.4l-2,1.2c-0.6-1.2-1.3-2.2-2.1-3c-0.8-0.8-1.7-1.4-2.6-1.9c-0.9-0.5-1.9-0.9-3-1.1c-1-0.2-2-0.3-3-0.3
		c-2.2,0-4.1,0.4-5.8,1.3c-1.7,0.9-3.1,2-4.2,3.4s-2,3-2.6,4.8c-0.6,1.8-0.9,3.6-0.9,5.4c0,2,0.4,3.9,1.1,5.8
		c0.7,1.8,1.7,3.4,2.9,4.8c1.2,1.4,2.7,2.5,4.3,3.3c1.7,0.8,3.5,1.2,5.4,1.2c1,0,2.1-0.1,3.2-0.4c1.1-0.3,2.1-0.7,3.1-1.2
		c1-0.5,1.9-1.2,2.8-2.1c0.9-0.8,1.6-1.8,2.2-3l2.1,1c-0.6,1.3-1.4,2.4-2.4,3.4c-1,1-2.1,1.8-3.3,2.5c-1.2,0.7-2.5,1.2-3.9,1.5
		c-1.4,0.3-2.7,0.5-4,0.5c-2.3,0-4.5-0.5-6.4-1.5c-1.9-1-3.6-2.4-5-4c-1.4-1.6-2.5-3.5-3.3-5.6C94.3,511.4,93.9,509.3,93.9,507.1z"
		/>
	<path d="M139.1,524.9c-1.8,0-3.4-0.3-4.9-1c-1.5-0.7-2.8-1.6-3.9-2.8c-1.1-1.2-1.9-2.6-2.5-4.1c-0.6-1.6-0.9-3.2-0.9-4.9
		c0-1.8,0.3-3.4,0.9-5c0.6-1.6,1.5-2.9,2.6-4.1c1.1-1.2,2.4-2.1,3.9-2.8c1.5-0.7,3.1-1,4.8-1s3.3,0.3,4.8,1c1.5,0.7,2.8,1.6,3.9,2.8
		s2,2.6,2.6,4.1c0.6,1.6,0.9,3.2,0.9,5c0,1.7-0.3,3.4-0.9,4.9c-0.6,1.6-1.5,2.9-2.6,4.1c-1.1,1.2-2.4,2.1-3.9,2.8
		C142.4,524.5,140.8,524.9,139.1,524.9z M129.3,512.1c0,1.5,0.3,2.9,0.8,4.2c0.5,1.3,1.2,2.4,2.1,3.4c0.9,1,1.9,1.7,3.1,2.3
		c1.2,0.6,2.4,0.8,3.8,0.8c1.3,0,2.6-0.3,3.8-0.8c1.2-0.6,2.2-1.3,3.1-2.3c0.9-1,1.6-2.1,2.1-3.4c0.5-1.3,0.8-2.7,0.8-4.2
		c0-1.5-0.3-2.9-0.8-4.2c-0.5-1.3-1.2-2.4-2.1-3.4c-0.9-1-1.9-1.8-3.1-2.3c-1.2-0.6-2.4-0.9-3.8-0.9c-1.3,0-2.6,0.3-3.8,0.9
		c-1.2,0.6-2.2,1.4-3.1,2.4c-0.9,1-1.6,2.2-2.1,3.5C129.6,509.2,129.3,510.6,129.3,512.1z"/>
	<path d="M193.7,524.4h-2.4v-13.9c0-3.2-0.5-5.5-1.5-7s-2.5-2.3-4.5-2.3c-1,0-2,0.2-2.9,0.6c-0.9,0.4-1.8,0.9-2.5,1.6
		c-0.8,0.7-1.4,1.5-2,2.4c-0.6,0.9-1,2-1.3,3.1v15.4h-2.4v-13.9c0-3.2-0.5-5.5-1.4-7s-2.4-2.2-4.5-2.2c-1,0-2,0.2-2.9,0.6
		c-0.9,0.4-1.8,0.9-2.5,1.6c-0.8,0.7-1.4,1.5-2,2.4c-0.6,0.9-1,2-1.4,3.1v15.5h-2.4v-25h2.3v6c1-2,2.4-3.6,4-4.7
		c1.7-1.1,3.5-1.7,5.5-1.7c2.1,0,3.8,0.6,5.1,1.9c1.3,1.2,2.1,2.9,2.4,4.9c2.4-4.5,5.6-6.8,9.8-6.8c2.7,0,4.7,1,5.8,2.9
		c1.2,1.9,1.8,4.6,1.8,8.1V524.4z"/>
	<path d="M213.2,524.9c-2.1,0-4.1-0.6-5.7-1.7c-1.7-1.1-3-2.5-4.1-4.2v15.6H201v-35.2h2.2v5c1-1.6,2.4-2.9,4.1-3.9
		c1.7-1,3.5-1.5,5.4-1.5c1.7,0,3.3,0.4,4.8,1.1c1.5,0.7,2.7,1.7,3.8,2.9s1.9,2.6,2.5,4.2c0.6,1.6,0.9,3.2,0.9,4.8
		c0,1.7-0.3,3.4-0.8,4.9c-0.5,1.6-1.3,2.9-2.3,4.1c-1,1.2-2.2,2.1-3.6,2.8C216.4,524.5,214.9,524.9,213.2,524.9z M212.6,522.7
		c1.4,0,2.8-0.3,3.9-0.9c1.2-0.6,2.2-1.4,3-2.4c0.8-1,1.5-2.2,1.9-3.5c0.4-1.3,0.7-2.6,0.7-4c0-1.4-0.3-2.8-0.8-4.1
		c-0.5-1.3-1.2-2.4-2.1-3.4c-0.9-1-2-1.8-3.2-2.4c-1.2-0.6-2.5-0.9-3.9-0.9c-0.9,0-1.8,0.2-2.8,0.6c-1,0.4-1.9,0.9-2.8,1.5
		c-0.9,0.6-1.6,1.3-2.2,2.1c-0.6,0.8-1,1.6-1.1,2.5v8.2c0.4,0.9,0.9,1.8,1.6,2.6c0.6,0.8,1.4,1.5,2.2,2.1c0.8,0.6,1.7,1.1,2.6,1.4
		C210.6,522.5,211.6,522.7,212.6,522.7z"/>
	<path d="M242.2,501.6c-2.2,0.1-4.2,0.7-5.9,2c-1.7,1.3-2.9,3-3.5,5.2v15.6h-2.4v-25h2.3v6.1c0.9-1.8,2-3.2,3.4-4.3
		c1.4-1.1,3-1.7,4.6-1.9c0.3,0,0.6,0,0.9,0c0.3,0,0.5,0,0.6,0V501.6z"/>
	<path d="M256.1,524.9c-1.8,0-3.4-0.3-4.9-1c-1.5-0.7-2.8-1.6-3.9-2.8s-2-2.6-2.6-4.2c-0.6-1.6-0.9-3.2-0.9-5c0-1.8,0.3-3.4,0.9-5
		c0.6-1.6,1.5-2.9,2.6-4.1c1.1-1.2,2.4-2.1,3.9-2.8c1.5-0.7,3.1-1,4.8-1c1.8,0,3.4,0.3,4.9,1c1.5,0.7,2.8,1.6,3.9,2.8
		c1.1,1.2,1.9,2.5,2.5,4.1c0.6,1.6,0.9,3.2,0.9,4.9c0,0.2,0,0.4,0,0.6c0,0.2,0,0.4,0,0.5h-21.9c0.1,1.4,0.4,2.8,1,4
		c0.6,1.2,1.3,2.3,2.2,3.2c0.9,0.9,1.9,1.6,3,2.1c1.2,0.5,2.4,0.8,3.7,0.8c0.9,0,1.7-0.1,2.5-0.4c0.8-0.2,1.6-0.6,2.3-1
		c0.7-0.4,1.4-0.9,1.9-1.5c0.6-0.6,1-1.2,1.3-1.9l2.1,0.6c-0.4,0.9-0.9,1.7-1.6,2.5c-0.7,0.8-1.5,1.4-2.4,1.9c-0.9,0.5-1.9,1-3,1.3
		C258.3,524.7,257.2,524.9,256.1,524.9z M265.9,511c-0.1-1.5-0.4-2.8-1-4c-0.6-1.2-1.3-2.3-2.2-3.1c-0.9-0.9-1.9-1.6-3-2.1
		c-1.2-0.5-2.4-0.7-3.7-0.7c-1.3,0-2.5,0.2-3.7,0.7s-2.2,1.2-3,2.1c-0.9,0.9-1.6,1.9-2.1,3.2c-0.5,1.2-0.8,2.6-0.9,4H265.9z"/>
	<path d="M293.9,524.4h-2.4v-13.9c0-6.2-2.1-9.3-6.2-9.3c-1,0-2,0.2-3,0.6c-1,0.4-1.9,0.9-2.7,1.6c-0.8,0.7-1.6,1.5-2.2,2.5
		c-0.6,0.9-1.1,2-1.4,3v15.5h-2.4v-35h2.4v16c1-2,2.4-3.5,4.2-4.7c1.8-1.2,3.8-1.7,5.8-1.7c1.4,0,2.6,0.3,3.6,0.8
		c1,0.5,1.8,1.2,2.5,2.2c0.7,1,1.1,2.1,1.4,3.5c0.3,1.4,0.5,2.9,0.5,4.6V524.4z"/>
	<path d="M311.7,524.9c-1.8,0-3.4-0.3-4.9-1c-1.5-0.7-2.8-1.6-3.9-2.8s-2-2.6-2.6-4.2c-0.6-1.6-0.9-3.2-0.9-5c0-1.8,0.3-3.4,0.9-5
		c0.6-1.6,1.5-2.9,2.6-4.1c1.1-1.2,2.4-2.1,3.9-2.8c1.5-0.7,3.1-1,4.8-1c1.8,0,3.4,0.3,4.9,1c1.5,0.7,2.8,1.6,3.9,2.8
		c1.1,1.2,1.9,2.5,2.5,4.1c0.6,1.6,0.9,3.2,0.9,4.9c0,0.2,0,0.4,0,0.6c0,0.2,0,0.4,0,0.5h-21.9c0.1,1.4,0.4,2.8,1,4
		c0.6,1.2,1.3,2.3,2.2,3.2c0.9,0.9,1.9,1.6,3,2.1c1.2,0.5,2.4,0.8,3.7,0.8c0.9,0,1.7-0.1,2.5-0.4c0.8-0.2,1.6-0.6,2.3-1
		c0.7-0.4,1.4-0.9,1.9-1.5c0.6-0.6,1-1.2,1.3-1.9l2.1,0.6c-0.4,0.9-0.9,1.7-1.6,2.5c-0.7,0.8-1.5,1.4-2.4,1.9c-0.9,0.5-1.9,1-3,1.3
		C314,524.7,312.9,524.9,311.7,524.9z M321.5,511c-0.1-1.5-0.4-2.8-1-4c-0.6-1.2-1.3-2.3-2.2-3.1c-0.9-0.9-1.9-1.6-3-2.1
		c-1.2-0.5-2.4-0.7-3.7-0.7c-1.3,0-2.5,0.2-3.7,0.7s-2.2,1.2-3,2.1c-0.9,0.9-1.6,1.9-2.1,3.2c-0.5,1.2-0.8,2.6-0.9,4H321.5z"/>
	<path d="M349.5,524.4h-2.4v-13.9c0-3.2-0.5-5.6-1.4-7.1s-2.4-2.2-4.3-2.2c-1.1,0-2.1,0.2-3.1,0.6c-1,0.4-2,0.9-2.9,1.6
		c-0.9,0.7-1.7,1.5-2.4,2.5c-0.7,0.9-1.2,2-1.5,3v15.5h-2.4v-25h2.3v6c0.5-1,1.1-1.8,1.9-2.6c0.8-0.8,1.6-1.5,2.5-2
		c0.9-0.6,1.9-1,3-1.3c1.1-0.3,2.1-0.5,3.3-0.5c2.7,0,4.6,1,5.8,2.9c1.1,1.9,1.7,4.6,1.7,8.2V524.4z"/>
	<path d="M364.7,524.9c-1.9,0-3.8-0.3-5.5-1c-1.8-0.6-3.3-1.6-4.6-2.9l1.2-1.6c1.3,1.2,2.7,2.1,4.2,2.7c1.4,0.6,3,0.9,4.8,0.9
		c2.2,0,3.9-0.5,5.3-1.4c1.3-0.9,2-2.2,2-3.8c0-0.8-0.2-1.4-0.5-1.9c-0.3-0.5-0.8-1-1.5-1.3c-0.7-0.4-1.5-0.7-2.5-1
		c-1-0.3-2.1-0.6-3.5-0.9c-1.4-0.3-2.6-0.6-3.7-1c-1-0.3-1.9-0.7-2.6-1.2s-1.2-1-1.5-1.6c-0.3-0.6-0.5-1.5-0.5-2.4
		c0-1.2,0.2-2.3,0.7-3.3c0.5-0.9,1.1-1.7,2-2.3c0.8-0.6,1.8-1.1,2.9-1.4c1.1-0.3,2.3-0.5,3.5-0.5c2,0,3.7,0.3,5.2,1
		c1.5,0.7,2.7,1.5,3.5,2.5l-1.3,1.3c-0.8-1-1.9-1.7-3.2-2.2c-1.3-0.5-2.7-0.7-4.2-0.7c-0.9,0-1.8,0.1-2.6,0.3
		c-0.8,0.2-1.5,0.5-2.1,0.9c-0.6,0.4-1.1,1-1.4,1.6c-0.4,0.7-0.5,1.4-0.5,2.3c0,0.7,0.1,1.3,0.4,1.8c0.2,0.4,0.6,0.8,1.2,1.2
		c0.5,0.3,1.2,0.6,2,0.8c0.8,0.2,1.8,0.5,3,0.8c1.6,0.4,3,0.8,4.2,1.1c1.2,0.4,2.2,0.8,3,1.3c0.8,0.5,1.4,1.1,1.9,1.8
		c0.4,0.7,0.6,1.6,0.6,2.7c0,2.2-0.9,4-2.6,5.4C369.9,524.2,367.6,524.9,364.7,524.9z"/>
	<path d="M379.8,493.8v-4.4h2.4v4.4H379.8z M379.8,524.4v-25h2.4v25H379.8z"/>
	<path d="M397.4,524.4l-10.4-25h2.5l9.2,22.6l9.3-22.6h2.4l-10.4,25H397.4z"/>
	<path d="M424.8,524.9c-1.8,0-3.4-0.3-4.9-1c-1.5-0.7-2.8-1.6-3.9-2.8c-1.1-1.2-2-2.6-2.6-4.2c-0.6-1.6-0.9-3.2-0.9-5
		c0-1.8,0.3-3.4,0.9-5c0.6-1.6,1.5-2.9,2.6-4.1c1.1-1.2,2.4-2.1,3.9-2.8c1.5-0.7,3.1-1,4.8-1c1.8,0,3.4,0.3,4.9,1
		c1.5,0.7,2.8,1.6,3.9,2.8c1.1,1.2,1.9,2.5,2.5,4.1c0.6,1.6,0.9,3.2,0.9,4.9c0,0.2,0,0.4,0,0.6c0,0.2,0,0.4,0,0.5H415
		c0.1,1.4,0.4,2.8,1,4c0.6,1.2,1.3,2.3,2.2,3.2c0.9,0.9,1.9,1.6,3,2.1c1.2,0.5,2.4,0.8,3.7,0.8c0.9,0,1.7-0.1,2.5-0.4
		c0.8-0.2,1.6-0.6,2.3-1c0.7-0.4,1.4-0.9,1.9-1.5c0.6-0.6,1-1.2,1.3-1.9l2.1,0.6c-0.4,0.9-0.9,1.7-1.6,2.5c-0.7,0.8-1.5,1.4-2.4,1.9
		c-0.9,0.5-1.9,1-3,1.3S426,524.9,424.8,524.9z M434.6,511c-0.1-1.5-0.4-2.8-1-4c-0.6-1.2-1.3-2.3-2.2-3.1c-0.9-0.9-1.9-1.6-3-2.1
		c-1.2-0.5-2.4-0.7-3.7-0.7c-1.3,0-2.5,0.2-3.7,0.7c-1.2,0.5-2.2,1.2-3,2.1c-0.9,0.9-1.6,1.9-2.1,3.2c-0.5,1.2-0.8,2.6-0.9,4H434.6z
		"/>
	<path d="M455.3,524.4v-34.1h2.4v34.1H455.3z"/>
	<path d="M502.6,524.4h-2.4v-13.9c0-3.2-0.5-5.5-1.5-7c-1-1.5-2.5-2.3-4.5-2.3c-1,0-2,0.2-2.9,0.6c-0.9,0.4-1.8,0.9-2.5,1.6
		c-0.8,0.7-1.4,1.5-2,2.4c-0.6,0.9-1,2-1.3,3.1v15.4h-2.4v-13.9c0-3.2-0.5-5.5-1.4-7s-2.4-2.2-4.5-2.2c-1,0-2,0.2-2.9,0.6
		c-0.9,0.4-1.8,0.9-2.5,1.6c-0.8,0.7-1.4,1.5-2,2.4s-1,2-1.4,3.1v15.5h-2.4v-25h2.3v6c1-2,2.4-3.6,4-4.7c1.7-1.1,3.5-1.7,5.5-1.7
		c2.1,0,3.8,0.6,5.1,1.9c1.3,1.2,2.1,2.9,2.4,4.9c2.4-4.5,5.6-6.8,9.8-6.8c2.7,0,4.7,1,5.8,2.9c1.2,1.9,1.8,4.6,1.8,8.1V524.4z"/>
	<path d="M546.5,524.4h-2.4v-13.9c0-3.2-0.5-5.5-1.5-7c-1-1.5-2.5-2.3-4.5-2.3c-1,0-2,0.2-2.9,0.6c-0.9,0.4-1.8,0.9-2.5,1.6
		c-0.8,0.7-1.4,1.5-2,2.4c-0.6,0.9-1,2-1.3,3.1v15.4H527v-13.9c0-3.2-0.5-5.5-1.4-7s-2.4-2.2-4.5-2.2c-1,0-2,0.2-2.9,0.6
		c-0.9,0.4-1.8,0.9-2.5,1.6c-0.8,0.7-1.4,1.5-2,2.4s-1,2-1.4,3.1v15.5h-2.4v-25h2.3v6c1-2,2.4-3.6,4-4.7c1.7-1.1,3.5-1.7,5.5-1.7
		c2.1,0,3.8,0.6,5.1,1.9c1.3,1.2,2.1,2.9,2.4,4.9c2.4-4.5,5.6-6.8,9.8-6.8c2.7,0,4.7,1,5.8,2.9c1.2,1.9,1.8,4.6,1.8,8.1V524.4z"/>
	<path d="M553.8,493.8v-4.4h2.4v4.4H553.8z M553.8,524.4v-25h2.4v25H553.8z"/>
	<path d="M573.8,524.8c-1.7,0-3.3-0.4-4.8-1.1c-1.4-0.7-2.7-1.7-3.7-2.9s-1.9-2.6-2.4-4.1c-0.6-1.5-0.9-3.1-0.9-4.8
		c0-1.7,0.3-3.3,0.8-4.9c0.6-1.6,1.4-3,2.4-4.2c1-1.2,2.2-2.2,3.7-2.9c1.4-0.7,3-1.1,4.7-1.1c2.2,0,4.1,0.6,5.7,1.7
		c1.6,1.1,3,2.5,4.1,4.2v-5.4h2.2v25.4c0,1.7-0.3,3.2-1,4.5c-0.6,1.3-1.5,2.3-2.6,3.2s-2.3,1.5-3.7,1.9c-1.4,0.4-2.9,0.6-4.5,0.6
		c-1.4,0-2.7-0.1-3.9-0.4c-1.2-0.3-2.2-0.7-3-1.2s-1.7-1.1-2.4-1.8c-0.7-0.7-1.3-1.5-1.8-2.4l1.6-1.1c1,1.7,2.3,2.9,4,3.7
		c1.7,0.8,3.5,1.2,5.4,1.2c1.3,0,2.5-0.2,3.6-0.5c1.1-0.4,2.1-0.9,3-1.6c0.8-0.7,1.5-1.5,2-2.6c0.5-1,0.7-2.2,0.7-3.6v-5.5
		c-1,1.6-2.4,2.9-4.1,3.9C577.4,524.3,575.6,524.8,573.8,524.8z M574.4,522.7c1.1,0,2.1-0.2,3.1-0.6c1-0.4,1.9-0.9,2.7-1.6
		c0.8-0.6,1.5-1.4,2-2.2s0.9-1.6,1-2.4v-8.2c-0.4-1-0.9-1.8-1.5-2.7c-0.6-0.8-1.4-1.5-2.2-2.1c-0.8-0.6-1.7-1-2.6-1.4
		c-0.9-0.3-1.9-0.5-2.9-0.5c-1.5,0-2.8,0.3-4,1c-1.2,0.6-2.2,1.5-3,2.5c-0.8,1-1.4,2.2-1.9,3.5c-0.4,1.3-0.6,2.6-0.6,3.9
		c0,1.4,0.3,2.8,0.8,4.1c0.5,1.3,1.2,2.4,2.1,3.4c0.9,1,2,1.8,3.2,2.4S573,522.7,574.4,522.7z"/>
	<path d="M604.9,501.6c-2.2,0.1-4.2,0.7-5.9,2s-2.9,3-3.5,5.2v15.6h-2.4v-25h2.3v6.1c0.9-1.8,2-3.2,3.4-4.3c1.4-1.1,3-1.7,4.6-1.9
		c0.3,0,0.6,0,0.9,0s0.5,0,0.6,0V501.6z"/>
	<path d="M615.3,524.9c-1.2,0-2.2-0.2-3.2-0.6c-1-0.4-1.9-0.9-2.6-1.6c-0.8-0.7-1.3-1.5-1.8-2.4c-0.4-0.9-0.6-2-0.6-3s0.3-2.1,0.8-3
		c0.5-0.9,1.2-1.7,2.1-2.3c0.9-0.7,2-1.2,3.3-1.5c1.3-0.4,2.7-0.6,4.2-0.6c1.3,0,2.7,0.1,4.1,0.4c1.4,0.2,2.6,0.6,3.7,1v-2.4
		c0-2.4-0.7-4.2-2-5.6c-1.3-1.4-3.2-2.1-5.5-2.1c-1.2,0-2.5,0.3-3.9,0.8c-1.4,0.5-2.7,1.2-4.2,2.2l-0.9-1.6c3.2-2.2,6.2-3.3,9.1-3.3
		c3,0,5.4,0.9,7.1,2.6c1.7,1.7,2.6,4.2,2.6,7.2V521c0,0.8,0.4,1.2,1.1,1.2v2.2c-0.2,0-0.3,0.1-0.5,0.1c-0.2,0-0.3,0-0.5,0
		c-0.6,0-1.2-0.2-1.5-0.6c-0.4-0.4-0.6-1-0.7-1.6v-2.1c-1.2,1.5-2.6,2.7-4.4,3.5C619.3,524.5,617.3,524.9,615.3,524.9z M615.7,523
		c1.9,0,3.6-0.4,5.1-1.1c1.6-0.7,2.7-1.6,3.6-2.8c0.5-0.7,0.8-1.3,0.8-1.9v-4.4c-1.2-0.4-2.4-0.8-3.6-1c-1.2-0.2-2.5-0.3-3.9-0.3
		c-1.2,0-2.4,0.1-3.4,0.4c-1,0.3-1.9,0.6-2.6,1.1c-0.7,0.5-1.3,1.1-1.7,1.8c-0.4,0.7-0.6,1.4-0.6,2.3s0.2,1.6,0.5,2.4
		c0.3,0.7,0.8,1.4,1.3,1.9c0.6,0.5,1.3,0.9,2,1.2C614,522.8,614.8,523,615.7,523z"/>
	<path d="M645.8,523.2c-0.1,0.1-0.3,0.2-0.6,0.4c-0.3,0.2-0.7,0.3-1.2,0.5s-1,0.3-1.6,0.4c-0.6,0.1-1.2,0.2-1.9,0.2
		c-0.7,0-1.3-0.1-1.9-0.3c-0.6-0.2-1.1-0.5-1.6-0.9c-0.4-0.4-0.8-0.8-1.1-1.4s-0.4-1.2-0.4-1.9v-18.8h-3.5v-2h3.5v-8.5h2.4v8.5h5.8
		v2h-5.8v18.2c0,0.9,0.3,1.6,1,2.1c0.6,0.5,1.4,0.7,2.2,0.7c1,0,1.8-0.2,2.6-0.5s1.2-0.6,1.3-0.6L645.8,523.2z"/>
	<path d="M650.1,493.8v-4.4h2.4v4.4H650.1z M650.1,524.4v-25h2.4v25H650.1z"/>
	<path d="M670.5,524.9c-1.8,0-3.4-0.3-4.9-1c-1.5-0.7-2.8-1.6-3.9-2.8c-1.1-1.2-1.9-2.6-2.5-4.1c-0.6-1.6-0.9-3.2-0.9-4.9
		c0-1.8,0.3-3.4,0.9-5c0.6-1.6,1.5-2.9,2.6-4.1s2.4-2.1,3.9-2.8c1.5-0.7,3.1-1,4.8-1s3.3,0.3,4.8,1c1.5,0.7,2.8,1.6,3.9,2.8
		c1.1,1.2,2,2.6,2.6,4.1c0.6,1.6,0.9,3.2,0.9,5c0,1.7-0.3,3.4-0.9,4.9c-0.6,1.6-1.5,2.9-2.6,4.1c-1.1,1.2-2.4,2.1-3.9,2.8
		C673.8,524.5,672.2,524.9,670.5,524.9z M660.7,512.1c0,1.5,0.3,2.9,0.8,4.2c0.5,1.3,1.2,2.4,2.1,3.4c0.9,1,1.9,1.7,3.1,2.3
		c1.2,0.6,2.4,0.8,3.8,0.8s2.6-0.3,3.8-0.8c1.2-0.6,2.2-1.3,3.1-2.3c0.9-1,1.6-2.1,2.1-3.4s0.8-2.7,0.8-4.2c0-1.5-0.3-2.9-0.8-4.2
		s-1.2-2.4-2.1-3.4c-0.9-1-1.9-1.8-3.1-2.3s-2.4-0.9-3.8-0.9s-2.6,0.3-3.8,0.9c-1.2,0.6-2.2,1.4-3.1,2.4c-0.9,1-1.6,2.2-2.1,3.5
		C660.9,509.2,660.7,510.6,660.7,512.1z"/>
	<path d="M708.8,524.4h-2.4v-13.9c0-3.2-0.5-5.6-1.4-7.1s-2.4-2.2-4.3-2.2c-1.1,0-2.1,0.2-3.1,0.6c-1,0.4-2,0.9-2.9,1.6
		c-0.9,0.7-1.7,1.5-2.4,2.5c-0.7,0.9-1.2,2-1.5,3v15.5h-2.4v-25h2.3v6c0.5-1,1.1-1.8,1.9-2.6c0.8-0.8,1.6-1.5,2.5-2
		c0.9-0.6,1.9-1,3-1.3c1.1-0.3,2.1-0.5,3.3-0.5c2.7,0,4.6,1,5.8,2.9c1.1,1.9,1.7,4.6,1.7,8.2V524.4z"/>
	<path d="M748.9,496c-2.2-2.5-5.3-3.7-9.4-3.7c-3.3,0-5.8,0.6-7.3,1.9c-1.5,1.3-2.3,3-2.3,5.1c0,1.1,0.2,2,0.6,2.7
		c0.4,0.7,1,1.3,1.8,1.8s1.8,0.9,3.1,1.3c1.2,0.4,2.8,0.7,4.5,1.1c1.8,0.4,3.5,0.8,5,1.3s2.8,1,3.8,1.8c1,0.7,1.8,1.6,2.4,2.6
		c0.6,1,0.8,2.3,0.8,3.8c0,1.5-0.3,2.8-0.9,3.9s-1.4,2.1-2.5,2.8c-1.1,0.8-2.4,1.3-3.8,1.7c-1.5,0.4-3.1,0.6-5,0.6
		c-5.3,0-9.8-1.7-13.5-5.1l1.3-2c1.4,1.5,3.2,2.7,5.3,3.6c2.1,0.9,4.4,1.3,7,1.3c3,0,5.3-0.5,7-1.6s2.5-2.7,2.5-4.9
		c0-1.1-0.2-2.1-0.7-2.9s-1.1-1.5-2-2s-2-1.1-3.3-1.5c-1.3-0.4-2.9-0.8-4.7-1.2c-1.8-0.4-3.4-0.8-4.8-1.2c-1.4-0.4-2.6-1-3.5-1.6
		c-0.9-0.7-1.7-1.4-2.1-2.4c-0.5-0.9-0.7-2.1-0.7-3.5c0-1.5,0.3-2.9,0.9-4.1s1.4-2.2,2.5-3c1.1-0.8,2.3-1.4,3.8-1.8
		c1.5-0.4,3.1-0.6,4.9-0.6c2.2,0,4.2,0.3,5.9,1c1.7,0.7,3.3,1.7,4.7,3L748.9,496z"/>
	<path d="M767.9,524.9c-1.8,0-3.4-0.3-4.9-1c-1.5-0.7-2.8-1.6-3.9-2.8c-1.1-1.2-1.9-2.6-2.5-4.1c-0.6-1.6-0.9-3.2-0.9-4.9
		c0-1.8,0.3-3.4,0.9-5c0.6-1.6,1.5-2.9,2.6-4.1s2.4-2.1,3.9-2.8c1.5-0.7,3.1-1,4.8-1s3.3,0.3,4.8,1c1.5,0.7,2.8,1.6,3.9,2.8
		c1.1,1.2,2,2.6,2.6,4.1c0.6,1.6,0.9,3.2,0.9,5c0,1.7-0.3,3.4-0.9,4.9c-0.6,1.6-1.5,2.9-2.6,4.1c-1.1,1.2-2.4,2.1-3.9,2.8
		C771.2,524.5,769.6,524.9,767.9,524.9z M758.1,512.1c0,1.5,0.3,2.9,0.8,4.2c0.5,1.3,1.2,2.4,2.1,3.4c0.9,1,1.9,1.7,3.1,2.3
		c1.2,0.6,2.4,0.8,3.8,0.8s2.6-0.3,3.8-0.8c1.2-0.6,2.2-1.3,3.1-2.3c0.9-1,1.6-2.1,2.1-3.4s0.8-2.7,0.8-4.2c0-1.5-0.3-2.9-0.8-4.2
		s-1.2-2.4-2.1-3.4c-0.9-1-1.9-1.8-3.1-2.3s-2.4-0.9-3.8-0.9s-2.6,0.3-3.8,0.9c-1.2,0.6-2.2,1.4-3.1,2.4c-0.9,1-1.6,2.2-2.1,3.5
		C758.4,509.2,758.1,510.6,758.1,512.1z"/>
	<path d="M786,489.4h2.4v30.1c0,0.9,0.3,1.7,0.8,2.2c0.5,0.5,1.3,0.8,2.2,0.8c0.4,0,0.8,0,1.3-0.1c0.5-0.1,1-0.2,1.4-0.4l0.5,1.9
		c-0.5,0.2-1.2,0.4-2,0.6c-0.8,0.1-1.5,0.2-2.1,0.2c-1.3,0-2.4-0.4-3.2-1.2c-0.8-0.8-1.2-1.9-1.2-3.3V489.4z"/>
	<path d="M806,524.9c-5.3,0-8-3.7-8-11v-14.4h2.4v14.1c0,6.1,2.1,9.2,6.3,9.2c1.1,0,2.1-0.2,3.1-0.6c1-0.4,1.9-0.9,2.8-1.5
		s1.6-1.4,2.3-2.4c0.7-0.9,1.2-2,1.6-3.1v-15.7h2.4V521c0,0.8,0.3,1.2,1,1.2v2.2c-0.2,0-0.3,0-0.4,0c-0.1,0-0.2,0-0.3,0
		c-0.6,0-1.2-0.2-1.7-0.6s-0.7-0.9-0.7-1.6v-3.7c-1.1,2-2.6,3.6-4.5,4.7C810.3,524.3,808.2,524.9,806,524.9z"/>
	<path d="M837.6,523.2c-0.1,0.1-0.3,0.2-0.6,0.4c-0.3,0.2-0.7,0.3-1.2,0.5s-1,0.3-1.6,0.4c-0.6,0.1-1.2,0.2-1.9,0.2
		c-0.7,0-1.3-0.1-1.9-0.3c-0.6-0.2-1.1-0.5-1.6-0.9c-0.4-0.4-0.8-0.8-1.1-1.4s-0.4-1.2-0.4-1.9v-18.8H824v-2h3.5v-8.5h2.4v8.5h5.8v2
		h-5.8v18.2c0,0.9,0.3,1.6,1,2.1c0.6,0.5,1.4,0.7,2.2,0.7c1,0,1.8-0.2,2.6-0.5s1.2-0.6,1.3-0.6L837.6,523.2z"/>
	<path d="M841.8,493.8v-4.4h2.4v4.4H841.8z M841.8,524.4v-25h2.4v25H841.8z"/>
	<path d="M862.2,524.9c-1.8,0-3.4-0.3-4.9-1c-1.5-0.7-2.8-1.6-3.9-2.8c-1.1-1.2-1.9-2.6-2.5-4.1c-0.6-1.6-0.9-3.2-0.9-4.9
		c0-1.8,0.3-3.4,0.9-5c0.6-1.6,1.5-2.9,2.6-4.1s2.4-2.1,3.9-2.8c1.5-0.7,3.1-1,4.8-1s3.3,0.3,4.8,1c1.5,0.7,2.8,1.6,3.9,2.8
		c1.1,1.2,2,2.6,2.6,4.1c0.6,1.6,0.9,3.2,0.9,5c0,1.7-0.3,3.4-0.9,4.9c-0.6,1.6-1.5,2.9-2.6,4.1c-1.1,1.2-2.4,2.1-3.9,2.8
		C865.5,524.5,863.9,524.9,862.2,524.9z M852.4,512.1c0,1.5,0.3,2.9,0.8,4.2c0.5,1.3,1.2,2.4,2.1,3.4c0.9,1,1.9,1.7,3.1,2.3
		c1.2,0.6,2.4,0.8,3.8,0.8s2.6-0.3,3.8-0.8c1.2-0.6,2.2-1.3,3.1-2.3c0.9-1,1.6-2.1,2.1-3.4s0.8-2.7,0.8-4.2c0-1.5-0.3-2.9-0.8-4.2
		s-1.2-2.4-2.1-3.4c-0.9-1-1.9-1.8-3.1-2.3s-2.4-0.9-3.8-0.9s-2.6,0.3-3.8,0.9c-1.2,0.6-2.2,1.4-3.1,2.4c-0.9,1-1.6,2.2-2.1,3.5
		C852.7,509.2,852.4,510.6,852.4,512.1z"/>
	<path d="M900.6,524.4h-2.4v-13.9c0-3.2-0.5-5.6-1.4-7.1s-2.4-2.2-4.3-2.2c-1.1,0-2.1,0.2-3.1,0.6c-1,0.4-2,0.9-2.9,1.6
		c-0.9,0.7-1.7,1.5-2.4,2.5c-0.7,0.9-1.2,2-1.5,3v15.5h-2.4v-25h2.3v6c0.5-1,1.1-1.8,1.9-2.6c0.8-0.8,1.6-1.5,2.5-2
		c0.9-0.6,1.9-1,3-1.3c1.1-0.3,2.1-0.5,3.3-0.5c2.7,0,4.6,1,5.8,2.9c1.1,1.9,1.7,4.6,1.7,8.2V524.4z"/>
	<path d="M915.7,524.9c-1.9,0-3.8-0.3-5.5-1c-1.8-0.6-3.3-1.6-4.6-2.9l1.2-1.6c1.3,1.2,2.7,2.1,4.2,2.7c1.4,0.6,3,0.9,4.8,0.9
		c2.2,0,3.9-0.5,5.3-1.4c1.3-0.9,2-2.2,2-3.8c0-0.8-0.2-1.4-0.5-1.9c-0.3-0.5-0.8-1-1.5-1.3c-0.7-0.4-1.5-0.7-2.5-1
		c-1-0.3-2.1-0.6-3.5-0.9c-1.4-0.3-2.6-0.6-3.7-1c-1-0.3-1.9-0.7-2.6-1.2s-1.2-1-1.5-1.6c-0.3-0.6-0.5-1.5-0.5-2.4
		c0-1.2,0.2-2.3,0.7-3.3c0.5-0.9,1.1-1.7,2-2.3c0.8-0.6,1.8-1.1,2.9-1.4c1.1-0.3,2.3-0.5,3.5-0.5c2,0,3.7,0.3,5.2,1
		c1.5,0.7,2.7,1.5,3.5,2.5l-1.3,1.3c-0.8-1-1.9-1.7-3.2-2.2c-1.3-0.5-2.7-0.7-4.2-0.7c-0.9,0-1.8,0.1-2.6,0.3
		c-0.8,0.2-1.5,0.5-2.1,0.9c-0.6,0.4-1.1,1-1.4,1.6c-0.4,0.7-0.5,1.4-0.5,2.3c0,0.7,0.1,1.3,0.4,1.8c0.2,0.4,0.6,0.8,1.2,1.2
		c0.5,0.3,1.2,0.6,2,0.8c0.8,0.2,1.8,0.5,3,0.8c1.6,0.4,3,0.8,4.2,1.1c1.2,0.4,2.2,0.8,3,1.3c0.8,0.5,1.4,1.1,1.9,1.8
		c0.4,0.7,0.6,1.6,0.6,2.7c0,2.2-0.9,4-2.6,5.4C921,524.2,918.6,524.9,915.7,524.9z"/>
</g>
<g>
	<path d="M539.8,81.3c-6.2,2.3-10.3,6.6-12.5,12.8c-2.2,6.2-3.3,16.2-3.3,29.9v270.8c0,13.7,1.1,23.6,3.4,29.9
		c2.3,6.2,6.5,10.5,12.7,12.8c6.2,2.3,16,3.7,29.6,4.3v10.9c-25.1-1.1-60.8-1.6-107.2-1.6c-51.8,0-89.9,0.5-114.4,1.6v-10.9
		c13.8-0.5,23.8-2,29.9-4.3c6.2-2.3,10.3-6.6,12.5-12.8c2.2-6.2,3.3-16.2,3.3-29.9V123.9c0-13.7-1.2-23.6-3.4-29.9
		c-2.3-6.2-6.5-10.5-12.7-12.8c-6.2-2.3-16-3.7-29.6-4.3V66.1c24.4,1.1,62.6,1.6,114.4,1.6c46.4,0,82.1-0.5,107.2-1.6V77
		C556,77.6,546,79,539.8,81.3z"/>
</g>
<g>
	<path d="M747.9,382.8c-4.3-7.5-8-15.5-10.9-23.7c-2.9-8.3-4.9-16.8-6.1-25.5c-1.2-8.7-1.5-17.5-0.8-26.3c0.2-2.2,0.4-4.4,0.6-6.5
		c0.3-2.2,0.6-4.3,0.9-6.5c0.5-2.1,0.8-4.3,1.3-6.4c0.6-2.1,1-4.3,1.7-6.4c4.8-17,13.3-32.9,24.5-46.6c1-1.2,2-2.3,3-3.5
		c-1.8-1.3-3.6-2.5-5.5-3.8c-30.4-20.9-51-35.4-61.8-43.7c-10.8-8.2-19.2-17-25.4-26.3c-6.1-9.3-9.2-20.4-9.2-33.4
		c0-15.8,5.2-28.1,15.5-36.8c10.3-8.8,23.8-13.2,40.3-13.2c18.2,0,34.2,5.9,48,17.6c13.9,11.8,24.9,27,33,45.8
		c8.1,18.8,12.9,38.4,14.3,58.9h0.4c4-1.6,8-3,12.2-4.2c0-59.7,0.9-102.1,2.7-127.3H814c-1.1,8.2-2.5,14.2-4.3,18
		c-1.8,3.8-4.4,5.7-7.7,5.7c-2.3,0-4.7-0.6-7.2-1.7c-2.5-1.1-6.3-3.1-11.5-5.9c-12.1-6.7-24.6-11.9-37.6-15.8c-13-3.9-30-5.8-51-5.8
		c-24.6,0-47.1,3.7-67.5,11c-20.5,7.4-36.9,18.7-49.3,34.1c-12.4,15.3-18.6,34.2-18.6,56.7c0,18.6,4.2,35,12.7,49.3
		c8.5,14.3,19.1,26.8,32,37.5c12.9,10.7,30.4,23.3,52.5,37.9c18.2,11.9,32.7,22.6,43.8,32c11,9.4,19.8,19.7,26.3,31
		c6.5,11.3,9.7,24.1,9.7,38.3c0,16.5-5.9,29.4-17.6,38.7c-11.7,9.3-27.8,13.9-48,13.9c-32.6,0-56.7-13.3-72.3-40
		c-15.7-26.7-24.6-61.3-27-103.9h-12.5c0,76.8-0.8,128.9-2.4,156.2H569c1.2-8.4,2.8-14.5,4.5-18.1c1.8-3.7,4.4-5.5,7.7-5.5
		c4.1,0,10.2,2.5,18.4,7.6c12.8,6.1,26.6,11,41.2,14.6c14.7,3.6,33.2,5.4,55.7,5.4c27.6,0,52.6-3.9,75-11.8
		c9.2-3.2,17.6-7.1,25.2-11.7c-5.4-3.2-10.5-6.7-15.3-10.6C768.1,411,756.6,397.8,747.9,382.8z"/>
	<path d="M801.9,205.3c6-3.4,12.2-6.4,18.7-8.9h-8.8c-4,1.6-8,3.5-11.8,5.5c-7.7,4-15.2,8.8-22,14.4c-5.7,4.6-11,9.6-15.8,15
		c1.6,1.2,3.3,2.3,4.9,3.4C776.8,223.1,788.5,213,801.9,205.3z"/>
	<path d="M998.6,304.3c-2-17.5-7.5-34.7-16.3-50c-8.7-15.4-20.5-28.8-34.3-39.5c-6.9-5.3-14.3-10-22.1-13.9c-1.9-1-4-1.8-5.9-2.8
		c-2-0.9-4-1.7-6.1-2.5c-2-0.8-4.1-1.5-6.2-2.2c-2.1-0.7-4.1-1.3-6.3-1.9c-16.8-4.7-34.3-6.2-51.6-4.4c-8.7,0.9-17.2,2.6-25.6,5.1
		c-0.1,0-0.2,0.1-0.3,0.1c0,1,0,2,0,3c0.4-0.1,0.8-0.3,1.1-0.4c8.1-2.7,16.5-4.5,24.9-5.5c16.9-1.9,34.3-0.5,50.6,4.5
		c2,0.7,4,1.3,6.1,2c2,0.7,4,1.5,6,2.3c1.9,0.9,3.9,1.7,5.8,2.7c1.8,0.9,3.5,1.8,5.2,2.7c7.7,2.7,14.6,6.3,19.4,10.4
		c15.7,13.3,30.7,29.8,39.7,48.2c20.9,42.9,14.1,95.9-12.3,134.6c-23.9,34.8-67.3,49.1-107.8,53.9c0,0,1.2-0.4,3.4-1.3
		c-3.9,0.7-8.2,0.6-12.9-0.6c0.5-0.1,1-0.1,1.5-0.2c-9.1-0.4-18.2-1.8-27-4.1c-8.3-2.1-16.3-5.2-23.9-9.1c-2-1-4-2.1-6-3.2
		c-0.3,0.2-0.6,0.3-0.9,0.5c2.1,1.3,4.3,2.5,6.5,3.6c7.6,4.1,15.6,7.5,23.9,10.1c2,0.7,4.1,1.2,6.3,1.8c2.1,0.6,4.2,0.9,6.4,1.5
		c2.1,0.5,4.3,0.8,6.4,1.2c2.1,0.4,4.3,0.6,6.4,0.9c8.7,1,17.5,1.2,26.2,0.5c8.7-0.7,17.4-2.3,25.9-4.8c2-0.6,4.1-1.3,6.3-2
		c2-0.7,4.1-1.5,6.2-2.3c2-0.9,4-1.7,6.1-2.7c1.9-1,4-1.9,5.9-2.9c15.6-8.3,29.5-20,40.7-33.7c5.6-6.9,10.4-14.4,14.5-22.3
		c4.1-7.8,7.5-16.1,9.8-24.7C999.2,339.8,1000.6,321.8,998.6,304.3z"/>
	<path d="M820.6,196.5c1.1-0.4,2.2-0.8,3.3-1.2c0-1,0-2,0-3c-4.1,1.2-8.2,2.6-12.2,4.2H820.6z"/>
	<path d="M782,421.3c-13.4-10.8-24.5-24.3-32.4-39.7c-7.9-15.2-12.5-31.9-13.9-48.8c-0.7-8.5-0.6-16.9,0.3-25.3
		c0.3-2.1,0.5-4.1,0.8-6.3c0.4-2,0.6-4.1,1.1-6.2c0.5-2,0.8-4.1,1.4-6.2c0.6-2,1-4,1.7-6.1c2.4-8,5.5-15.8,9.4-23.3
		c4-7.4,8.5-14.5,13.6-21.2c1-1.3,2-2.5,3-3.7c-1.6-1.1-3.2-2.3-4.9-3.4c-1,1.1-2,2.3-3,3.5c-11.2,13.6-19.7,29.5-24.5,46.6
		c-0.6,2.1-1.1,4.3-1.7,6.4c-0.5,2.1-0.8,4.3-1.3,6.4c-0.4,2.2-0.6,4.3-0.9,6.5c-0.3,2.1-0.5,4.3-0.6,6.5
		c-0.6,8.8-0.4,17.7,0.8,26.3c1.2,8.7,3.2,17.2,6.1,25.5c2.9,8.2,6.5,16.1,10.9,23.7c8.7,15,20.2,28.3,33.6,39.1
		c4.8,3.9,9.9,7.4,15.3,10.6c0.3-0.2,0.6-0.3,0.9-0.5C792.2,428.8,786.9,425.3,782,421.3z"/>
	<path d="M865.6,216.8c-15.3,37.6,27.6,45.4,49.2,63.5c18.8,15.7,30.1,38,32.8,62.3c4.4,39.2-19.2,67-42.7,84.6
		c-9.2,9.1-21,16.3-34.5,21c2.6-0.2,5.2-0.5,7.8-0.8c8.4-1.2,16.6-3.2,24.6-5.9c1.9-0.7,4-1.4,5.9-2.2c1.9-0.8,3.9-1.6,5.8-2.5
		c1.9-0.9,3.9-1.7,5.7-2.7c1.8-1,3.8-1.9,5.5-2.9c7.3-4.1,14.2-8.9,20.5-14.4c6.4-5.4,12.2-11.5,17.4-18c5.2-6.4,9.9-13.4,13.8-20.8
		c3.9-7.4,7-15.2,9.4-23.2c4.8-16,6.4-33,4.7-49.7s-6.7-33-14.5-48c-4-7.5-8.6-14.5-13.9-21.1c-5.3-6.5-11.2-12.6-17.8-18
		c-6.5-5.4-13.6-10.2-21.1-14.3c-0.2-0.1-0.4-0.2-0.5-0.3C902.1,196,874,196.1,865.6,216.8z"/>
	<path d="M945.3,218c6.5,5.4,12.4,11.5,17.8,18c5.3,6.5,9.9,13.6,13.9,21.1c7.8,14.9,12.8,31.3,14.5,48s0.1,33.7-4.7,49.7
		c-2.4,8-5.5,15.8-9.4,23.2c-3.9,7.4-8.6,14.4-13.8,20.8c-5.2,6.5-11,12.6-17.4,18c-6.4,5.4-13.3,10.2-20.5,14.4
		c-1.7,1-3.7,1.9-5.5,2.9c-1.8,0.9-3.8,1.7-5.7,2.7c-1.9,0.9-3.9,1.7-5.8,2.5c-1.9,0.8-4,1.5-5.9,2.2c-8,2.7-16.2,4.7-24.6,5.9
		c-2.6,0.4-5.2,0.6-7.8,0.8c-1.5,0.5-3.1,1-4.6,1.5c0.2-0.1,0.4-0.3,0.5-0.4c-0.1,0-0.2,0-0.3,0.1c-2.1,0.9-3.4,1.3-3.4,1.3
		c40.5-4.9,83.8-19.1,107.8-53.9c26.4-38.7,33.2-91.7,12.3-134.6c-8.9-18.4-23.9-35-39.7-48.2c-4.8-4.1-11.7-7.7-19.4-10.4
		c0.2,0.1,0.4,0.2,0.5,0.3C931.6,207.8,938.7,212.6,945.3,218z"/>
	<path d="M877.6,444c7.7-3.8,17.5-9.4,27.3-16.8c21.6-21.3,29.2-52.5,13-84c-16.8-32.9-68-45.8-73.4-86.5c-6.4,7.5-10.1,21.9-5,30.9
		c5.6,9.8,14.8,16.9,23.7,23.7c31.8,23.8,43,37.2,42.9,75.1c0,12-6.7,25.2-15.4,37C888.3,431.5,883.8,439.1,877.6,444z"/>
	<path d="M869.9,448.2c0.2,0,0.3,0,0.5,0c13.5-4.7,25.3-11.9,34.5-21c-9.8,7.4-19.6,12.9-27.3,16.8
		C875.2,445.8,872.7,447.3,869.9,448.2z"/>
	<path d="M866.3,449.2c-0.2,0.1-0.4,0.3-0.5,0.4c1.6-0.5,3.1-1,4.6-1.5c-0.2,0-0.3,0-0.5,0C868.7,448.7,867.5,449,866.3,449.2z"/>
	<path d="M853.3,358.3c-2.7-2.2-5.5-4.4-8.1-6.7c-7.2-6.3-13.7-13.4-18.4-21.6c-6.4-11.3-9.2-25.3-4.7-37.6l-0.7,0.6
		c-9,11.8-14,26.7-7.6,41c5.2,11.6,15.3,20.2,25.5,27.8c1.6,1.2,3.3,2.4,4.9,3.6c8.7,6.3,17.4,12.6,24.1,21
		c12.9,16.3,11.1,58-13.7,62.2c4.3,0.2,8.5,0.2,12.8-0.1c7.4-6.3,16.1-15.1,23.4-25c0.5-1.8,0.9-3.6,1.3-5.4
		C897,388.5,873.4,374.1,853.3,358.3z"/>
	<path d="M867.3,448.4c-4.2,0.2-8.5,0.2-12.8,0.1c-0.5,0.1-1,0.2-1.5,0.2c4.7,1.2,9,1.3,12.9,0.6c0.2-0.1,0.3-0.1,0.5-0.2
		C866.7,448.9,867,448.6,867.3,448.4z"/>
	<path d="M866.4,449.1c-0.2,0.1-0.3,0.1-0.5,0.2c0.1,0,0.2,0,0.3-0.1C866.3,449.2,866.4,449.2,866.4,449.1z"/>
	<path d="M867.3,448.4c0.3,0,0.6,0,0.9,0c2.5-1.1,5.7-2.5,9.4-4.4c6.3-4.9,10.7-12.5,13.1-20.5C883.4,433.3,874.7,442.1,867.3,448.4
		z"/>
	<path d="M867.3,448.4c-0.3,0.2-0.5,0.5-0.8,0.7c0.5-0.2,1.1-0.5,1.7-0.7C867.9,448.4,867.6,448.4,867.3,448.4z"/>
	<path d="M877.6,444c-3.7,1.8-6.9,3.3-9.4,4.4c0.6,0,1.1-0.1,1.7-0.1C872.7,447.3,875.2,445.8,877.6,444z"/>
	<path d="M868.2,448.4c-0.6,0.3-1.2,0.5-1.7,0.7c-0.1,0-0.1,0.1-0.2,0.1c1.2-0.2,2.5-0.6,3.6-1C869.3,448.3,868.8,448.3,868.2,448.4
		z"/>
</g>
<g>
	<path d="M343.9,427.3c-2-5-5-7.5-8.9-7.5c-2.8,0-6.5,1.5-11.1,4.5c-10.8,7.6-20.7,13.8-29.8,18.7c-9.1,4.9-19.4,8.8-31.1,11.9
		c-11.6,3.1-24.8,4.6-39.4,4.6c-40.9,0-76.7-7.8-107.4-23.3c-30.7-15.5-54.5-38.1-71.4-67.6C27.8,339,19.3,303.9,19.3,263.1
		c0-39.9,8.7-75.1,26.1-105.8c17.4-30.7,41.5-54.5,72.5-71.4c31-16.9,66.4-25.4,106.2-25.4c21.5,0,39.9,3.1,55.2,9.3
		c15.3,6.2,30.1,14.8,44.6,25.9c4.1,3.2,7.6,4.8,10.6,4.8c7.4,0,12-10.8,13.8-32.3h12.4c-1.4,25.6-2.1,70.7-2.1,135.5h-12.4
		c-1.8-19.2-4.3-35.3-7.5-48.3c-3.3-13-8.2-24.6-15-34.9c-6.7-10.3-15.9-19.3-27.5-26.9c-16.6-10.8-33.3-16.1-50.3-16.1
		c-25.9,0-46.4,9.1-61.5,27.4s-25.6,41.1-31.5,68.4c-5.9,27.3-8.9,56.6-8.9,87.9s3,60.5,8.9,87.9c5.9,27.3,16.4,50.1,31.5,68.4
		c15.1,18.3,35.6,27.4,61.5,27.4c16.9,0,33.7-5.4,50.3-16.1c11.6-7.2,20.8-16.1,27.5-26.7c6.7-10.6,11.7-23,15-37.2
		c3.3-14.2,5.8-32.1,7.5-53.6h12.4c0,67.2,0.7,114.1,2.1,140.8h-12.4C347.3,440.5,345.9,432.4,343.9,427.3z"/>
</g>
</svg>
