<?xml version="1.0" encoding="utf-8"?>
<!-- Generator: Adobe Illustrator 21.0.2, SVG Export Plug-In . SVG Version: 6.00 Build 0)  -->
<svg version="1.1" id="Layer_1" xmlns="http://www.w3.org/2000/svg" xmlns:xlink="http://www.w3.org/1999/xlink" x="0px" y="0px"
	 viewBox="0 0 216 215.5" style="enable-background:new 0 0 216 215.5;" xml:space="preserve">
<g>
	<path d="M43.2,188.2c-10.5-8.5-19.5-18.9-26.3-30.6c-3.4-5.9-6.3-12.1-8.5-18.5c-2.2-6.5-3.8-13.1-4.8-19.9
		c-0.9-6.8-1.2-13.7-0.6-20.6c0.1-1.7,0.3-3.5,0.5-5.1c0.2-1.7,0.4-3.4,0.7-5.1c0.4-1.7,0.6-3.4,1-5c0.4-1.7,0.8-3.4,1.3-5
		c3.7-13.3,10.4-25.8,19.2-36.4c4.4-5.3,9.3-10.2,14.7-14.5c5.3-4.3,11.2-8.1,17.2-11.2s12.5-5.8,19-7.6c6.6-1.9,13.2-3.2,20-4
		C110.2,3.2,123.9,4.3,137,8c1.7,0.5,3.2,0.9,4.9,1.5c1.6,0.6,3.2,1.1,4.8,1.7s3.2,1.2,4.8,1.9c1.5,0.7,3.1,1.4,4.6,2.2
		c6.1,3,11.9,6.7,17.3,10.9c10.8,8.4,20.1,18.9,26.9,30.9c6.8,12,11.2,25.4,12.7,39.1c1.6,13.8,0.5,27.8-3.3,41.1
		c-1.9,6.7-4.5,13.2-7.7,19.3c-3.2,6.1-7,12-11.4,17.4c-8.8,10.7-19.6,19.9-31.8,26.4c-1.5,0.8-3.1,1.5-4.6,2.3
		c-1.6,0.7-3.2,1.4-4.8,2.1c-1.6,0.6-3.2,1.2-4.8,1.8c-1.7,0.6-3.3,1.1-4.9,1.6c-6.6,1.9-13.5,3.2-20.2,3.7
		c-6.8,0.6-13.8,0.4-20.5-0.4c-1.7-0.2-3.4-0.4-5-0.7s-3.4-0.6-5-0.9c-1.7-0.4-3.3-0.7-5-1.2c-1.7-0.5-3.3-0.9-4.9-1.4
		c-6.5-2.1-12.7-4.7-18.7-7.9C54.1,196.2,48.5,192.4,43.2,188.2z M43.6,187.8c5.3,4.2,10.9,7.8,16.9,10.9c6,3,12.2,5.5,18.7,7.1
		c12.9,3.5,26.5,4.2,39.6,2.4c6.6-0.9,13-2.5,19.2-4.6c1.5-0.6,3.1-1.1,4.6-1.7s3-1.2,4.5-1.9c1.5-0.7,3-1.4,4.5-2.1
		c1.4-0.8,3-1.5,4.3-2.3c5.7-3.2,11.1-7,16.1-11.2s9.6-9,13.6-14.1c4.1-5,7.8-10.5,10.8-16.3c3-5.8,5.5-11.9,7.3-18.1
		c3.7-12.5,5-25.8,3.7-38.9s-5.3-25.8-11.4-37.5c-3.1-5.8-6.7-11.4-10.9-16.5c-4.2-5.1-8.8-9.9-13.9-14.1c-5.1-4.2-10.7-8-16.5-11.2
		c-1.4-0.8-3-1.5-4.5-2.3c-1.5-0.7-3-1.4-4.5-2.1c-1.5-0.6-3.1-1.2-4.7-1.8s-3.2-1-4.8-1.6c-12.7-3.9-26.4-5-39.6-3.5
		C90.1,7,83.6,8.5,77.3,10.6c-6.3,2.2-12.4,4.9-18.1,8.2c-11.5,6.6-21.5,15.6-29.7,25.9c-4,5.2-7.6,10.8-10.7,16.6
		c-3,5.8-5.5,12-7.3,18.2c-0.5,1.6-0.9,3.2-1.3,4.8c-0.4,1.6-0.7,3.2-1.1,4.8c-0.4,1.6-0.6,3.2-0.9,4.8c-0.3,1.7-0.4,3.2-0.6,4.9
		c-0.6,6.6-0.8,13.2-0.2,19.8c1.1,13.2,4.7,26.3,10.9,38.2C24.4,168.7,33,179.3,43.6,187.8z"/>
</g>
<path d="M106.6,210.7c0,0,73-26,66.5-84.5c-2.1-19-10.9-36.4-25.6-48.7C130.5,63.3,97,57.2,108.9,27.8c8.9-22,46.2-14.4,60.6-2.3
	c12.3,10.4,24,23.3,31,37.7c16.3,33.6,11,75-9.6,105.3C172.2,195.7,138.3,206.8,106.6,210.7z"/>
<path d="M92.4,58.9c-5,5.8-7.9,17.1-3.9,24.2c4.4,7.7,11.6,13.2,18.6,18.6c24.8,18.6,33.6,29.1,33.6,58.8
	c-0.1,17.8-18.7,39-31.5,49.5c37.7-11.1,59.5-46.9,40.8-83.3C136.7,100.9,96.6,90.8,92.4,58.9C92.4,58.9,92.4,58.9,92.4,58.9z"/>
<path d="M99.1,209.1c17.1,4.5,27.9-9.6,30.4-24c4-23.1-14.5-34.3-30.2-46.7c-8-6.3-15.7-13.3-20.7-22.2S71.4,96.5,75,86.9l-0.6,0.4
	c-7.1,9.2-10.9,20.9-6,32c4,9.1,12,15.8,19.9,21.7c8,5.9,16.5,11.4,22.7,19.2C121.3,173.4,119.7,207,99.1,209.1"/>
</svg>
